<?xml version="1.0" encoding="utf-8" standalone="no"?>
<!DOCTYPE svg PUBLIC "-//W3C//DTD SVG 1.1//EN"
  "http://www.w3.org/Graphics/SVG/1.1/DTD/svg11.dtd">
<svg xmlns:xlink="http://www.w3.org/1999/xlink" width="659.52pt" height="501.12pt" viewBox="0 0 659.52 501.12" xmlns="http://www.w3.org/2000/svg" version="1.1">
 <metadata>
  <rdf:RDF xmlns:dc="http://purl.org/dc/elements/1.1/" xmlns:cc="http://creativecommons.org/ns#" xmlns:rdf="http://www.w3.org/1999/02/22-rdf-syntax-ns#">
   <cc:Work>
    <dc:type rdf:resource="http://purl.org/dc/dcmitype/StillImage"/>
    <dc:date>2026-06-23T16:30:06.244614</dc:date>
    <dc:format>image/svg+xml</dc:format>
    <dc:creator>
     <cc:Agent>
      <dc:title>Matplotlib v3.10.8, https://matplotlib.org/</dc:title>
     </cc:Agent>
    </dc:creator>
   </cc:Work>
  </rdf:RDF>
 </metadata>
 <defs>
  <style type="text/css">*{stroke-linejoin: round; stroke-linecap: butt}</style>
 </defs>
 <g id="figure_1">
  <g id="patch_1">
   <path d="M 0 501.12 
L 659.52 501.12 
L 659.52 0 
L 0 0 
z
" style="fill: #ffffff"/>
  </g>
  <g id="axes_1">
   <g id="patch_2">
    <path d="M 5.76 495.36 
L 653.76 495.36 
L 653.76 5.76 
L 5.76 5.76 
z
" clip-path="url(#p3c3ade0ef4)" style="fill: #ffffff"/>
   </g>
   <g id="patch_3">
    <path d="M 41.76 164.16 
L 121.248 164.16 
Q 128.448 164.16 128.448 156.96 
L 128.448 81.36 
Q 128.448 74.16 121.248 74.16 
L 41.76 74.16 
Q 34.56 74.16 34.56 81.36 
L 34.56 156.96 
Q 34.56 164.16 41.76 164.16 
z
" clip-path="url(#p3c3ade0ef4)" style="fill: #f8f9fb; stroke: #cdd3dc; stroke-width: 1.4; stroke-linejoin: miter"/>
   </g>
   <g id="patch_4">
    <path d="M 165.888 164.16 
L 245.376 164.16 
Q 252.576 164.16 252.576 156.96 
L 252.576 81.36 
Q 252.576 74.16 245.376 74.16 
L 165.888 74.16 
Q 158.688 74.16 158.688 81.36 
L 158.688 156.96 
Q 158.688 164.16 165.888 164.16 
z
" clip-path="url(#p3c3ade0ef4)" style="fill: #e5e3ef; stroke: #4c4a78; stroke-width: 2.4; stroke-linejoin: miter"/>
   </g>
   <g id="patch_5">
    <path d="M 290.016 164.16 
L 369.504 164.16 
Q 376.704 164.16 376.704 156.96 
L 376.704 81.36 
Q 376.704 74.16 369.504 74.16 
L 290.016 74.16 
Q 282.816 74.16 282.816 81.36 
L 282.816 156.96 
Q 282.816 164.16 290.016 164.16 
z
" clip-path="url(#p3c3ade0ef4)" style="fill: #f8f9fb; stroke: #cdd3dc; stroke-width: 1.4; stroke-linejoin: miter"/>
   </g>
   <g id="patch_6">
    <path d="M 414.144 164.16 
L 493.632 164.16 
Q 500.832 164.16 500.832 156.96 
L 500.832 81.36 
Q 500.832 74.16 493.632 74.16 
L 414.144 74.16 
Q 406.944 74.16 406.944 81.36 
L 406.944 156.96 
Q 406.944 164.16 414.144 164.16 
z
" clip-path="url(#p3c3ade0ef4)" style="fill: #f8f9fb; stroke: #cdd3dc; stroke-width: 1.4; stroke-linejoin: miter"/>
   </g>
   <g id="patch_7">
    <path d="M 538.272 164.16 
L 617.76 164.16 
Q 624.96 164.16 624.96 156.96 
L 624.96 81.36 
Q 624.96 74.16 617.76 74.16 
L 538.272 74.16 
Q 531.072 74.16 531.072 81.36 
L 531.072 156.96 
Q 531.072 164.16 538.272 164.16 
z
" clip-path="url(#p3c3ade0ef4)" style="fill: #f8f9fb; stroke: #cdd3dc; stroke-width: 1.4; stroke-linejoin: miter"/>
   </g>
   <g id="patch_8">
    <path d="M 41.76 318.96 
L 315.36 318.96 
Q 322.56 318.96 322.56 311.76 
L 322.56 246.96 
Q 322.56 239.76 315.36 239.76 
L 41.76 239.76 
Q 34.56 239.76 34.56 246.96 
L 34.56 311.76 
Q 34.56 318.96 41.76 318.96 
z
" clip-path="url(#p3c3ade0ef4)" style="fill: #e5e3ef; stroke: #cdd3dc; stroke-width: 1.4; stroke-linejoin: miter"/>
   </g>
   <g id="patch_9">
    <path d="M 347.76 318.96 
L 621.36 318.96 
Q 628.56 318.96 628.56 311.76 
L 628.56 246.96 
Q 628.56 239.76 621.36 239.76 
L 347.76 239.76 
Q 340.56 239.76 340.56 246.96 
L 340.56 311.76 
Q 340.56 318.96 347.76 318.96 
z
" clip-path="url(#p3c3ade0ef4)" style="fill: #e5e3ef; stroke: #cdd3dc; stroke-width: 1.4; stroke-linejoin: miter"/>
   </g>
   <g id="patch_10">
    <path d="M 41.76 412.56 
L 315.36 412.56 
Q 322.56 412.56 322.56 405.36 
L 322.56 340.56 
Q 322.56 333.36 315.36 333.36 
L 41.76 333.36 
Q 34.56 333.36 34.56 340.56 
L 34.56 405.36 
Q 34.56 412.56 41.76 412.56 
z
" clip-path="url(#p3c3ade0ef4)" style="fill: #e5e3ef; stroke: #cdd3dc; stroke-width: 1.4; stroke-linejoin: miter"/>
   </g>
   <g id="patch_11">
    <path d="M 347.76 412.56 
L 621.36 412.56 
Q 628.56 412.56 628.56 405.36 
L 628.56 340.56 
Q 628.56 333.36 621.36 333.36 
L 347.76 333.36 
Q 340.56 333.36 340.56 340.56 
L 340.56 405.36 
Q 340.56 412.56 347.76 412.56 
z
" clip-path="url(#p3c3ade0ef4)" style="fill: #e5e3ef; stroke: #cdd3dc; stroke-width: 1.4; stroke-linejoin: miter"/>
   </g>
   <g id="text_1">
    <text style="font-weight: 700; font-size: 14px; font-family: 'Microsoft YaHei', 'Microsoft YaHei UI', 'SimHei', 'Segoe UI', 'DejaVu Sans', sans-serif; text-anchor: middle; fill: #1a1f2b" x="81.504" y="107.175469" transform="rotate(-0 81.504 107.175469)">逻辑综合</text>
   </g>
   <g id="text_2">
    <text style="font-size: 9px; font-family: 'Microsoft YaHei', 'Microsoft YaHei UI', 'SimHei', 'Segoe UI', 'DejaVu Sans', sans-serif; text-anchor: middle; fill: #6b7280" x="81.504" y="141.7725" transform="rotate(-0 81.504 141.7725)">Synth</text>
   </g>
   <g id="text_3">
    <text style="font-weight: 700; font-size: 14px; font-family: 'Microsoft YaHei', 'Microsoft YaHei UI', 'SimHei', 'Segoe UI', 'DejaVu Sans', sans-serif; text-anchor: middle; fill: #4c4a78" x="205.632" y="107.175469" transform="rotate(-0 205.632 107.175469)">布图规划</text>
   </g>
   <g id="text_4">
    <text style="font-size: 9px; font-family: 'Microsoft YaHei', 'Microsoft YaHei UI', 'SimHei', 'Segoe UI', 'DejaVu Sans', sans-serif; text-anchor: middle; fill: #4c4a78" x="205.632" y="141.798516" transform="rotate(-0 205.632 141.798516)">Floorplan</text>
   </g>
   <g id="text_5">
    <text style="font-weight: 700; font-size: 14px; font-family: 'Microsoft YaHei', 'Microsoft YaHei UI', 'SimHei', 'Segoe UI', 'DejaVu Sans', sans-serif; text-anchor: middle; fill: #1a1f2b" x="329.76" y="107.175469" transform="rotate(-0 329.76 107.175469)">布局</text>
   </g>
   <g id="text_6">
    <text style="font-size: 9px; font-family: 'Microsoft YaHei', 'Microsoft YaHei UI', 'SimHei', 'Segoe UI', 'DejaVu Sans', sans-serif; text-anchor: middle; fill: #6b7280" x="329.76" y="141.798516" transform="rotate(-0 329.76 141.798516)">Place</text>
   </g>
   <g id="text_7">
    <text style="font-weight: 700; font-size: 14px; font-family: 'Microsoft YaHei', 'Microsoft YaHei UI', 'SimHei', 'Segoe UI', 'DejaVu Sans', sans-serif; text-anchor: middle; fill: #1a1f2b" x="453.888" y="107.175469" transform="rotate(-0 453.888 107.175469)">时钟树</text>
   </g>
   <g id="text_8">
    <text style="font-size: 9px; font-family: 'Microsoft YaHei', 'Microsoft YaHei UI', 'SimHei', 'Segoe UI', 'DejaVu Sans', sans-serif; text-anchor: middle; fill: #6b7280" x="453.888" y="141.798516" transform="rotate(-0 453.888 141.798516)">CTS</text>
   </g>
   <g id="text_9">
    <text style="font-weight: 700; font-size: 14px; font-family: 'Microsoft YaHei', 'Microsoft YaHei UI', 'SimHei', 'Segoe UI', 'DejaVu Sans', sans-serif; text-anchor: middle; fill: #1a1f2b" x="578.016" y="107.175469" transform="rotate(-0 578.016 107.175469)">布线</text>
   </g>
   <g id="text_10">
    <text style="font-size: 9px; font-family: 'Microsoft YaHei', 'Microsoft YaHei UI', 'SimHei', 'Segoe UI', 'DejaVu Sans', sans-serif; text-anchor: middle; fill: #6b7280" x="578.016" y="141.798516" transform="rotate(-0 578.016 141.798516)">Route</text>
   </g>
   <g id="text_11">
    <text style="font-weight: 700; font-size: 13px; font-family: 'Microsoft YaHei', 'Microsoft YaHei UI', 'SimHei', 'Segoe UI', 'DejaVu Sans', sans-serif; text-anchor: start; fill: #1a1f2b" x="34.56" y="222.006172" transform="rotate(-0 34.56 222.006172)">Floorplan 主要任务</text>
   </g>
   <g id="text_12">
    <text style="font-weight: 700; font-size: 13px; font-family: 'Microsoft YaHei', 'Microsoft YaHei UI', 'SimHei', 'Segoe UI', 'DejaVu Sans', sans-serif; text-anchor: start; fill: #1a1f2b" x="56.16" y="282.940078" transform="rotate(-0 56.16 282.940078)">① die / core 几何</text>
   </g>
   <g id="text_13">
    <text style="font-weight: 700; font-size: 13px; font-family: 'Microsoft YaHei', 'Microsoft YaHei UI', 'SimHei', 'Segoe UI', 'DejaVu Sans', sans-serif; text-anchor: start; fill: #1a1f2b" x="362.16" y="282.940078" transform="rotate(-0 362.16 282.940078)">② 宏摆放 &amp; 朝向</text>
   </g>
   <g id="text_14">
    <text style="font-weight: 700; font-size: 13px; font-family: 'Microsoft YaHei', 'Microsoft YaHei UI', 'SimHei', 'Segoe UI', 'DejaVu Sans', sans-serif; text-anchor: start; fill: #1a1f2b" x="56.16" y="376.540078" transform="rotate(-0 56.16 376.540078)">③ 电源规划 PG</text>
   </g>
   <g id="text_15">
    <text style="font-weight: 700; font-size: 13px; font-family: 'Microsoft YaHei', 'Microsoft YaHei UI', 'SimHei', 'Segoe UI', 'DejaVu Sans', sans-serif; text-anchor: start; fill: #1a1f2b" x="362.16" y="376.73" transform="rotate(-0 362.16 376.73)">④ 多电压 / blockage</text>
   </g>
   <g id="text_16">
    <text style="font-weight: 700; font-size: 18px; font-family: 'Microsoft YaHei', 'Microsoft YaHei UI', 'SimHei', 'Segoe UI', 'DejaVu Sans', sans-serif; text-anchor: middle; fill: #6b7280" x="143.568" y="124.117031" transform="rotate(-0 143.568 124.117031)">›</text>
   </g>
   <g id="text_17">
    <text style="font-weight: 700; font-size: 18px; font-family: 'Microsoft YaHei', 'Microsoft YaHei UI', 'SimHei', 'Segoe UI', 'DejaVu Sans', sans-serif; text-anchor: middle; fill: #6b7280" x="267.696" y="124.117031" transform="rotate(-0 267.696 124.117031)">›</text>
   </g>
   <g id="text_18">
    <text style="font-weight: 700; font-size: 18px; font-family: 'Microsoft YaHei', 'Microsoft YaHei UI', 'SimHei', 'Segoe UI', 'DejaVu Sans', sans-serif; text-anchor: middle; fill: #6b7280" x="391.824" y="124.117031" transform="rotate(-0 391.824 124.117031)">›</text>
   </g>
   <g id="text_19">
    <text style="font-weight: 700; font-size: 18px; font-family: 'Microsoft YaHei', 'Microsoft YaHei UI', 'SimHei', 'Segoe UI', 'DejaVu Sans', sans-serif; text-anchor: middle; fill: #6b7280" x="515.952" y="124.117031" transform="rotate(-0 515.952 124.117031)">›</text>
   </g>
   <g id="text_20">
    <text style="font-weight: 700; font-size: 17px; font-family: 'Microsoft YaHei', 'Microsoft YaHei UI', 'SimHei', 'Segoe UI', 'DejaVu Sans', sans-serif; text-anchor: start; fill: #4c4a78" x="34.56" y="39.241641" transform="rotate(-0 34.56 39.241641)">①</text>
   </g>
   <g id="text_21">
    <text style="font-weight: 700; font-size: 15px; font-family: 'Microsoft YaHei', 'Microsoft YaHei UI', 'SimHei', 'Segoe UI', 'DejaVu Sans', sans-serif; text-anchor: start; fill: #1a1f2b" x="64.8" y="38.983828" transform="rotate(-0 64.8 38.983828)">Floorplan 在 PnR 流程中的位置</text>
   </g>
  </g>
 </g>
 <defs>
  <clipPath id="p3c3ade0ef4">
   <rect x="5.76" y="5.76" width="648" height="489.6"/>
  </clipPath>
 </defs>
</svg>
