<?xml version="1.0" encoding="utf-8" standalone="no"?>
<!DOCTYPE svg PUBLIC "-//W3C//DTD SVG 1.1//EN"
  "http://www.w3.org/Graphics/SVG/1.1/DTD/svg11.dtd">
<svg xmlns:xlink="http://www.w3.org/1999/xlink" width="673.92pt" height="510.548125pt" viewBox="0 0 673.92 510.548125" xmlns="http://www.w3.org/2000/svg" version="1.1">
 <metadata>
  <rdf:RDF xmlns:dc="http://purl.org/dc/elements/1.1/" xmlns:cc="http://creativecommons.org/ns#" xmlns:rdf="http://www.w3.org/1999/02/22-rdf-syntax-ns#">
   <cc:Work>
    <dc:type rdf:resource="http://purl.org/dc/dcmitype/StillImage"/>
    <dc:date>2026-06-23T23:44:30.455240</dc:date>
    <dc:format>image/svg+xml</dc:format>
    <dc:creator>
     <cc:Agent>
      <dc:title>Matplotlib v3.10.8, https://matplotlib.org/</dc:title>
     </cc:Agent>
    </dc:creator>
   </cc:Work>
  </rdf:RDF>
 </metadata>
 <defs>
  <style type="text/css">*{stroke-linejoin: round; stroke-linecap: butt}</style>
 </defs>
 <g id="figure_1">
  <g id="patch_1">
   <path d="M 0 510.548125 
L 673.92 510.548125 
L 673.92 0 
L 0 0 
z
" style="fill: #ffffff"/>
  </g>
  <g id="axes_1">
   <g id="patch_2">
    <path d="M 5.76 504.788125 
L 668.16 504.788125 
L 668.16 15.188125 
L 5.76 15.188125 
z
" clip-path="url(#pcb04562557)" style="fill: #ffffff"/>
   </g>
   <g id="FillBetweenPolyCollection_1">
    <defs>
     <path id="m4a6ffc57c8" d="M 102.96 -106.56 
L 102.96 -70.56 
L 165.06 -70.56 
L 227.16 -70.56 
L 289.26 -70.56 
L 351.36 -70.56 
L 351.36 -437.76 
L 351.36 -437.76 
L 289.26 -365.76 
L 227.16 -272.16 
L 165.06 -182.16 
L 102.96 -106.56 
z
" style="stroke: #fee2e2"/>
    </defs>
    <g clip-path="url(#pcb04562557)">
     <use xlink:href="#m4a6ffc57c8" x="0" y="510.548125" style="fill: #fee2e2; stroke: #fee2e2"/>
    </g>
   </g>
   <g id="line2d_1">
    <path d="M 77.76 439.988125 
L 77.76 40.388125 
" clip-path="url(#pcb04562557)" style="fill: none; stroke: #3a4252; stroke-width: 2; stroke-linecap: round"/>
   </g>
   <g id="line2d_2">
    <path d="M 77.76 439.988125 
L 369.36 439.988125 
" clip-path="url(#pcb04562557)" style="fill: none; stroke: #3a4252; stroke-width: 2; stroke-linecap: round"/>
   </g>
   <g id="patch_3">
    <path d="M 516.96 40.388125 
L 426.96 206.888125 
L 606.96 206.888125 
z
" clip-path="url(#pcb04562557)" style="fill: #dbeafe; stroke: #1d4ed8; stroke-width: 1.8; stroke-linejoin: miter"/>
   </g>
   <g id="patch_4">
    <path d="M 394.56 328.388125 
L 646.56 328.388125 
Q 653.76 328.388125 653.76 321.188125 
L 653.76 288.068125 
Q 653.76 280.868125 646.56 280.868125 
L 394.56 280.868125 
Q 387.36 280.868125 387.36 288.068125 
L 387.36 321.188125 
Q 387.36 328.388125 394.56 328.388125 
z
" clip-path="url(#pcb04562557)" style="fill: #fee2e2; stroke: #cbd2dc; stroke-width: 1.4; stroke-linejoin: miter"/>
   </g>
   <g id="patch_5">
    <path d="M 394.56 384.548125 
L 646.56 384.548125 
Q 653.76 384.548125 653.76 377.348125 
L 653.76 344.228125 
Q 653.76 337.028125 646.56 337.028125 
L 394.56 337.028125 
Q 387.36 337.028125 387.36 344.228125 
L 387.36 377.348125 
Q 387.36 384.548125 394.56 384.548125 
z
" clip-path="url(#pcb04562557)" style="fill: #ffedd5; stroke: #cbd2dc; stroke-width: 1.4; stroke-linejoin: miter"/>
   </g>
   <g id="patch_6">
    <path d="M 394.56 440.708125 
L 646.56 440.708125 
Q 653.76 440.708125 653.76 433.508125 
L 653.76 400.388125 
Q 653.76 393.188125 646.56 393.188125 
L 394.56 393.188125 
Q 387.36 393.188125 387.36 400.388125 
L 387.36 433.508125 
Q 387.36 440.708125 394.56 440.708125 
z
" clip-path="url(#pcb04562557)" style="fill: #ede9fe; stroke: #cbd2dc; stroke-width: 1.4; stroke-linejoin: miter"/>
   </g>
   <g id="text_1">
    <text style="font-weight: 700; font-size: 19px; font-family: 'Microsoft YaHei', 'Microsoft YaHei UI', 'SimHei', 'Segoe UI', 'DejaVu Sans', sans-serif; text-anchor: middle; fill: #1a1f2b" x="74.16" y="20.948125" transform="rotate(-0 74.16 20.948125)">修改成本</text>
   </g>
   <g id="line2d_3">
    <path d="M 102.96 403.988125 
L 165.06 328.388125 
L 227.16 238.388125 
L 289.26 144.788125 
L 351.36 72.788125 
" clip-path="url(#pcb04562557)" style="fill: none; stroke: #dc2626; stroke-width: 3.4; stroke-linecap: round"/>
   </g>
   <g id="text_2">
    <text style="font-size: 14.5px; font-family: 'Microsoft YaHei', 'Microsoft YaHei UI', 'SimHei', 'Segoe UI', 'DejaVu Sans', sans-serif; text-anchor: middle; fill: #3a4252" x="102.96" y="461.588125" transform="rotate(-0 102.96 461.588125)">FP</text>
   </g>
   <g id="text_3">
    <text style="font-size: 14.5px; font-family: 'Microsoft YaHei', 'Microsoft YaHei UI', 'SimHei', 'Segoe UI', 'DejaVu Sans', sans-serif; text-anchor: middle; fill: #3a4252" x="165.06" y="461.588125" transform="rotate(-0 165.06 461.588125)">Place</text>
   </g>
   <g id="text_4">
    <text style="font-size: 14.5px; font-family: 'Microsoft YaHei', 'Microsoft YaHei UI', 'SimHei', 'Segoe UI', 'DejaVu Sans', sans-serif; text-anchor: middle; fill: #3a4252" x="227.16" y="461.588125" transform="rotate(-0 227.16 461.588125)">CTS</text>
   </g>
   <g id="text_5">
    <text style="font-size: 14.5px; font-family: 'Microsoft YaHei', 'Microsoft YaHei UI', 'SimHei', 'Segoe UI', 'DejaVu Sans', sans-serif; text-anchor: middle; fill: #3a4252" x="289.26" y="461.588125" transform="rotate(-0 289.26 461.588125)">Route</text>
   </g>
   <g id="text_6">
    <text style="font-size: 14.5px; font-family: 'Microsoft YaHei', 'Microsoft YaHei UI', 'SimHei', 'Segoe UI', 'DejaVu Sans', sans-serif; text-anchor: middle; fill: #3a4252" x="351.36" y="461.588125" transform="rotate(-0 351.36 461.588125)">Signoff</text>
   </g>
   <g id="text_7">
    <text style="font-weight: 700; font-size: 19px; font-family: 'Microsoft YaHei', 'Microsoft YaHei UI', 'SimHei', 'Segoe UI', 'DejaVu Sans', sans-serif; fill: #1a1f2b" transform="translate(497.958516 128.646031)">PPA</text>
    <text style="font-weight: 700; font-size: 19px; font-family: 'Microsoft YaHei', 'Microsoft YaHei UI', 'SimHei', 'Segoe UI', 'DejaVu Sans', sans-serif; fill: #1a1f2b" transform="translate(497.96 151.595062)">权衡</text>
   </g>
   <g id="text_8">
    <text style="font-weight: 700; font-size: 15px; font-family: 'Microsoft YaHei', 'Microsoft YaHei UI', 'SimHei', 'Segoe UI', 'DejaVu Sans', sans-serif; text-anchor: start; fill: #1a1f2b" x="408.96" y="306.71875" transform="rotate(-0 408.96 306.71875)">利用率高 → 拥塞</text>
   </g>
   <g id="text_9">
    <text style="font-weight: 700; font-size: 15px; font-family: 'Microsoft YaHei', 'Microsoft YaHei UI', 'SimHei', 'Segoe UI', 'DejaVu Sans', sans-serif; text-anchor: start; fill: #1a1f2b" x="408.96" y="362.87875" transform="rotate(-0 408.96 362.87875)">宏乱放 → 时序差</text>
   </g>
   <g id="text_10">
    <text style="font-weight: 700; font-size: 15px; font-family: 'Microsoft YaHei', 'Microsoft YaHei UI', 'SimHei', 'Segoe UI', 'DejaVu Sans', sans-serif; text-anchor: start; fill: #1a1f2b" x="408.96" y="419.03875" transform="rotate(-0 408.96 419.03875)">PG 不足 → IR/EM</text>
   </g>
   <g id="line2d_4">
    <defs>
     <path id="m89d9aaa4c0" d="M 0 4.5 
C 1.193414 4.5 2.338109 4.025852 3.181981 3.181981 
C 4.025852 2.338109 4.5 1.193414 4.5 0 
C 4.5 -1.193414 4.025852 -2.338109 3.181981 -3.181981 
C 2.338109 -4.025852 1.193414 -4.5 0 -4.5 
C -1.193414 -4.5 -2.338109 -4.025852 -3.181981 -3.181981 
C -4.025852 -2.338109 -4.5 -1.193414 -4.5 0 
C -4.5 1.193414 -4.025852 2.338109 -3.181981 3.181981 
C -2.338109 4.025852 -1.193414 4.5 0 4.5 
z
" style="stroke: #ffffff; stroke-width: 1.4"/>
    </defs>
    <g clip-path="url(#pcb04562557)">
     <use xlink:href="#m89d9aaa4c0" x="102.96" y="403.988125" style="fill: #dc2626; stroke: #ffffff; stroke-width: 1.4"/>
    </g>
   </g>
   <g id="line2d_5">
    <g clip-path="url(#pcb04562557)">
     <use xlink:href="#m89d9aaa4c0" x="165.06" y="328.388125" style="fill: #dc2626; stroke: #ffffff; stroke-width: 1.4"/>
    </g>
   </g>
   <g id="line2d_6">
    <g clip-path="url(#pcb04562557)">
     <use xlink:href="#m89d9aaa4c0" x="227.16" y="238.388125" style="fill: #dc2626; stroke: #ffffff; stroke-width: 1.4"/>
    </g>
   </g>
   <g id="line2d_7">
    <g clip-path="url(#pcb04562557)">
     <use xlink:href="#m89d9aaa4c0" x="289.26" y="144.788125" style="fill: #dc2626; stroke: #ffffff; stroke-width: 1.4"/>
    </g>
   </g>
   <g id="line2d_8">
    <g clip-path="url(#pcb04562557)">
     <use xlink:href="#m89d9aaa4c0" x="351.36" y="72.788125" style="fill: #dc2626; stroke: #ffffff; stroke-width: 1.4"/>
    </g>
   </g>
   <g id="patch_7">
    <path d="M 135.360537 319.590092 
Q 135.040171 365.20312 104.317743 398.919689 
" clip-path="url(#pcb04562557)" style="fill: none; stroke: #115e59; stroke-width: 1.3; stroke-linecap: round"/>
   </g>
   <g id="text_11">
    <text style="font-size: 15px; font-family: 'Microsoft YaHei', 'Microsoft YaHei UI', 'SimHei', 'Segoe UI', 'DejaVu Sans', sans-serif; fill: #115e59" transform="translate(135.36 312.660156)">改在此</text>
    <text style="font-size: 15px; font-family: 'Microsoft YaHei', 'Microsoft YaHei UI', 'SimHei', 'Segoe UI', 'DejaVu Sans', sans-serif; fill: #115e59" transform="translate(135.36 330.777813)">≈ 免费</text>
   </g>
   <g id="patch_8">
    <path d="M 216.196033 52.343916 
Q 277.701273 95.314591 349.454481 73.381464 
" clip-path="url(#pcb04562557)" style="fill: none; stroke: #991b1b; stroke-width: 1.3; stroke-linecap: round"/>
   </g>
   <g id="text_12">
    <text style="font-size: 15px; font-family: 'Microsoft YaHei', 'Microsoft YaHei UI', 'SimHei', 'Segoe UI', 'DejaVu Sans', sans-serif; fill: #991b1b" transform="translate(214.56 46.260156)">改在此</text>
    <text style="font-size: 15px; font-family: 'Microsoft YaHei', 'Microsoft YaHei UI', 'SimHei', 'Segoe UI', 'DejaVu Sans', sans-serif; fill: #991b1b" transform="translate(214.56 64.377813)">≈ 重来</text>
   </g>
   <g id="text_13">
    <g id="patch_9">
     <path d="M 470.192969 32.465898 
L 563.727031 32.465898 
Q 568.367031 32.465898 568.367031 27.825898 
L 568.367031 12.630352 
Q 568.367031 7.990352 563.727031 7.990352 
L 470.192969 7.990352 
Q 465.552969 7.990352 465.552969 12.630352 
L 465.552969 27.825898 
Q 465.552969 32.465898 470.192969 32.465898 
z
" style="fill: #dbeafe; stroke: #1d4ed8; stroke-width: 1.3; stroke-linejoin: miter"/>
    </g>
    <text style="font-weight: 700; font-size: 14.5px; font-family: 'Microsoft YaHei', 'Microsoft YaHei UI', 'SimHei', 'Segoe UI', 'DejaVu Sans', sans-serif; text-anchor: middle; fill: #1e3a8a" x="516.96" y="24.221289" transform="rotate(-0 516.96 24.221289)">Performance</text>
   </g>
   <g id="text_14">
    <g id="patch_10">
     <path d="M 411.444844 239.285898 
L 456.875156 239.285898 
Q 461.515156 239.285898 461.515156 234.645898 
L 461.515156 219.450352 
Q 461.515156 214.810352 456.875156 214.810352 
L 411.444844 214.810352 
Q 406.804844 214.810352 406.804844 219.450352 
L 406.804844 234.645898 
Q 406.804844 239.285898 411.444844 239.285898 
z
" style="fill: #ffedd5; stroke: #ea580c; stroke-width: 1.3; stroke-linejoin: miter"/>
    </g>
    <text style="font-weight: 700; font-size: 14.5px; font-family: 'Microsoft YaHei', 'Microsoft YaHei UI', 'SimHei', 'Segoe UI', 'DejaVu Sans', sans-serif; text-anchor: middle; fill: #9a3412" x="434.16" y="231.041289" transform="rotate(-0 434.16 231.041289)">Power</text>
   </g>
   <g id="text_15">
    <g id="patch_11">
     <path d="M 582.862969 239.285898 
L 616.657031 239.285898 
Q 621.297031 239.285898 621.297031 234.645898 
L 621.297031 219.450352 
Q 621.297031 214.810352 616.657031 214.810352 
L 582.862969 214.810352 
Q 578.222969 214.810352 578.222969 219.450352 
L 578.222969 234.645898 
Q 578.222969 239.285898 582.862969 239.285898 
z
" style="fill: #ccfbf1; stroke: #0d9488; stroke-width: 1.3; stroke-linejoin: miter"/>
    </g>
    <text style="font-weight: 700; font-size: 14.5px; font-family: 'Microsoft YaHei', 'Microsoft YaHei UI', 'SimHei', 'Segoe UI', 'DejaVu Sans', sans-serif; text-anchor: middle; fill: #115e59" x="599.76" y="231.041289" transform="rotate(-0 599.76 231.041289)">Area</text>
   </g>
  </g>
 </g>
 <defs>
  <clipPath id="pcb04562557">
   <rect x="5.76" y="15.188125" width="662.4" height="489.6"/>
  </clipPath>
 </defs>
</svg>
