<?xml version="1.0" encoding="utf-8" standalone="no"?>
<!DOCTYPE svg PUBLIC "-//W3C//DTD SVG 1.1//EN"
  "http://www.w3.org/Graphics/SVG/1.1/DTD/svg11.dtd">
<svg xmlns:xlink="http://www.w3.org/1999/xlink" width="803.52pt" height="587.52pt" viewBox="0 0 803.52 587.52" xmlns="http://www.w3.org/2000/svg" version="1.1">
 <metadata>
  <rdf:RDF xmlns:dc="http://purl.org/dc/elements/1.1/" xmlns:cc="http://creativecommons.org/ns#" xmlns:rdf="http://www.w3.org/1999/02/22-rdf-syntax-ns#">
   <cc:Work>
    <dc:type rdf:resource="http://purl.org/dc/dcmitype/StillImage"/>
    <dc:date>2026-06-22T14:59:36.459579</dc:date>
    <dc:format>image/svg+xml</dc:format>
    <dc:creator>
     <cc:Agent>
      <dc:title>Matplotlib v3.10.8, https://matplotlib.org/</dc:title>
     </cc:Agent>
    </dc:creator>
   </cc:Work>
  </rdf:RDF>
 </metadata>
 <defs>
  <style type="text/css">*{stroke-linejoin: round; stroke-linecap: butt}</style>
 </defs>
 <g id="figure_1">
  <g id="patch_1">
   <path d="M 0 587.52 
L 803.52 587.52 
L 803.52 0 
L 0 0 
z
" style="fill: #ffffff"/>
  </g>
  <g id="axes_1">
   <g id="patch_2">
    <path d="M 5.76 581.76 
L 797.76 581.76 
L 797.76 5.76 
L 5.76 5.76 
z
" clip-path="url(#p735098a18b)" style="fill: #ffffff"/>
   </g>
   <g id="patch_3">
    <path d="M 25.92 570.24 
L 777.6 570.24 
Q 786.24 570.24 786.24 561.6 
L 786.24 25.92 
Q 786.24 17.28 777.6 17.28 
L 25.92 17.28 
Q 17.28 17.28 17.28 25.92 
L 17.28 561.6 
Q 17.28 570.24 25.92 570.24 
L 25.92 570.24 
z
" clip-path="url(#p735098a18b)" style="fill: none; stroke: #cbd5e1; stroke-width: 1.4; stroke-linejoin: miter"/>
   </g>
   <g id="patch_4">
    <path d="M 57.56 532.96 
L 532.76 532.96 
L 532.76 57.76 
L 57.56 57.76 
z
" clip-path="url(#p735098a18b)" style="fill: #0f172a; opacity: 0.16"/>
    <path d="M 56.16 531.36 
L 531.36 531.36 
L 531.36 56.16 
L 56.16 56.16 
z
" clip-path="url(#p735098a18b)" style="fill: #ffffff; stroke: #475569; stroke-width: 2.4; stroke-linejoin: miter"/>
   </g>
   <g id="patch_5">
    <path d="M 126 461.52 
L 461.52 461.52 
L 461.52 126 
L 126 126 
z
" clip-path="url(#p735098a18b)" style="fill: #dbeafe; stroke: #2563eb; stroke-width: 1.8; stroke-linejoin: miter"/>
   </g>
   <g id="patch_6">
    <path d="M 65.52 531.36 
L 107.92 531.36 
L 107.92 501.12 
L 65.52 501.12 
z
" clip-path="url(#p735098a18b)" style="fill: #fce7f3; stroke: #db2777; stroke-width: 1.1; stroke-linejoin: miter"/>
   </g>
   <g id="patch_7">
    <path d="M 65.52 86.4 
L 107.92 86.4 
L 107.92 56.16 
L 65.52 56.16 
z
" clip-path="url(#p735098a18b)" style="fill: #fce7f3; stroke: #db2777; stroke-width: 1.1; stroke-linejoin: miter"/>
   </g>
   <g id="patch_8">
    <path d="M 117.28 531.36 
L 159.68 531.36 
L 159.68 501.12 
L 117.28 501.12 
z
" clip-path="url(#p735098a18b)" style="fill: #fce7f3; stroke: #db2777; stroke-width: 1.1; stroke-linejoin: miter"/>
   </g>
   <g id="patch_9">
    <path d="M 117.28 86.4 
L 159.68 86.4 
L 159.68 56.16 
L 117.28 56.16 
z
" clip-path="url(#p735098a18b)" style="fill: #fce7f3; stroke: #db2777; stroke-width: 1.1; stroke-linejoin: miter"/>
   </g>
   <g id="patch_10">
    <path d="M 169.04 531.36 
L 211.44 531.36 
L 211.44 501.12 
L 169.04 501.12 
z
" clip-path="url(#p735098a18b)" style="fill: #fce7f3; stroke: #db2777; stroke-width: 1.1; stroke-linejoin: miter"/>
   </g>
   <g id="patch_11">
    <path d="M 169.04 86.4 
L 211.44 86.4 
L 211.44 56.16 
L 169.04 56.16 
z
" clip-path="url(#p735098a18b)" style="fill: #fce7f3; stroke: #db2777; stroke-width: 1.1; stroke-linejoin: miter"/>
   </g>
   <g id="patch_12">
    <path d="M 220.8 531.36 
L 263.2 531.36 
L 263.2 501.12 
L 220.8 501.12 
z
" clip-path="url(#p735098a18b)" style="fill: #fce7f3; stroke: #db2777; stroke-width: 1.1; stroke-linejoin: miter"/>
   </g>
   <g id="patch_13">
    <path d="M 220.8 86.4 
L 263.2 86.4 
L 263.2 56.16 
L 220.8 56.16 
z
" clip-path="url(#p735098a18b)" style="fill: #fce7f3; stroke: #db2777; stroke-width: 1.1; stroke-linejoin: miter"/>
   </g>
   <g id="patch_14">
    <path d="M 272.56 531.36 
L 314.96 531.36 
L 314.96 501.12 
L 272.56 501.12 
z
" clip-path="url(#p735098a18b)" style="fill: #fce7f3; stroke: #db2777; stroke-width: 1.1; stroke-linejoin: miter"/>
   </g>
   <g id="patch_15">
    <path d="M 272.56 86.4 
L 314.96 86.4 
L 314.96 56.16 
L 272.56 56.16 
z
" clip-path="url(#p735098a18b)" style="fill: #fce7f3; stroke: #db2777; stroke-width: 1.1; stroke-linejoin: miter"/>
   </g>
   <g id="patch_16">
    <path d="M 324.32 531.36 
L 366.72 531.36 
L 366.72 501.12 
L 324.32 501.12 
z
" clip-path="url(#p735098a18b)" style="fill: #fce7f3; stroke: #db2777; stroke-width: 1.1; stroke-linejoin: miter"/>
   </g>
   <g id="patch_17">
    <path d="M 324.32 86.4 
L 366.72 86.4 
L 366.72 56.16 
L 324.32 56.16 
z
" clip-path="url(#p735098a18b)" style="fill: #fce7f3; stroke: #db2777; stroke-width: 1.1; stroke-linejoin: miter"/>
   </g>
   <g id="patch_18">
    <path d="M 376.08 531.36 
L 418.48 531.36 
L 418.48 501.12 
L 376.08 501.12 
z
" clip-path="url(#p735098a18b)" style="fill: #fce7f3; stroke: #db2777; stroke-width: 1.1; stroke-linejoin: miter"/>
   </g>
   <g id="patch_19">
    <path d="M 376.08 86.4 
L 418.48 86.4 
L 418.48 56.16 
L 376.08 56.16 
z
" clip-path="url(#p735098a18b)" style="fill: #fce7f3; stroke: #db2777; stroke-width: 1.1; stroke-linejoin: miter"/>
   </g>
   <g id="patch_20">
    <path d="M 427.84 531.36 
L 470.24 531.36 
L 470.24 501.12 
L 427.84 501.12 
z
" clip-path="url(#p735098a18b)" style="fill: #fce7f3; stroke: #db2777; stroke-width: 1.1; stroke-linejoin: miter"/>
   </g>
   <g id="patch_21">
    <path d="M 427.84 86.4 
L 470.24 86.4 
L 470.24 56.16 
L 427.84 56.16 
z
" clip-path="url(#p735098a18b)" style="fill: #fce7f3; stroke: #db2777; stroke-width: 1.1; stroke-linejoin: miter"/>
   </g>
   <g id="patch_22">
    <path d="M 479.6 531.36 
L 522 531.36 
L 522 501.12 
L 479.6 501.12 
z
" clip-path="url(#p735098a18b)" style="fill: #fce7f3; stroke: #db2777; stroke-width: 1.1; stroke-linejoin: miter"/>
   </g>
   <g id="patch_23">
    <path d="M 479.6 86.4 
L 522 86.4 
L 522 56.16 
L 479.6 56.16 
z
" clip-path="url(#p735098a18b)" style="fill: #fce7f3; stroke: #db2777; stroke-width: 1.1; stroke-linejoin: miter"/>
   </g>
   <g id="patch_24">
    <path d="M 56.16 491.76 
L 86.4 491.76 
L 86.4 456.08 
L 56.16 456.08 
z
" clip-path="url(#p735098a18b)" style="fill: #fce7f3; stroke: #db2777; stroke-width: 1.1; stroke-linejoin: miter"/>
   </g>
   <g id="patch_25">
    <path d="M 501.12 491.76 
L 531.36 491.76 
L 531.36 456.08 
L 501.12 456.08 
z
" clip-path="url(#p735098a18b)" style="fill: #fce7f3; stroke: #db2777; stroke-width: 1.1; stroke-linejoin: miter"/>
   </g>
   <g id="patch_26">
    <path d="M 56.16 446.72 
L 86.4 446.72 
L 86.4 411.04 
L 56.16 411.04 
z
" clip-path="url(#p735098a18b)" style="fill: #fce7f3; stroke: #db2777; stroke-width: 1.1; stroke-linejoin: miter"/>
   </g>
   <g id="patch_27">
    <path d="M 501.12 446.72 
L 531.36 446.72 
L 531.36 411.04 
L 501.12 411.04 
z
" clip-path="url(#p735098a18b)" style="fill: #fce7f3; stroke: #db2777; stroke-width: 1.1; stroke-linejoin: miter"/>
   </g>
   <g id="patch_28">
    <path d="M 56.16 401.68 
L 86.4 401.68 
L 86.4 366 
L 56.16 366 
z
" clip-path="url(#p735098a18b)" style="fill: #fce7f3; stroke: #db2777; stroke-width: 1.1; stroke-linejoin: miter"/>
   </g>
   <g id="patch_29">
    <path d="M 501.12 401.68 
L 531.36 401.68 
L 531.36 366 
L 501.12 366 
z
" clip-path="url(#p735098a18b)" style="fill: #fce7f3; stroke: #db2777; stroke-width: 1.1; stroke-linejoin: miter"/>
   </g>
   <g id="patch_30">
    <path d="M 56.16 356.64 
L 86.4 356.64 
L 86.4 320.96 
L 56.16 320.96 
z
" clip-path="url(#p735098a18b)" style="fill: #fce7f3; stroke: #db2777; stroke-width: 1.1; stroke-linejoin: miter"/>
   </g>
   <g id="patch_31">
    <path d="M 501.12 356.64 
L 531.36 356.64 
L 531.36 320.96 
L 501.12 320.96 
z
" clip-path="url(#p735098a18b)" style="fill: #fce7f3; stroke: #db2777; stroke-width: 1.1; stroke-linejoin: miter"/>
   </g>
   <g id="patch_32">
    <path d="M 56.16 311.6 
L 86.4 311.6 
L 86.4 275.92 
L 56.16 275.92 
z
" clip-path="url(#p735098a18b)" style="fill: #fce7f3; stroke: #db2777; stroke-width: 1.1; stroke-linejoin: miter"/>
   </g>
   <g id="patch_33">
    <path d="M 501.12 311.6 
L 531.36 311.6 
L 531.36 275.92 
L 501.12 275.92 
z
" clip-path="url(#p735098a18b)" style="fill: #fce7f3; stroke: #db2777; stroke-width: 1.1; stroke-linejoin: miter"/>
   </g>
   <g id="patch_34">
    <path d="M 56.16 266.56 
L 86.4 266.56 
L 86.4 230.88 
L 56.16 230.88 
z
" clip-path="url(#p735098a18b)" style="fill: #fce7f3; stroke: #db2777; stroke-width: 1.1; stroke-linejoin: miter"/>
   </g>
   <g id="patch_35">
    <path d="M 501.12 266.56 
L 531.36 266.56 
L 531.36 230.88 
L 501.12 230.88 
z
" clip-path="url(#p735098a18b)" style="fill: #fce7f3; stroke: #db2777; stroke-width: 1.1; stroke-linejoin: miter"/>
   </g>
   <g id="patch_36">
    <path d="M 56.16 221.52 
L 86.4 221.52 
L 86.4 185.84 
L 56.16 185.84 
z
" clip-path="url(#p735098a18b)" style="fill: #fce7f3; stroke: #db2777; stroke-width: 1.1; stroke-linejoin: miter"/>
   </g>
   <g id="patch_37">
    <path d="M 501.12 221.52 
L 531.36 221.52 
L 531.36 185.84 
L 501.12 185.84 
z
" clip-path="url(#p735098a18b)" style="fill: #fce7f3; stroke: #db2777; stroke-width: 1.1; stroke-linejoin: miter"/>
   </g>
   <g id="patch_38">
    <path d="M 56.16 176.48 
L 86.4 176.48 
L 86.4 140.8 
L 56.16 140.8 
z
" clip-path="url(#p735098a18b)" style="fill: #fce7f3; stroke: #db2777; stroke-width: 1.1; stroke-linejoin: miter"/>
   </g>
   <g id="patch_39">
    <path d="M 501.12 176.48 
L 531.36 176.48 
L 531.36 140.8 
L 501.12 140.8 
z
" clip-path="url(#p735098a18b)" style="fill: #fce7f3; stroke: #db2777; stroke-width: 1.1; stroke-linejoin: miter"/>
   </g>
   <g id="patch_40">
    <path d="M 56.16 131.44 
L 86.4 131.44 
L 86.4 95.76 
L 56.16 95.76 
z
" clip-path="url(#p735098a18b)" style="fill: #fce7f3; stroke: #db2777; stroke-width: 1.1; stroke-linejoin: miter"/>
   </g>
   <g id="patch_41">
    <path d="M 501.12 131.44 
L 531.36 131.44 
L 531.36 95.76 
L 501.12 95.76 
z
" clip-path="url(#p735098a18b)" style="fill: #fce7f3; stroke: #db2777; stroke-width: 1.1; stroke-linejoin: miter"/>
   </g>
   <g id="line2d_1">
    <path d="M 140.4 438.48 
L 447.12 438.48 
" clip-path="url(#p735098a18b)" style="fill: none; stroke: #2563eb; stroke-width: 0.7; stroke-linecap: round"/>
   </g>
   <g id="line2d_2">
    <path d="M 140.4 408.24 
L 447.12 408.24 
" clip-path="url(#p735098a18b)" style="fill: none; stroke: #2563eb; stroke-width: 0.7; stroke-linecap: round"/>
   </g>
   <g id="line2d_3">
    <path d="M 140.4 378 
L 447.12 378 
" clip-path="url(#p735098a18b)" style="fill: none; stroke: #2563eb; stroke-width: 0.7; stroke-linecap: round"/>
   </g>
   <g id="line2d_4">
    <path d="M 140.4 347.76 
L 447.12 347.76 
" clip-path="url(#p735098a18b)" style="fill: none; stroke: #2563eb; stroke-width: 0.7; stroke-linecap: round"/>
   </g>
   <g id="line2d_5">
    <path d="M 140.4 317.52 
L 447.12 317.52 
" clip-path="url(#p735098a18b)" style="fill: none; stroke: #2563eb; stroke-width: 0.7; stroke-linecap: round"/>
   </g>
   <g id="line2d_6">
    <path d="M 140.4 287.28 
L 447.12 287.28 
" clip-path="url(#p735098a18b)" style="fill: none; stroke: #2563eb; stroke-width: 0.7; stroke-linecap: round"/>
   </g>
   <g id="line2d_7">
    <path d="M 140.4 257.04 
L 447.12 257.04 
" clip-path="url(#p735098a18b)" style="fill: none; stroke: #2563eb; stroke-width: 0.7; stroke-linecap: round"/>
   </g>
   <g id="line2d_8">
    <path d="M 140.4 226.8 
L 447.12 226.8 
" clip-path="url(#p735098a18b)" style="fill: none; stroke: #2563eb; stroke-width: 0.7; stroke-linecap: round"/>
   </g>
   <g id="line2d_9">
    <path d="M 140.4 196.56 
L 447.12 196.56 
" clip-path="url(#p735098a18b)" style="fill: none; stroke: #2563eb; stroke-width: 0.7; stroke-linecap: round"/>
   </g>
   <g id="line2d_10">
    <path d="M 140.4 166.32 
L 447.12 166.32 
" clip-path="url(#p735098a18b)" style="fill: none; stroke: #2563eb; stroke-width: 0.7; stroke-linecap: round"/>
   </g>
   <g id="text_1">
    <text style="font-weight: 700; font-size: 16px; font-family: 'Microsoft YaHei', 'Microsoft YaHei UI', 'SimHei', 'Segoe UI', 'DejaVu Sans', sans-serif; text-anchor: start; fill: #1e293b" x="64.8" y="47.8625" transform="rotate(-0 64.8 47.8625)">Die</text>
   </g>
   <g id="text_2">
    <text style="font-size: 12.5px; font-family: 'Microsoft YaHei', 'Microsoft YaHei UI', 'SimHei', 'Segoe UI', 'DejaVu Sans', sans-serif; fill: #475569" transform="translate(570.96 476.552187)">利用率 = (Σ单元+Σ宏)/Core ≈ 0.5–0.8</text>
    <text style="font-size: 12.5px; font-family: 'Microsoft YaHei', 'Microsoft YaHei UI', 'SimHei', 'Segoe UI', 'DejaVu Sans', sans-serif; fill: #475569" transform="translate(570.96 496.646328)">长宽比 H/W ≈ 1 最均衡</text>
    <text style="font-size: 12.5px; font-family: 'Microsoft YaHei', 'Microsoft YaHei UI', 'SimHei', 'Segoe UI', 'DejaVu Sans', sans-serif; fill: #475569" transform="translate(570.96 516.740469)">Core-to-IO：留电源环 / IO 走线</text>
   </g>
   <g id="text_3">
    <text style="font-weight: 700; font-size: 17px; font-family: 'Microsoft YaHei', 'Microsoft YaHei UI', 'SimHei', 'Segoe UI', 'DejaVu Sans', sans-serif; text-anchor: middle; fill: #1e3a8a" x="293.76" y="154.8" transform="rotate(-0 293.76 154.8)">Core</text>
   </g>
   <g id="patch_42">
    <path d="M 569.910691 57.865918 
Q 556.185732 79.688221 533.158013 91.277487 
" clip-path="url(#p735098a18b)" style="fill: none; stroke: #475569; stroke-width: 1.3; stroke-linecap: round"/>
   </g>
   <g id="text_4">
    <text style="font-size: 13.5px; font-family: 'Microsoft YaHei', 'Microsoft YaHei UI', 'SimHei', 'Segoe UI', 'DejaVu Sans', sans-serif; fill: #475569" transform="translate(570.96 51.724828)">Die 边界</text>
    <text style="font-size: 13.5px; font-family: 'Microsoft YaHei', 'Microsoft YaHei UI', 'SimHei', 'Segoe UI', 'DejaVu Sans', sans-serif; fill: #475569" transform="translate(570.96 68.030719)">(含 scribe 切割道)</text>
   </g>
   <g id="patch_43">
    <path d="M 570.665037 158.938936 
Q 559.587956 231.754701 517.391715 292.122802 
" clip-path="url(#p735098a18b)" style="fill: none; stroke: #9d174d; stroke-width: 1.3; stroke-linecap: round"/>
   </g>
   <g id="text_5">
    <text style="font-size: 13.5px; font-family: 'Microsoft YaHei', 'Microsoft YaHei UI', 'SimHei', 'Segoe UI', 'DejaVu Sans', sans-serif; text-anchor: start; fill: #9d174d" x="570.96" y="160.677773" transform="rotate(-0 570.96 160.677773)">I/O Pad / 焊盘环</text>
   </g>
   <g id="patch_44">
    <path d="M 569.059879 251.188516 
Q 517.356649 268.059605 463.499145 260.494155 
" clip-path="url(#p735098a18b)" style="fill: none; stroke: #1e3a8a; stroke-width: 1.3; stroke-linecap: round"/>
   </g>
   <g id="text_6">
    <text style="font-size: 13.5px; font-family: 'Microsoft YaHei', 'Microsoft YaHei UI', 'SimHei', 'Segoe UI', 'DejaVu Sans', sans-serif; fill: #1e3a8a" transform="translate(570.96 246.124828)">Core 核心区</text>
    <text style="font-size: 13.5px; font-family: 'Microsoft YaHei', 'Microsoft YaHei UI', 'SimHei', 'Segoe UI', 'DejaVu Sans', sans-serif; fill: #1e3a8a" transform="translate(570.96 262.430719)">(标准单元 + 宏)</text>
   </g>
   <g id="patch_45">
    <path d="M 568.979855 366.04681 
Q 504.089285 375.2228 441.821661 354.784887 
" clip-path="url(#p735098a18b)" style="fill: none; stroke: #1e3a8a; stroke-width: 1.3; stroke-linecap: round"/>
   </g>
   <g id="text_7">
    <text style="font-size: 13.5px; font-family: 'Microsoft YaHei', 'Microsoft YaHei UI', 'SimHei', 'Segoe UI', 'DejaVu Sans', sans-serif; fill: #1e3a8a" transform="translate(570.96 361.324828)">Core Rows</text>
    <text style="font-size: 13.5px; font-family: 'Microsoft YaHei', 'Microsoft YaHei UI', 'SimHei', 'Segoe UI', 'DejaVu Sans', sans-serif; fill: #1e3a8a" transform="translate(570.96 377.630719)">标准单元行</text>
   </g>
  </g>
 </g>
 <defs>
  <clipPath id="p735098a18b">
   <rect x="5.76" y="5.76" width="792" height="576"/>
  </clipPath>
 </defs>
</svg>
