<?xml version="1.0" encoding="utf-8" standalone="no"?>
<!DOCTYPE svg PUBLIC "-//W3C//DTD SVG 1.1//EN"
  "http://www.w3.org/Graphics/SVG/1.1/DTD/svg11.dtd">
<svg xmlns:xlink="http://www.w3.org/1999/xlink" width="659.52pt" height="501.12pt" viewBox="0 0 659.52 501.12" xmlns="http://www.w3.org/2000/svg" version="1.1">
 <metadata>
  <rdf:RDF xmlns:dc="http://purl.org/dc/elements/1.1/" xmlns:cc="http://creativecommons.org/ns#" xmlns:rdf="http://www.w3.org/1999/02/22-rdf-syntax-ns#">
   <cc:Work>
    <dc:type rdf:resource="http://purl.org/dc/dcmitype/StillImage"/>
    <dc:date>2026-06-23T16:30:06.494331</dc:date>
    <dc:format>image/svg+xml</dc:format>
    <dc:creator>
     <cc:Agent>
      <dc:title>Matplotlib v3.10.8, https://matplotlib.org/</dc:title>
     </cc:Agent>
    </dc:creator>
   </cc:Work>
  </rdf:RDF>
 </metadata>
 <defs>
  <style type="text/css">*{stroke-linejoin: round; stroke-linecap: butt}</style>
 </defs>
 <g id="figure_1">
  <g id="patch_1">
   <path d="M 0 501.12 
L 659.52 501.12 
L 659.52 0 
L 0 0 
z
" style="fill: #ffffff"/>
  </g>
  <g id="axes_1">
   <g id="patch_2">
    <path d="M 5.76 495.36 
L 653.76 495.36 
L 653.76 5.76 
L 5.76 5.76 
z
" clip-path="url(#p9a0de13489)" style="fill: #ffffff"/>
   </g>
   <g id="patch_3">
    <path d="M 41.76 243.36 
L 221.76 243.36 
L 221.76 63.36 
L 41.76 63.36 
z
" clip-path="url(#p9a0de13489)" style="fill: #ffffff; stroke: #1f3a8a; stroke-width: 2; stroke-linejoin: miter"/>
   </g>
   <g id="patch_4">
    <path d="M 236.16 243.36 
L 416.16 243.36 
L 416.16 63.36 
L 236.16 63.36 
z
" clip-path="url(#p9a0de13489)" style="fill: #ffffff; stroke: #a6473c; stroke-width: 2; stroke-linejoin: miter"/>
   </g>
   <g id="patch_5">
    <path d="M 452.16 243.36 
L 506.16 243.36 
L 506.16 63.36 
L 452.16 63.36 
z
" clip-path="url(#p9a0de13489)" style="fill: #edf0f4; stroke: #6b7280; stroke-width: 1.8; stroke-linejoin: miter"/>
   </g>
   <g id="patch_6">
    <path d="M 538.56 189.36 
L 639.36 189.36 
L 639.36 88.56 
L 538.56 88.56 
z
" clip-path="url(#p9a0de13489)" style="fill: #e1edf0; stroke: #3f7c8c; stroke-width: 2; stroke-linejoin: miter"/>
   </g>
   <g id="patch_7">
    <path d="M 48.96 423.36 
L 632.16 423.36 
Q 639.36 423.36 639.36 416.16 
L 639.36 322.56 
Q 639.36 315.36 632.16 315.36 
L 48.96 315.36 
Q 41.76 315.36 41.76 322.56 
L 41.76 416.16 
Q 41.76 423.36 48.96 423.36 
z
" clip-path="url(#p9a0de13489)" style="fill: #edf0f4; stroke: #cdd3dc; stroke-width: 1.4; stroke-linejoin: miter"/>
   </g>
   <g id="text_1">
    <text style="font-weight: 700; font-size: 15px; font-family: 'Microsoft YaHei', 'Microsoft YaHei UI', 'SimHei', 'Segoe UI', 'DejaVu Sans', sans-serif; text-anchor: start; fill: #1a1f2b" x="41.76" y="30.96" transform="rotate(-0 41.76 30.96)">利用率 Utilization</text>
   </g>
   <g id="patch_8">
    <path d="M 52.56 235.44 
L 71.28 235.44 
Q 74.16 235.44 74.16 232.56 
L 74.16 213.84 
Q 74.16 210.96 71.28 210.96 
L 52.56 210.96 
Q 49.68 210.96 49.68 213.84 
L 49.68 232.56 
Q 49.68 235.44 52.56 235.44 
z
" clip-path="url(#p9a0de13489)" style="fill: #e5e9f5"/>
   </g>
   <g id="patch_9">
    <path d="M 84.96 235.44 
L 103.68 235.44 
Q 106.56 235.44 106.56 232.56 
L 106.56 213.84 
Q 106.56 210.96 103.68 210.96 
L 84.96 210.96 
Q 82.08 210.96 82.08 213.84 
L 82.08 232.56 
Q 82.08 235.44 84.96 235.44 
z
" clip-path="url(#p9a0de13489)" style="fill: #e5e9f5"/>
   </g>
   <g id="patch_10">
    <path d="M 117.36 235.44 
L 136.08 235.44 
Q 138.96 235.44 138.96 232.56 
L 138.96 213.84 
Q 138.96 210.96 136.08 210.96 
L 117.36 210.96 
Q 114.48 210.96 114.48 213.84 
L 114.48 232.56 
Q 114.48 235.44 117.36 235.44 
z
" clip-path="url(#p9a0de13489)" style="fill: #e5e9f5"/>
   </g>
   <g id="patch_11">
    <path d="M 149.76 235.44 
L 168.48 235.44 
Q 171.36 235.44 171.36 232.56 
L 171.36 213.84 
Q 171.36 210.96 168.48 210.96 
L 149.76 210.96 
Q 146.88 210.96 146.88 213.84 
L 146.88 232.56 
Q 146.88 235.44 149.76 235.44 
z
" clip-path="url(#p9a0de13489)" style="fill: #e5e9f5"/>
   </g>
   <g id="patch_12">
    <path d="M 182.16 235.44 
L 200.88 235.44 
Q 203.76 235.44 203.76 232.56 
L 203.76 213.84 
Q 203.76 210.96 200.88 210.96 
L 182.16 210.96 
Q 179.28 210.96 179.28 213.84 
L 179.28 232.56 
Q 179.28 235.44 182.16 235.44 
z
" clip-path="url(#p9a0de13489)" style="fill: #e5e9f5"/>
   </g>
   <g id="patch_13">
    <path d="M 52.56 203.04 
L 71.28 203.04 
Q 74.16 203.04 74.16 200.16 
L 74.16 181.44 
Q 74.16 178.56 71.28 178.56 
L 52.56 178.56 
Q 49.68 178.56 49.68 181.44 
L 49.68 200.16 
Q 49.68 203.04 52.56 203.04 
z
" clip-path="url(#p9a0de13489)" style="fill: #e5e9f5"/>
   </g>
   <g id="patch_14">
    <path d="M 84.96 203.04 
L 103.68 203.04 
Q 106.56 203.04 106.56 200.16 
L 106.56 181.44 
Q 106.56 178.56 103.68 178.56 
L 84.96 178.56 
Q 82.08 178.56 82.08 181.44 
L 82.08 200.16 
Q 82.08 203.04 84.96 203.04 
z
" clip-path="url(#p9a0de13489)" style="fill: #e5e9f5"/>
   </g>
   <g id="patch_15">
    <path d="M 117.36 203.04 
L 136.08 203.04 
Q 138.96 203.04 138.96 200.16 
L 138.96 181.44 
Q 138.96 178.56 136.08 178.56 
L 117.36 178.56 
Q 114.48 178.56 114.48 181.44 
L 114.48 200.16 
Q 114.48 203.04 117.36 203.04 
z
" clip-path="url(#p9a0de13489)" style="fill: #e5e9f5"/>
   </g>
   <g id="patch_16">
    <path d="M 149.76 203.04 
L 168.48 203.04 
Q 171.36 203.04 171.36 200.16 
L 171.36 181.44 
Q 171.36 178.56 168.48 178.56 
L 149.76 178.56 
Q 146.88 178.56 146.88 181.44 
L 146.88 200.16 
Q 146.88 203.04 149.76 203.04 
z
" clip-path="url(#p9a0de13489)" style="fill: #e5e9f5"/>
   </g>
   <g id="patch_17">
    <path d="M 182.16 203.04 
L 200.88 203.04 
Q 203.76 203.04 203.76 200.16 
L 203.76 181.44 
Q 203.76 178.56 200.88 178.56 
L 182.16 178.56 
Q 179.28 178.56 179.28 181.44 
L 179.28 200.16 
Q 179.28 203.04 182.16 203.04 
z
" clip-path="url(#p9a0de13489)" style="fill: #e5e9f5"/>
   </g>
   <g id="patch_18">
    <path d="M 52.56 170.64 
L 71.28 170.64 
Q 74.16 170.64 74.16 167.76 
L 74.16 149.04 
Q 74.16 146.16 71.28 146.16 
L 52.56 146.16 
Q 49.68 146.16 49.68 149.04 
L 49.68 167.76 
Q 49.68 170.64 52.56 170.64 
z
" clip-path="url(#p9a0de13489)" style="fill: #e5e9f5"/>
   </g>
   <g id="text_2">
    <text style="font-weight: 700; font-size: 13px; font-family: 'Microsoft YaHei', 'Microsoft YaHei UI', 'SimHei', 'Segoe UI', 'DejaVu Sans', sans-serif; text-anchor: middle; fill: #15275e" x="131.76" y="278.951875" transform="rotate(-0 131.76 278.951875)">≈ 50% 宽松</text>
   </g>
   <g id="patch_19">
    <path d="M 246.96 235.44 
L 265.68 235.44 
Q 268.56 235.44 268.56 232.56 
L 268.56 213.84 
Q 268.56 210.96 265.68 210.96 
L 246.96 210.96 
Q 244.08 210.96 244.08 213.84 
L 244.08 232.56 
Q 244.08 235.44 246.96 235.44 
z
" clip-path="url(#p9a0de13489)" style="fill: #f1dcd8"/>
   </g>
   <g id="patch_20">
    <path d="M 279.36 235.44 
L 298.08 235.44 
Q 300.96 235.44 300.96 232.56 
L 300.96 213.84 
Q 300.96 210.96 298.08 210.96 
L 279.36 210.96 
Q 276.48 210.96 276.48 213.84 
L 276.48 232.56 
Q 276.48 235.44 279.36 235.44 
z
" clip-path="url(#p9a0de13489)" style="fill: #f1dcd8"/>
   </g>
   <g id="patch_21">
    <path d="M 311.76 235.44 
L 330.48 235.44 
Q 333.36 235.44 333.36 232.56 
L 333.36 213.84 
Q 333.36 210.96 330.48 210.96 
L 311.76 210.96 
Q 308.88 210.96 308.88 213.84 
L 308.88 232.56 
Q 308.88 235.44 311.76 235.44 
z
" clip-path="url(#p9a0de13489)" style="fill: #f1dcd8"/>
   </g>
   <g id="patch_22">
    <path d="M 344.16 235.44 
L 362.88 235.44 
Q 365.76 235.44 365.76 232.56 
L 365.76 213.84 
Q 365.76 210.96 362.88 210.96 
L 344.16 210.96 
Q 341.28 210.96 341.28 213.84 
L 341.28 232.56 
Q 341.28 235.44 344.16 235.44 
z
" clip-path="url(#p9a0de13489)" style="fill: #f1dcd8"/>
   </g>
   <g id="patch_23">
    <path d="M 376.56 235.44 
L 395.28 235.44 
Q 398.16 235.44 398.16 232.56 
L 398.16 213.84 
Q 398.16 210.96 395.28 210.96 
L 376.56 210.96 
Q 373.68 210.96 373.68 213.84 
L 373.68 232.56 
Q 373.68 235.44 376.56 235.44 
z
" clip-path="url(#p9a0de13489)" style="fill: #f1dcd8"/>
   </g>
   <g id="patch_24">
    <path d="M 246.96 203.04 
L 265.68 203.04 
Q 268.56 203.04 268.56 200.16 
L 268.56 181.44 
Q 268.56 178.56 265.68 178.56 
L 246.96 178.56 
Q 244.08 178.56 244.08 181.44 
L 244.08 200.16 
Q 244.08 203.04 246.96 203.04 
z
" clip-path="url(#p9a0de13489)" style="fill: #f1dcd8"/>
   </g>
   <g id="patch_25">
    <path d="M 279.36 203.04 
L 298.08 203.04 
Q 300.96 203.04 300.96 200.16 
L 300.96 181.44 
Q 300.96 178.56 298.08 178.56 
L 279.36 178.56 
Q 276.48 178.56 276.48 181.44 
L 276.48 200.16 
Q 276.48 203.04 279.36 203.04 
z
" clip-path="url(#p9a0de13489)" style="fill: #f1dcd8"/>
   </g>
   <g id="patch_26">
    <path d="M 311.76 203.04 
L 330.48 203.04 
Q 333.36 203.04 333.36 200.16 
L 333.36 181.44 
Q 333.36 178.56 330.48 178.56 
L 311.76 178.56 
Q 308.88 178.56 308.88 181.44 
L 308.88 200.16 
Q 308.88 203.04 311.76 203.04 
z
" clip-path="url(#p9a0de13489)" style="fill: #f1dcd8"/>
   </g>
   <g id="patch_27">
    <path d="M 344.16 203.04 
L 362.88 203.04 
Q 365.76 203.04 365.76 200.16 
L 365.76 181.44 
Q 365.76 178.56 362.88 178.56 
L 344.16 178.56 
Q 341.28 178.56 341.28 181.44 
L 341.28 200.16 
Q 341.28 203.04 344.16 203.04 
z
" clip-path="url(#p9a0de13489)" style="fill: #f1dcd8"/>
   </g>
   <g id="patch_28">
    <path d="M 376.56 203.04 
L 395.28 203.04 
Q 398.16 203.04 398.16 200.16 
L 398.16 181.44 
Q 398.16 178.56 395.28 178.56 
L 376.56 178.56 
Q 373.68 178.56 373.68 181.44 
L 373.68 200.16 
Q 373.68 203.04 376.56 203.04 
z
" clip-path="url(#p9a0de13489)" style="fill: #f1dcd8"/>
   </g>
   <g id="patch_29">
    <path d="M 246.96 170.64 
L 265.68 170.64 
Q 268.56 170.64 268.56 167.76 
L 268.56 149.04 
Q 268.56 146.16 265.68 146.16 
L 246.96 146.16 
Q 244.08 146.16 244.08 149.04 
L 244.08 167.76 
Q 244.08 170.64 246.96 170.64 
z
" clip-path="url(#p9a0de13489)" style="fill: #f1dcd8"/>
   </g>
   <g id="patch_30">
    <path d="M 279.36 170.64 
L 298.08 170.64 
Q 300.96 170.64 300.96 167.76 
L 300.96 149.04 
Q 300.96 146.16 298.08 146.16 
L 279.36 146.16 
Q 276.48 146.16 276.48 149.04 
L 276.48 167.76 
Q 276.48 170.64 279.36 170.64 
z
" clip-path="url(#p9a0de13489)" style="fill: #f1dcd8"/>
   </g>
   <g id="patch_31">
    <path d="M 311.76 170.64 
L 330.48 170.64 
Q 333.36 170.64 333.36 167.76 
L 333.36 149.04 
Q 333.36 146.16 330.48 146.16 
L 311.76 146.16 
Q 308.88 146.16 308.88 149.04 
L 308.88 167.76 
Q 308.88 170.64 311.76 170.64 
z
" clip-path="url(#p9a0de13489)" style="fill: #f1dcd8"/>
   </g>
   <g id="patch_32">
    <path d="M 344.16 170.64 
L 362.88 170.64 
Q 365.76 170.64 365.76 167.76 
L 365.76 149.04 
Q 365.76 146.16 362.88 146.16 
L 344.16 146.16 
Q 341.28 146.16 341.28 149.04 
L 341.28 167.76 
Q 341.28 170.64 344.16 170.64 
z
" clip-path="url(#p9a0de13489)" style="fill: #f1dcd8"/>
   </g>
   <g id="patch_33">
    <path d="M 376.56 170.64 
L 395.28 170.64 
Q 398.16 170.64 398.16 167.76 
L 398.16 149.04 
Q 398.16 146.16 395.28 146.16 
L 376.56 146.16 
Q 373.68 146.16 373.68 149.04 
L 373.68 167.76 
Q 373.68 170.64 376.56 170.64 
z
" clip-path="url(#p9a0de13489)" style="fill: #f1dcd8"/>
   </g>
   <g id="patch_34">
    <path d="M 246.96 138.24 
L 265.68 138.24 
Q 268.56 138.24 268.56 135.36 
L 268.56 116.64 
Q 268.56 113.76 265.68 113.76 
L 246.96 113.76 
Q 244.08 113.76 244.08 116.64 
L 244.08 135.36 
Q 244.08 138.24 246.96 138.24 
z
" clip-path="url(#p9a0de13489)" style="fill: #f1dcd8"/>
   </g>
   <g id="patch_35">
    <path d="M 279.36 138.24 
L 298.08 138.24 
Q 300.96 138.24 300.96 135.36 
L 300.96 116.64 
Q 300.96 113.76 298.08 113.76 
L 279.36 113.76 
Q 276.48 113.76 276.48 116.64 
L 276.48 135.36 
Q 276.48 138.24 279.36 138.24 
z
" clip-path="url(#p9a0de13489)" style="fill: #f1dcd8"/>
   </g>
   <g id="patch_36">
    <path d="M 311.76 138.24 
L 330.48 138.24 
Q 333.36 138.24 333.36 135.36 
L 333.36 116.64 
Q 333.36 113.76 330.48 113.76 
L 311.76 113.76 
Q 308.88 113.76 308.88 116.64 
L 308.88 135.36 
Q 308.88 138.24 311.76 138.24 
z
" clip-path="url(#p9a0de13489)" style="fill: #f1dcd8"/>
   </g>
   <g id="patch_37">
    <path d="M 344.16 138.24 
L 362.88 138.24 
Q 365.76 138.24 365.76 135.36 
L 365.76 116.64 
Q 365.76 113.76 362.88 113.76 
L 344.16 113.76 
Q 341.28 113.76 341.28 116.64 
L 341.28 135.36 
Q 341.28 138.24 344.16 138.24 
z
" clip-path="url(#p9a0de13489)" style="fill: #f1dcd8"/>
   </g>
   <g id="patch_38">
    <path d="M 376.56 138.24 
L 395.28 138.24 
Q 398.16 138.24 398.16 135.36 
L 398.16 116.64 
Q 398.16 113.76 395.28 113.76 
L 376.56 113.76 
Q 373.68 113.76 373.68 116.64 
L 373.68 135.36 
Q 373.68 138.24 376.56 138.24 
z
" clip-path="url(#p9a0de13489)" style="fill: #f1dcd8"/>
   </g>
   <g id="patch_39">
    <path d="M 246.96 105.84 
L 265.68 105.84 
Q 268.56 105.84 268.56 102.96 
L 268.56 84.24 
Q 268.56 81.36 265.68 81.36 
L 246.96 81.36 
Q 244.08 81.36 244.08 84.24 
L 244.08 102.96 
Q 244.08 105.84 246.96 105.84 
z
" clip-path="url(#p9a0de13489)" style="fill: #f1dcd8"/>
   </g>
   <g id="text_3">
    <text style="font-weight: 700; font-size: 13px; font-family: 'Microsoft YaHei', 'Microsoft YaHei UI', 'SimHei', 'Segoe UI', 'DejaVu Sans', sans-serif; text-anchor: middle; fill: #762f27" x="326.16" y="278.951875" transform="rotate(-0 326.16 278.951875)">≈ 85% 拥塞</text>
   </g>
   <g id="text_4">
    <text style="font-weight: 700; font-size: 15px; font-family: 'Microsoft YaHei', 'Microsoft YaHei UI', 'SimHei', 'Segoe UI', 'DejaVu Sans', sans-serif; text-anchor: start; fill: #27545f" x="437.76" y="30.96" transform="rotate(-0 437.76 30.96)">长宽比 H/W</text>
   </g>
   <g id="text_5">
    <text style="font-size: 11.5px; font-family: 'Microsoft YaHei', 'Microsoft YaHei UI', 'SimHei', 'Segoe UI', 'DejaVu Sans', sans-serif; text-anchor: middle; fill: #3a4252" x="478.8" y="277.752813" transform="rotate(-0 478.8 277.752813)">瘦高·差</text>
   </g>
   <g id="text_6">
    <text style="font-weight: 700; font-size: 11.5px; font-family: 'Microsoft YaHei', 'Microsoft YaHei UI', 'SimHei', 'Segoe UI', 'DejaVu Sans', sans-serif; text-anchor: middle; fill: #27545f" x="588.96" y="223.752812" transform="rotate(-0 588.96 223.752812)">方正·推荐</text>
   </g>
   <g id="text_7">
    <text style="font-weight: 700; font-size: 13px; font-family: 'Microsoft YaHei', 'Microsoft YaHei UI', 'SimHei', 'Segoe UI', 'DejaVu Sans', sans-serif; text-anchor: start; fill: #1a1f2b" x="63.36" y="348.791875" transform="rotate(-0 63.36 348.791875)">利用率两个口径</text>
   </g>
   <g id="text_8">
    <text style="font-size: 11.5px; font-family: 'Microsoft YaHei', 'Microsoft YaHei UI', 'SimHei', 'Segoe UI', 'DejaVu Sans', sans-serif; text-anchor: start; fill: #1a1f2b" x="63.36" y="400.274687" transform="rotate(-0 63.36 400.274687)">Total = (Σ单元+Σ宏)/Core      Effective = Σ单元/(Core − blockage − halo)</text>
   </g>
  </g>
 </g>
 <defs>
  <clipPath id="p9a0de13489">
   <rect x="5.76" y="5.76" width="648" height="489.6"/>
  </clipPath>
 </defs>
</svg>
