<?xml version="1.0" encoding="utf-8" standalone="no"?>
<!DOCTYPE svg PUBLIC "-//W3C//DTD SVG 1.1//EN"
  "http://www.w3.org/Graphics/SVG/1.1/DTD/svg11.dtd">
<svg xmlns:xlink="http://www.w3.org/1999/xlink" width="875.52pt" height="486.72pt" viewBox="0 0 875.52 486.72" xmlns="http://www.w3.org/2000/svg" version="1.1">
 <metadata>
  <rdf:RDF xmlns:dc="http://purl.org/dc/elements/1.1/" xmlns:cc="http://creativecommons.org/ns#" xmlns:rdf="http://www.w3.org/1999/02/22-rdf-syntax-ns#">
   <cc:Work>
    <dc:type rdf:resource="http://purl.org/dc/dcmitype/StillImage"/>
    <dc:date>2026-06-22T14:59:36.567303</dc:date>
    <dc:format>image/svg+xml</dc:format>
    <dc:creator>
     <cc:Agent>
      <dc:title>Matplotlib v3.10.8, https://matplotlib.org/</dc:title>
     </cc:Agent>
    </dc:creator>
   </cc:Work>
  </rdf:RDF>
 </metadata>
 <defs>
  <style type="text/css">*{stroke-linejoin: round; stroke-linecap: butt}</style>
 </defs>
 <g id="figure_1">
  <g id="patch_1">
   <path d="M 0 486.72 
L 875.52 486.72 
L 875.52 0 
L 0 0 
z
" style="fill: #ffffff"/>
  </g>
  <g id="axes_1">
   <g id="patch_2">
    <path d="M 5.76 480.96 
L 869.76 480.96 
L 869.76 5.76 
L 5.76 5.76 
z
" clip-path="url(#pa3b68a6402)" style="fill: #ffffff"/>
   </g>
   <g id="patch_3">
    <path d="M 25.92 469.44 
L 849.6 469.44 
Q 858.24 469.44 858.24 460.8 
L 858.24 25.92 
Q 858.24 17.28 849.6 17.28 
L 25.92 17.28 
Q 17.28 17.28 17.28 25.92 
L 17.28 460.8 
Q 17.28 469.44 25.92 469.44 
L 25.92 469.44 
z
" clip-path="url(#pa3b68a6402)" style="fill: none; stroke: #cbd5e1; stroke-width: 1.4; stroke-linejoin: miter"/>
   </g>
   <g id="patch_4">
    <path d="M 682.56 358.56 
L 869.76 358.56 
L 869.76 171.36 
L 682.56 171.36 
L 682.56 358.56 
z
" clip-path="url(#pa3b68a6402)" style="fill: none; stroke-dasharray: 8,6; stroke-dashoffset: 0; stroke: #14b8a6; stroke-width: 2; stroke-linejoin: miter"/>
   </g>
   <g id="patch_5">
    <path d="M 56.16 358.56 
L 322.56 358.56 
L 322.56 92.16 
L 56.16 92.16 
z
" clip-path="url(#pa3b68a6402)" style="fill: #ffffff; stroke: #2563eb; stroke-width: 2; stroke-linejoin: miter"/>
   </g>
   <g id="patch_6">
    <path d="M 358.56 358.56 
L 624.96 358.56 
L 624.96 92.16 
L 358.56 92.16 
z
" clip-path="url(#pa3b68a6402)" style="fill: #ffffff; stroke: #db2777; stroke-width: 2; stroke-linejoin: miter"/>
   </g>
   <g id="patch_7">
    <path d="M 682.56 358.56 
L 797.76 358.56 
L 797.76 92.16 
L 682.56 92.16 
z
" clip-path="url(#pa3b68a6402)" style="fill: #ccfbf1; stroke: #14b8a6; stroke-width: 2; stroke-linejoin: miter"/>
   </g>
   <g id="patch_8">
    <path d="M 69.12 348.48 
L 93.6 348.48 
Q 96.48 348.48 96.48 345.6 
L 96.48 321.12 
Q 96.48 318.24 93.6 318.24 
L 69.12 318.24 
Q 66.24 318.24 66.24 321.12 
L 66.24 345.6 
Q 66.24 348.48 69.12 348.48 
z
" clip-path="url(#pa3b68a6402)" style="fill: #dbeafe"/>
   </g>
   <g id="patch_9">
    <path d="M 109.44 348.48 
L 133.92 348.48 
Q 136.8 348.48 136.8 345.6 
L 136.8 321.12 
Q 136.8 318.24 133.92 318.24 
L 109.44 318.24 
Q 106.56 318.24 106.56 321.12 
L 106.56 345.6 
Q 106.56 348.48 109.44 348.48 
z
" clip-path="url(#pa3b68a6402)" style="fill: #dbeafe"/>
   </g>
   <g id="patch_10">
    <path d="M 149.76 348.48 
L 174.24 348.48 
Q 177.12 348.48 177.12 345.6 
L 177.12 321.12 
Q 177.12 318.24 174.24 318.24 
L 149.76 318.24 
Q 146.88 318.24 146.88 321.12 
L 146.88 345.6 
Q 146.88 348.48 149.76 348.48 
z
" clip-path="url(#pa3b68a6402)" style="fill: #dbeafe"/>
   </g>
   <g id="patch_11">
    <path d="M 190.08 348.48 
L 214.56 348.48 
Q 217.44 348.48 217.44 345.6 
L 217.44 321.12 
Q 217.44 318.24 214.56 318.24 
L 190.08 318.24 
Q 187.2 318.24 187.2 321.12 
L 187.2 345.6 
Q 187.2 348.48 190.08 348.48 
z
" clip-path="url(#pa3b68a6402)" style="fill: #dbeafe"/>
   </g>
   <g id="patch_12">
    <path d="M 230.4 348.48 
L 254.88 348.48 
Q 257.76 348.48 257.76 345.6 
L 257.76 321.12 
Q 257.76 318.24 254.88 318.24 
L 230.4 318.24 
Q 227.52 318.24 227.52 321.12 
L 227.52 345.6 
Q 227.52 348.48 230.4 348.48 
z
" clip-path="url(#pa3b68a6402)" style="fill: #dbeafe"/>
   </g>
   <g id="patch_13">
    <path d="M 270.72 348.48 
L 295.2 348.48 
Q 298.08 348.48 298.08 345.6 
L 298.08 321.12 
Q 298.08 318.24 295.2 318.24 
L 270.72 318.24 
Q 267.84 318.24 267.84 321.12 
L 267.84 345.6 
Q 267.84 348.48 270.72 348.48 
z
" clip-path="url(#pa3b68a6402)" style="fill: #dbeafe"/>
   </g>
   <g id="patch_14">
    <path d="M 69.12 308.16 
L 93.6 308.16 
Q 96.48 308.16 96.48 305.28 
L 96.48 280.8 
Q 96.48 277.92 93.6 277.92 
L 69.12 277.92 
Q 66.24 277.92 66.24 280.8 
L 66.24 305.28 
Q 66.24 308.16 69.12 308.16 
z
" clip-path="url(#pa3b68a6402)" style="fill: #dbeafe"/>
   </g>
   <g id="patch_15">
    <path d="M 109.44 308.16 
L 133.92 308.16 
Q 136.8 308.16 136.8 305.28 
L 136.8 280.8 
Q 136.8 277.92 133.92 277.92 
L 109.44 277.92 
Q 106.56 277.92 106.56 280.8 
L 106.56 305.28 
Q 106.56 308.16 109.44 308.16 
z
" clip-path="url(#pa3b68a6402)" style="fill: #dbeafe"/>
   </g>
   <g id="patch_16">
    <path d="M 149.76 308.16 
L 174.24 308.16 
Q 177.12 308.16 177.12 305.28 
L 177.12 280.8 
Q 177.12 277.92 174.24 277.92 
L 149.76 277.92 
Q 146.88 277.92 146.88 280.8 
L 146.88 305.28 
Q 146.88 308.16 149.76 308.16 
z
" clip-path="url(#pa3b68a6402)" style="fill: #dbeafe"/>
   </g>
   <g id="patch_17">
    <path d="M 190.08 308.16 
L 214.56 308.16 
Q 217.44 308.16 217.44 305.28 
L 217.44 280.8 
Q 217.44 277.92 214.56 277.92 
L 190.08 277.92 
Q 187.2 277.92 187.2 280.8 
L 187.2 305.28 
Q 187.2 308.16 190.08 308.16 
z
" clip-path="url(#pa3b68a6402)" style="fill: #dbeafe"/>
   </g>
   <g id="patch_18">
    <path d="M 230.4 308.16 
L 254.88 308.16 
Q 257.76 308.16 257.76 305.28 
L 257.76 280.8 
Q 257.76 277.92 254.88 277.92 
L 230.4 277.92 
Q 227.52 277.92 227.52 280.8 
L 227.52 305.28 
Q 227.52 308.16 230.4 308.16 
z
" clip-path="url(#pa3b68a6402)" style="fill: #dbeafe"/>
   </g>
   <g id="patch_19">
    <path d="M 270.72 308.16 
L 295.2 308.16 
Q 298.08 308.16 298.08 305.28 
L 298.08 280.8 
Q 298.08 277.92 295.2 277.92 
L 270.72 277.92 
Q 267.84 277.92 267.84 280.8 
L 267.84 305.28 
Q 267.84 308.16 270.72 308.16 
z
" clip-path="url(#pa3b68a6402)" style="fill: #dbeafe"/>
   </g>
   <g id="patch_20">
    <path d="M 69.12 267.84 
L 93.6 267.84 
Q 96.48 267.84 96.48 264.96 
L 96.48 240.48 
Q 96.48 237.6 93.6 237.6 
L 69.12 237.6 
Q 66.24 237.6 66.24 240.48 
L 66.24 264.96 
Q 66.24 267.84 69.12 267.84 
z
" clip-path="url(#pa3b68a6402)" style="fill: #dbeafe"/>
   </g>
   <g id="patch_21">
    <path d="M 109.44 267.84 
L 133.92 267.84 
Q 136.8 267.84 136.8 264.96 
L 136.8 240.48 
Q 136.8 237.6 133.92 237.6 
L 109.44 237.6 
Q 106.56 237.6 106.56 240.48 
L 106.56 264.96 
Q 106.56 267.84 109.44 267.84 
z
" clip-path="url(#pa3b68a6402)" style="fill: #dbeafe"/>
   </g>
   <g id="patch_22">
    <path d="M 149.76 267.84 
L 174.24 267.84 
Q 177.12 267.84 177.12 264.96 
L 177.12 240.48 
Q 177.12 237.6 174.24 237.6 
L 149.76 237.6 
Q 146.88 237.6 146.88 240.48 
L 146.88 264.96 
Q 146.88 267.84 149.76 267.84 
z
" clip-path="url(#pa3b68a6402)" style="fill: #dbeafe"/>
   </g>
   <g id="patch_23">
    <path d="M 190.08 267.84 
L 214.56 267.84 
Q 217.44 267.84 217.44 264.96 
L 217.44 240.48 
Q 217.44 237.6 214.56 237.6 
L 190.08 237.6 
Q 187.2 237.6 187.2 240.48 
L 187.2 264.96 
Q 187.2 267.84 190.08 267.84 
z
" clip-path="url(#pa3b68a6402)" style="fill: #dbeafe"/>
   </g>
   <g id="text_1">
    <text style="font-weight: 700; font-size: 14px; font-family: 'Microsoft YaHei', 'Microsoft YaHei UI', 'SimHei', 'Segoe UI', 'DejaVu Sans', sans-serif; text-anchor: middle; fill: #1e3a8a" x="189.36" y="70.56" transform="rotate(-0 189.36 70.56)">利用率 ≈ 50% · 宽松</text>
   </g>
   <g id="patch_24">
    <path d="M 371.52 348.48 
L 396 348.48 
Q 398.88 348.48 398.88 345.6 
L 398.88 321.12 
Q 398.88 318.24 396 318.24 
L 371.52 318.24 
Q 368.64 318.24 368.64 321.12 
L 368.64 345.6 
Q 368.64 348.48 371.52 348.48 
z
" clip-path="url(#pa3b68a6402)" style="fill: #fce7f3"/>
   </g>
   <g id="patch_25">
    <path d="M 411.84 348.48 
L 436.32 348.48 
Q 439.2 348.48 439.2 345.6 
L 439.2 321.12 
Q 439.2 318.24 436.32 318.24 
L 411.84 318.24 
Q 408.96 318.24 408.96 321.12 
L 408.96 345.6 
Q 408.96 348.48 411.84 348.48 
z
" clip-path="url(#pa3b68a6402)" style="fill: #fce7f3"/>
   </g>
   <g id="patch_26">
    <path d="M 452.16 348.48 
L 476.64 348.48 
Q 479.52 348.48 479.52 345.6 
L 479.52 321.12 
Q 479.52 318.24 476.64 318.24 
L 452.16 318.24 
Q 449.28 318.24 449.28 321.12 
L 449.28 345.6 
Q 449.28 348.48 452.16 348.48 
z
" clip-path="url(#pa3b68a6402)" style="fill: #fce7f3"/>
   </g>
   <g id="patch_27">
    <path d="M 492.48 348.48 
L 516.96 348.48 
Q 519.84 348.48 519.84 345.6 
L 519.84 321.12 
Q 519.84 318.24 516.96 318.24 
L 492.48 318.24 
Q 489.6 318.24 489.6 321.12 
L 489.6 345.6 
Q 489.6 348.48 492.48 348.48 
z
" clip-path="url(#pa3b68a6402)" style="fill: #fce7f3"/>
   </g>
   <g id="patch_28">
    <path d="M 532.8 348.48 
L 557.28 348.48 
Q 560.16 348.48 560.16 345.6 
L 560.16 321.12 
Q 560.16 318.24 557.28 318.24 
L 532.8 318.24 
Q 529.92 318.24 529.92 321.12 
L 529.92 345.6 
Q 529.92 348.48 532.8 348.48 
z
" clip-path="url(#pa3b68a6402)" style="fill: #fce7f3"/>
   </g>
   <g id="patch_29">
    <path d="M 573.12 348.48 
L 597.6 348.48 
Q 600.48 348.48 600.48 345.6 
L 600.48 321.12 
Q 600.48 318.24 597.6 318.24 
L 573.12 318.24 
Q 570.24 318.24 570.24 321.12 
L 570.24 345.6 
Q 570.24 348.48 573.12 348.48 
z
" clip-path="url(#pa3b68a6402)" style="fill: #fce7f3"/>
   </g>
   <g id="patch_30">
    <path d="M 371.52 308.16 
L 396 308.16 
Q 398.88 308.16 398.88 305.28 
L 398.88 280.8 
Q 398.88 277.92 396 277.92 
L 371.52 277.92 
Q 368.64 277.92 368.64 280.8 
L 368.64 305.28 
Q 368.64 308.16 371.52 308.16 
z
" clip-path="url(#pa3b68a6402)" style="fill: #fce7f3"/>
   </g>
   <g id="patch_31">
    <path d="M 411.84 308.16 
L 436.32 308.16 
Q 439.2 308.16 439.2 305.28 
L 439.2 280.8 
Q 439.2 277.92 436.32 277.92 
L 411.84 277.92 
Q 408.96 277.92 408.96 280.8 
L 408.96 305.28 
Q 408.96 308.16 411.84 308.16 
z
" clip-path="url(#pa3b68a6402)" style="fill: #fce7f3"/>
   </g>
   <g id="patch_32">
    <path d="M 452.16 308.16 
L 476.64 308.16 
Q 479.52 308.16 479.52 305.28 
L 479.52 280.8 
Q 479.52 277.92 476.64 277.92 
L 452.16 277.92 
Q 449.28 277.92 449.28 280.8 
L 449.28 305.28 
Q 449.28 308.16 452.16 308.16 
z
" clip-path="url(#pa3b68a6402)" style="fill: #fce7f3"/>
   </g>
   <g id="patch_33">
    <path d="M 492.48 308.16 
L 516.96 308.16 
Q 519.84 308.16 519.84 305.28 
L 519.84 280.8 
Q 519.84 277.92 516.96 277.92 
L 492.48 277.92 
Q 489.6 277.92 489.6 280.8 
L 489.6 305.28 
Q 489.6 308.16 492.48 308.16 
z
" clip-path="url(#pa3b68a6402)" style="fill: #fce7f3"/>
   </g>
   <g id="patch_34">
    <path d="M 532.8 308.16 
L 557.28 308.16 
Q 560.16 308.16 560.16 305.28 
L 560.16 280.8 
Q 560.16 277.92 557.28 277.92 
L 532.8 277.92 
Q 529.92 277.92 529.92 280.8 
L 529.92 305.28 
Q 529.92 308.16 532.8 308.16 
z
" clip-path="url(#pa3b68a6402)" style="fill: #fce7f3"/>
   </g>
   <g id="patch_35">
    <path d="M 573.12 308.16 
L 597.6 308.16 
Q 600.48 308.16 600.48 305.28 
L 600.48 280.8 
Q 600.48 277.92 597.6 277.92 
L 573.12 277.92 
Q 570.24 277.92 570.24 280.8 
L 570.24 305.28 
Q 570.24 308.16 573.12 308.16 
z
" clip-path="url(#pa3b68a6402)" style="fill: #fce7f3"/>
   </g>
   <g id="patch_36">
    <path d="M 371.52 267.84 
L 396 267.84 
Q 398.88 267.84 398.88 264.96 
L 398.88 240.48 
Q 398.88 237.6 396 237.6 
L 371.52 237.6 
Q 368.64 237.6 368.64 240.48 
L 368.64 264.96 
Q 368.64 267.84 371.52 267.84 
z
" clip-path="url(#pa3b68a6402)" style="fill: #fce7f3"/>
   </g>
   <g id="patch_37">
    <path d="M 411.84 267.84 
L 436.32 267.84 
Q 439.2 267.84 439.2 264.96 
L 439.2 240.48 
Q 439.2 237.6 436.32 237.6 
L 411.84 237.6 
Q 408.96 237.6 408.96 240.48 
L 408.96 264.96 
Q 408.96 267.84 411.84 267.84 
z
" clip-path="url(#pa3b68a6402)" style="fill: #fce7f3"/>
   </g>
   <g id="patch_38">
    <path d="M 452.16 267.84 
L 476.64 267.84 
Q 479.52 267.84 479.52 264.96 
L 479.52 240.48 
Q 479.52 237.6 476.64 237.6 
L 452.16 237.6 
Q 449.28 237.6 449.28 240.48 
L 449.28 264.96 
Q 449.28 267.84 452.16 267.84 
z
" clip-path="url(#pa3b68a6402)" style="fill: #fce7f3"/>
   </g>
   <g id="patch_39">
    <path d="M 492.48 267.84 
L 516.96 267.84 
Q 519.84 267.84 519.84 264.96 
L 519.84 240.48 
Q 519.84 237.6 516.96 237.6 
L 492.48 237.6 
Q 489.6 237.6 489.6 240.48 
L 489.6 264.96 
Q 489.6 267.84 492.48 267.84 
z
" clip-path="url(#pa3b68a6402)" style="fill: #fce7f3"/>
   </g>
   <g id="patch_40">
    <path d="M 532.8 267.84 
L 557.28 267.84 
Q 560.16 267.84 560.16 264.96 
L 560.16 240.48 
Q 560.16 237.6 557.28 237.6 
L 532.8 237.6 
Q 529.92 237.6 529.92 240.48 
L 529.92 264.96 
Q 529.92 267.84 532.8 267.84 
z
" clip-path="url(#pa3b68a6402)" style="fill: #fce7f3"/>
   </g>
   <g id="patch_41">
    <path d="M 573.12 267.84 
L 597.6 267.84 
Q 600.48 267.84 600.48 264.96 
L 600.48 240.48 
Q 600.48 237.6 597.6 237.6 
L 573.12 237.6 
Q 570.24 237.6 570.24 240.48 
L 570.24 264.96 
Q 570.24 267.84 573.12 267.84 
z
" clip-path="url(#pa3b68a6402)" style="fill: #fce7f3"/>
   </g>
   <g id="patch_42">
    <path d="M 371.52 227.52 
L 396 227.52 
Q 398.88 227.52 398.88 224.64 
L 398.88 200.16 
Q 398.88 197.28 396 197.28 
L 371.52 197.28 
Q 368.64 197.28 368.64 200.16 
L 368.64 224.64 
Q 368.64 227.52 371.52 227.52 
z
" clip-path="url(#pa3b68a6402)" style="fill: #fce7f3"/>
   </g>
   <g id="patch_43">
    <path d="M 411.84 227.52 
L 436.32 227.52 
Q 439.2 227.52 439.2 224.64 
L 439.2 200.16 
Q 439.2 197.28 436.32 197.28 
L 411.84 197.28 
Q 408.96 197.28 408.96 200.16 
L 408.96 224.64 
Q 408.96 227.52 411.84 227.52 
z
" clip-path="url(#pa3b68a6402)" style="fill: #fce7f3"/>
   </g>
   <g id="patch_44">
    <path d="M 452.16 227.52 
L 476.64 227.52 
Q 479.52 227.52 479.52 224.64 
L 479.52 200.16 
Q 479.52 197.28 476.64 197.28 
L 452.16 197.28 
Q 449.28 197.28 449.28 200.16 
L 449.28 224.64 
Q 449.28 227.52 452.16 227.52 
z
" clip-path="url(#pa3b68a6402)" style="fill: #fce7f3"/>
   </g>
   <g id="patch_45">
    <path d="M 492.48 227.52 
L 516.96 227.52 
Q 519.84 227.52 519.84 224.64 
L 519.84 200.16 
Q 519.84 197.28 516.96 197.28 
L 492.48 197.28 
Q 489.6 197.28 489.6 200.16 
L 489.6 224.64 
Q 489.6 227.52 492.48 227.52 
z
" clip-path="url(#pa3b68a6402)" style="fill: #fce7f3"/>
   </g>
   <g id="patch_46">
    <path d="M 532.8 227.52 
L 557.28 227.52 
Q 560.16 227.52 560.16 224.64 
L 560.16 200.16 
Q 560.16 197.28 557.28 197.28 
L 532.8 197.28 
Q 529.92 197.28 529.92 200.16 
L 529.92 224.64 
Q 529.92 227.52 532.8 227.52 
z
" clip-path="url(#pa3b68a6402)" style="fill: #fce7f3"/>
   </g>
   <g id="patch_47">
    <path d="M 573.12 227.52 
L 597.6 227.52 
Q 600.48 227.52 600.48 224.64 
L 600.48 200.16 
Q 600.48 197.28 597.6 197.28 
L 573.12 197.28 
Q 570.24 197.28 570.24 200.16 
L 570.24 224.64 
Q 570.24 227.52 573.12 227.52 
z
" clip-path="url(#pa3b68a6402)" style="fill: #fce7f3"/>
   </g>
   <g id="patch_48">
    <path d="M 371.52 187.2 
L 396 187.2 
Q 398.88 187.2 398.88 184.32 
L 398.88 159.84 
Q 398.88 156.96 396 156.96 
L 371.52 156.96 
Q 368.64 156.96 368.64 159.84 
L 368.64 184.32 
Q 368.64 187.2 371.52 187.2 
z
" clip-path="url(#pa3b68a6402)" style="fill: #fce7f3"/>
   </g>
   <g id="patch_49">
    <path d="M 411.84 187.2 
L 436.32 187.2 
Q 439.2 187.2 439.2 184.32 
L 439.2 159.84 
Q 439.2 156.96 436.32 156.96 
L 411.84 156.96 
Q 408.96 156.96 408.96 159.84 
L 408.96 184.32 
Q 408.96 187.2 411.84 187.2 
z
" clip-path="url(#pa3b68a6402)" style="fill: #fce7f3"/>
   </g>
   <g id="patch_50">
    <path d="M 452.16 187.2 
L 476.64 187.2 
Q 479.52 187.2 479.52 184.32 
L 479.52 159.84 
Q 479.52 156.96 476.64 156.96 
L 452.16 156.96 
Q 449.28 156.96 449.28 159.84 
L 449.28 184.32 
Q 449.28 187.2 452.16 187.2 
z
" clip-path="url(#pa3b68a6402)" style="fill: #fce7f3"/>
   </g>
   <g id="patch_51">
    <path d="M 492.48 187.2 
L 516.96 187.2 
Q 519.84 187.2 519.84 184.32 
L 519.84 159.84 
Q 519.84 156.96 516.96 156.96 
L 492.48 156.96 
Q 489.6 156.96 489.6 159.84 
L 489.6 184.32 
Q 489.6 187.2 492.48 187.2 
z
" clip-path="url(#pa3b68a6402)" style="fill: #fce7f3"/>
   </g>
   <g id="patch_52">
    <path d="M 532.8 187.2 
L 557.28 187.2 
Q 560.16 187.2 560.16 184.32 
L 560.16 159.84 
Q 560.16 156.96 557.28 156.96 
L 532.8 156.96 
Q 529.92 156.96 529.92 159.84 
L 529.92 184.32 
Q 529.92 187.2 532.8 187.2 
z
" clip-path="url(#pa3b68a6402)" style="fill: #fce7f3"/>
   </g>
   <g id="patch_53">
    <path d="M 573.12 187.2 
L 597.6 187.2 
Q 600.48 187.2 600.48 184.32 
L 600.48 159.84 
Q 600.48 156.96 597.6 156.96 
L 573.12 156.96 
Q 570.24 156.96 570.24 159.84 
L 570.24 184.32 
Q 570.24 187.2 573.12 187.2 
z
" clip-path="url(#pa3b68a6402)" style="fill: #fce7f3"/>
   </g>
   <g id="text_2">
    <text style="font-weight: 700; font-size: 14px; font-family: 'Microsoft YaHei', 'Microsoft YaHei UI', 'SimHei', 'Segoe UI', 'DejaVu Sans', sans-serif; text-anchor: middle; fill: #9d174d" x="491.76" y="70.56" transform="rotate(-0 491.76 70.56)">利用率 ≈ 85% · 易拥塞</text>
   </g>
   <g id="text_3">
    <text style="font-size: 12px; font-family: 'Microsoft YaHei', 'Microsoft YaHei UI', 'SimHei', 'Segoe UI', 'DejaVu Sans', sans-serif; fill: #0f766e" transform="translate(719.074687 393.3525)">H/W 大</text>
    <text style="font-size: 12px; font-family: 'Microsoft YaHei', 'Microsoft YaHei UI', 'SimHei', 'Segoe UI', 'DejaVu Sans', sans-serif; fill: #0f766e" transform="translate(720.715312 407.846625)">瘦高·差</text>
   </g>
   <g id="text_4">
    <text style="font-weight: 700; font-size: 12.5px; font-family: 'Microsoft YaHei', 'Microsoft YaHei UI', 'SimHei', 'Segoe UI', 'DejaVu Sans', sans-serif; text-anchor: middle; fill: #0f766e" x="776.16" y="70.56" transform="rotate(-0 776.16 70.56)">H/W ≈ 1 · 方正(推荐)</text>
   </g>
   <g id="text_5">
    <text style="font-size: 13px; font-family: 'Microsoft YaHei', 'Microsoft YaHei UI', 'SimHei', 'Segoe UI', 'DejaVu Sans', sans-serif; text-anchor: start; fill: #475569" x="56.16" y="416.178672" transform="rotate(-0 56.16 416.178672)">Total Util = (Σ std-cell + Σ macro) / Core 面积        Effective Util = Σ std-cell / (Core − blockage − halo)</text>
   </g>
   <g id="text_6">
    <g id="patch_54">
     <path d="M 461.086328 244.894703 
L 522.433672 244.894703 
Q 525.953672 244.894703 525.953672 241.374703 
L 525.953672 216.492016 
Q 525.953672 212.972016 522.433672 212.972016 
L 461.086328 212.972016 
Q 457.566328 212.972016 457.566328 216.492016 
L 457.566328 241.374703 
Q 457.566328 244.894703 461.086328 244.894703 
z
" style="fill: #fce7f3; stroke: #db2777; stroke-width: 1.3; stroke-linejoin: miter"/>
    </g>
    <text style="font-weight: 700; font-size: 11px; font-family: 'Microsoft YaHei', 'Microsoft YaHei UI', 'SimHei', 'Segoe UI', 'DejaVu Sans', sans-serif; fill: #9d174d" transform="translate(461.086328 225.300609)">congestion</text>
    <text style="font-weight: 700; font-size: 11px; font-family: 'Microsoft YaHei', 'Microsoft YaHei UI', 'SimHei', 'Segoe UI', 'DejaVu Sans', sans-serif; fill: #9d174d" transform="translate(480.76 238.640172)">热点</text>
   </g>
  </g>
 </g>
 <defs>
  <clipPath id="pa3b68a6402">
   <rect x="5.76" y="5.76" width="864" height="475.2"/>
  </clipPath>
 </defs>
</svg>
