<?xml version="1.0" encoding="utf-8" standalone="no"?>
<!DOCTYPE svg PUBLIC "-//W3C//DTD SVG 1.1//EN"
  "http://www.w3.org/Graphics/SVG/1.1/DTD/svg11.dtd">
<svg xmlns:xlink="http://www.w3.org/1999/xlink" width="983.52pt" height="529.92pt" viewBox="0 0 983.52 529.92" xmlns="http://www.w3.org/2000/svg" version="1.1">
 <metadata>
  <rdf:RDF xmlns:dc="http://purl.org/dc/elements/1.1/" xmlns:cc="http://creativecommons.org/ns#" xmlns:rdf="http://www.w3.org/1999/02/22-rdf-syntax-ns#">
   <cc:Work>
    <dc:type rdf:resource="http://purl.org/dc/dcmitype/StillImage"/>
    <dc:date>2026-06-22T18:10:08.609263</dc:date>
    <dc:format>image/svg+xml</dc:format>
    <dc:creator>
     <cc:Agent>
      <dc:title>Matplotlib v3.10.8, https://matplotlib.org/</dc:title>
     </cc:Agent>
    </dc:creator>
   </cc:Work>
  </rdf:RDF>
 </metadata>
 <defs>
  <style type="text/css">*{stroke-linejoin: round; stroke-linecap: butt}</style>
 </defs>
 <g id="figure_1">
  <g id="patch_1">
   <path d="M 0 529.92 
L 983.52 529.92 
L 983.52 0 
L 0 0 
z
" style="fill: #ffffff"/>
  </g>
  <g id="axes_1">
   <g id="patch_2">
    <path d="M 5.76 524.16 
L 977.76 524.16 
L 977.76 5.76 
L 5.76 5.76 
z
" clip-path="url(#pddbfd2ae64)" style="fill: #ffffff"/>
   </g>
   <g id="patch_3">
    <path d="M 92.16 452.16 
L 668.16 452.16 
L 668.16 365.76 
L 92.16 365.76 
z
" clip-path="url(#pddbfd2ae64)" style="fill: #f1f5f9; stroke: #cbd5e1; stroke-linejoin: miter"/>
   </g>
   <g id="patch_4">
    <path d="M 92.16 365.76 
L 668.16 365.76 
L 668.16 279.36 
L 92.16 279.36 
z
" clip-path="url(#pddbfd2ae64)" style="fill: #ffffff; stroke: #cbd5e1; stroke-linejoin: miter"/>
   </g>
   <g id="patch_5">
    <path d="M 92.16 279.36 
L 668.16 279.36 
L 668.16 192.96 
L 92.16 192.96 
z
" clip-path="url(#pddbfd2ae64)" style="fill: #f1f5f9; stroke: #cbd5e1; stroke-linejoin: miter"/>
   </g>
   <g id="patch_6">
    <path d="M 92.16 192.96 
L 668.16 192.96 
L 668.16 106.56 
L 92.16 106.56 
z
" clip-path="url(#pddbfd2ae64)" style="fill: #ffffff; stroke: #cbd5e1; stroke-linejoin: miter"/>
   </g>
   <g id="text_1">
    <text style="font-size: 13px; font-family: 'Microsoft YaHei', 'Microsoft YaHei UI', 'SimHei', 'Segoe UI', 'DejaVu Sans', sans-serif; text-anchor: start; fill: #475569" x="686.16" y="412.540078" transform="rotate(-0 686.16 412.540078)">Row 0 · 正放 R0</text>
   </g>
   <g id="patch_7">
    <path d="M 131.76 437.76 
L 203.76 437.76 
Q 207.36 437.76 207.36 434.16 
L 207.36 383.76 
Q 207.36 380.16 203.76 380.16 
L 131.76 380.16 
Q 128.16 380.16 128.16 383.76 
L 128.16 434.16 
Q 128.16 437.76 131.76 437.76 
z
" clip-path="url(#pddbfd2ae64)" style="fill: #dbeafe; stroke: #2563eb; stroke-width: 1.1; stroke-linejoin: miter"/>
   </g>
   <g id="patch_8">
    <path d="M 243.36 437.76 
L 315.36 437.76 
Q 318.96 437.76 318.96 434.16 
L 318.96 383.76 
Q 318.96 380.16 315.36 380.16 
L 243.36 380.16 
Q 239.76 380.16 239.76 383.76 
L 239.76 434.16 
Q 239.76 437.76 243.36 437.76 
z
" clip-path="url(#pddbfd2ae64)" style="fill: #dbeafe; stroke: #2563eb; stroke-width: 1.1; stroke-linejoin: miter"/>
   </g>
   <g id="patch_9">
    <path d="M 354.96 437.76 
L 426.96 437.76 
Q 430.56 437.76 430.56 434.16 
L 430.56 383.76 
Q 430.56 380.16 426.96 380.16 
L 354.96 380.16 
Q 351.36 380.16 351.36 383.76 
L 351.36 434.16 
Q 351.36 437.76 354.96 437.76 
z
" clip-path="url(#pddbfd2ae64)" style="fill: #dbeafe; stroke: #2563eb; stroke-width: 1.1; stroke-linejoin: miter"/>
   </g>
   <g id="patch_10">
    <path d="M 466.56 437.76 
L 538.56 437.76 
Q 542.16 437.76 542.16 434.16 
L 542.16 383.76 
Q 542.16 380.16 538.56 380.16 
L 466.56 380.16 
Q 462.96 380.16 462.96 383.76 
L 462.96 434.16 
Q 462.96 437.76 466.56 437.76 
z
" clip-path="url(#pddbfd2ae64)" style="fill: #dbeafe; stroke: #2563eb; stroke-width: 1.1; stroke-linejoin: miter"/>
   </g>
   <g id="patch_11">
    <path d="M 578.16 437.76 
L 650.16 437.76 
Q 653.76 437.76 653.76 434.16 
L 653.76 383.76 
Q 653.76 380.16 650.16 380.16 
L 578.16 380.16 
Q 574.56 380.16 574.56 383.76 
L 574.56 434.16 
Q 574.56 437.76 578.16 437.76 
z
" clip-path="url(#pddbfd2ae64)" style="fill: #dbeafe; stroke: #2563eb; stroke-width: 1.1; stroke-linejoin: miter"/>
   </g>
   <g id="text_2">
    <text style="font-size: 13px; font-family: 'Microsoft YaHei', 'Microsoft YaHei UI', 'SimHei', 'Segoe UI', 'DejaVu Sans', sans-serif; text-anchor: start; fill: #475569" x="686.16" y="326.140078" transform="rotate(-0 686.16 326.140078)">Row 1 · 翻转 FS</text>
   </g>
   <g id="patch_12">
    <path d="M 131.76 351.36 
L 203.76 351.36 
Q 207.36 351.36 207.36 347.76 
L 207.36 297.36 
Q 207.36 293.76 203.76 293.76 
L 131.76 293.76 
Q 128.16 293.76 128.16 297.36 
L 128.16 347.76 
Q 128.16 351.36 131.76 351.36 
z
" clip-path="url(#pddbfd2ae64)" style="fill: #dbeafe; stroke: #2563eb; stroke-width: 1.1; stroke-linejoin: miter"/>
   </g>
   <g id="patch_13">
    <path d="M 243.36 351.36 
L 315.36 351.36 
Q 318.96 351.36 318.96 347.76 
L 318.96 297.36 
Q 318.96 293.76 315.36 293.76 
L 243.36 293.76 
Q 239.76 293.76 239.76 297.36 
L 239.76 347.76 
Q 239.76 351.36 243.36 351.36 
z
" clip-path="url(#pddbfd2ae64)" style="fill: #dbeafe; stroke: #2563eb; stroke-width: 1.1; stroke-linejoin: miter"/>
   </g>
   <g id="patch_14">
    <path d="M 354.96 351.36 
L 426.96 351.36 
Q 430.56 351.36 430.56 347.76 
L 430.56 297.36 
Q 430.56 293.76 426.96 293.76 
L 354.96 293.76 
Q 351.36 293.76 351.36 297.36 
L 351.36 347.76 
Q 351.36 351.36 354.96 351.36 
z
" clip-path="url(#pddbfd2ae64)" style="fill: #dbeafe; stroke: #2563eb; stroke-width: 1.1; stroke-linejoin: miter"/>
   </g>
   <g id="patch_15">
    <path d="M 466.56 351.36 
L 538.56 351.36 
Q 542.16 351.36 542.16 347.76 
L 542.16 297.36 
Q 542.16 293.76 538.56 293.76 
L 466.56 293.76 
Q 462.96 293.76 462.96 297.36 
L 462.96 347.76 
Q 462.96 351.36 466.56 351.36 
z
" clip-path="url(#pddbfd2ae64)" style="fill: #dbeafe; stroke: #2563eb; stroke-width: 1.1; stroke-linejoin: miter"/>
   </g>
   <g id="patch_16">
    <path d="M 578.16 351.36 
L 650.16 351.36 
Q 653.76 351.36 653.76 347.76 
L 653.76 297.36 
Q 653.76 293.76 650.16 293.76 
L 578.16 293.76 
Q 574.56 293.76 574.56 297.36 
L 574.56 347.76 
Q 574.56 351.36 578.16 351.36 
z
" clip-path="url(#pddbfd2ae64)" style="fill: #dbeafe; stroke: #2563eb; stroke-width: 1.1; stroke-linejoin: miter"/>
   </g>
   <g id="text_3">
    <text style="font-size: 13px; font-family: 'Microsoft YaHei', 'Microsoft YaHei UI', 'SimHei', 'Segoe UI', 'DejaVu Sans', sans-serif; text-anchor: start; fill: #475569" x="686.16" y="239.740078" transform="rotate(-0 686.16 239.740078)">Row 2 · 正放 R0</text>
   </g>
   <g id="patch_17">
    <path d="M 131.76 264.96 
L 203.76 264.96 
Q 207.36 264.96 207.36 261.36 
L 207.36 210.96 
Q 207.36 207.36 203.76 207.36 
L 131.76 207.36 
Q 128.16 207.36 128.16 210.96 
L 128.16 261.36 
Q 128.16 264.96 131.76 264.96 
z
" clip-path="url(#pddbfd2ae64)" style="fill: #dbeafe; stroke: #2563eb; stroke-width: 1.1; stroke-linejoin: miter"/>
   </g>
   <g id="patch_18">
    <path d="M 243.36 264.96 
L 315.36 264.96 
Q 318.96 264.96 318.96 261.36 
L 318.96 210.96 
Q 318.96 207.36 315.36 207.36 
L 243.36 207.36 
Q 239.76 207.36 239.76 210.96 
L 239.76 261.36 
Q 239.76 264.96 243.36 264.96 
z
" clip-path="url(#pddbfd2ae64)" style="fill: #dbeafe; stroke: #2563eb; stroke-width: 1.1; stroke-linejoin: miter"/>
   </g>
   <g id="patch_19">
    <path d="M 354.96 264.96 
L 426.96 264.96 
Q 430.56 264.96 430.56 261.36 
L 430.56 210.96 
Q 430.56 207.36 426.96 207.36 
L 354.96 207.36 
Q 351.36 207.36 351.36 210.96 
L 351.36 261.36 
Q 351.36 264.96 354.96 264.96 
z
" clip-path="url(#pddbfd2ae64)" style="fill: #dbeafe; stroke: #2563eb; stroke-width: 1.1; stroke-linejoin: miter"/>
   </g>
   <g id="patch_20">
    <path d="M 466.56 264.96 
L 538.56 264.96 
Q 542.16 264.96 542.16 261.36 
L 542.16 210.96 
Q 542.16 207.36 538.56 207.36 
L 466.56 207.36 
Q 462.96 207.36 462.96 210.96 
L 462.96 261.36 
Q 462.96 264.96 466.56 264.96 
z
" clip-path="url(#pddbfd2ae64)" style="fill: #dbeafe; stroke: #2563eb; stroke-width: 1.1; stroke-linejoin: miter"/>
   </g>
   <g id="patch_21">
    <path d="M 578.16 264.96 
L 650.16 264.96 
Q 653.76 264.96 653.76 261.36 
L 653.76 210.96 
Q 653.76 207.36 650.16 207.36 
L 578.16 207.36 
Q 574.56 207.36 574.56 210.96 
L 574.56 261.36 
Q 574.56 264.96 578.16 264.96 
z
" clip-path="url(#pddbfd2ae64)" style="fill: #dbeafe; stroke: #2563eb; stroke-width: 1.1; stroke-linejoin: miter"/>
   </g>
   <g id="text_4">
    <text style="font-size: 13px; font-family: 'Microsoft YaHei', 'Microsoft YaHei UI', 'SimHei', 'Segoe UI', 'DejaVu Sans', sans-serif; text-anchor: start; fill: #475569" x="686.16" y="153.340078" transform="rotate(-0 686.16 153.340078)">Row 3 · 翻转 FS</text>
   </g>
   <g id="patch_22">
    <path d="M 131.76 178.56 
L 203.76 178.56 
Q 207.36 178.56 207.36 174.96 
L 207.36 124.56 
Q 207.36 120.96 203.76 120.96 
L 131.76 120.96 
Q 128.16 120.96 128.16 124.56 
L 128.16 174.96 
Q 128.16 178.56 131.76 178.56 
z
" clip-path="url(#pddbfd2ae64)" style="fill: #dbeafe; stroke: #2563eb; stroke-width: 1.1; stroke-linejoin: miter"/>
   </g>
   <g id="patch_23">
    <path d="M 243.36 178.56 
L 315.36 178.56 
Q 318.96 178.56 318.96 174.96 
L 318.96 124.56 
Q 318.96 120.96 315.36 120.96 
L 243.36 120.96 
Q 239.76 120.96 239.76 124.56 
L 239.76 174.96 
Q 239.76 178.56 243.36 178.56 
z
" clip-path="url(#pddbfd2ae64)" style="fill: #dbeafe; stroke: #2563eb; stroke-width: 1.1; stroke-linejoin: miter"/>
   </g>
   <g id="patch_24">
    <path d="M 354.96 178.56 
L 426.96 178.56 
Q 430.56 178.56 430.56 174.96 
L 430.56 124.56 
Q 430.56 120.96 426.96 120.96 
L 354.96 120.96 
Q 351.36 120.96 351.36 124.56 
L 351.36 174.96 
Q 351.36 178.56 354.96 178.56 
z
" clip-path="url(#pddbfd2ae64)" style="fill: #dbeafe; stroke: #2563eb; stroke-width: 1.1; stroke-linejoin: miter"/>
   </g>
   <g id="patch_25">
    <path d="M 466.56 178.56 
L 538.56 178.56 
Q 542.16 178.56 542.16 174.96 
L 542.16 124.56 
Q 542.16 120.96 538.56 120.96 
L 466.56 120.96 
Q 462.96 120.96 462.96 124.56 
L 462.96 174.96 
Q 462.96 178.56 466.56 178.56 
z
" clip-path="url(#pddbfd2ae64)" style="fill: #dbeafe; stroke: #2563eb; stroke-width: 1.1; stroke-linejoin: miter"/>
   </g>
   <g id="patch_26">
    <path d="M 578.16 178.56 
L 650.16 178.56 
Q 653.76 178.56 653.76 174.96 
L 653.76 124.56 
Q 653.76 120.96 650.16 120.96 
L 578.16 120.96 
Q 574.56 120.96 574.56 124.56 
L 574.56 174.96 
Q 574.56 178.56 578.16 178.56 
z
" clip-path="url(#pddbfd2ae64)" style="fill: #dbeafe; stroke: #2563eb; stroke-width: 1.1; stroke-linejoin: miter"/>
   </g>
   <g id="text_5">
    <text style="font-weight: 700; font-size: 13px; font-family: 'Microsoft YaHei', 'Microsoft YaHei UI', 'SimHei', 'Segoe UI', 'DejaVu Sans', sans-serif; text-anchor: end; fill: #f59e0b" x="56.16" y="455.740078" transform="rotate(-0 56.16 455.740078)">VDD</text>
   </g>
   <g id="text_6">
    <text style="font-weight: 700; font-size: 13px; font-family: 'Microsoft YaHei', 'Microsoft YaHei UI', 'SimHei', 'Segoe UI', 'DejaVu Sans', sans-serif; text-anchor: end; fill: #1e293b" x="56.16" y="369.340078" transform="rotate(-0 56.16 369.340078)">VSS</text>
   </g>
   <g id="text_7">
    <text style="font-weight: 700; font-size: 13px; font-family: 'Microsoft YaHei', 'Microsoft YaHei UI', 'SimHei', 'Segoe UI', 'DejaVu Sans', sans-serif; text-anchor: end; fill: #f59e0b" x="56.16" y="282.940078" transform="rotate(-0 56.16 282.940078)">VDD</text>
   </g>
   <g id="text_8">
    <text style="font-weight: 700; font-size: 13px; font-family: 'Microsoft YaHei', 'Microsoft YaHei UI', 'SimHei', 'Segoe UI', 'DejaVu Sans', sans-serif; text-anchor: end; fill: #1e293b" x="56.16" y="196.540078" transform="rotate(-0 56.16 196.540078)">VSS</text>
   </g>
   <g id="text_9">
    <text style="font-weight: 700; font-size: 13px; font-family: 'Microsoft YaHei', 'Microsoft YaHei UI', 'SimHei', 'Segoe UI', 'DejaVu Sans', sans-serif; text-anchor: end; fill: #f59e0b" x="56.16" y="110.140078" transform="rotate(-0 56.16 110.140078)">VDD</text>
   </g>
   <g id="text_10">
    <text style="font-size: 11.5px; font-family: 'Microsoft YaHei', 'Microsoft YaHei UI', 'SimHei', 'Segoe UI', 'DejaVu Sans', sans-serif; text-anchor: start; fill: #64748b" x="92.16" y="484.56" transform="rotate(-0 92.16 484.56)">↑ site 栅格（行内最小放置单位，定义于 LEF）</text>
   </g>
   <g id="text_11">
    <text style="font-size: 11.5px; font-family: 'Microsoft YaHei', 'Microsoft YaHei UI', 'SimHei', 'Segoe UI', 'DejaVu Sans', sans-serif; fill: #64748b" transform="translate(826.56 202.152812)">相邻行镜像翻转</text>
    <text style="font-size: 11.5px; font-family: 'Microsoft YaHei', 'Microsoft YaHei UI', 'SimHei', 'Segoe UI', 'DejaVu Sans', sans-serif; fill: #64748b" transform="translate(826.56 220.639422)">→ 同名供电轨落行边界</text>
    <text style="font-size: 11.5px; font-family: 'Microsoft YaHei', 'Microsoft YaHei UI', 'SimHei', 'Segoe UI', 'DejaVu Sans', sans-serif; fill: #64748b" transform="translate(826.56 239.126031)">→ 被两行共享、条数减半</text>
   </g>
   <g id="line2d_1">
    <path d="M 66.96 452.16 
L 668.16 452.16 
" clip-path="url(#pddbfd2ae64)" style="fill: none; stroke: #f59e0b; stroke-width: 3.6; stroke-linecap: round"/>
   </g>
   <g id="line2d_2">
    <path d="M 66.96 365.76 
L 668.16 365.76 
" clip-path="url(#pddbfd2ae64)" style="fill: none; stroke: #1e293b; stroke-width: 3.6; stroke-linecap: round"/>
   </g>
   <g id="line2d_3">
    <path d="M 66.96 279.36 
L 668.16 279.36 
" clip-path="url(#pddbfd2ae64)" style="fill: none; stroke: #f59e0b; stroke-width: 3.6; stroke-linecap: round"/>
   </g>
   <g id="line2d_4">
    <path d="M 66.96 192.96 
L 668.16 192.96 
" clip-path="url(#pddbfd2ae64)" style="fill: none; stroke: #1e293b; stroke-width: 3.6; stroke-linecap: round"/>
   </g>
   <g id="line2d_5">
    <path d="M 66.96 106.56 
L 668.16 106.56 
" clip-path="url(#pddbfd2ae64)" style="fill: none; stroke: #f59e0b; stroke-width: 3.6; stroke-linecap: round"/>
   </g>
   <g id="line2d_6">
    <path d="M 92.16 452.16 
L 92.16 437.76 
" clip-path="url(#pddbfd2ae64)" style="fill: none; stroke: #64748b; stroke-width: 0.7; stroke-linecap: round"/>
   </g>
   <g id="line2d_7">
    <path d="M 128.16 452.16 
L 128.16 437.76 
" clip-path="url(#pddbfd2ae64)" style="fill: none; stroke: #64748b; stroke-width: 0.7; stroke-linecap: round"/>
   </g>
   <g id="line2d_8">
    <path d="M 164.16 452.16 
L 164.16 437.76 
" clip-path="url(#pddbfd2ae64)" style="fill: none; stroke: #64748b; stroke-width: 0.7; stroke-linecap: round"/>
   </g>
   <g id="line2d_9">
    <path d="M 200.16 452.16 
L 200.16 437.76 
" clip-path="url(#pddbfd2ae64)" style="fill: none; stroke: #64748b; stroke-width: 0.7; stroke-linecap: round"/>
   </g>
   <g id="line2d_10">
    <path d="M 236.16 452.16 
L 236.16 437.76 
" clip-path="url(#pddbfd2ae64)" style="fill: none; stroke: #64748b; stroke-width: 0.7; stroke-linecap: round"/>
   </g>
   <g id="line2d_11">
    <path d="M 272.16 452.16 
L 272.16 437.76 
" clip-path="url(#pddbfd2ae64)" style="fill: none; stroke: #64748b; stroke-width: 0.7; stroke-linecap: round"/>
   </g>
   <g id="line2d_12">
    <path d="M 308.16 452.16 
L 308.16 437.76 
" clip-path="url(#pddbfd2ae64)" style="fill: none; stroke: #64748b; stroke-width: 0.7; stroke-linecap: round"/>
   </g>
   <g id="line2d_13">
    <path d="M 344.16 452.16 
L 344.16 437.76 
" clip-path="url(#pddbfd2ae64)" style="fill: none; stroke: #64748b; stroke-width: 0.7; stroke-linecap: round"/>
   </g>
   <g id="line2d_14">
    <path d="M 380.16 452.16 
L 380.16 437.76 
" clip-path="url(#pddbfd2ae64)" style="fill: none; stroke: #64748b; stroke-width: 0.7; stroke-linecap: round"/>
   </g>
   <g id="line2d_15">
    <path d="M 416.16 452.16 
L 416.16 437.76 
" clip-path="url(#pddbfd2ae64)" style="fill: none; stroke: #64748b; stroke-width: 0.7; stroke-linecap: round"/>
   </g>
   <g id="line2d_16">
    <path d="M 452.16 452.16 
L 452.16 437.76 
" clip-path="url(#pddbfd2ae64)" style="fill: none; stroke: #64748b; stroke-width: 0.7; stroke-linecap: round"/>
   </g>
   <g id="line2d_17">
    <path d="M 488.16 452.16 
L 488.16 437.76 
" clip-path="url(#pddbfd2ae64)" style="fill: none; stroke: #64748b; stroke-width: 0.7; stroke-linecap: round"/>
   </g>
   <g id="line2d_18">
    <path d="M 524.16 452.16 
L 524.16 437.76 
" clip-path="url(#pddbfd2ae64)" style="fill: none; stroke: #64748b; stroke-width: 0.7; stroke-linecap: round"/>
   </g>
   <g id="line2d_19">
    <path d="M 560.16 452.16 
L 560.16 437.76 
" clip-path="url(#pddbfd2ae64)" style="fill: none; stroke: #64748b; stroke-width: 0.7; stroke-linecap: round"/>
   </g>
   <g id="line2d_20">
    <path d="M 596.16 452.16 
L 596.16 437.76 
" clip-path="url(#pddbfd2ae64)" style="fill: none; stroke: #64748b; stroke-width: 0.7; stroke-linecap: round"/>
   </g>
   <g id="line2d_21">
    <path d="M 632.16 452.16 
L 632.16 437.76 
" clip-path="url(#pddbfd2ae64)" style="fill: none; stroke: #64748b; stroke-width: 0.7; stroke-linecap: round"/>
   </g>
   <g id="patch_27">
    <path d="M 829.44 48.96 
L 838.08 48.96 
Q 840.96 48.96 840.96 46.08 
L 840.96 37.44 
Q 840.96 34.56 838.08 34.56 
L 829.44 34.56 
Q 826.56 34.56 826.56 37.44 
L 826.56 46.08 
Q 826.56 48.96 829.44 48.96 
z
" clip-path="url(#pddbfd2ae64)" style="fill: #f59e0b"/>
   </g>
   <g id="text_12">
    <text style="font-size: 13px; font-family: 'Microsoft YaHei', 'Microsoft YaHei UI', 'SimHei', 'Segoe UI', 'DejaVu Sans', sans-serif; text-anchor: start; fill: #475569" x="852.48" y="45.340078" transform="rotate(-0 852.48 45.340078)">VDD rail</text>
   </g>
   <g id="patch_28">
    <path d="M 829.44 84.96 
L 838.08 84.96 
Q 840.96 84.96 840.96 82.08 
L 840.96 73.44 
Q 840.96 70.56 838.08 70.56 
L 829.44 70.56 
Q 826.56 70.56 826.56 73.44 
L 826.56 82.08 
Q 826.56 84.96 829.44 84.96 
z
" clip-path="url(#pddbfd2ae64)" style="fill: #1e293b"/>
   </g>
   <g id="text_13">
    <text style="font-size: 13px; font-family: 'Microsoft YaHei', 'Microsoft YaHei UI', 'SimHei', 'Segoe UI', 'DejaVu Sans', sans-serif; text-anchor: start; fill: #475569" x="852.48" y="81.340078" transform="rotate(-0 852.48 81.340078)">VSS rail</text>
   </g>
   <g id="patch_29">
    <path d="M 829.44 120.96 
L 838.08 120.96 
Q 840.96 120.96 840.96 118.08 
L 840.96 109.44 
Q 840.96 106.56 838.08 106.56 
L 829.44 106.56 
Q 826.56 106.56 826.56 109.44 
L 826.56 118.08 
Q 826.56 120.96 829.44 120.96 
z
" clip-path="url(#pddbfd2ae64)" style="fill: #2563eb"/>
   </g>
   <g id="text_14">
    <text style="font-size: 13px; font-family: 'Microsoft YaHei', 'Microsoft YaHei UI', 'SimHei', 'Segoe UI', 'DejaVu Sans', sans-serif; text-anchor: start; fill: #475569" x="852.48" y="117.340078" transform="rotate(-0 852.48 117.340078)">标准单元</text>
   </g>
  </g>
 </g>
 <defs>
  <clipPath id="pddbfd2ae64">
   <rect x="5.76" y="5.76" width="972" height="518.4"/>
  </clipPath>
 </defs>
</svg>
