<?xml version="1.0" encoding="utf-8" standalone="no"?>
<!DOCTYPE svg PUBLIC "-//W3C//DTD SVG 1.1//EN"
  "http://www.w3.org/Graphics/SVG/1.1/DTD/svg11.dtd">
<svg xmlns:xlink="http://www.w3.org/1999/xlink" width="659.52pt" height="501.12pt" viewBox="0 0 659.52 501.12" xmlns="http://www.w3.org/2000/svg" version="1.1">
 <metadata>
  <rdf:RDF xmlns:dc="http://purl.org/dc/elements/1.1/" xmlns:cc="http://creativecommons.org/ns#" xmlns:rdf="http://www.w3.org/1999/02/22-rdf-syntax-ns#">
   <cc:Work>
    <dc:type rdf:resource="http://purl.org/dc/dcmitype/StillImage"/>
    <dc:date>2026-06-24T02:09:56.602226</dc:date>
    <dc:format>image/svg+xml</dc:format>
    <dc:creator>
     <cc:Agent>
      <dc:title>Matplotlib v3.10.8, https://matplotlib.org/</dc:title>
     </cc:Agent>
    </dc:creator>
   </cc:Work>
  </rdf:RDF>
 </metadata>
 <defs>
  <style type="text/css">*{stroke-linejoin: round; stroke-linecap: butt}</style>
 </defs>
 <g id="figure_1">
  <g id="patch_1">
   <path d="M 0 501.12 
L 659.52 501.12 
L 659.52 0 
L 0 0 
z
" style="fill: #ffffff"/>
  </g>
  <g id="axes_1">
   <g id="patch_2">
    <path d="M 5.76 495.36 
L 653.76 495.36 
L 653.76 5.76 
L 5.76 5.76 
z
" clip-path="url(#pfeca98e632)" style="fill: #ffffff"/>
   </g>
   <g id="patch_3">
    <path d="M 77.76 336.96 
L 466.56 336.96 
L 466.56 261.36 
L 77.76 261.36 
z
" clip-path="url(#pfeca98e632)" style="fill: #edf0f4; stroke: #c7cdd6; stroke-linejoin: miter"/>
   </g>
   <g id="patch_4">
    <path d="M 77.76 261.36 
L 466.56 261.36 
L 466.56 185.76 
L 77.76 185.76 
z
" clip-path="url(#pfeca98e632)" style="fill: #ffffff; stroke: #c7cdd6; stroke-linejoin: miter"/>
   </g>
   <g id="patch_5">
    <path d="M 77.76 185.76 
L 466.56 185.76 
L 466.56 110.16 
L 77.76 110.16 
z
" clip-path="url(#pfeca98e632)" style="fill: #edf0f4; stroke: #c7cdd6; stroke-linejoin: miter"/>
   </g>
   <g id="patch_6">
    <path d="M 77.76 110.16 
L 466.56 110.16 
L 466.56 34.56 
L 77.76 34.56 
z
" clip-path="url(#pfeca98e632)" style="fill: #ffffff; stroke: #c7cdd6; stroke-linejoin: miter"/>
   </g>
   <g id="patch_7">
    <path d="M 56.16 462.96 
L 603.36 462.96 
Q 610.56 462.96 610.56 455.76 
L 610.56 394.56 
Q 610.56 387.36 603.36 387.36 
L 56.16 387.36 
Q 48.96 387.36 48.96 394.56 
L 48.96 455.76 
Q 48.96 462.96 56.16 462.96 
z
" clip-path="url(#pfeca98e632)" style="fill: #f6cd9e; stroke: #b7bfcb; stroke-width: 1.4; stroke-linejoin: miter"/>
   </g>
   <g id="text_1">
    <text style="font-size: 15px; font-family: 'Microsoft YaHei', 'Microsoft YaHei UI', 'SimHei', 'Segoe UI', 'DejaVu Sans', sans-serif; text-anchor: start; fill: #3a4252" x="480.96" y="303.290859" transform="rotate(-0 480.96 303.290859)">Row 0·正放 R0</text>
   </g>
   <g id="patch_8">
    <path d="M 113.76 324.72 
L 174.96 324.72 
Q 178.56 324.72 178.56 321.12 
L 178.56 277.2 
Q 178.56 273.6 174.96 273.6 
L 113.76 273.6 
Q 110.16 273.6 110.16 277.2 
L 110.16 321.12 
Q 110.16 324.72 113.76 324.72 
z
" clip-path="url(#pfeca98e632)" style="fill: #d4c2e5; stroke: #46196b; stroke-linejoin: miter"/>
   </g>
   <g id="patch_9">
    <path d="M 205.92 324.72 
L 267.12 324.72 
Q 270.72 324.72 270.72 321.12 
L 270.72 277.2 
Q 270.72 273.6 267.12 273.6 
L 205.92 273.6 
Q 202.32 273.6 202.32 277.2 
L 202.32 321.12 
Q 202.32 324.72 205.92 324.72 
z
" clip-path="url(#pfeca98e632)" style="fill: #d4c2e5; stroke: #46196b; stroke-linejoin: miter"/>
   </g>
   <g id="patch_10">
    <path d="M 298.08 324.72 
L 359.28 324.72 
Q 362.88 324.72 362.88 321.12 
L 362.88 277.2 
Q 362.88 273.6 359.28 273.6 
L 298.08 273.6 
Q 294.48 273.6 294.48 277.2 
L 294.48 321.12 
Q 294.48 324.72 298.08 324.72 
z
" clip-path="url(#pfeca98e632)" style="fill: #d4c2e5; stroke: #46196b; stroke-linejoin: miter"/>
   </g>
   <g id="patch_11">
    <path d="M 390.24 324.72 
L 451.44 324.72 
Q 455.04 324.72 455.04 321.12 
L 455.04 277.2 
Q 455.04 273.6 451.44 273.6 
L 390.24 273.6 
Q 386.64 273.6 386.64 277.2 
L 386.64 321.12 
Q 386.64 324.72 390.24 324.72 
z
" clip-path="url(#pfeca98e632)" style="fill: #d4c2e5; stroke: #46196b; stroke-linejoin: miter"/>
   </g>
   <g id="text_2">
    <text style="font-size: 15px; font-family: 'Microsoft YaHei', 'Microsoft YaHei UI', 'SimHei', 'Segoe UI', 'DejaVu Sans', sans-serif; text-anchor: start; fill: #3a4252" x="480.96" y="227.690859" transform="rotate(-0 480.96 227.690859)">Row 1·翻转 FS</text>
   </g>
   <g id="patch_12">
    <path d="M 113.76 249.12 
L 174.96 249.12 
Q 178.56 249.12 178.56 245.52 
L 178.56 201.6 
Q 178.56 198 174.96 198 
L 113.76 198 
Q 110.16 198 110.16 201.6 
L 110.16 245.52 
Q 110.16 249.12 113.76 249.12 
z
" clip-path="url(#pfeca98e632)" style="fill: #d4c2e5; stroke: #46196b; stroke-linejoin: miter"/>
   </g>
   <g id="patch_13">
    <path d="M 205.92 249.12 
L 267.12 249.12 
Q 270.72 249.12 270.72 245.52 
L 270.72 201.6 
Q 270.72 198 267.12 198 
L 205.92 198 
Q 202.32 198 202.32 201.6 
L 202.32 245.52 
Q 202.32 249.12 205.92 249.12 
z
" clip-path="url(#pfeca98e632)" style="fill: #d4c2e5; stroke: #46196b; stroke-linejoin: miter"/>
   </g>
   <g id="patch_14">
    <path d="M 298.08 249.12 
L 359.28 249.12 
Q 362.88 249.12 362.88 245.52 
L 362.88 201.6 
Q 362.88 198 359.28 198 
L 298.08 198 
Q 294.48 198 294.48 201.6 
L 294.48 245.52 
Q 294.48 249.12 298.08 249.12 
z
" clip-path="url(#pfeca98e632)" style="fill: #d4c2e5; stroke: #46196b; stroke-linejoin: miter"/>
   </g>
   <g id="patch_15">
    <path d="M 390.24 249.12 
L 451.44 249.12 
Q 455.04 249.12 455.04 245.52 
L 455.04 201.6 
Q 455.04 198 451.44 198 
L 390.24 198 
Q 386.64 198 386.64 201.6 
L 386.64 245.52 
Q 386.64 249.12 390.24 249.12 
z
" clip-path="url(#pfeca98e632)" style="fill: #d4c2e5; stroke: #46196b; stroke-linejoin: miter"/>
   </g>
   <g id="text_3">
    <text style="font-size: 15px; font-family: 'Microsoft YaHei', 'Microsoft YaHei UI', 'SimHei', 'Segoe UI', 'DejaVu Sans', sans-serif; text-anchor: start; fill: #3a4252" x="480.96" y="152.090859" transform="rotate(-0 480.96 152.090859)">Row 2·正放 R0</text>
   </g>
   <g id="patch_16">
    <path d="M 113.76 173.52 
L 174.96 173.52 
Q 178.56 173.52 178.56 169.92 
L 178.56 126 
Q 178.56 122.4 174.96 122.4 
L 113.76 122.4 
Q 110.16 122.4 110.16 126 
L 110.16 169.92 
Q 110.16 173.52 113.76 173.52 
z
" clip-path="url(#pfeca98e632)" style="fill: #d4c2e5; stroke: #46196b; stroke-linejoin: miter"/>
   </g>
   <g id="patch_17">
    <path d="M 205.92 173.52 
L 267.12 173.52 
Q 270.72 173.52 270.72 169.92 
L 270.72 126 
Q 270.72 122.4 267.12 122.4 
L 205.92 122.4 
Q 202.32 122.4 202.32 126 
L 202.32 169.92 
Q 202.32 173.52 205.92 173.52 
z
" clip-path="url(#pfeca98e632)" style="fill: #d4c2e5; stroke: #46196b; stroke-linejoin: miter"/>
   </g>
   <g id="patch_18">
    <path d="M 298.08 173.52 
L 359.28 173.52 
Q 362.88 173.52 362.88 169.92 
L 362.88 126 
Q 362.88 122.4 359.28 122.4 
L 298.08 122.4 
Q 294.48 122.4 294.48 126 
L 294.48 169.92 
Q 294.48 173.52 298.08 173.52 
z
" clip-path="url(#pfeca98e632)" style="fill: #d4c2e5; stroke: #46196b; stroke-linejoin: miter"/>
   </g>
   <g id="patch_19">
    <path d="M 390.24 173.52 
L 451.44 173.52 
Q 455.04 173.52 455.04 169.92 
L 455.04 126 
Q 455.04 122.4 451.44 122.4 
L 390.24 122.4 
Q 386.64 122.4 386.64 126 
L 386.64 169.92 
Q 386.64 173.52 390.24 173.52 
z
" clip-path="url(#pfeca98e632)" style="fill: #d4c2e5; stroke: #46196b; stroke-linejoin: miter"/>
   </g>
   <g id="text_4">
    <text style="font-size: 15px; font-family: 'Microsoft YaHei', 'Microsoft YaHei UI', 'SimHei', 'Segoe UI', 'DejaVu Sans', sans-serif; text-anchor: start; fill: #3a4252" x="480.96" y="76.490859" transform="rotate(-0 480.96 76.490859)">Row 3·翻转 FS</text>
   </g>
   <g id="patch_20">
    <path d="M 113.76 97.92 
L 174.96 97.92 
Q 178.56 97.92 178.56 94.32 
L 178.56 50.4 
Q 178.56 46.8 174.96 46.8 
L 113.76 46.8 
Q 110.16 46.8 110.16 50.4 
L 110.16 94.32 
Q 110.16 97.92 113.76 97.92 
z
" clip-path="url(#pfeca98e632)" style="fill: #d4c2e5; stroke: #46196b; stroke-linejoin: miter"/>
   </g>
   <g id="patch_21">
    <path d="M 205.92 97.92 
L 267.12 97.92 
Q 270.72 97.92 270.72 94.32 
L 270.72 50.4 
Q 270.72 46.8 267.12 46.8 
L 205.92 46.8 
Q 202.32 46.8 202.32 50.4 
L 202.32 94.32 
Q 202.32 97.92 205.92 97.92 
z
" clip-path="url(#pfeca98e632)" style="fill: #d4c2e5; stroke: #46196b; stroke-linejoin: miter"/>
   </g>
   <g id="patch_22">
    <path d="M 298.08 97.92 
L 359.28 97.92 
Q 362.88 97.92 362.88 94.32 
L 362.88 50.4 
Q 362.88 46.8 359.28 46.8 
L 298.08 46.8 
Q 294.48 46.8 294.48 50.4 
L 294.48 94.32 
Q 294.48 97.92 298.08 97.92 
z
" clip-path="url(#pfeca98e632)" style="fill: #d4c2e5; stroke: #46196b; stroke-linejoin: miter"/>
   </g>
   <g id="patch_23">
    <path d="M 390.24 97.92 
L 451.44 97.92 
Q 455.04 97.92 455.04 94.32 
L 455.04 50.4 
Q 455.04 46.8 451.44 46.8 
L 390.24 46.8 
Q 386.64 46.8 386.64 50.4 
L 386.64 94.32 
Q 386.64 97.92 390.24 97.92 
z
" clip-path="url(#pfeca98e632)" style="fill: #d4c2e5; stroke: #46196b; stroke-linejoin: miter"/>
   </g>
   <g id="text_5">
    <text style="font-weight: 700; font-size: 15px; font-family: 'Microsoft YaHei', 'Microsoft YaHei UI', 'SimHei', 'Segoe UI', 'DejaVu Sans', sans-serif; text-anchor: end; fill: #d14e0a" x="47.52" y="341.090859" transform="rotate(-0 47.52 341.090859)">VDD</text>
   </g>
   <g id="text_6">
    <text style="font-weight: 700; font-size: 15px; font-family: 'Microsoft YaHei', 'Microsoft YaHei UI', 'SimHei', 'Segoe UI', 'DejaVu Sans', sans-serif; text-anchor: end; fill: #1a1f2b" x="47.52" y="265.490859" transform="rotate(-0 47.52 265.490859)">VSS</text>
   </g>
   <g id="text_7">
    <text style="font-weight: 700; font-size: 15px; font-family: 'Microsoft YaHei', 'Microsoft YaHei UI', 'SimHei', 'Segoe UI', 'DejaVu Sans', sans-serif; text-anchor: end; fill: #d14e0a" x="47.52" y="189.890859" transform="rotate(-0 47.52 189.890859)">VDD</text>
   </g>
   <g id="text_8">
    <text style="font-weight: 700; font-size: 15px; font-family: 'Microsoft YaHei', 'Microsoft YaHei UI', 'SimHei', 'Segoe UI', 'DejaVu Sans', sans-serif; text-anchor: end; fill: #1a1f2b" x="47.52" y="114.290859" transform="rotate(-0 47.52 114.290859)">VSS</text>
   </g>
   <g id="text_9">
    <text style="font-weight: 700; font-size: 15px; font-family: 'Microsoft YaHei', 'Microsoft YaHei UI', 'SimHei', 'Segoe UI', 'DejaVu Sans', sans-serif; text-anchor: end; fill: #d14e0a" x="47.52" y="38.690859" transform="rotate(-0 47.52 38.690859)">VDD</text>
   </g>
   <g id="text_10">
    <text style="font-size: 14.5px; font-family: 'Microsoft YaHei', 'Microsoft YaHei UI', 'SimHei', 'Segoe UI', 'DejaVu Sans', sans-serif; text-anchor: start; fill: #6b7280" x="77.76" y="360" transform="rotate(-0 77.76 360)">↑ site 栅格（行内最小放置单位，LEF 定义）</text>
   </g>
   <g id="text_11">
    <text style="font-weight: 700; font-size: 14.809135px; font-family: 'Microsoft YaHei', 'Microsoft YaHei UI', 'SimHei', 'Segoe UI', 'DejaVu Sans', sans-serif; text-anchor: start; fill: #1a1f2b" x="70.56" y="404.958053" transform="rotate(-0 70.56 404.958053)">翻转共享供电轨</text>
   </g>
   <g id="text_12">
    <text style="font-size: 13.066884px; font-family: 'Microsoft YaHei', 'Microsoft YaHei UI', 'SimHei', 'Segoe UI', 'DejaVu Sans', sans-serif; text-anchor: start; fill: #7e2e07" x="70.56" y="433.148766" transform="rotate(-0 70.56 433.148766)">相邻行镜像翻转(FS) → 同名轨落行边界、被两行共享 → 条数减半、面积</text>
   </g>
   <g id="text_13">
    <text style="font-size: 13.066884px; font-family: 'Microsoft YaHei', 'Microsoft YaHei UI', 'SimHei', 'Segoe UI', 'DejaVu Sans', sans-serif; text-anchor: start; fill: #7e2e07" x="70.56" y="450.397053" transform="rotate(-0 70.56 450.397053)">省</text>
   </g>
   <g id="line2d_1">
    <path d="M 56.16 336.96 
L 466.56 336.96 
" clip-path="url(#pfeca98e632)" style="fill: none; stroke: #d14e0a; stroke-width: 3.2; stroke-linecap: round"/>
   </g>
   <g id="line2d_2">
    <path d="M 56.16 261.36 
L 466.56 261.36 
" clip-path="url(#pfeca98e632)" style="fill: none; stroke: #1a1f2b; stroke-width: 3.2; stroke-linecap: round"/>
   </g>
   <g id="line2d_3">
    <path d="M 56.16 185.76 
L 466.56 185.76 
" clip-path="url(#pfeca98e632)" style="fill: none; stroke: #d14e0a; stroke-width: 3.2; stroke-linecap: round"/>
   </g>
   <g id="line2d_4">
    <path d="M 56.16 110.16 
L 466.56 110.16 
" clip-path="url(#pfeca98e632)" style="fill: none; stroke: #1a1f2b; stroke-width: 3.2; stroke-linecap: round"/>
   </g>
   <g id="line2d_5">
    <path d="M 56.16 34.56 
L 466.56 34.56 
" clip-path="url(#pfeca98e632)" style="fill: none; stroke: #d14e0a; stroke-width: 3.2; stroke-linecap: round"/>
   </g>
  </g>
 </g>
 <defs>
  <clipPath id="pfeca98e632">
   <rect x="5.76" y="5.76" width="648" height="489.6"/>
  </clipPath>
 </defs>
</svg>
