<?xml version="1.0" encoding="utf-8" standalone="no"?>
<!DOCTYPE svg PUBLIC "-//W3C//DTD SVG 1.1//EN"
  "http://www.w3.org/Graphics/SVG/1.1/DTD/svg11.dtd">
<svg xmlns:xlink="http://www.w3.org/1999/xlink" width="947.52pt" height="529.92pt" viewBox="0 0 947.52 529.92" xmlns="http://www.w3.org/2000/svg" version="1.1">
 <metadata>
  <rdf:RDF xmlns:dc="http://purl.org/dc/elements/1.1/" xmlns:cc="http://creativecommons.org/ns#" xmlns:rdf="http://www.w3.org/1999/02/22-rdf-syntax-ns#">
   <cc:Work>
    <dc:type rdf:resource="http://purl.org/dc/dcmitype/StillImage"/>
    <dc:date>2026-06-22T14:59:36.677743</dc:date>
    <dc:format>image/svg+xml</dc:format>
    <dc:creator>
     <cc:Agent>
      <dc:title>Matplotlib v3.10.8, https://matplotlib.org/</dc:title>
     </cc:Agent>
    </dc:creator>
   </cc:Work>
  </rdf:RDF>
 </metadata>
 <defs>
  <style type="text/css">*{stroke-linejoin: round; stroke-linecap: butt}</style>
 </defs>
 <g id="figure_1">
  <g id="patch_1">
   <path d="M 0 529.92 
L 947.52 529.92 
L 947.52 0 
L 0 0 
z
" style="fill: #ffffff"/>
  </g>
  <g id="axes_1">
   <g id="patch_2">
    <path d="M 5.76 524.16 
L 941.76 524.16 
L 941.76 5.76 
L 5.76 5.76 
z
" clip-path="url(#p0f123d348b)" style="fill: #ffffff"/>
   </g>
   <g id="patch_3">
    <path d="M 25.92 512.64 
L 921.6 512.64 
Q 930.24 512.64 930.24 504 
L 930.24 25.92 
Q 930.24 17.28 921.6 17.28 
L 25.92 17.28 
Q 17.28 17.28 17.28 25.92 
L 17.28 504 
Q 17.28 512.64 25.92 512.64 
L 25.92 512.64 
z
" clip-path="url(#p0f123d348b)" style="fill: none; stroke: #cbd5e1; stroke-width: 1.4; stroke-linejoin: miter"/>
   </g>
   <g id="patch_4">
    <path d="M 99.36 452.16 
L 696.96 452.16 
L 696.96 365.76 
L 99.36 365.76 
z
" clip-path="url(#p0f123d348b)" style="fill: #f1f5f9; stroke: #cbd5e1; stroke-linejoin: miter"/>
   </g>
   <g id="patch_5">
    <path d="M 99.36 365.76 
L 696.96 365.76 
L 696.96 279.36 
L 99.36 279.36 
z
" clip-path="url(#p0f123d348b)" style="fill: #ffffff; stroke: #cbd5e1; stroke-linejoin: miter"/>
   </g>
   <g id="patch_6">
    <path d="M 99.36 279.36 
L 696.96 279.36 
L 696.96 192.96 
L 99.36 192.96 
z
" clip-path="url(#p0f123d348b)" style="fill: #f1f5f9; stroke: #cbd5e1; stroke-linejoin: miter"/>
   </g>
   <g id="patch_7">
    <path d="M 99.36 192.96 
L 696.96 192.96 
L 696.96 106.56 
L 99.36 106.56 
z
" clip-path="url(#p0f123d348b)" style="fill: #ffffff; stroke: #cbd5e1; stroke-linejoin: miter"/>
   </g>
   <g id="text_1">
    <text style="font-size: 13px; font-family: 'Microsoft YaHei', 'Microsoft YaHei UI', 'SimHei', 'Segoe UI', 'DejaVu Sans', sans-serif; text-anchor: start; fill: #475569" x="711.36" y="412.540078" transform="rotate(-0 711.36 412.540078)">Row 0 · 正放 R0</text>
   </g>
   <g id="patch_8">
    <path d="M 142.56 437.76 
L 218.16 437.76 
Q 221.76 437.76 221.76 434.16 
L 221.76 383.76 
Q 221.76 380.16 218.16 380.16 
L 142.56 380.16 
Q 138.96 380.16 138.96 383.76 
L 138.96 434.16 
Q 138.96 437.76 142.56 437.76 
z
" clip-path="url(#p0f123d348b)" style="fill: #dbeafe; stroke: #2563eb; stroke-width: 1.1; stroke-linejoin: miter"/>
   </g>
   <g id="patch_9">
    <path d="M 257.76 437.76 
L 333.36 437.76 
Q 336.96 437.76 336.96 434.16 
L 336.96 383.76 
Q 336.96 380.16 333.36 380.16 
L 257.76 380.16 
Q 254.16 380.16 254.16 383.76 
L 254.16 434.16 
Q 254.16 437.76 257.76 437.76 
z
" clip-path="url(#p0f123d348b)" style="fill: #dbeafe; stroke: #2563eb; stroke-width: 1.1; stroke-linejoin: miter"/>
   </g>
   <g id="patch_10">
    <path d="M 372.96 437.76 
L 448.56 437.76 
Q 452.16 437.76 452.16 434.16 
L 452.16 383.76 
Q 452.16 380.16 448.56 380.16 
L 372.96 380.16 
Q 369.36 380.16 369.36 383.76 
L 369.36 434.16 
Q 369.36 437.76 372.96 437.76 
z
" clip-path="url(#p0f123d348b)" style="fill: #dbeafe; stroke: #2563eb; stroke-width: 1.1; stroke-linejoin: miter"/>
   </g>
   <g id="patch_11">
    <path d="M 488.16 437.76 
L 563.76 437.76 
Q 567.36 437.76 567.36 434.16 
L 567.36 383.76 
Q 567.36 380.16 563.76 380.16 
L 488.16 380.16 
Q 484.56 380.16 484.56 383.76 
L 484.56 434.16 
Q 484.56 437.76 488.16 437.76 
z
" clip-path="url(#p0f123d348b)" style="fill: #dbeafe; stroke: #2563eb; stroke-width: 1.1; stroke-linejoin: miter"/>
   </g>
   <g id="patch_12">
    <path d="M 603.36 437.76 
L 678.96 437.76 
Q 682.56 437.76 682.56 434.16 
L 682.56 383.76 
Q 682.56 380.16 678.96 380.16 
L 603.36 380.16 
Q 599.76 380.16 599.76 383.76 
L 599.76 434.16 
Q 599.76 437.76 603.36 437.76 
z
" clip-path="url(#p0f123d348b)" style="fill: #dbeafe; stroke: #2563eb; stroke-width: 1.1; stroke-linejoin: miter"/>
   </g>
   <g id="text_2">
    <text style="font-size: 13px; font-family: 'Microsoft YaHei', 'Microsoft YaHei UI', 'SimHei', 'Segoe UI', 'DejaVu Sans', sans-serif; text-anchor: start; fill: #475569" x="711.36" y="326.140078" transform="rotate(-0 711.36 326.140078)">Row 1 · 翻转 FS</text>
   </g>
   <g id="patch_13">
    <path d="M 142.56 351.36 
L 218.16 351.36 
Q 221.76 351.36 221.76 347.76 
L 221.76 297.36 
Q 221.76 293.76 218.16 293.76 
L 142.56 293.76 
Q 138.96 293.76 138.96 297.36 
L 138.96 347.76 
Q 138.96 351.36 142.56 351.36 
z
" clip-path="url(#p0f123d348b)" style="fill: #dbeafe; stroke: #2563eb; stroke-width: 1.1; stroke-linejoin: miter"/>
   </g>
   <g id="patch_14">
    <path d="M 257.76 351.36 
L 333.36 351.36 
Q 336.96 351.36 336.96 347.76 
L 336.96 297.36 
Q 336.96 293.76 333.36 293.76 
L 257.76 293.76 
Q 254.16 293.76 254.16 297.36 
L 254.16 347.76 
Q 254.16 351.36 257.76 351.36 
z
" clip-path="url(#p0f123d348b)" style="fill: #dbeafe; stroke: #2563eb; stroke-width: 1.1; stroke-linejoin: miter"/>
   </g>
   <g id="patch_15">
    <path d="M 372.96 351.36 
L 448.56 351.36 
Q 452.16 351.36 452.16 347.76 
L 452.16 297.36 
Q 452.16 293.76 448.56 293.76 
L 372.96 293.76 
Q 369.36 293.76 369.36 297.36 
L 369.36 347.76 
Q 369.36 351.36 372.96 351.36 
z
" clip-path="url(#p0f123d348b)" style="fill: #dbeafe; stroke: #2563eb; stroke-width: 1.1; stroke-linejoin: miter"/>
   </g>
   <g id="patch_16">
    <path d="M 488.16 351.36 
L 563.76 351.36 
Q 567.36 351.36 567.36 347.76 
L 567.36 297.36 
Q 567.36 293.76 563.76 293.76 
L 488.16 293.76 
Q 484.56 293.76 484.56 297.36 
L 484.56 347.76 
Q 484.56 351.36 488.16 351.36 
z
" clip-path="url(#p0f123d348b)" style="fill: #dbeafe; stroke: #2563eb; stroke-width: 1.1; stroke-linejoin: miter"/>
   </g>
   <g id="patch_17">
    <path d="M 603.36 351.36 
L 678.96 351.36 
Q 682.56 351.36 682.56 347.76 
L 682.56 297.36 
Q 682.56 293.76 678.96 293.76 
L 603.36 293.76 
Q 599.76 293.76 599.76 297.36 
L 599.76 347.76 
Q 599.76 351.36 603.36 351.36 
z
" clip-path="url(#p0f123d348b)" style="fill: #dbeafe; stroke: #2563eb; stroke-width: 1.1; stroke-linejoin: miter"/>
   </g>
   <g id="text_3">
    <text style="font-size: 13px; font-family: 'Microsoft YaHei', 'Microsoft YaHei UI', 'SimHei', 'Segoe UI', 'DejaVu Sans', sans-serif; text-anchor: start; fill: #475569" x="711.36" y="239.740078" transform="rotate(-0 711.36 239.740078)">Row 2 · 正放 R0</text>
   </g>
   <g id="patch_18">
    <path d="M 142.56 264.96 
L 218.16 264.96 
Q 221.76 264.96 221.76 261.36 
L 221.76 210.96 
Q 221.76 207.36 218.16 207.36 
L 142.56 207.36 
Q 138.96 207.36 138.96 210.96 
L 138.96 261.36 
Q 138.96 264.96 142.56 264.96 
z
" clip-path="url(#p0f123d348b)" style="fill: #dbeafe; stroke: #2563eb; stroke-width: 1.1; stroke-linejoin: miter"/>
   </g>
   <g id="patch_19">
    <path d="M 257.76 264.96 
L 333.36 264.96 
Q 336.96 264.96 336.96 261.36 
L 336.96 210.96 
Q 336.96 207.36 333.36 207.36 
L 257.76 207.36 
Q 254.16 207.36 254.16 210.96 
L 254.16 261.36 
Q 254.16 264.96 257.76 264.96 
z
" clip-path="url(#p0f123d348b)" style="fill: #dbeafe; stroke: #2563eb; stroke-width: 1.1; stroke-linejoin: miter"/>
   </g>
   <g id="patch_20">
    <path d="M 372.96 264.96 
L 448.56 264.96 
Q 452.16 264.96 452.16 261.36 
L 452.16 210.96 
Q 452.16 207.36 448.56 207.36 
L 372.96 207.36 
Q 369.36 207.36 369.36 210.96 
L 369.36 261.36 
Q 369.36 264.96 372.96 264.96 
z
" clip-path="url(#p0f123d348b)" style="fill: #dbeafe; stroke: #2563eb; stroke-width: 1.1; stroke-linejoin: miter"/>
   </g>
   <g id="patch_21">
    <path d="M 488.16 264.96 
L 563.76 264.96 
Q 567.36 264.96 567.36 261.36 
L 567.36 210.96 
Q 567.36 207.36 563.76 207.36 
L 488.16 207.36 
Q 484.56 207.36 484.56 210.96 
L 484.56 261.36 
Q 484.56 264.96 488.16 264.96 
z
" clip-path="url(#p0f123d348b)" style="fill: #dbeafe; stroke: #2563eb; stroke-width: 1.1; stroke-linejoin: miter"/>
   </g>
   <g id="patch_22">
    <path d="M 603.36 264.96 
L 678.96 264.96 
Q 682.56 264.96 682.56 261.36 
L 682.56 210.96 
Q 682.56 207.36 678.96 207.36 
L 603.36 207.36 
Q 599.76 207.36 599.76 210.96 
L 599.76 261.36 
Q 599.76 264.96 603.36 264.96 
z
" clip-path="url(#p0f123d348b)" style="fill: #dbeafe; stroke: #2563eb; stroke-width: 1.1; stroke-linejoin: miter"/>
   </g>
   <g id="text_4">
    <text style="font-size: 13px; font-family: 'Microsoft YaHei', 'Microsoft YaHei UI', 'SimHei', 'Segoe UI', 'DejaVu Sans', sans-serif; text-anchor: start; fill: #475569" x="711.36" y="153.340078" transform="rotate(-0 711.36 153.340078)">Row 3 · 翻转 FS</text>
   </g>
   <g id="patch_23">
    <path d="M 142.56 178.56 
L 218.16 178.56 
Q 221.76 178.56 221.76 174.96 
L 221.76 124.56 
Q 221.76 120.96 218.16 120.96 
L 142.56 120.96 
Q 138.96 120.96 138.96 124.56 
L 138.96 174.96 
Q 138.96 178.56 142.56 178.56 
z
" clip-path="url(#p0f123d348b)" style="fill: #dbeafe; stroke: #2563eb; stroke-width: 1.1; stroke-linejoin: miter"/>
   </g>
   <g id="patch_24">
    <path d="M 257.76 178.56 
L 333.36 178.56 
Q 336.96 178.56 336.96 174.96 
L 336.96 124.56 
Q 336.96 120.96 333.36 120.96 
L 257.76 120.96 
Q 254.16 120.96 254.16 124.56 
L 254.16 174.96 
Q 254.16 178.56 257.76 178.56 
z
" clip-path="url(#p0f123d348b)" style="fill: #dbeafe; stroke: #2563eb; stroke-width: 1.1; stroke-linejoin: miter"/>
   </g>
   <g id="patch_25">
    <path d="M 372.96 178.56 
L 448.56 178.56 
Q 452.16 178.56 452.16 174.96 
L 452.16 124.56 
Q 452.16 120.96 448.56 120.96 
L 372.96 120.96 
Q 369.36 120.96 369.36 124.56 
L 369.36 174.96 
Q 369.36 178.56 372.96 178.56 
z
" clip-path="url(#p0f123d348b)" style="fill: #dbeafe; stroke: #2563eb; stroke-width: 1.1; stroke-linejoin: miter"/>
   </g>
   <g id="patch_26">
    <path d="M 488.16 178.56 
L 563.76 178.56 
Q 567.36 178.56 567.36 174.96 
L 567.36 124.56 
Q 567.36 120.96 563.76 120.96 
L 488.16 120.96 
Q 484.56 120.96 484.56 124.56 
L 484.56 174.96 
Q 484.56 178.56 488.16 178.56 
z
" clip-path="url(#p0f123d348b)" style="fill: #dbeafe; stroke: #2563eb; stroke-width: 1.1; stroke-linejoin: miter"/>
   </g>
   <g id="patch_27">
    <path d="M 603.36 178.56 
L 678.96 178.56 
Q 682.56 178.56 682.56 174.96 
L 682.56 124.56 
Q 682.56 120.96 678.96 120.96 
L 603.36 120.96 
Q 599.76 120.96 599.76 124.56 
L 599.76 174.96 
Q 599.76 178.56 603.36 178.56 
z
" clip-path="url(#p0f123d348b)" style="fill: #dbeafe; stroke: #2563eb; stroke-width: 1.1; stroke-linejoin: miter"/>
   </g>
   <g id="text_5">
    <text style="font-weight: 700; font-size: 12px; font-family: 'Microsoft YaHei', 'Microsoft YaHei UI', 'SimHei', 'Segoe UI', 'DejaVu Sans', sans-serif; text-anchor: end; fill: #f59e0b" x="63.36" y="455.464687" transform="rotate(-0 63.36 455.464687)">VDD</text>
   </g>
   <g id="text_6">
    <text style="font-weight: 700; font-size: 12px; font-family: 'Microsoft YaHei', 'Microsoft YaHei UI', 'SimHei', 'Segoe UI', 'DejaVu Sans', sans-serif; text-anchor: end; fill: #1e293b" x="63.36" y="369.064687" transform="rotate(-0 63.36 369.064687)">VSS</text>
   </g>
   <g id="text_7">
    <text style="font-weight: 700; font-size: 12px; font-family: 'Microsoft YaHei', 'Microsoft YaHei UI', 'SimHei', 'Segoe UI', 'DejaVu Sans', sans-serif; text-anchor: end; fill: #f59e0b" x="63.36" y="282.664688" transform="rotate(-0 63.36 282.664688)">VDD</text>
   </g>
   <g id="text_8">
    <text style="font-weight: 700; font-size: 12px; font-family: 'Microsoft YaHei', 'Microsoft YaHei UI', 'SimHei', 'Segoe UI', 'DejaVu Sans', sans-serif; text-anchor: end; fill: #1e293b" x="63.36" y="196.264687" transform="rotate(-0 63.36 196.264687)">VSS</text>
   </g>
   <g id="text_9">
    <text style="font-weight: 700; font-size: 12px; font-family: 'Microsoft YaHei', 'Microsoft YaHei UI', 'SimHei', 'Segoe UI', 'DejaVu Sans', sans-serif; text-anchor: end; fill: #f59e0b" x="63.36" y="109.864688" transform="rotate(-0 63.36 109.864688)">VDD</text>
   </g>
   <g id="text_10">
    <text style="font-size: 12px; font-family: 'Microsoft YaHei', 'Microsoft YaHei UI', 'SimHei', 'Segoe UI', 'DejaVu Sans', sans-serif; text-anchor: start; fill: #64748b" x="99.36" y="480.96" transform="rotate(-0 99.36 480.96)">↑ site 栅格（行内最小放置单位，定义于 LEF）</text>
   </g>
   <g id="text_11">
    <text style="font-size: 12.5px; font-family: 'Microsoft YaHei', 'Microsoft YaHei UI', 'SimHei', 'Segoe UI', 'DejaVu Sans', sans-serif; fill: #475569" transform="translate(754.56 217.352187)">相邻行镜像翻转 →</text>
    <text style="font-size: 12.5px; font-family: 'Microsoft YaHei', 'Microsoft YaHei UI', 'SimHei', 'Segoe UI', 'DejaVu Sans', sans-serif; fill: #475569" transform="translate(754.56 237.446328)">同名供电轨落在行边界、</text>
    <text style="font-size: 12.5px; font-family: 'Microsoft YaHei', 'Microsoft YaHei UI', 'SimHei', 'Segoe UI', 'DejaVu Sans', sans-serif; fill: #475569" transform="translate(754.56 257.540469)">被上下两行共享 →</text>
    <text style="font-size: 12.5px; font-family: 'Microsoft YaHei', 'Microsoft YaHei UI', 'SimHei', 'Segoe UI', 'DejaVu Sans', sans-serif; fill: #475569" transform="translate(754.56 277.634609)">供电轨条数减半、面积更省</text>
   </g>
   <g id="line2d_1">
    <path d="M 74.16 452.16 
L 696.96 452.16 
" clip-path="url(#p0f123d348b)" style="fill: none; stroke: #f59e0b; stroke-width: 3.6; stroke-linecap: round"/>
   </g>
   <g id="line2d_2">
    <path d="M 74.16 365.76 
L 696.96 365.76 
" clip-path="url(#p0f123d348b)" style="fill: none; stroke: #1e293b; stroke-width: 3.6; stroke-linecap: round"/>
   </g>
   <g id="line2d_3">
    <path d="M 74.16 279.36 
L 696.96 279.36 
" clip-path="url(#p0f123d348b)" style="fill: none; stroke: #f59e0b; stroke-width: 3.6; stroke-linecap: round"/>
   </g>
   <g id="line2d_4">
    <path d="M 74.16 192.96 
L 696.96 192.96 
" clip-path="url(#p0f123d348b)" style="fill: none; stroke: #1e293b; stroke-width: 3.6; stroke-linecap: round"/>
   </g>
   <g id="line2d_5">
    <path d="M 74.16 106.56 
L 696.96 106.56 
" clip-path="url(#p0f123d348b)" style="fill: none; stroke: #f59e0b; stroke-width: 3.6; stroke-linecap: round"/>
   </g>
   <g id="line2d_6">
    <path d="M 99.36 452.16 
L 99.36 437.76 
" clip-path="url(#p0f123d348b)" style="fill: none; stroke: #64748b; stroke-width: 0.7; stroke-linecap: round"/>
   </g>
   <g id="line2d_7">
    <path d="M 135.36 452.16 
L 135.36 437.76 
" clip-path="url(#p0f123d348b)" style="fill: none; stroke: #64748b; stroke-width: 0.7; stroke-linecap: round"/>
   </g>
   <g id="line2d_8">
    <path d="M 171.36 452.16 
L 171.36 437.76 
" clip-path="url(#p0f123d348b)" style="fill: none; stroke: #64748b; stroke-width: 0.7; stroke-linecap: round"/>
   </g>
   <g id="line2d_9">
    <path d="M 207.36 452.16 
L 207.36 437.76 
" clip-path="url(#p0f123d348b)" style="fill: none; stroke: #64748b; stroke-width: 0.7; stroke-linecap: round"/>
   </g>
   <g id="line2d_10">
    <path d="M 243.36 452.16 
L 243.36 437.76 
" clip-path="url(#p0f123d348b)" style="fill: none; stroke: #64748b; stroke-width: 0.7; stroke-linecap: round"/>
   </g>
   <g id="line2d_11">
    <path d="M 279.36 452.16 
L 279.36 437.76 
" clip-path="url(#p0f123d348b)" style="fill: none; stroke: #64748b; stroke-width: 0.7; stroke-linecap: round"/>
   </g>
   <g id="line2d_12">
    <path d="M 315.36 452.16 
L 315.36 437.76 
" clip-path="url(#p0f123d348b)" style="fill: none; stroke: #64748b; stroke-width: 0.7; stroke-linecap: round"/>
   </g>
   <g id="line2d_13">
    <path d="M 351.36 452.16 
L 351.36 437.76 
" clip-path="url(#p0f123d348b)" style="fill: none; stroke: #64748b; stroke-width: 0.7; stroke-linecap: round"/>
   </g>
   <g id="line2d_14">
    <path d="M 387.36 452.16 
L 387.36 437.76 
" clip-path="url(#p0f123d348b)" style="fill: none; stroke: #64748b; stroke-width: 0.7; stroke-linecap: round"/>
   </g>
   <g id="line2d_15">
    <path d="M 423.36 452.16 
L 423.36 437.76 
" clip-path="url(#p0f123d348b)" style="fill: none; stroke: #64748b; stroke-width: 0.7; stroke-linecap: round"/>
   </g>
   <g id="line2d_16">
    <path d="M 459.36 452.16 
L 459.36 437.76 
" clip-path="url(#p0f123d348b)" style="fill: none; stroke: #64748b; stroke-width: 0.7; stroke-linecap: round"/>
   </g>
   <g id="line2d_17">
    <path d="M 495.36 452.16 
L 495.36 437.76 
" clip-path="url(#p0f123d348b)" style="fill: none; stroke: #64748b; stroke-width: 0.7; stroke-linecap: round"/>
   </g>
   <g id="line2d_18">
    <path d="M 531.36 452.16 
L 531.36 437.76 
" clip-path="url(#p0f123d348b)" style="fill: none; stroke: #64748b; stroke-width: 0.7; stroke-linecap: round"/>
   </g>
   <g id="line2d_19">
    <path d="M 567.36 452.16 
L 567.36 437.76 
" clip-path="url(#p0f123d348b)" style="fill: none; stroke: #64748b; stroke-width: 0.7; stroke-linecap: round"/>
   </g>
   <g id="line2d_20">
    <path d="M 603.36 452.16 
L 603.36 437.76 
" clip-path="url(#p0f123d348b)" style="fill: none; stroke: #64748b; stroke-width: 0.7; stroke-linecap: round"/>
   </g>
   <g id="line2d_21">
    <path d="M 639.36 452.16 
L 639.36 437.76 
" clip-path="url(#p0f123d348b)" style="fill: none; stroke: #64748b; stroke-width: 0.7; stroke-linecap: round"/>
   </g>
   <g id="line2d_22">
    <path d="M 675.36 452.16 
L 675.36 437.76 
" clip-path="url(#p0f123d348b)" style="fill: none; stroke: #64748b; stroke-width: 0.7; stroke-linecap: round"/>
   </g>
   <g id="patch_28">
    <path d="M 757.44 70.56 
L 766.08 70.56 
Q 768.96 70.56 768.96 67.68 
L 768.96 59.04 
Q 768.96 56.16 766.08 56.16 
L 757.44 56.16 
Q 754.56 56.16 754.56 59.04 
L 754.56 67.68 
Q 754.56 70.56 757.44 70.56 
z
" clip-path="url(#p0f123d348b)" style="fill: #f59e0b"/>
   </g>
   <g id="text_12">
    <text style="font-size: 13px; font-family: 'Microsoft YaHei', 'Microsoft YaHei UI', 'SimHei', 'Segoe UI', 'DejaVu Sans', sans-serif; text-anchor: start; fill: #475569" x="780.48" y="66.940078" transform="rotate(-0 780.48 66.940078)">VDD rail</text>
   </g>
   <g id="patch_29">
    <path d="M 757.44 106.56 
L 766.08 106.56 
Q 768.96 106.56 768.96 103.68 
L 768.96 95.04 
Q 768.96 92.16 766.08 92.16 
L 757.44 92.16 
Q 754.56 92.16 754.56 95.04 
L 754.56 103.68 
Q 754.56 106.56 757.44 106.56 
z
" clip-path="url(#p0f123d348b)" style="fill: #1e293b"/>
   </g>
   <g id="text_13">
    <text style="font-size: 13px; font-family: 'Microsoft YaHei', 'Microsoft YaHei UI', 'SimHei', 'Segoe UI', 'DejaVu Sans', sans-serif; text-anchor: start; fill: #475569" x="780.48" y="102.940078" transform="rotate(-0 780.48 102.940078)">VSS rail</text>
   </g>
   <g id="patch_30">
    <path d="M 757.44 142.56 
L 766.08 142.56 
Q 768.96 142.56 768.96 139.68 
L 768.96 131.04 
Q 768.96 128.16 766.08 128.16 
L 757.44 128.16 
Q 754.56 128.16 754.56 131.04 
L 754.56 139.68 
Q 754.56 142.56 757.44 142.56 
z
" clip-path="url(#p0f123d348b)" style="fill: #2563eb"/>
   </g>
   <g id="text_14">
    <text style="font-size: 13px; font-family: 'Microsoft YaHei', 'Microsoft YaHei UI', 'SimHei', 'Segoe UI', 'DejaVu Sans', sans-serif; text-anchor: start; fill: #475569" x="780.48" y="138.940078" transform="rotate(-0 780.48 138.940078)">标准单元</text>
   </g>
  </g>
 </g>
 <defs>
  <clipPath id="p0f123d348b">
   <rect x="5.76" y="5.76" width="936" height="518.4"/>
  </clipPath>
 </defs>
</svg>
