<?xml version="1.0" encoding="utf-8" standalone="no"?>
<!DOCTYPE svg PUBLIC "-//W3C//DTD SVG 1.1//EN"
  "http://www.w3.org/Graphics/SVG/1.1/DTD/svg11.dtd">
<svg xmlns:xlink="http://www.w3.org/1999/xlink" width="947.52pt" height="558.72pt" viewBox="0 0 947.52 558.72" xmlns="http://www.w3.org/2000/svg" version="1.1">
 <metadata>
  <rdf:RDF xmlns:dc="http://purl.org/dc/elements/1.1/" xmlns:cc="http://creativecommons.org/ns#" xmlns:rdf="http://www.w3.org/1999/02/22-rdf-syntax-ns#">
   <cc:Work>
    <dc:type rdf:resource="http://purl.org/dc/dcmitype/StillImage"/>
    <dc:date>2026-06-22T18:10:08.716326</dc:date>
    <dc:format>image/svg+xml</dc:format>
    <dc:creator>
     <cc:Agent>
      <dc:title>Matplotlib v3.10.8, https://matplotlib.org/</dc:title>
     </cc:Agent>
    </dc:creator>
   </cc:Work>
  </rdf:RDF>
 </metadata>
 <defs>
  <style type="text/css">*{stroke-linejoin: round; stroke-linecap: butt}</style>
 </defs>
 <g id="figure_1">
  <g id="patch_1">
   <path d="M 0 558.72 
L 947.52 558.72 
L 947.52 0 
L 0 0 
z
" style="fill: #ffffff"/>
  </g>
  <g id="axes_1">
   <g id="patch_2">
    <path d="M 5.76 552.96 
L 941.76 552.96 
L 941.76 5.76 
L 5.76 5.76 
z
" clip-path="url(#pca1987e89a)" style="fill: #ffffff"/>
   </g>
   <g id="patch_3">
    <path d="M 56.16 502.56 
L 704.16 502.56 
L 704.16 56.16 
L 56.16 56.16 
z
" clip-path="url(#pca1987e89a)" style="fill: #ffffff; stroke: #475569; stroke-width: 2; stroke-linejoin: miter"/>
   </g>
   <g id="patch_4">
    <path d="M 74.16 484.56 
L 686.16 484.56 
L 686.16 74.16 
L 74.16 74.16 
z
" clip-path="url(#pca1987e89a)" style="fill: #dbeafe; opacity: 0.45"/>
   </g>
   <g id="text_1">
    <text style="font-weight: 700; font-size: 15px; font-family: 'Microsoft YaHei', 'Microsoft YaHei UI', 'SimHei', 'Segoe UI', 'DejaVu Sans', sans-serif; fill: #1e3a8a" transform="translate(386.852578 319.035703)">Std-Cell Region</text>
    <text style="font-weight: 700; font-size: 15px; font-family: 'Microsoft YaHei', 'Microsoft YaHei UI', 'SimHei', 'Segoe UI', 'DejaVu Sans', sans-serif; fill: #1e3a8a" transform="translate(407.46 337.226016)">标准单元区</text>
   </g>
   <g id="text_2">
    <text style="font-size: 11.5px; font-family: 'Microsoft YaHei', 'Microsoft YaHei UI', 'SimHei', 'Segoe UI', 'DejaVu Sans', sans-serif; text-anchor: middle; fill: #9d174d" x="182.16" y="247.68" transform="rotate(-0 182.16 247.68)">引脚朝 core →</text>
   </g>
   <g id="line2d_1">
    <path d="M 279.36 192.96 
L 412.56 324 
" clip-path="url(#pca1987e89a)" style="fill: none; stroke-dasharray: 3.3,3.3; stroke-dashoffset: 0; stroke: #14b8a6; stroke-width: 1.1"/>
   </g>
   <g id="line2d_2">
    <path d="M 279.36 156.96 
L 412.56 324 
" clip-path="url(#pca1987e89a)" style="fill: none; stroke-dasharray: 3.3,3.3; stroke-dashoffset: 0; stroke: #14b8a6; stroke-width: 1.1"/>
   </g>
   <g id="line2d_3">
    <path d="M 279.36 120.96 
L 412.56 324 
" clip-path="url(#pca1987e89a)" style="fill: none; stroke-dasharray: 3.3,3.3; stroke-dashoffset: 0; stroke: #14b8a6; stroke-width: 1.1"/>
   </g>
   <g id="text_3">
    <text style="font-weight: 700; font-size: 15px; font-family: 'Microsoft YaHei', 'Microsoft YaHei UI', 'SimHei', 'Segoe UI', 'DejaVu Sans', sans-serif; text-anchor: start; fill: #1e293b" x="740.16" y="82.550625" transform="rotate(-0 740.16 82.550625)">摆放要点</text>
   </g>
   <g id="text_4">
    <text style="font-size: 13px; font-family: 'Microsoft YaHei', 'Microsoft YaHei UI', 'SimHei', 'Segoe UI', 'DejaVu Sans', sans-serif; fill: #475569" transform="translate(740.16 131.351875)">• 大宏沿边 / 沿角</text>
    <text style="font-size: 13px; font-family: 'Microsoft YaHei', 'Microsoft YaHei UI', 'SimHei', 'Segoe UI', 'DejaVu Sans', sans-serif; fill: #475569" transform="translate(740.16 153.288969)">• 引脚朝 core</text>
    <text style="font-size: 13px; font-family: 'Microsoft YaHei', 'Microsoft YaHei UI', 'SimHei', 'Segoe UI', 'DejaVu Sans', sans-serif; fill: #475569" transform="translate(740.16 176.344875)">• 按数据流就近(flyline)</text>
    <text style="font-size: 13px; font-family: 'Microsoft YaHei', 'Microsoft YaHei UI', 'SimHei', 'Segoe UI', 'DejaVu Sans', sans-serif; fill: #475569" transform="translate(740.16 198.357125)">• 对称背靠背、规整阵列</text>
    <text style="font-size: 13px; font-family: 'Microsoft YaHei', 'Microsoft YaHei UI', 'SimHei', 'Segoe UI', 'DejaVu Sans', sans-serif; fill: #475569" transform="translate(740.16 220.294219)">• 留 channel 走 PG/信号</text>
   </g>
   <g id="patch_5">
    <path d="M 95 223.36 
L 272.12 223.36 
Q 280.76 223.36 280.76 214.72 
L 280.76 95.2 
Q 280.76 86.56 272.12 86.56 
L 95 86.56 
Q 86.36 86.56 86.36 95.2 
L 86.36 214.72 
Q 86.36 223.36 95 223.36 
z
" clip-path="url(#pca1987e89a)" style="fill: #0f172a; opacity: 0.16"/>
    <path d="M 93.6 221.76 
L 270.72 221.76 
Q 279.36 221.76 279.36 213.12 
L 279.36 93.6 
Q 279.36 84.96 270.72 84.96 
L 93.6 84.96 
Q 84.96 84.96 84.96 93.6 
L 84.96 213.12 
Q 84.96 221.76 93.6 221.76 
z
" clip-path="url(#pca1987e89a)" style="fill: #ccfbf1; stroke: #14b8a6; stroke-width: 1.8; stroke-linejoin: miter"/>
   </g>
   <g id="patch_6">
    <path d="M 491 223.36 
L 668.12 223.36 
Q 676.76 223.36 676.76 214.72 
L 676.76 95.2 
Q 676.76 86.56 668.12 86.56 
L 491 86.56 
Q 482.36 86.56 482.36 95.2 
L 482.36 214.72 
Q 482.36 223.36 491 223.36 
z
" clip-path="url(#pca1987e89a)" style="fill: #0f172a; opacity: 0.16"/>
    <path d="M 489.6 221.76 
L 666.72 221.76 
Q 675.36 221.76 675.36 213.12 
L 675.36 93.6 
Q 675.36 84.96 666.72 84.96 
L 489.6 84.96 
Q 480.96 84.96 480.96 93.6 
L 480.96 213.12 
Q 480.96 221.76 489.6 221.76 
z
" clip-path="url(#pca1987e89a)" style="fill: #ccfbf1; stroke: #14b8a6; stroke-width: 1.8; stroke-linejoin: miter"/>
   </g>
   <g id="patch_7">
    <path d="M 95 475.36 
L 257.72 475.36 
Q 266.36 475.36 266.36 466.72 
L 266.36 368.8 
Q 266.36 360.16 257.72 360.16 
L 95 360.16 
Q 86.36 360.16 86.36 368.8 
L 86.36 466.72 
Q 86.36 475.36 95 475.36 
z
" clip-path="url(#pca1987e89a)" style="fill: #0f172a; opacity: 0.16"/>
    <path d="M 93.6 473.76 
L 256.32 473.76 
Q 264.96 473.76 264.96 465.12 
L 264.96 367.2 
Q 264.96 358.56 256.32 358.56 
L 93.6 358.56 
Q 84.96 358.56 84.96 367.2 
L 84.96 465.12 
Q 84.96 473.76 93.6 473.76 
z
" clip-path="url(#pca1987e89a)" style="fill: #ffffff; stroke: #14b8a6; stroke-width: 1.8; stroke-linejoin: miter"/>
   </g>
   <g id="patch_8">
    <path d="M 102.24 223.92 
L 110.88 223.92 
L 110.88 212.4 
L 102.24 212.4 
z
" clip-path="url(#pca1987e89a)" style="fill: #db2777"/>
   </g>
   <g id="patch_9">
    <path d="M 132.48 223.92 
L 141.12 223.92 
L 141.12 212.4 
L 132.48 212.4 
z
" clip-path="url(#pca1987e89a)" style="fill: #db2777"/>
   </g>
   <g id="patch_10">
    <path d="M 162.72 223.92 
L 171.36 223.92 
L 171.36 212.4 
L 162.72 212.4 
z
" clip-path="url(#pca1987e89a)" style="fill: #db2777"/>
   </g>
   <g id="patch_11">
    <path d="M 192.96 223.92 
L 201.6 223.92 
L 201.6 212.4 
L 192.96 212.4 
z
" clip-path="url(#pca1987e89a)" style="fill: #db2777"/>
   </g>
   <g id="patch_12">
    <path d="M 223.2 223.92 
L 231.84 223.92 
L 231.84 212.4 
L 223.2 212.4 
z
" clip-path="url(#pca1987e89a)" style="fill: #db2777"/>
   </g>
   <g id="patch_13">
    <path d="M 253.44 223.92 
L 262.08 223.92 
L 262.08 212.4 
L 253.44 212.4 
z
" clip-path="url(#pca1987e89a)" style="fill: #db2777"/>
   </g>
   <g id="patch_14">
    <path d="M 498.24 223.92 
L 506.88 223.92 
L 506.88 212.4 
L 498.24 212.4 
z
" clip-path="url(#pca1987e89a)" style="fill: #db2777"/>
   </g>
   <g id="patch_15">
    <path d="M 528.48 223.92 
L 537.12 223.92 
L 537.12 212.4 
L 528.48 212.4 
z
" clip-path="url(#pca1987e89a)" style="fill: #db2777"/>
   </g>
   <g id="patch_16">
    <path d="M 558.72 223.92 
L 567.36 223.92 
L 567.36 212.4 
L 558.72 212.4 
z
" clip-path="url(#pca1987e89a)" style="fill: #db2777"/>
   </g>
   <g id="patch_17">
    <path d="M 588.96 223.92 
L 597.6 223.92 
L 597.6 212.4 
L 588.96 212.4 
z
" clip-path="url(#pca1987e89a)" style="fill: #db2777"/>
   </g>
   <g id="patch_18">
    <path d="M 619.2 223.92 
L 627.84 223.92 
L 627.84 212.4 
L 619.2 212.4 
z
" clip-path="url(#pca1987e89a)" style="fill: #db2777"/>
   </g>
   <g id="patch_19">
    <path d="M 649.44 223.92 
L 658.08 223.92 
L 658.08 212.4 
L 649.44 212.4 
z
" clip-path="url(#pca1987e89a)" style="fill: #db2777"/>
   </g>
   <g id="text_5">
    <text style="font-weight: 700; font-size: 19px; font-family: 'Microsoft YaHei', 'Microsoft YaHei UI', 'SimHei', 'Segoe UI', 'DejaVu Sans', sans-serif; text-anchor: middle; fill: #0f766e" x="182.16" y="138.072422" transform="rotate(-0 182.16 138.072422)">SRAM</text>
   </g>
   <g id="text_6">
    <text style="font-size: 11.5px; font-family: 'Microsoft YaHei', 'Microsoft YaHei UI', 'SimHei', 'Segoe UI', 'DejaVu Sans', sans-serif; text-anchor: middle; fill: #0f766e; opacity: 0.92" x="182.16" y="186.622992" transform="rotate(-0 182.16 186.622992)">hard IP</text>
   </g>
   <g id="text_7">
    <text style="font-weight: 700; font-size: 19px; font-family: 'Microsoft YaHei', 'Microsoft YaHei UI', 'SimHei', 'Segoe UI', 'DejaVu Sans', sans-serif; text-anchor: middle; fill: #0f766e" x="578.16" y="138.072422" transform="rotate(-0 578.16 138.072422)">SRAM</text>
   </g>
   <g id="text_8">
    <text style="font-size: 11.5px; font-family: 'Microsoft YaHei', 'Microsoft YaHei UI', 'SimHei', 'Segoe UI', 'DejaVu Sans', sans-serif; text-anchor: middle; fill: #0f766e; opacity: 0.92" x="578.16" y="186.622992" transform="rotate(-0 578.16 186.622992)">hard IP</text>
   </g>
   <g id="text_9">
    <text style="font-weight: 700; font-size: 15px; font-family: 'Microsoft YaHei', 'Microsoft YaHei UI', 'SimHei', 'Segoe UI', 'DejaVu Sans', sans-serif; text-anchor: middle; fill: #0f766e" x="174.96" y="420.290859" transform="rotate(-0 174.96 420.290859)">PLL / IP</text>
   </g>
   <g id="text_10">
    <g id="patch_20">
     <path d="M 344.444414 155.86582 
L 415.875586 155.86582 
Q 419.555586 155.86582 419.555586 152.18582 
L 419.555586 140.13418 
Q 419.555586 136.45418 415.875586 136.45418 
L 344.444414 136.45418 
Q 340.764414 136.45418 340.764414 140.13418 
L 340.764414 152.18582 
Q 340.764414 155.86582 344.444414 155.86582 
z
" style="fill: #fce7f3; stroke: #db2777; stroke-width: 1.3; stroke-linejoin: miter"/>
    </g>
    <text style="font-weight: 700; font-size: 11.5px; font-family: 'Microsoft YaHei', 'Microsoft YaHei UI', 'SimHei', 'Segoe UI', 'DejaVu Sans', sans-serif; text-anchor: middle; fill: #9d174d" x="380.16" y="149.326992" transform="rotate(-0 380.16 149.326992)">channel 通道</text>
   </g>
   <g id="patch_21">
    <path d="M 743.04 423.36 
L 751.68 423.36 
Q 754.56 423.36 754.56 420.48 
L 754.56 411.84 
Q 754.56 408.96 751.68 408.96 
L 743.04 408.96 
Q 740.16 408.96 740.16 411.84 
L 740.16 420.48 
Q 740.16 423.36 743.04 423.36 
z
" clip-path="url(#pca1987e89a)" style="fill: #14b8a6"/>
   </g>
   <g id="text_11">
    <text style="font-size: 11.5px; font-family: 'Microsoft YaHei', 'Microsoft YaHei UI', 'SimHei', 'Segoe UI', 'DejaVu Sans', sans-serif; text-anchor: start; fill: #475569" x="766.08" y="419.326992" transform="rotate(-0 766.08 419.326992)">Macro / 硬 IP</text>
   </g>
   <g id="patch_22">
    <path d="M 743.04 456.48 
L 751.68 456.48 
Q 754.56 456.48 754.56 453.6 
L 754.56 444.96 
Q 754.56 442.08 751.68 442.08 
L 743.04 442.08 
Q 740.16 442.08 740.16 444.96 
L 740.16 453.6 
Q 740.16 456.48 743.04 456.48 
z
" clip-path="url(#pca1987e89a)" style="fill: #db2777"/>
   </g>
   <g id="text_12">
    <text style="font-size: 11.5px; font-family: 'Microsoft YaHei', 'Microsoft YaHei UI', 'SimHei', 'Segoe UI', 'DejaVu Sans', sans-serif; text-anchor: start; fill: #475569" x="766.08" y="452.446992" transform="rotate(-0 766.08 452.446992)">引脚 / channel</text>
   </g>
   <g id="patch_23">
    <path d="M 743.04 489.6 
L 751.68 489.6 
Q 754.56 489.6 754.56 486.72 
L 754.56 478.08 
Q 754.56 475.2 751.68 475.2 
L 743.04 475.2 
Q 740.16 475.2 740.16 478.08 
L 740.16 486.72 
Q 740.16 489.6 743.04 489.6 
z
" clip-path="url(#pca1987e89a)" style="fill: #008080"/>
   </g>
   <g id="text_13">
    <text style="font-size: 11.5px; font-family: 'Microsoft YaHei', 'Microsoft YaHei UI', 'SimHei', 'Segoe UI', 'DejaVu Sans', sans-serif; text-anchor: start; fill: #475569" x="766.08" y="485.808672" transform="rotate(-0 766.08 485.808672)">数据流 flyline</text>
   </g>
  </g>
 </g>
 <defs>
  <clipPath id="pca1987e89a">
   <rect x="5.76" y="5.76" width="936" height="547.2"/>
  </clipPath>
 </defs>
</svg>
