<?xml version="1.0" encoding="utf-8" standalone="no"?>
<!DOCTYPE svg PUBLIC "-//W3C//DTD SVG 1.1//EN"
  "http://www.w3.org/Graphics/SVG/1.1/DTD/svg11.dtd">
<svg xmlns:xlink="http://www.w3.org/1999/xlink" width="688.32pt" height="501.12pt" viewBox="0 0 688.32 501.12" xmlns="http://www.w3.org/2000/svg" version="1.1">
 <metadata>
  <rdf:RDF xmlns:dc="http://purl.org/dc/elements/1.1/" xmlns:cc="http://creativecommons.org/ns#" xmlns:rdf="http://www.w3.org/1999/02/22-rdf-syntax-ns#">
   <cc:Work>
    <dc:type rdf:resource="http://purl.org/dc/dcmitype/StillImage"/>
    <dc:date>2026-06-23T23:32:39.137283</dc:date>
    <dc:format>image/svg+xml</dc:format>
    <dc:creator>
     <cc:Agent>
      <dc:title>Matplotlib v3.10.8, https://matplotlib.org/</dc:title>
     </cc:Agent>
    </dc:creator>
   </cc:Work>
  </rdf:RDF>
 </metadata>
 <defs>
  <style type="text/css">*{stroke-linejoin: round; stroke-linecap: butt}</style>
 </defs>
 <g id="figure_1">
  <g id="patch_1">
   <path d="M 0 501.12 
L 688.32 501.12 
L 688.32 0 
L 0 0 
z
" style="fill: #ffffff"/>
  </g>
  <g id="axes_1">
   <g id="patch_2">
    <path d="M 5.76 495.36 
L 682.56 495.36 
L 682.56 5.76 
L 5.76 5.76 
z
" clip-path="url(#p9651d8317f)" style="fill: #ffffff"/>
   </g>
   <g id="patch_3">
    <path d="M 34.56 459.36 
L 372.96 459.36 
L 372.96 41.76 
L 34.56 41.76 
z
" clip-path="url(#p9651d8317f)" style="fill: #ffffff; stroke: #3a4252; stroke-width: 1.8; stroke-linejoin: miter"/>
   </g>
   <g id="patch_4">
    <path d="M 48.96 444.96 
L 358.56 444.96 
L 358.56 56.16 
L 48.96 56.16 
z
" clip-path="url(#p9651d8317f)" style="fill: #dbeafe"/>
   </g>
   <g id="text_1">
    <text style="font-weight: 700; font-size: 17px; font-family: 'Microsoft YaHei', 'Microsoft YaHei UI', 'SimHei', 'Segoe UI', 'DejaVu Sans', sans-serif; fill: #1e3a8a" transform="translate(170.343047 278.341797)">Std-Cell</text>
    <text style="font-weight: 700; font-size: 17px; font-family: 'Microsoft YaHei', 'Microsoft YaHei UI', 'SimHei', 'Segoe UI', 'DejaVu Sans', sans-serif; fill: #1e3a8a" transform="translate(173.853281 298.875141)">Region</text>
   </g>
   <g id="patch_5">
    <path d="M 408.96 95.76 
L 653.76 95.76 
Q 660.96 95.76 660.96 88.56 
L 660.96 32.4 
Q 660.96 25.2 653.76 25.2 
L 408.96 25.2 
Q 401.76 25.2 401.76 32.4 
L 401.76 88.56 
Q 401.76 95.76 408.96 95.76 
z
" clip-path="url(#p9651d8317f)" style="fill: #ccfbf1; stroke: #cbd2dc; stroke-width: 1.4; stroke-linejoin: miter"/>
   </g>
   <g id="patch_6">
    <path d="M 408.96 179.28 
L 653.76 179.28 
Q 660.96 179.28 660.96 172.08 
L 660.96 115.92 
Q 660.96 108.72 653.76 108.72 
L 408.96 108.72 
Q 401.76 108.72 401.76 115.92 
L 401.76 172.08 
Q 401.76 179.28 408.96 179.28 
z
" clip-path="url(#p9651d8317f)" style="fill: #fee2e2; stroke: #cbd2dc; stroke-width: 1.4; stroke-linejoin: miter"/>
   </g>
   <g id="patch_7">
    <path d="M 408.96 262.8 
L 653.76 262.8 
Q 660.96 262.8 660.96 255.6 
L 660.96 199.44 
Q 660.96 192.24 653.76 192.24 
L 408.96 192.24 
Q 401.76 192.24 401.76 199.44 
L 401.76 255.6 
Q 401.76 262.8 408.96 262.8 
z
" clip-path="url(#p9651d8317f)" style="fill: #ede9fe; stroke: #cbd2dc; stroke-width: 1.4; stroke-linejoin: miter"/>
   </g>
   <g id="patch_8">
    <path d="M 408.96 346.32 
L 653.76 346.32 
Q 660.96 346.32 660.96 339.12 
L 660.96 282.96 
Q 660.96 275.76 653.76 275.76 
L 408.96 275.76 
Q 401.76 275.76 401.76 282.96 
L 401.76 339.12 
Q 401.76 346.32 408.96 346.32 
z
" clip-path="url(#p9651d8317f)" style="fill: #ffedd5; stroke: #cbd2dc; stroke-width: 1.4; stroke-linejoin: miter"/>
   </g>
   <g id="patch_9">
    <path d="M 408.96 429.84 
L 653.76 429.84 
Q 660.96 429.84 660.96 422.64 
L 660.96 366.48 
Q 660.96 359.28 653.76 359.28 
L 408.96 359.28 
Q 401.76 359.28 401.76 366.48 
L 401.76 422.64 
Q 401.76 429.84 408.96 429.84 
z
" clip-path="url(#p9651d8317f)" style="fill: #eef1f5; stroke: #cbd2dc; stroke-width: 1.4; stroke-linejoin: miter"/>
   </g>
   <g id="line2d_1">
    <path d="M 189.36 156.96 
L 203.76 283.968 
" clip-path="url(#p9651d8317f)" style="fill: none; stroke-dasharray: 2.7,2.7; stroke-dashoffset: 0; stroke: #0d9488; stroke-width: 0.9"/>
   </g>
   <g id="line2d_2">
    <path d="M 189.36 128.16 
L 203.76 283.968 
" clip-path="url(#p9651d8317f)" style="fill: none; stroke-dasharray: 2.7,2.7; stroke-dashoffset: 0; stroke: #0d9488; stroke-width: 0.9"/>
   </g>
   <g id="line2d_3">
    <path d="M 189.36 99.36 
L 203.76 283.968 
" clip-path="url(#p9651d8317f)" style="fill: none; stroke-dasharray: 2.7,2.7; stroke-dashoffset: 0; stroke: #0d9488; stroke-width: 0.9"/>
   </g>
   <g id="text_2">
    <text style="font-weight: 700; font-size: 17px; font-family: 'Microsoft YaHei', 'Microsoft YaHei UI', 'SimHei', 'Segoe UI', 'DejaVu Sans', sans-serif; text-anchor: start; fill: #1a1f2b" x="423.36" y="62.849375" transform="rotate(-0 423.36 62.849375)">① 沿边 / 沿角</text>
   </g>
   <g id="text_3">
    <text style="font-weight: 700; font-size: 17px; font-family: 'Microsoft YaHei', 'Microsoft YaHei UI', 'SimHei', 'Segoe UI', 'DejaVu Sans', sans-serif; text-anchor: start; fill: #1a1f2b" x="423.36" y="146.369375" transform="rotate(-0 423.36 146.369375)">② 引脚朝 core</text>
   </g>
   <g id="text_4">
    <text style="font-weight: 700; font-size: 17px; font-family: 'Microsoft YaHei', 'Microsoft YaHei UI', 'SimHei', 'Segoe UI', 'DejaVu Sans', sans-serif; text-anchor: start; fill: #1a1f2b" x="423.36" y="229.889375" transform="rotate(-0 423.36 229.889375)">③ 按数据流就近</text>
   </g>
   <g id="text_5">
    <text style="font-weight: 700; font-size: 17px; font-family: 'Microsoft YaHei', 'Microsoft YaHei UI', 'SimHei', 'Segoe UI', 'DejaVu Sans', sans-serif; text-anchor: start; fill: #1a1f2b" x="423.36" y="313.409375" transform="rotate(-0 423.36 313.409375)">④ 对称背靠背</text>
   </g>
   <g id="text_6">
    <text style="font-weight: 700; font-size: 17px; font-family: 'Microsoft YaHei', 'Microsoft YaHei UI', 'SimHei', 'Segoe UI', 'DejaVu Sans', sans-serif; text-anchor: start; fill: #1a1f2b" x="423.36" y="396.929375" transform="rotate(-0 423.36 396.929375)">⑤ 留 channel</text>
   </g>
   <g id="patch_10">
    <path d="M 66.2 180.16 
L 182.12 180.16 
Q 190.76 180.16 190.76 171.52 
L 190.76 73.6 
Q 190.76 64.96 182.12 64.96 
L 66.2 64.96 
Q 57.56 64.96 57.56 73.6 
L 57.56 171.52 
Q 57.56 180.16 66.2 180.16 
z
" clip-path="url(#p9651d8317f)" style="fill: #1a1f2b; opacity: 0.16"/>
    <path d="M 64.8 178.56 
L 180.72 178.56 
Q 189.36 178.56 189.36 169.92 
L 189.36 72 
Q 189.36 63.36 180.72 63.36 
L 64.8 63.36 
Q 56.16 63.36 56.16 72 
L 56.16 169.92 
Q 56.16 178.56 64.8 178.56 
z
" clip-path="url(#p9651d8317f)" style="fill: #ccfbf1; stroke: #0d9488; stroke-width: 1.8; stroke-linejoin: miter"/>
   </g>
   <g id="patch_11">
    <path d="M 228.2 180.16 
L 344.12 180.16 
Q 352.76 180.16 352.76 171.52 
L 352.76 73.6 
Q 352.76 64.96 344.12 64.96 
L 228.2 64.96 
Q 219.56 64.96 219.56 73.6 
L 219.56 171.52 
Q 219.56 180.16 228.2 180.16 
z
" clip-path="url(#p9651d8317f)" style="fill: #1a1f2b; opacity: 0.16"/>
    <path d="M 226.8 178.56 
L 342.72 178.56 
Q 351.36 178.56 351.36 169.92 
L 351.36 72 
Q 351.36 63.36 342.72 63.36 
L 226.8 63.36 
Q 218.16 63.36 218.16 72 
L 218.16 169.92 
Q 218.16 178.56 226.8 178.56 
z
" clip-path="url(#p9651d8317f)" style="fill: #ccfbf1; stroke: #0d9488; stroke-width: 1.8; stroke-linejoin: miter"/>
   </g>
   <g id="patch_12">
    <path d="M 66.2 439.36 
L 171.32 439.36 
Q 179.96 439.36 179.96 430.72 
L 179.96 354.4 
Q 179.96 345.76 171.32 345.76 
L 66.2 345.76 
Q 57.56 345.76 57.56 354.4 
L 57.56 430.72 
Q 57.56 439.36 66.2 439.36 
z
" clip-path="url(#p9651d8317f)" style="fill: #1a1f2b; opacity: 0.16"/>
    <path d="M 64.8 437.76 
L 169.92 437.76 
Q 178.56 437.76 178.56 429.12 
L 178.56 352.8 
Q 178.56 344.16 169.92 344.16 
L 64.8 344.16 
Q 56.16 344.16 56.16 352.8 
L 56.16 429.12 
Q 56.16 437.76 64.8 437.76 
z
" clip-path="url(#p9651d8317f)" style="fill: #ffffff; stroke: #0d9488; stroke-width: 1.8; stroke-linejoin: miter"/>
   </g>
   <g id="patch_13">
    <path d="M 74.16 180.72 
L 81.36 180.72 
L 81.36 170.64 
L 74.16 170.64 
z
" clip-path="url(#p9651d8317f)" style="fill: #dc2626"/>
   </g>
   <g id="patch_14">
    <path d="M 104.16 180.72 
L 111.36 180.72 
L 111.36 170.64 
L 104.16 170.64 
z
" clip-path="url(#p9651d8317f)" style="fill: #dc2626"/>
   </g>
   <g id="patch_15">
    <path d="M 134.16 180.72 
L 141.36 180.72 
L 141.36 170.64 
L 134.16 170.64 
z
" clip-path="url(#p9651d8317f)" style="fill: #dc2626"/>
   </g>
   <g id="patch_16">
    <path d="M 164.16 180.72 
L 171.36 180.72 
L 171.36 170.64 
L 164.16 170.64 
z
" clip-path="url(#p9651d8317f)" style="fill: #dc2626"/>
   </g>
   <g id="patch_17">
    <path d="M 236.16 180.72 
L 243.36 180.72 
L 243.36 170.64 
L 236.16 170.64 
z
" clip-path="url(#p9651d8317f)" style="fill: #dc2626"/>
   </g>
   <g id="patch_18">
    <path d="M 266.16 180.72 
L 273.36 180.72 
L 273.36 170.64 
L 266.16 170.64 
z
" clip-path="url(#p9651d8317f)" style="fill: #dc2626"/>
   </g>
   <g id="patch_19">
    <path d="M 296.16 180.72 
L 303.36 180.72 
L 303.36 170.64 
L 296.16 170.64 
z
" clip-path="url(#p9651d8317f)" style="fill: #dc2626"/>
   </g>
   <g id="patch_20">
    <path d="M 326.16 180.72 
L 333.36 180.72 
L 333.36 170.64 
L 326.16 170.64 
z
" clip-path="url(#p9651d8317f)" style="fill: #dc2626"/>
   </g>
   <g id="text_7">
    <text style="font-weight: 700; font-size: 17px; font-family: 'Microsoft YaHei', 'Microsoft YaHei UI', 'SimHei', 'Segoe UI', 'DejaVu Sans', sans-serif; text-anchor: middle; fill: #115e59" x="122.76" y="125.641641" transform="rotate(-0 122.76 125.641641)">SRAM</text>
   </g>
   <g id="text_8">
    <text style="font-weight: 700; font-size: 17px; font-family: 'Microsoft YaHei', 'Microsoft YaHei UI', 'SimHei', 'Segoe UI', 'DejaVu Sans', sans-serif; text-anchor: middle; fill: #115e59" x="284.76" y="125.641641" transform="rotate(-0 284.76 125.641641)">SRAM</text>
   </g>
   <g id="text_9">
    <text style="font-weight: 700; font-size: 17px; font-family: 'Microsoft YaHei', 'Microsoft YaHei UI', 'SimHei', 'Segoe UI', 'DejaVu Sans', sans-serif; text-anchor: middle; fill: #115e59" x="117.36" y="395.641641" transform="rotate(-0 117.36 395.641641)">PLL</text>
   </g>
   <g id="text_10">
    <g id="patch_21">
     <path d="M 176.364844 129.175781 
L 231.155156 129.175781 
Q 235.635156 129.175781 235.635156 124.695781 
L 235.635156 110.024219 
Q 235.635156 105.544219 231.155156 105.544219 
L 176.364844 105.544219 
Q 171.884844 105.544219 171.884844 110.024219 
L 171.884844 124.695781 
Q 171.884844 129.175781 176.364844 129.175781 
z
" style="fill: #fee2e2; stroke: #dc2626; stroke-width: 1.3; stroke-linejoin: miter"/>
    </g>
    <text style="font-weight: 700; font-size: 14px; font-family: 'Microsoft YaHei', 'Microsoft YaHei UI', 'SimHei', 'Segoe UI', 'DejaVu Sans', sans-serif; text-anchor: middle; fill: #991b1b" x="203.76" y="121.215469" transform="rotate(-0 203.76 121.215469)">channel</text>
   </g>
  </g>
 </g>
 <defs>
  <clipPath id="p9651d8317f">
   <rect x="5.76" y="5.76" width="676.8" height="489.6"/>
  </clipPath>
 </defs>
</svg>
