<?xml version="1.0" encoding="utf-8" standalone="no"?>
<!DOCTYPE svg PUBLIC "-//W3C//DTD SVG 1.1//EN"
  "http://www.w3.org/Graphics/SVG/1.1/DTD/svg11.dtd">
<svg xmlns:xlink="http://www.w3.org/1999/xlink" width="839.52pt" height="515.52pt" viewBox="0 0 839.52 515.52" xmlns="http://www.w3.org/2000/svg" version="1.1">
 <metadata>
  <rdf:RDF xmlns:dc="http://purl.org/dc/elements/1.1/" xmlns:cc="http://creativecommons.org/ns#" xmlns:rdf="http://www.w3.org/1999/02/22-rdf-syntax-ns#">
   <cc:Work>
    <dc:type rdf:resource="http://purl.org/dc/dcmitype/StillImage"/>
    <dc:date>2026-06-22T14:59:36.848552</dc:date>
    <dc:format>image/svg+xml</dc:format>
    <dc:creator>
     <cc:Agent>
      <dc:title>Matplotlib v3.10.8, https://matplotlib.org/</dc:title>
     </cc:Agent>
    </dc:creator>
   </cc:Work>
  </rdf:RDF>
 </metadata>
 <defs>
  <style type="text/css">*{stroke-linejoin: round; stroke-linecap: butt}</style>
 </defs>
 <g id="figure_1">
  <g id="patch_1">
   <path d="M 0 515.52 
L 839.52 515.52 
L 839.52 0 
L 0 0 
z
" style="fill: #ffffff"/>
  </g>
  <g id="axes_1">
   <g id="patch_2">
    <path d="M 5.76 509.76 
L 833.76 509.76 
L 833.76 5.76 
L 5.76 5.76 
z
" clip-path="url(#p04f0a3cdb8)" style="fill: #ffffff"/>
   </g>
   <g id="patch_3">
    <path d="M 25.92 498.24 
L 813.6 498.24 
Q 822.24 498.24 822.24 489.6 
L 822.24 25.92 
Q 822.24 17.28 813.6 17.28 
L 25.92 17.28 
Q 17.28 17.28 17.28 25.92 
L 17.28 489.6 
Q 17.28 498.24 25.92 498.24 
L 25.92 498.24 
z
" clip-path="url(#p04f0a3cdb8)" style="fill: none; stroke: #cbd5e1; stroke-width: 1.4; stroke-linejoin: miter"/>
   </g>
   <g id="patch_4">
    <path d="M 56.16 459.36 
L 783.36 459.36 
L 783.36 56.16 
L 56.16 56.16 
z
" clip-path="url(#p04f0a3cdb8)" style="fill: #ffffff; stroke: #475569; stroke-width: 2; stroke-linejoin: miter"/>
   </g>
   <g id="line2d_1">
    <path d="M 360.56 351.36 
L 360.56 84.96 
" clip-path="url(#p04f0a3cdb8)" style="fill: none; stroke: #14b8a6; stroke-width: 1.2; stroke-linecap: round"/>
   </g>
   <g id="line2d_2">
    <path d="M 373.36 351.36 
L 373.36 84.96 
" clip-path="url(#p04f0a3cdb8)" style="fill: none; stroke: #14b8a6; stroke-width: 1.2; stroke-linecap: round"/>
   </g>
   <g id="line2d_3">
    <path d="M 386.16 351.36 
L 386.16 84.96 
" clip-path="url(#p04f0a3cdb8)" style="fill: none; stroke: #14b8a6; stroke-width: 1.2; stroke-linecap: round"/>
   </g>
   <g id="line2d_4">
    <path d="M 398.96 351.36 
L 398.96 84.96 
" clip-path="url(#p04f0a3cdb8)" style="fill: none; stroke: #14b8a6; stroke-width: 1.2; stroke-linecap: round"/>
   </g>
   <g id="line2d_5">
    <path d="M 411.76 351.36 
L 411.76 84.96 
" clip-path="url(#p04f0a3cdb8)" style="fill: none; stroke: #14b8a6; stroke-width: 1.2; stroke-linecap: round"/>
   </g>
   <g id="line2d_6">
    <path d="M 424.56 351.36 
L 424.56 84.96 
" clip-path="url(#p04f0a3cdb8)" style="fill: none; stroke: #14b8a6; stroke-width: 1.2; stroke-linecap: round"/>
   </g>
   <g id="line2d_7">
    <path d="M 437.36 351.36 
L 437.36 84.96 
" clip-path="url(#p04f0a3cdb8)" style="fill: none; stroke: #14b8a6; stroke-width: 1.2; stroke-linecap: round"/>
   </g>
   <g id="line2d_8">
    <path d="M 450.16 351.36 
L 450.16 84.96 
" clip-path="url(#p04f0a3cdb8)" style="fill: none; stroke: #14b8a6; stroke-width: 1.2; stroke-linecap: round"/>
   </g>
   <g id="patch_5">
    <path d="M 588.96 434.16 
L 754.56 434.16 
L 754.56 347.76 
L 588.96 347.76 
z
" clip-path="url(#p04f0a3cdb8)" style="fill: url(#hd9aa2406dc); stroke: #64748b; stroke-width: 1.3; stroke-linejoin: miter"/>
   </g>
   <g id="text_1">
    <text style="font-size: 12px; font-family: 'Microsoft YaHei', 'Microsoft YaHei UI', 'SimHei', 'Segoe UI', 'DejaVu Sans', sans-serif; fill: #475569" transform="translate(641.642812 386.982937)">placement</text>
    <text style="font-size: 12px; font-family: 'Microsoft YaHei', 'Microsoft YaHei UI', 'SimHei', 'Segoe UI', 'DejaVu Sans', sans-serif; fill: #475569" transform="translate(645.6825 401.477062)">blockage</text>
   </g>
   <g id="patch_6">
    <path d="M 116.6 360.16 
L 315.32 360.16 
Q 323.96 360.16 323.96 351.52 
L 323.96 109.6 
Q 323.96 100.96 315.32 100.96 
L 116.6 100.96 
Q 107.96 100.96 107.96 109.6 
L 107.96 351.52 
Q 107.96 360.16 116.6 360.16 
z
" clip-path="url(#p04f0a3cdb8)" style="fill: #0f172a; opacity: 0.16"/>
    <path d="M 115.2 358.56 
L 313.92 358.56 
Q 322.56 358.56 322.56 349.92 
L 322.56 108 
Q 322.56 99.36 313.92 99.36 
L 115.2 99.36 
Q 106.56 99.36 106.56 108 
L 106.56 349.92 
Q 106.56 358.56 115.2 358.56 
z
" clip-path="url(#p04f0a3cdb8)" style="fill: #ccfbf1; stroke: #14b8a6; stroke-width: 1.8; stroke-linejoin: miter"/>
   </g>
   <g id="patch_7">
    <path d="M 498.2 360.16 
L 696.92 360.16 
Q 705.56 360.16 705.56 351.52 
L 705.56 109.6 
Q 705.56 100.96 696.92 100.96 
L 498.2 100.96 
Q 489.56 100.96 489.56 109.6 
L 489.56 351.52 
Q 489.56 360.16 498.2 360.16 
z
" clip-path="url(#p04f0a3cdb8)" style="fill: #0f172a; opacity: 0.16"/>
    <path d="M 496.8 358.56 
L 695.52 358.56 
Q 704.16 358.56 704.16 349.92 
L 704.16 108 
Q 704.16 99.36 695.52 99.36 
L 496.8 99.36 
Q 488.16 99.36 488.16 108 
L 488.16 349.92 
Q 488.16 358.56 496.8 358.56 
z
" clip-path="url(#p04f0a3cdb8)" style="fill: #ccfbf1; stroke: #14b8a6; stroke-width: 1.8; stroke-linejoin: miter"/>
   </g>
   <g id="patch_8">
    <path d="M 83.52 381.6 
L 345.6 381.6 
L 345.6 76.32 
L 83.52 76.32 
L 83.52 381.6 
z
" clip-path="url(#p04f0a3cdb8)" style="fill: none; stroke-dasharray: 9,5.4; stroke-dashoffset: 0; stroke: #db2777; stroke-width: 1.8; stroke-linejoin: miter"/>
   </g>
   <g id="text_2">
    <text style="font-weight: 700; font-size: 16px; font-family: 'Microsoft YaHei', 'Microsoft YaHei UI', 'SimHei', 'Segoe UI', 'DejaVu Sans', sans-serif; text-anchor: middle; fill: #0f766e" x="214.56" y="233.36625" transform="rotate(-0 214.56 233.36625)">Macro A</text>
   </g>
   <g id="text_3">
    <text style="font-weight: 700; font-size: 16px; font-family: 'Microsoft YaHei', 'Microsoft YaHei UI', 'SimHei', 'Segoe UI', 'DejaVu Sans', sans-serif; text-anchor: middle; fill: #0f766e" x="596.16" y="233.36625" transform="rotate(-0 596.16 233.36625)">Macro B</text>
   </g>
   <g id="text_4">
    <g id="patch_9">
     <path d="M 150.522187 413.53875 
L 278.597812 413.53875 
Q 282.437812 413.53875 282.437812 409.69875 
L 282.437812 396.70125 
Q 282.437812 392.86125 278.597812 392.86125 
L 150.522187 392.86125 
Q 146.682187 392.86125 146.682187 396.70125 
L 146.682187 409.69875 
Q 146.682187 413.53875 150.522187 413.53875 
z
" style="fill: #fce7f3; stroke: #db2777; stroke-width: 1.3; stroke-linejoin: miter"/>
    </g>
    <text style="font-weight: 700; font-size: 12px; font-family: 'Microsoft YaHei', 'Microsoft YaHei UI', 'SimHei', 'Segoe UI', 'DejaVu Sans', sans-serif; text-anchor: middle; fill: #9d174d" x="214.56" y="406.715625" transform="rotate(-0 214.56 406.715625)">halo / keepout 隔离环</text>
   </g>
   <g id="text_5">
    <g id="patch_10">
     <path d="M 356.091563 73.487812 
L 454.628438 73.487812 
Q 458.468437 73.487812 458.468437 69.647812 
L 458.468437 57.072187 
Q 458.468437 53.232187 454.628438 53.232187 
L 356.091563 53.232187 
Q 352.251563 53.232187 352.251563 57.072187 
L 352.251563 69.647812 
Q 352.251563 73.487812 356.091563 73.487812 
z
" style="fill: #ccfbf1; stroke: #14b8a6; stroke-width: 1.3; stroke-linejoin: miter"/>
    </g>
    <text style="font-weight: 700; font-size: 12px; font-family: 'Microsoft YaHei', 'Microsoft YaHei UI', 'SimHei', 'Segoe UI', 'DejaVu Sans', sans-serif; text-anchor: middle; fill: #0f766e" x="405.36" y="66.664687" transform="rotate(-0 405.36 66.664687)">channel 布线通道</text>
   </g>
  </g>
 </g>
 <defs>
  <clipPath id="p04f0a3cdb8">
   <rect x="5.76" y="5.76" width="828" height="504"/>
  </clipPath>
 </defs>
 <defs>
  <pattern id="hd9aa2406dc" patternUnits="userSpaceOnUse" x="0" y="0" width="72" height="72">
   <rect x="0" y="0" width="73" height="73" fill="#f1f5f9"/>
   <path d="M -36 36 
L 36 -36 
M -33 39 
L 39 -33 
M -30 42 
L 42 -30 
M -27 45 
L 45 -27 
M -24 48 
L 48 -24 
M -21 51 
L 51 -21 
M -18 54 
L 54 -18 
M -15 57 
L 57 -15 
M -12 60 
L 60 -12 
M -9 63 
L 63 -9 
M -6 66 
L 66 -6 
M -3 69 
L 69 -3 
M 0 72 
L 72 0 
M 3 75 
L 75 3 
M 6 78 
L 78 6 
M 9 81 
L 81 9 
M 12 84 
L 84 12 
M 15 87 
L 87 15 
M 18 90 
L 90 18 
M 21 93 
L 93 21 
M 24 96 
L 96 24 
M 27 99 
L 99 27 
M 30 102 
L 102 30 
M 33 105 
L 105 33 
M 36 108 
L 108 36 
" style="fill: #64748b; stroke: #64748b; stroke-width: 1.0; stroke-linecap: butt; stroke-linejoin: miter"/>
  </pattern>
 </defs>
</svg>
