<?xml version="1.0" encoding="utf-8" standalone="no"?>
<!DOCTYPE svg PUBLIC "-//W3C//DTD SVG 1.1//EN"
  "http://www.w3.org/Graphics/SVG/1.1/DTD/svg11.dtd">
<svg xmlns:xlink="http://www.w3.org/1999/xlink" width="875.52pt" height="515.52pt" viewBox="0 0 875.52 515.52" xmlns="http://www.w3.org/2000/svg" version="1.1">
 <metadata>
  <rdf:RDF xmlns:dc="http://purl.org/dc/elements/1.1/" xmlns:cc="http://creativecommons.org/ns#" xmlns:rdf="http://www.w3.org/1999/02/22-rdf-syntax-ns#">
   <cc:Work>
    <dc:type rdf:resource="http://purl.org/dc/dcmitype/StillImage"/>
    <dc:date>2026-06-22T18:10:08.784515</dc:date>
    <dc:format>image/svg+xml</dc:format>
    <dc:creator>
     <cc:Agent>
      <dc:title>Matplotlib v3.10.8, https://matplotlib.org/</dc:title>
     </cc:Agent>
    </dc:creator>
   </cc:Work>
  </rdf:RDF>
 </metadata>
 <defs>
  <style type="text/css">*{stroke-linejoin: round; stroke-linecap: butt}</style>
 </defs>
 <g id="figure_1">
  <g id="patch_1">
   <path d="M 0 515.52 
L 875.52 515.52 
L 875.52 0 
L 0 0 
z
" style="fill: #ffffff"/>
  </g>
  <g id="axes_1">
   <g id="patch_2">
    <path d="M 5.76 509.76 
L 869.76 509.76 
L 869.76 5.76 
L 5.76 5.76 
z
" clip-path="url(#p2738b01c8b)" style="fill: #ffffff"/>
   </g>
   <g id="patch_3">
    <path d="M 56.16 459.36 
L 819.36 459.36 
L 819.36 56.16 
L 56.16 56.16 
z
" clip-path="url(#p2738b01c8b)" style="fill: #ffffff; stroke: #475569; stroke-width: 2; stroke-linejoin: miter"/>
   </g>
   <g id="line2d_1">
    <path d="M 369.36 351.36 
L 369.36 84.96 
" clip-path="url(#p2738b01c8b)" style="fill: none; stroke: #14b8a6; stroke-width: 1.2; stroke-linecap: round"/>
   </g>
   <g id="line2d_2">
    <path d="M 383.76 351.36 
L 383.76 84.96 
" clip-path="url(#p2738b01c8b)" style="fill: none; stroke: #14b8a6; stroke-width: 1.2; stroke-linecap: round"/>
   </g>
   <g id="line2d_3">
    <path d="M 398.16 351.36 
L 398.16 84.96 
" clip-path="url(#p2738b01c8b)" style="fill: none; stroke: #14b8a6; stroke-width: 1.2; stroke-linecap: round"/>
   </g>
   <g id="line2d_4">
    <path d="M 412.56 351.36 
L 412.56 84.96 
" clip-path="url(#p2738b01c8b)" style="fill: none; stroke: #14b8a6; stroke-width: 1.2; stroke-linecap: round"/>
   </g>
   <g id="line2d_5">
    <path d="M 426.96 351.36 
L 426.96 84.96 
" clip-path="url(#p2738b01c8b)" style="fill: none; stroke: #14b8a6; stroke-width: 1.2; stroke-linecap: round"/>
   </g>
   <g id="line2d_6">
    <path d="M 441.36 351.36 
L 441.36 84.96 
" clip-path="url(#p2738b01c8b)" style="fill: none; stroke: #14b8a6; stroke-width: 1.2; stroke-linecap: round"/>
   </g>
   <g id="line2d_7">
    <path d="M 455.76 351.36 
L 455.76 84.96 
" clip-path="url(#p2738b01c8b)" style="fill: none; stroke: #14b8a6; stroke-width: 1.2; stroke-linecap: round"/>
   </g>
   <g id="line2d_8">
    <path d="M 470.16 351.36 
L 470.16 84.96 
" clip-path="url(#p2738b01c8b)" style="fill: none; stroke: #14b8a6; stroke-width: 1.2; stroke-linecap: round"/>
   </g>
   <g id="patch_4">
    <path d="M 632.16 434.16 
L 790.56 434.16 
L 790.56 347.76 
L 632.16 347.76 
z
" clip-path="url(#p2738b01c8b)" style="fill: url(#h59da0b4625); stroke: #64748b; stroke-width: 1.3; stroke-linejoin: miter"/>
   </g>
   <g id="text_1">
    <text style="font-size: 11.5px; font-family: 'Microsoft YaHei', 'Microsoft YaHei UI', 'SimHei', 'Segoe UI', 'DejaVu Sans', sans-serif; fill: #475569" transform="translate(682.497695 387.148648)">placement</text>
    <text style="font-size: 11.5px; font-family: 'Microsoft YaHei', 'Microsoft YaHei UI', 'SimHei', 'Segoe UI', 'DejaVu Sans', sans-serif; fill: #475569" transform="translate(686.369062 401.038852)">blockage</text>
   </g>
   <g id="patch_5">
    <path d="M 123.8 360.16 
L 322.52 360.16 
Q 331.16 360.16 331.16 351.52 
L 331.16 109.6 
Q 331.16 100.96 322.52 100.96 
L 123.8 100.96 
Q 115.16 100.96 115.16 109.6 
L 115.16 351.52 
Q 115.16 360.16 123.8 360.16 
z
" clip-path="url(#p2738b01c8b)" style="fill: #0f172a; opacity: 0.16"/>
    <path d="M 122.4 358.56 
L 321.12 358.56 
Q 329.76 358.56 329.76 349.92 
L 329.76 108 
Q 329.76 99.36 321.12 99.36 
L 122.4 99.36 
Q 113.76 99.36 113.76 108 
L 113.76 349.92 
Q 113.76 358.56 122.4 358.56 
z
" clip-path="url(#p2738b01c8b)" style="fill: #ccfbf1; stroke: #14b8a6; stroke-width: 1.8; stroke-linejoin: miter"/>
   </g>
   <g id="patch_6">
    <path d="M 519.8 360.16 
L 718.52 360.16 
Q 727.16 360.16 727.16 351.52 
L 727.16 109.6 
Q 727.16 100.96 718.52 100.96 
L 519.8 100.96 
Q 511.16 100.96 511.16 109.6 
L 511.16 351.52 
Q 511.16 360.16 519.8 360.16 
z
" clip-path="url(#p2738b01c8b)" style="fill: #0f172a; opacity: 0.16"/>
    <path d="M 518.4 358.56 
L 717.12 358.56 
Q 725.76 358.56 725.76 349.92 
L 725.76 108 
Q 725.76 99.36 717.12 99.36 
L 518.4 99.36 
Q 509.76 99.36 509.76 108 
L 509.76 349.92 
Q 509.76 358.56 518.4 358.56 
z
" clip-path="url(#p2738b01c8b)" style="fill: #ccfbf1; stroke: #14b8a6; stroke-width: 1.8; stroke-linejoin: miter"/>
   </g>
   <g id="patch_7">
    <path d="M 90.72 381.6 
L 352.8 381.6 
L 352.8 76.32 
L 90.72 76.32 
L 90.72 381.6 
z
" clip-path="url(#p2738b01c8b)" style="fill: none; stroke-dasharray: 9,5.4; stroke-dashoffset: 0; stroke: #db2777; stroke-width: 1.8; stroke-linejoin: miter"/>
   </g>
   <g id="text_2">
    <text style="font-weight: 700; font-size: 19px; font-family: 'Microsoft YaHei', 'Microsoft YaHei UI', 'SimHei', 'Segoe UI', 'DejaVu Sans', sans-serif; text-anchor: middle; fill: #0f766e" x="221.76" y="234.192422" transform="rotate(-0 221.76 234.192422)">Macro A</text>
   </g>
   <g id="text_3">
    <text style="font-weight: 700; font-size: 19px; font-family: 'Microsoft YaHei', 'Microsoft YaHei UI', 'SimHei', 'Segoe UI', 'DejaVu Sans', sans-serif; text-anchor: middle; fill: #0f766e" x="617.76" y="234.192422" transform="rotate(-0 617.76 234.192422)">Macro B</text>
   </g>
   <g id="text_4">
    <g id="patch_8">
     <path d="M 160.39043 413.107969 
L 283.12957 413.107969 
Q 286.80957 413.107969 286.80957 409.427969 
L 286.80957 396.972031 
Q 286.80957 393.292031 283.12957 393.292031 
L 160.39043 393.292031 
Q 156.71043 393.292031 156.71043 396.972031 
L 156.71043 409.427969 
Q 156.71043 413.107969 160.39043 413.107969 
z
" style="fill: #fce7f3; stroke: #db2777; stroke-width: 1.3; stroke-linejoin: miter"/>
    </g>
    <text style="font-weight: 700; font-size: 11.5px; font-family: 'Microsoft YaHei', 'Microsoft YaHei UI', 'SimHei', 'Segoe UI', 'DejaVu Sans', sans-serif; text-anchor: middle; fill: #9d174d" x="221.76" y="406.569141" transform="rotate(-0 221.76 406.569141)">halo / keepout 隔离环</text>
   </g>
   <g id="text_5">
    <g id="patch_9">
     <path d="M 372.544414 73.06582 
L 466.975586 73.06582 
Q 470.655586 73.06582 470.655586 69.38582 
L 470.655586 57.33418 
Q 470.655586 53.65418 466.975586 53.65418 
L 372.544414 53.65418 
Q 368.864414 53.65418 368.864414 57.33418 
L 368.864414 69.38582 
Q 368.864414 73.06582 372.544414 73.06582 
z
" style="fill: #ccfbf1; stroke: #14b8a6; stroke-width: 1.3; stroke-linejoin: miter"/>
    </g>
    <text style="font-weight: 700; font-size: 11.5px; font-family: 'Microsoft YaHei', 'Microsoft YaHei UI', 'SimHei', 'Segoe UI', 'DejaVu Sans', sans-serif; text-anchor: middle; fill: #0f766e" x="419.76" y="66.526992" transform="rotate(-0 419.76 66.526992)">channel 布线通道</text>
   </g>
  </g>
 </g>
 <defs>
  <clipPath id="p2738b01c8b">
   <rect x="5.76" y="5.76" width="864" height="504"/>
  </clipPath>
 </defs>
 <defs>
  <pattern id="h59da0b4625" patternUnits="userSpaceOnUse" x="0" y="0" width="72" height="72">
   <rect x="0" y="0" width="73" height="73" fill="#f1f5f9"/>
   <path d="M -36 36 
L 36 -36 
M -33 39 
L 39 -33 
M -30 42 
L 42 -30 
M -27 45 
L 45 -27 
M -24 48 
L 48 -24 
M -21 51 
L 51 -21 
M -18 54 
L 54 -18 
M -15 57 
L 57 -15 
M -12 60 
L 60 -12 
M -9 63 
L 63 -9 
M -6 66 
L 66 -6 
M -3 69 
L 69 -3 
M 0 72 
L 72 0 
M 3 75 
L 75 3 
M 6 78 
L 78 6 
M 9 81 
L 81 9 
M 12 84 
L 84 12 
M 15 87 
L 87 15 
M 18 90 
L 90 18 
M 21 93 
L 93 21 
M 24 96 
L 96 24 
M 27 99 
L 99 27 
M 30 102 
L 102 30 
M 33 105 
L 105 33 
M 36 108 
L 108 36 
" style="fill: #64748b; stroke: #64748b; stroke-width: 1.0; stroke-linecap: butt; stroke-linejoin: miter"/>
  </pattern>
 </defs>
</svg>
