<?xml version="1.0" encoding="utf-8" standalone="no"?>
<!DOCTYPE svg PUBLIC "-//W3C//DTD SVG 1.1//EN"
  "http://www.w3.org/Graphics/SVG/1.1/DTD/svg11.dtd">
<svg xmlns:xlink="http://www.w3.org/1999/xlink" width="630.72pt" height="472.32pt" viewBox="0 0 630.72 472.32" xmlns="http://www.w3.org/2000/svg" version="1.1">
 <metadata>
  <rdf:RDF xmlns:dc="http://purl.org/dc/elements/1.1/" xmlns:cc="http://creativecommons.org/ns#" xmlns:rdf="http://www.w3.org/1999/02/22-rdf-syntax-ns#">
   <cc:Work>
    <dc:type rdf:resource="http://purl.org/dc/dcmitype/StillImage"/>
    <dc:date>2026-06-24T01:35:18.810815</dc:date>
    <dc:format>image/svg+xml</dc:format>
    <dc:creator>
     <cc:Agent>
      <dc:title>Matplotlib v3.10.8, https://matplotlib.org/</dc:title>
     </cc:Agent>
    </dc:creator>
   </cc:Work>
  </rdf:RDF>
 </metadata>
 <defs>
  <style type="text/css">*{stroke-linejoin: round; stroke-linecap: butt}</style>
 </defs>
 <g id="figure_1">
  <g id="patch_1">
   <path d="M 0 472.32 
L 630.72 472.32 
L 630.72 0 
L 0 0 
z
" style="fill: #ffffff"/>
  </g>
  <g id="axes_1">
   <g id="patch_2">
    <path d="M 5.76 466.56 
L 624.96 466.56 
L 624.96 5.76 
L 5.76 5.76 
z
" clip-path="url(#pd4df3b848e)" style="fill: #ffffff"/>
   </g>
   <g id="patch_3">
    <path d="M 34.56 437.76 
L 596.16 437.76 
L 596.16 77.76 
L 34.56 77.76 
z
" clip-path="url(#pd4df3b848e)" style="fill: #ffffff; stroke: #3a4252; stroke-width: 1.8; stroke-linejoin: miter"/>
   </g>
   <g id="line2d_1">
    <path d="M 277.56 344.16 
L 277.56 113.76 
" clip-path="url(#pd4df3b848e)" style="fill: none; stroke: #0d9488; stroke-width: 1.1; stroke-linecap: round"/>
   </g>
   <g id="line2d_2">
    <path d="M 290.16 344.16 
L 290.16 113.76 
" clip-path="url(#pd4df3b848e)" style="fill: none; stroke: #0d9488; stroke-width: 1.1; stroke-linecap: round"/>
   </g>
   <g id="line2d_3">
    <path d="M 302.76 344.16 
L 302.76 113.76 
" clip-path="url(#pd4df3b848e)" style="fill: none; stroke: #0d9488; stroke-width: 1.1; stroke-linecap: round"/>
   </g>
   <g id="line2d_4">
    <path d="M 315.36 344.16 
L 315.36 113.76 
" clip-path="url(#pd4df3b848e)" style="fill: none; stroke: #0d9488; stroke-width: 1.1; stroke-linecap: round"/>
   </g>
   <g id="line2d_5">
    <path d="M 327.96 344.16 
L 327.96 113.76 
" clip-path="url(#pd4df3b848e)" style="fill: none; stroke: #0d9488; stroke-width: 1.1; stroke-linecap: round"/>
   </g>
   <g id="line2d_6">
    <path d="M 340.56 344.16 
L 340.56 113.76 
" clip-path="url(#pd4df3b848e)" style="fill: none; stroke: #0d9488; stroke-width: 1.1; stroke-linecap: round"/>
   </g>
   <g id="line2d_7">
    <path d="M 353.16 344.16 
L 353.16 113.76 
" clip-path="url(#pd4df3b848e)" style="fill: none; stroke: #0d9488; stroke-width: 1.1; stroke-linecap: round"/>
   </g>
   <g id="patch_4">
    <path d="M 437.76 416.16 
L 574.56 416.16 
L 574.56 344.16 
L 437.76 344.16 
z
" clip-path="url(#pd4df3b848e)" style="fill: url(#h90c7e8e207); stroke: #6b7280; stroke-width: 1.2; stroke-linejoin: miter"/>
   </g>
   <g id="text_1">
    <text style="font-size: 15px; font-family: 'Microsoft YaHei', 'Microsoft YaHei UI', 'SimHei', 'Segoe UI', 'DejaVu Sans', sans-serif; text-anchor: middle; fill: #3a4252" x="506.16" y="384.2475" transform="rotate(-0 506.16 384.2475)">blockage</text>
   </g>
   <g id="text_2">
    <text style="font-weight: 700; font-size: 17px; font-family: 'Microsoft YaHei', 'Microsoft YaHei UI', 'SimHei', 'Segoe UI', 'DejaVu Sans', sans-serif; text-anchor: start; fill: #3a4252" x="34.56" y="34.56" transform="rotate(-0 34.56 34.56)">channel 走线 · halo 防贴死 · blockage 控密度</text>
   </g>
   <g id="patch_5">
    <path d="M 87.8 352.96 
L 236.12 352.96 
Q 244.76 352.96 244.76 344.32 
L 244.76 131.2 
Q 244.76 122.56 236.12 122.56 
L 87.8 122.56 
Q 79.16 122.56 79.16 131.2 
L 79.16 344.32 
Q 79.16 352.96 87.8 352.96 
z
" clip-path="url(#pd4df3b848e)" style="fill: #1a1f2b; opacity: 0.16"/>
    <path d="M 86.4 351.36 
L 234.72 351.36 
Q 243.36 351.36 243.36 342.72 
L 243.36 129.6 
Q 243.36 120.96 234.72 120.96 
L 86.4 120.96 
Q 77.76 120.96 77.76 129.6 
L 77.76 342.72 
Q 77.76 351.36 86.4 351.36 
z
" clip-path="url(#pd4df3b848e)" style="fill: #ccfbf1; stroke: #0d9488; stroke-width: 1.8; stroke-linejoin: miter"/>
   </g>
   <g id="patch_6">
    <path d="M 397.4 352.96 
L 545.72 352.96 
Q 554.36 352.96 554.36 344.32 
L 554.36 131.2 
Q 554.36 122.56 545.72 122.56 
L 397.4 122.56 
Q 388.76 122.56 388.76 131.2 
L 388.76 344.32 
Q 388.76 352.96 397.4 352.96 
z
" clip-path="url(#pd4df3b848e)" style="fill: #1a1f2b; opacity: 0.16"/>
    <path d="M 396 351.36 
L 544.32 351.36 
Q 552.96 351.36 552.96 342.72 
L 552.96 129.6 
Q 552.96 120.96 544.32 120.96 
L 396 120.96 
Q 387.36 120.96 387.36 129.6 
L 387.36 342.72 
Q 387.36 351.36 396 351.36 
z
" clip-path="url(#pd4df3b848e)" style="fill: #ccfbf1; stroke: #0d9488; stroke-width: 1.8; stroke-linejoin: miter"/>
   </g>
   <g id="patch_7">
    <path d="M 57.6 371.52 
L 263.52 371.52 
L 263.52 100.8 
L 57.6 100.8 
L 57.6 371.52 
z
" clip-path="url(#pd4df3b848e)" style="fill: none; stroke-dasharray: 8.5,5.1; stroke-dashoffset: 0; stroke: #dc2626; stroke-width: 1.7; stroke-linejoin: miter"/>
   </g>
   <g id="text_3">
    <text style="font-weight: 700; font-size: 19px; font-family: 'Microsoft YaHei', 'Microsoft YaHei UI', 'SimHei', 'Segoe UI', 'DejaVu Sans', sans-serif; text-anchor: middle; fill: #115e59" x="160.56" y="241.392422" transform="rotate(-0 160.56 241.392422)">Macro A</text>
   </g>
   <g id="text_4">
    <text style="font-weight: 700; font-size: 19px; font-family: 'Microsoft YaHei', 'Microsoft YaHei UI', 'SimHei', 'Segoe UI', 'DejaVu Sans', sans-serif; text-anchor: middle; fill: #115e59" x="470.16" y="241.392422" transform="rotate(-0 470.16 241.392422)">Macro B</text>
   </g>
   <g id="text_5">
    <g id="patch_8">
     <path d="M 105.246328 403.619766 
L 215.873672 403.619766 
Q 220.673672 403.619766 220.673672 398.819766 
L 220.673672 383.100234 
Q 220.673672 378.300234 215.873672 378.300234 
L 105.246328 378.300234 
Q 100.446328 378.300234 100.446328 383.100234 
L 100.446328 398.819766 
Q 100.446328 403.619766 105.246328 403.619766 
z
" style="fill: #fee2e2; stroke: #dc2626; stroke-width: 1.3; stroke-linejoin: miter"/>
    </g>
    <text style="font-weight: 700; font-size: 15px; font-family: 'Microsoft YaHei', 'Microsoft YaHei UI', 'SimHei', 'Segoe UI', 'DejaVu Sans', sans-serif; text-anchor: middle; fill: #991b1b" x="160.56" y="395.090859" transform="rotate(-0 160.56 395.090859)">halo / keepout</text>
   </g>
   <g id="text_6">
    <g id="patch_9">
     <path d="M 286.008047 108.419766 
L 344.711953 108.419766 
Q 349.511953 108.419766 349.511953 103.619766 
L 349.511953 87.900234 
Q 349.511953 83.100234 344.711953 83.100234 
L 286.008047 83.100234 
Q 281.208047 83.100234 281.208047 87.900234 
L 281.208047 103.619766 
Q 281.208047 108.419766 286.008047 108.419766 
z
" style="fill: #ccfbf1; stroke: #0d9488; stroke-width: 1.3; stroke-linejoin: miter"/>
    </g>
    <text style="font-weight: 700; font-size: 15px; font-family: 'Microsoft YaHei', 'Microsoft YaHei UI', 'SimHei', 'Segoe UI', 'DejaVu Sans', sans-serif; text-anchor: middle; fill: #115e59" x="315.36" y="99.890859" transform="rotate(-0 315.36 99.890859)">channel</text>
   </g>
  </g>
 </g>
 <defs>
  <clipPath id="pd4df3b848e">
   <rect x="5.76" y="5.76" width="619.2" height="460.8"/>
  </clipPath>
 </defs>
 <defs>
  <pattern id="h90c7e8e207" patternUnits="userSpaceOnUse" x="0" y="0" width="72" height="72">
   <rect x="0" y="0" width="73" height="73" fill="#edf0f4"/>
   <path d="M -36 36 
L 36 -36 
M -33 39 
L 39 -33 
M -30 42 
L 42 -30 
M -27 45 
L 45 -27 
M -24 48 
L 48 -24 
M -21 51 
L 51 -21 
M -18 54 
L 54 -18 
M -15 57 
L 57 -15 
M -12 60 
L 60 -12 
M -9 63 
L 63 -9 
M -6 66 
L 66 -6 
M -3 69 
L 69 -3 
M 0 72 
L 72 0 
M 3 75 
L 75 3 
M 6 78 
L 78 6 
M 9 81 
L 81 9 
M 12 84 
L 84 12 
M 15 87 
L 87 15 
M 18 90 
L 90 18 
M 21 93 
L 93 21 
M 24 96 
L 96 24 
M 27 99 
L 99 27 
M 30 102 
L 102 30 
M 33 105 
L 105 33 
M 36 108 
L 108 36 
" style="fill: #6b7280; stroke: #6b7280; stroke-width: 1.0; stroke-linecap: butt; stroke-linejoin: miter"/>
  </pattern>
 </defs>
</svg>
