<?xml version="1.0" encoding="utf-8" standalone="no"?>
<!DOCTYPE svg PUBLIC "-//W3C//DTD SVG 1.1//EN"
  "http://www.w3.org/Graphics/SVG/1.1/DTD/svg11.dtd">
<svg xmlns:xlink="http://www.w3.org/1999/xlink" width="688.32pt" height="501.12pt" viewBox="0 0 688.32 501.12" xmlns="http://www.w3.org/2000/svg" version="1.1">
 <metadata>
  <rdf:RDF xmlns:dc="http://purl.org/dc/elements/1.1/" xmlns:cc="http://creativecommons.org/ns#" xmlns:rdf="http://www.w3.org/1999/02/22-rdf-syntax-ns#">
   <cc:Work>
    <dc:type rdf:resource="http://purl.org/dc/dcmitype/StillImage"/>
    <dc:date>2026-06-24T06:09:27.580273</dc:date>
    <dc:format>image/svg+xml</dc:format>
    <dc:creator>
     <cc:Agent>
      <dc:title>Matplotlib v3.10.8, https://matplotlib.org/</dc:title>
     </cc:Agent>
    </dc:creator>
   </cc:Work>
  </rdf:RDF>
 </metadata>
 <defs>
  <style type="text/css">*{stroke-linejoin: round; stroke-linecap: butt}</style>
 </defs>
 <g id="figure_1">
  <g id="patch_1">
   <path d="M 0 501.12 
L 688.32 501.12 
L 688.32 0 
L 0 0 
z
" style="fill: #ffffff"/>
  </g>
  <g id="axes_1">
   <g id="patch_2">
    <path d="M 5.76 495.36 
L 682.56 495.36 
L 682.56 5.76 
L 5.76 5.76 
z
" clip-path="url(#pa5c7ee96bd)" style="fill: #ffffff"/>
   </g>
   <g id="patch_3">
    <path d="M 34.56 459.36 
L 408.96 459.36 
L 408.96 41.76 
L 34.56 41.76 
z
" clip-path="url(#pa5c7ee96bd)" style="fill: #ffffff; stroke: #3a4252; stroke-width: 1.6; stroke-linejoin: miter"/>
   </g>
   <g id="line2d_1">
    <path d="M 118.56 426.96 
L 118.56 74.16 
" clip-path="url(#pa5c7ee96bd)" style="fill: none; stroke: #d14e0a; stroke-width: 2.6; stroke-linecap: round"/>
   </g>
   <g id="line2d_2">
    <path d="M 170.16 426.96 
L 170.16 74.16 
" clip-path="url(#pa5c7ee96bd)" style="fill: none; stroke: #1a1f2b; stroke-width: 2.6; stroke-linecap: round"/>
   </g>
   <g id="line2d_3">
    <path d="M 221.76 426.96 
L 221.76 74.16 
" clip-path="url(#pa5c7ee96bd)" style="fill: none; stroke: #d14e0a; stroke-width: 2.6; stroke-linecap: round"/>
   </g>
   <g id="line2d_4">
    <path d="M 273.36 426.96 
L 273.36 74.16 
" clip-path="url(#pa5c7ee96bd)" style="fill: none; stroke: #1a1f2b; stroke-width: 2.6; stroke-linecap: round"/>
   </g>
   <g id="line2d_5">
    <path d="M 324.96 426.96 
L 324.96 74.16 
" clip-path="url(#pa5c7ee96bd)" style="fill: none; stroke: #d14e0a; stroke-width: 2.6; stroke-linecap: round"/>
   </g>
   <g id="line2d_6">
    <path d="M 66.96 356.4 
L 376.56 356.4 
" clip-path="url(#pa5c7ee96bd)" style="fill: none; stroke: #1a1f2b; stroke-width: 2.2; stroke-linecap: round"/>
   </g>
   <g id="line2d_7">
    <path d="M 66.96 285.84 
L 376.56 285.84 
" clip-path="url(#pa5c7ee96bd)" style="fill: none; stroke: #d14e0a; stroke-width: 2.2; stroke-linecap: round"/>
   </g>
   <g id="line2d_8">
    <path d="M 66.96 215.28 
L 376.56 215.28 
" clip-path="url(#pa5c7ee96bd)" style="fill: none; stroke: #1a1f2b; stroke-width: 2.2; stroke-linecap: round"/>
   </g>
   <g id="line2d_9">
    <path d="M 66.96 144.72 
L 376.56 144.72 
" clip-path="url(#pa5c7ee96bd)" style="fill: none; stroke: #d14e0a; stroke-width: 2.2; stroke-linecap: round"/>
   </g>
   <g id="patch_4">
    <path d="M 444.96 95.76 
L 653.76 95.76 
Q 660.96 95.76 660.96 88.56 
L 660.96 32.4 
Q 660.96 25.2 653.76 25.2 
L 444.96 25.2 
Q 437.76 25.2 437.76 32.4 
L 437.76 88.56 
Q 437.76 95.76 444.96 95.76 
z
" clip-path="url(#pa5c7ee96bd)" style="fill: #f6cd9e; stroke: #b7bfcb; stroke-width: 1.4; stroke-linejoin: miter"/>
   </g>
   <g id="patch_5">
    <path d="M 444.96 179.28 
L 653.76 179.28 
Q 660.96 179.28 660.96 172.08 
L 660.96 115.92 
Q 660.96 108.72 653.76 108.72 
L 444.96 108.72 
Q 437.76 108.72 437.76 115.92 
L 437.76 172.08 
Q 437.76 179.28 444.96 179.28 
z
" clip-path="url(#pa5c7ee96bd)" style="fill: #f6cd9e; stroke: #b7bfcb; stroke-width: 1.4; stroke-linejoin: miter"/>
   </g>
   <g id="patch_6">
    <path d="M 444.96 262.8 
L 653.76 262.8 
Q 660.96 262.8 660.96 255.6 
L 660.96 199.44 
Q 660.96 192.24 653.76 192.24 
L 444.96 192.24 
Q 437.76 192.24 437.76 199.44 
L 437.76 255.6 
Q 437.76 262.8 444.96 262.8 
z
" clip-path="url(#pa5c7ee96bd)" style="fill: #dce1e9; stroke: #b7bfcb; stroke-width: 1.4; stroke-linejoin: miter"/>
   </g>
   <g id="patch_7">
    <path d="M 444.96 346.32 
L 653.76 346.32 
Q 660.96 346.32 660.96 339.12 
L 660.96 282.96 
Q 660.96 275.76 653.76 275.76 
L 444.96 275.76 
Q 437.76 275.76 437.76 282.96 
L 437.76 339.12 
Q 437.76 346.32 444.96 346.32 
z
" clip-path="url(#pa5c7ee96bd)" style="fill: #dce1e9; stroke: #b7bfcb; stroke-width: 1.4; stroke-linejoin: miter"/>
   </g>
   <g id="patch_8">
    <path d="M 444.96 429.84 
L 653.76 429.84 
Q 660.96 429.84 660.96 422.64 
L 660.96 366.48 
Q 660.96 359.28 653.76 359.28 
L 444.96 359.28 
Q 437.76 359.28 437.76 366.48 
L 437.76 422.64 
Q 437.76 429.84 444.96 429.84 
z
" clip-path="url(#pa5c7ee96bd)" style="fill: #e6adad; stroke: #b7bfcb; stroke-width: 1.4; stroke-linejoin: miter"/>
   </g>
   <g id="patch_9">
    <path d="M 46.08 447.84 
L 397.44 447.84 
L 397.44 53.28 
L 46.08 53.28 
L 46.08 447.84 
z
" clip-path="url(#pa5c7ee96bd)" style="fill: none; stroke: #d14e0a; stroke-width: 4.5; stroke-linejoin: miter"/>
   </g>
   <g id="patch_10">
    <path d="M 66.96 426.96 
L 376.56 426.96 
L 376.56 74.16 
L 66.96 74.16 
L 66.96 426.96 
z
" clip-path="url(#pa5c7ee96bd)" style="fill: none; stroke: #1a1f2b; stroke-width: 4.5; stroke-linejoin: miter"/>
   </g>
   <g id="text_1">
    <text style="font-weight: 700; font-size: 17px; font-family: 'Microsoft YaHei', 'Microsoft YaHei UI', 'SimHei', 'Segoe UI', 'DejaVu Sans', sans-serif; text-anchor: start; fill: #1a1f2b" x="459.36" y="62.790937" transform="rotate(-0 459.36 62.790937)">Power Ring 环</text>
   </g>
   <g id="text_2">
    <text style="font-weight: 700; font-size: 17px; font-family: 'Microsoft YaHei', 'Microsoft YaHei UI', 'SimHei', 'Segoe UI', 'DejaVu Sans', sans-serif; text-anchor: start; fill: #1a1f2b" x="459.36" y="146.9325" transform="rotate(-0 459.36 146.9325)">Power Stripe 条</text>
   </g>
   <g id="text_3">
    <text style="font-weight: 700; font-size: 17px; font-family: 'Microsoft YaHei', 'Microsoft YaHei UI', 'SimHei', 'Segoe UI', 'DejaVu Sans', sans-serif; text-anchor: start; fill: #1a1f2b" x="459.36" y="229.889375" transform="rotate(-0 459.36 229.889375)">Power Mesh 网</text>
   </g>
   <g id="text_4">
    <text style="font-weight: 700; font-size: 17px; font-family: 'Microsoft YaHei', 'Microsoft YaHei UI', 'SimHei', 'Segoe UI', 'DejaVu Sans', sans-serif; text-anchor: start; fill: #1a1f2b" x="459.36" y="313.409375" transform="rotate(-0 459.36 313.409375)">Std-cell Rail M1</text>
   </g>
   <g id="text_5">
    <text style="font-weight: 700; font-size: 17px; font-family: 'Microsoft YaHei', 'Microsoft YaHei UI', 'SimHei', 'Segoe UI', 'DejaVu Sans', sans-serif; text-anchor: start; fill: #1a1f2b" x="459.36" y="396.929375" transform="rotate(-0 459.36 396.929375)">via 连接层</text>
   </g>
   <g id="line2d_10">
    <defs>
     <path id="m2041be17bb" d="M 0 2 
C 0.530406 2 1.03916 1.789267 1.414214 1.414214 
C 1.789267 1.03916 2 0.530406 2 0 
C 2 -0.530406 1.789267 -1.03916 1.414214 -1.414214 
C 1.03916 -1.789267 0.530406 -2 0 -2 
C -0.530406 -2 -1.03916 -1.789267 -1.414214 -1.414214 
C -1.789267 -1.03916 -2 -0.530406 -2 0 
C -2 0.530406 -1.789267 1.03916 -1.414214 1.414214 
C -1.03916 1.789267 -0.530406 2 0 2 
z
" style="stroke: #be1e1e"/>
    </defs>
    <g clip-path="url(#pa5c7ee96bd)">
     <use xlink:href="#m2041be17bb" x="118.56" y="356.4" style="fill: #be1e1e; stroke: #be1e1e"/>
    </g>
   </g>
   <g id="line2d_11">
    <g clip-path="url(#pa5c7ee96bd)">
     <use xlink:href="#m2041be17bb" x="118.56" y="285.84" style="fill: #be1e1e; stroke: #be1e1e"/>
    </g>
   </g>
   <g id="line2d_12">
    <g clip-path="url(#pa5c7ee96bd)">
     <use xlink:href="#m2041be17bb" x="118.56" y="215.28" style="fill: #be1e1e; stroke: #be1e1e"/>
    </g>
   </g>
   <g id="line2d_13">
    <g clip-path="url(#pa5c7ee96bd)">
     <use xlink:href="#m2041be17bb" x="118.56" y="144.72" style="fill: #be1e1e; stroke: #be1e1e"/>
    </g>
   </g>
   <g id="line2d_14">
    <g clip-path="url(#pa5c7ee96bd)">
     <use xlink:href="#m2041be17bb" x="170.16" y="356.4" style="fill: #be1e1e; stroke: #be1e1e"/>
    </g>
   </g>
   <g id="line2d_15">
    <g clip-path="url(#pa5c7ee96bd)">
     <use xlink:href="#m2041be17bb" x="170.16" y="285.84" style="fill: #be1e1e; stroke: #be1e1e"/>
    </g>
   </g>
   <g id="line2d_16">
    <g clip-path="url(#pa5c7ee96bd)">
     <use xlink:href="#m2041be17bb" x="170.16" y="215.28" style="fill: #be1e1e; stroke: #be1e1e"/>
    </g>
   </g>
   <g id="line2d_17">
    <g clip-path="url(#pa5c7ee96bd)">
     <use xlink:href="#m2041be17bb" x="170.16" y="144.72" style="fill: #be1e1e; stroke: #be1e1e"/>
    </g>
   </g>
   <g id="line2d_18">
    <g clip-path="url(#pa5c7ee96bd)">
     <use xlink:href="#m2041be17bb" x="221.76" y="356.4" style="fill: #be1e1e; stroke: #be1e1e"/>
    </g>
   </g>
   <g id="line2d_19">
    <g clip-path="url(#pa5c7ee96bd)">
     <use xlink:href="#m2041be17bb" x="221.76" y="285.84" style="fill: #be1e1e; stroke: #be1e1e"/>
    </g>
   </g>
   <g id="line2d_20">
    <g clip-path="url(#pa5c7ee96bd)">
     <use xlink:href="#m2041be17bb" x="221.76" y="215.28" style="fill: #be1e1e; stroke: #be1e1e"/>
    </g>
   </g>
   <g id="line2d_21">
    <g clip-path="url(#pa5c7ee96bd)">
     <use xlink:href="#m2041be17bb" x="221.76" y="144.72" style="fill: #be1e1e; stroke: #be1e1e"/>
    </g>
   </g>
   <g id="line2d_22">
    <g clip-path="url(#pa5c7ee96bd)">
     <use xlink:href="#m2041be17bb" x="273.36" y="356.4" style="fill: #be1e1e; stroke: #be1e1e"/>
    </g>
   </g>
   <g id="line2d_23">
    <g clip-path="url(#pa5c7ee96bd)">
     <use xlink:href="#m2041be17bb" x="273.36" y="285.84" style="fill: #be1e1e; stroke: #be1e1e"/>
    </g>
   </g>
   <g id="line2d_24">
    <g clip-path="url(#pa5c7ee96bd)">
     <use xlink:href="#m2041be17bb" x="273.36" y="215.28" style="fill: #be1e1e; stroke: #be1e1e"/>
    </g>
   </g>
   <g id="line2d_25">
    <g clip-path="url(#pa5c7ee96bd)">
     <use xlink:href="#m2041be17bb" x="273.36" y="144.72" style="fill: #be1e1e; stroke: #be1e1e"/>
    </g>
   </g>
   <g id="line2d_26">
    <g clip-path="url(#pa5c7ee96bd)">
     <use xlink:href="#m2041be17bb" x="324.96" y="356.4" style="fill: #be1e1e; stroke: #be1e1e"/>
    </g>
   </g>
   <g id="line2d_27">
    <g clip-path="url(#pa5c7ee96bd)">
     <use xlink:href="#m2041be17bb" x="324.96" y="285.84" style="fill: #be1e1e; stroke: #be1e1e"/>
    </g>
   </g>
   <g id="line2d_28">
    <g clip-path="url(#pa5c7ee96bd)">
     <use xlink:href="#m2041be17bb" x="324.96" y="215.28" style="fill: #be1e1e; stroke: #be1e1e"/>
    </g>
   </g>
   <g id="line2d_29">
    <g clip-path="url(#pa5c7ee96bd)">
     <use xlink:href="#m2041be17bb" x="324.96" y="144.72" style="fill: #be1e1e; stroke: #be1e1e"/>
    </g>
   </g>
  </g>
 </g>
 <defs>
  <clipPath id="pa5c7ee96bd">
   <rect x="5.76" y="5.76" width="676.8" height="489.6"/>
  </clipPath>
 </defs>
</svg>
