<?xml version="1.0" encoding="utf-8" standalone="no"?>
<!DOCTYPE svg PUBLIC "-//W3C//DTD SVG 1.1//EN"
  "http://www.w3.org/Graphics/SVG/1.1/DTD/svg11.dtd">
<svg xmlns:xlink="http://www.w3.org/1999/xlink" width="983.52pt" height="506.348906pt" viewBox="0 0 983.52 506.348906" xmlns="http://www.w3.org/2000/svg" version="1.1">
 <metadata>
  <rdf:RDF xmlns:dc="http://purl.org/dc/elements/1.1/" xmlns:cc="http://creativecommons.org/ns#" xmlns:rdf="http://www.w3.org/1999/02/22-rdf-syntax-ns#">
   <cc:Work>
    <dc:type rdf:resource="http://purl.org/dc/dcmitype/StillImage"/>
    <dc:date>2026-06-22T18:10:08.973184</dc:date>
    <dc:format>image/svg+xml</dc:format>
    <dc:creator>
     <cc:Agent>
      <dc:title>Matplotlib v3.10.8, https://matplotlib.org/</dc:title>
     </cc:Agent>
    </dc:creator>
   </cc:Work>
  </rdf:RDF>
 </metadata>
 <defs>
  <style type="text/css">*{stroke-linejoin: round; stroke-linecap: butt}</style>
 </defs>
 <g id="figure_1">
  <g id="patch_1">
   <path d="M 0 506.348906 
L 983.52 506.348906 
L 983.52 -0 
L 0 -0 
z
" style="fill: #ffffff"/>
  </g>
  <g id="axes_1">
   <g id="patch_2">
    <path d="M 5.76 500.588906 
L 977.76 500.588906 
L 977.76 10.988906 
L 5.76 10.988906 
z
" clip-path="url(#pb8bb4f6369)" style="fill: #ffffff"/>
   </g>
   <g id="patch_3">
    <path d="M 70.56 105.488906 
L 114.66 105.488906 
L 114.66 61.388906 
L 70.56 61.388906 
z
" clip-path="url(#pb8bb4f6369)" style="fill: #16a34a; stroke: #ffffff; stroke-width: 0.7; stroke-linejoin: miter"/>
   </g>
   <g id="patch_4">
    <path d="M 114.66 105.488906 
L 158.76 105.488906 
L 158.76 61.388906 
L 114.66 61.388906 
z
" clip-path="url(#pb8bb4f6369)" style="fill: #16a34a; stroke: #ffffff; stroke-width: 0.7; stroke-linejoin: miter"/>
   </g>
   <g id="patch_5">
    <path d="M 158.76 105.488906 
L 202.86 105.488906 
L 202.86 61.388906 
L 158.76 61.388906 
z
" clip-path="url(#pb8bb4f6369)" style="fill: #16a34a; stroke: #ffffff; stroke-width: 0.7; stroke-linejoin: miter"/>
   </g>
   <g id="patch_6">
    <path d="M 202.86 105.488906 
L 246.96 105.488906 
L 246.96 61.388906 
L 202.86 61.388906 
z
" clip-path="url(#pb8bb4f6369)" style="fill: #16a34a; stroke: #ffffff; stroke-width: 0.7; stroke-linejoin: miter"/>
   </g>
   <g id="patch_7">
    <path d="M 246.96 105.488906 
L 291.06 105.488906 
L 291.06 61.388906 
L 246.96 61.388906 
z
" clip-path="url(#pb8bb4f6369)" style="fill: #16a34a; stroke: #ffffff; stroke-width: 0.7; stroke-linejoin: miter"/>
   </g>
   <g id="patch_8">
    <path d="M 291.06 105.488906 
L 335.16 105.488906 
L 335.16 61.388906 
L 291.06 61.388906 
z
" clip-path="url(#pb8bb4f6369)" style="fill: #16a34a; stroke: #ffffff; stroke-width: 0.7; stroke-linejoin: miter"/>
   </g>
   <g id="patch_9">
    <path d="M 335.16 105.488906 
L 379.26 105.488906 
L 379.26 61.388906 
L 335.16 61.388906 
z
" clip-path="url(#pb8bb4f6369)" style="fill: #16a34a; stroke: #ffffff; stroke-width: 0.7; stroke-linejoin: miter"/>
   </g>
   <g id="patch_10">
    <path d="M 379.26 105.488906 
L 423.36 105.488906 
L 423.36 61.388906 
L 379.26 61.388906 
z
" clip-path="url(#pb8bb4f6369)" style="fill: #16a34a; stroke: #ffffff; stroke-width: 0.7; stroke-linejoin: miter"/>
   </g>
   <g id="patch_11">
    <path d="M 70.56 149.588906 
L 114.66 149.588906 
L 114.66 105.488906 
L 70.56 105.488906 
z
" clip-path="url(#pb8bb4f6369)" style="fill: #43a327; stroke: #ffffff; stroke-width: 0.7; stroke-linejoin: miter"/>
   </g>
   <g id="patch_12">
    <path d="M 114.66 149.588906 
L 158.76 149.588906 
L 158.76 105.488906 
L 114.66 105.488906 
z
" clip-path="url(#pb8bb4f6369)" style="fill: #43a327; stroke: #ffffff; stroke-width: 0.7; stroke-linejoin: miter"/>
   </g>
   <g id="patch_13">
    <path d="M 158.76 149.588906 
L 202.86 149.588906 
L 202.86 105.488906 
L 158.76 105.488906 
z
" clip-path="url(#pb8bb4f6369)" style="fill: #43a327; stroke: #ffffff; stroke-width: 0.7; stroke-linejoin: miter"/>
   </g>
   <g id="patch_14">
    <path d="M 202.86 149.588906 
L 246.96 149.588906 
L 246.96 105.488906 
L 202.86 105.488906 
z
" clip-path="url(#pb8bb4f6369)" style="fill: #43a327; stroke: #ffffff; stroke-width: 0.7; stroke-linejoin: miter"/>
   </g>
   <g id="patch_15">
    <path d="M 246.96 149.588906 
L 291.06 149.588906 
L 291.06 105.488906 
L 246.96 105.488906 
z
" clip-path="url(#pb8bb4f6369)" style="fill: #43a327; stroke: #ffffff; stroke-width: 0.7; stroke-linejoin: miter"/>
   </g>
   <g id="patch_16">
    <path d="M 291.06 149.588906 
L 335.16 149.588906 
L 335.16 105.488906 
L 291.06 105.488906 
z
" clip-path="url(#pb8bb4f6369)" style="fill: #43a327; stroke: #ffffff; stroke-width: 0.7; stroke-linejoin: miter"/>
   </g>
   <g id="patch_17">
    <path d="M 335.16 149.588906 
L 379.26 149.588906 
L 379.26 105.488906 
L 335.16 105.488906 
z
" clip-path="url(#pb8bb4f6369)" style="fill: #43a327; stroke: #ffffff; stroke-width: 0.7; stroke-linejoin: miter"/>
   </g>
   <g id="patch_18">
    <path d="M 379.26 149.588906 
L 423.36 149.588906 
L 423.36 105.488906 
L 379.26 105.488906 
z
" clip-path="url(#pb8bb4f6369)" style="fill: #43a327; stroke: #ffffff; stroke-width: 0.7; stroke-linejoin: miter"/>
   </g>
   <g id="patch_19">
    <path d="M 70.56 193.688906 
L 114.66 193.688906 
L 114.66 149.588906 
L 70.56 149.588906 
z
" clip-path="url(#pb8bb4f6369)" style="fill: #739f0b; stroke: #ffffff; stroke-width: 0.7; stroke-linejoin: miter"/>
   </g>
   <g id="patch_20">
    <path d="M 114.66 193.688906 
L 158.76 193.688906 
L 158.76 149.588906 
L 114.66 149.588906 
z
" clip-path="url(#pb8bb4f6369)" style="fill: #739f0b; stroke: #ffffff; stroke-width: 0.7; stroke-linejoin: miter"/>
   </g>
   <g id="patch_21">
    <path d="M 158.76 193.688906 
L 202.86 193.688906 
L 202.86 149.588906 
L 158.76 149.588906 
z
" clip-path="url(#pb8bb4f6369)" style="fill: #739f0b; stroke: #ffffff; stroke-width: 0.7; stroke-linejoin: miter"/>
   </g>
   <g id="patch_22">
    <path d="M 202.86 193.688906 
L 246.96 193.688906 
L 246.96 149.588906 
L 202.86 149.588906 
z
" clip-path="url(#pb8bb4f6369)" style="fill: #739f0b; stroke: #ffffff; stroke-width: 0.7; stroke-linejoin: miter"/>
   </g>
   <g id="patch_23">
    <path d="M 246.96 193.688906 
L 291.06 193.688906 
L 291.06 149.588906 
L 246.96 149.588906 
z
" clip-path="url(#pb8bb4f6369)" style="fill: #739f0b; stroke: #ffffff; stroke-width: 0.7; stroke-linejoin: miter"/>
   </g>
   <g id="patch_24">
    <path d="M 291.06 193.688906 
L 335.16 193.688906 
L 335.16 149.588906 
L 291.06 149.588906 
z
" clip-path="url(#pb8bb4f6369)" style="fill: #739f0b; stroke: #ffffff; stroke-width: 0.7; stroke-linejoin: miter"/>
   </g>
   <g id="patch_25">
    <path d="M 335.16 193.688906 
L 379.26 193.688906 
L 379.26 149.588906 
L 335.16 149.588906 
z
" clip-path="url(#pb8bb4f6369)" style="fill: #739f0b; stroke: #ffffff; stroke-width: 0.7; stroke-linejoin: miter"/>
   </g>
   <g id="patch_26">
    <path d="M 379.26 193.688906 
L 423.36 193.688906 
L 423.36 149.588906 
L 379.26 149.588906 
z
" clip-path="url(#pb8bb4f6369)" style="fill: #739f0b; stroke: #ffffff; stroke-width: 0.7; stroke-linejoin: miter"/>
   </g>
   <g id="patch_27">
    <path d="M 70.56 237.788906 
L 114.66 237.788906 
L 114.66 193.688906 
L 70.56 193.688906 
z
" clip-path="url(#pb8bb4f6369)" style="fill: #ad9106; stroke: #ffffff; stroke-width: 0.7; stroke-linejoin: miter"/>
   </g>
   <g id="patch_28">
    <path d="M 114.66 237.788906 
L 158.76 237.788906 
L 158.76 193.688906 
L 114.66 193.688906 
z
" clip-path="url(#pb8bb4f6369)" style="fill: #ad9106; stroke: #ffffff; stroke-width: 0.7; stroke-linejoin: miter"/>
   </g>
   <g id="patch_29">
    <path d="M 158.76 237.788906 
L 202.86 237.788906 
L 202.86 193.688906 
L 158.76 193.688906 
z
" clip-path="url(#pb8bb4f6369)" style="fill: #ad9106; stroke: #ffffff; stroke-width: 0.7; stroke-linejoin: miter"/>
   </g>
   <g id="patch_30">
    <path d="M 202.86 237.788906 
L 246.96 237.788906 
L 246.96 193.688906 
L 202.86 193.688906 
z
" clip-path="url(#pb8bb4f6369)" style="fill: #ad9106; stroke: #ffffff; stroke-width: 0.7; stroke-linejoin: miter"/>
   </g>
   <g id="patch_31">
    <path d="M 246.96 237.788906 
L 291.06 237.788906 
L 291.06 193.688906 
L 246.96 193.688906 
z
" clip-path="url(#pb8bb4f6369)" style="fill: #ad9106; stroke: #ffffff; stroke-width: 0.7; stroke-linejoin: miter"/>
   </g>
   <g id="patch_32">
    <path d="M 291.06 237.788906 
L 335.16 237.788906 
L 335.16 193.688906 
L 291.06 193.688906 
z
" clip-path="url(#pb8bb4f6369)" style="fill: #ad9106; stroke: #ffffff; stroke-width: 0.7; stroke-linejoin: miter"/>
   </g>
   <g id="patch_33">
    <path d="M 335.16 237.788906 
L 379.26 237.788906 
L 379.26 193.688906 
L 335.16 193.688906 
z
" clip-path="url(#pb8bb4f6369)" style="fill: #ad9106; stroke: #ffffff; stroke-width: 0.7; stroke-linejoin: miter"/>
   </g>
   <g id="patch_34">
    <path d="M 379.26 237.788906 
L 423.36 237.788906 
L 423.36 193.688906 
L 379.26 193.688906 
z
" clip-path="url(#pb8bb4f6369)" style="fill: #ad9106; stroke: #ffffff; stroke-width: 0.7; stroke-linejoin: miter"/>
   </g>
   <g id="patch_35">
    <path d="M 70.56 281.888906 
L 114.66 281.888906 
L 114.66 237.788906 
L 70.56 237.788906 
z
" clip-path="url(#pb8bb4f6369)" style="fill: #d37b06; stroke: #ffffff; stroke-width: 0.7; stroke-linejoin: miter"/>
   </g>
   <g id="patch_36">
    <path d="M 114.66 281.888906 
L 158.76 281.888906 
L 158.76 237.788906 
L 114.66 237.788906 
z
" clip-path="url(#pb8bb4f6369)" style="fill: #d37b06; stroke: #ffffff; stroke-width: 0.7; stroke-linejoin: miter"/>
   </g>
   <g id="patch_37">
    <path d="M 158.76 281.888906 
L 202.86 281.888906 
L 202.86 237.788906 
L 158.76 237.788906 
z
" clip-path="url(#pb8bb4f6369)" style="fill: #d37b06; stroke: #ffffff; stroke-width: 0.7; stroke-linejoin: miter"/>
   </g>
   <g id="patch_38">
    <path d="M 202.86 281.888906 
L 246.96 281.888906 
L 246.96 237.788906 
L 202.86 237.788906 
z
" clip-path="url(#pb8bb4f6369)" style="fill: #d37b06; stroke: #ffffff; stroke-width: 0.7; stroke-linejoin: miter"/>
   </g>
   <g id="patch_39">
    <path d="M 246.96 281.888906 
L 291.06 281.888906 
L 291.06 237.788906 
L 246.96 237.788906 
z
" clip-path="url(#pb8bb4f6369)" style="fill: #d37b06; stroke: #ffffff; stroke-width: 0.7; stroke-linejoin: miter"/>
   </g>
   <g id="patch_40">
    <path d="M 291.06 281.888906 
L 335.16 281.888906 
L 335.16 237.788906 
L 291.06 237.788906 
z
" clip-path="url(#pb8bb4f6369)" style="fill: #d37b06; stroke: #ffffff; stroke-width: 0.7; stroke-linejoin: miter"/>
   </g>
   <g id="patch_41">
    <path d="M 335.16 281.888906 
L 379.26 281.888906 
L 379.26 237.788906 
L 335.16 237.788906 
z
" clip-path="url(#pb8bb4f6369)" style="fill: #d37b06; stroke: #ffffff; stroke-width: 0.7; stroke-linejoin: miter"/>
   </g>
   <g id="patch_42">
    <path d="M 379.26 281.888906 
L 423.36 281.888906 
L 423.36 237.788906 
L 379.26 237.788906 
z
" clip-path="url(#pb8bb4f6369)" style="fill: #d37b06; stroke: #ffffff; stroke-width: 0.7; stroke-linejoin: miter"/>
   </g>
   <g id="patch_43">
    <path d="M 70.56 325.988906 
L 114.66 325.988906 
L 114.66 281.888906 
L 70.56 281.888906 
z
" clip-path="url(#pb8bb4f6369)" style="fill: #e55f0a; stroke: #ffffff; stroke-width: 0.7; stroke-linejoin: miter"/>
   </g>
   <g id="patch_44">
    <path d="M 114.66 325.988906 
L 158.76 325.988906 
L 158.76 281.888906 
L 114.66 281.888906 
z
" clip-path="url(#pb8bb4f6369)" style="fill: #e55f0a; stroke: #ffffff; stroke-width: 0.7; stroke-linejoin: miter"/>
   </g>
   <g id="patch_45">
    <path d="M 158.76 325.988906 
L 202.86 325.988906 
L 202.86 281.888906 
L 158.76 281.888906 
z
" clip-path="url(#pb8bb4f6369)" style="fill: #e55f0a; stroke: #ffffff; stroke-width: 0.7; stroke-linejoin: miter"/>
   </g>
   <g id="patch_46">
    <path d="M 202.86 325.988906 
L 246.96 325.988906 
L 246.96 281.888906 
L 202.86 281.888906 
z
" clip-path="url(#pb8bb4f6369)" style="fill: #e55f0a; stroke: #ffffff; stroke-width: 0.7; stroke-linejoin: miter"/>
   </g>
   <g id="patch_47">
    <path d="M 246.96 325.988906 
L 291.06 325.988906 
L 291.06 281.888906 
L 246.96 281.888906 
z
" clip-path="url(#pb8bb4f6369)" style="fill: #e55f0a; stroke: #ffffff; stroke-width: 0.7; stroke-linejoin: miter"/>
   </g>
   <g id="patch_48">
    <path d="M 291.06 325.988906 
L 335.16 325.988906 
L 335.16 281.888906 
L 291.06 281.888906 
z
" clip-path="url(#pb8bb4f6369)" style="fill: #e55f0a; stroke: #ffffff; stroke-width: 0.7; stroke-linejoin: miter"/>
   </g>
   <g id="patch_49">
    <path d="M 335.16 325.988906 
L 379.26 325.988906 
L 379.26 281.888906 
L 335.16 281.888906 
z
" clip-path="url(#pb8bb4f6369)" style="fill: #e55f0a; stroke: #ffffff; stroke-width: 0.7; stroke-linejoin: miter"/>
   </g>
   <g id="patch_50">
    <path d="M 379.26 325.988906 
L 423.36 325.988906 
L 423.36 281.888906 
L 379.26 281.888906 
z
" clip-path="url(#pb8bb4f6369)" style="fill: #e55f0a; stroke: #ffffff; stroke-width: 0.7; stroke-linejoin: miter"/>
   </g>
   <g id="patch_51">
    <path d="M 70.56 370.088906 
L 114.66 370.088906 
L 114.66 325.988906 
L 70.56 325.988906 
z
" clip-path="url(#pb8bb4f6369)" style="fill: #e44217; stroke: #ffffff; stroke-width: 0.7; stroke-linejoin: miter"/>
   </g>
   <g id="patch_52">
    <path d="M 114.66 370.088906 
L 158.76 370.088906 
L 158.76 325.988906 
L 114.66 325.988906 
z
" clip-path="url(#pb8bb4f6369)" style="fill: #e44217; stroke: #ffffff; stroke-width: 0.7; stroke-linejoin: miter"/>
   </g>
   <g id="patch_53">
    <path d="M 158.76 370.088906 
L 202.86 370.088906 
L 202.86 325.988906 
L 158.76 325.988906 
z
" clip-path="url(#pb8bb4f6369)" style="fill: #e44217; stroke: #ffffff; stroke-width: 0.7; stroke-linejoin: miter"/>
   </g>
   <g id="patch_54">
    <path d="M 202.86 370.088906 
L 246.96 370.088906 
L 246.96 325.988906 
L 202.86 325.988906 
z
" clip-path="url(#pb8bb4f6369)" style="fill: #e44217; stroke: #ffffff; stroke-width: 0.7; stroke-linejoin: miter"/>
   </g>
   <g id="patch_55">
    <path d="M 246.96 370.088906 
L 291.06 370.088906 
L 291.06 325.988906 
L 246.96 325.988906 
z
" clip-path="url(#pb8bb4f6369)" style="fill: #e44217; stroke: #ffffff; stroke-width: 0.7; stroke-linejoin: miter"/>
   </g>
   <g id="patch_56">
    <path d="M 291.06 370.088906 
L 335.16 370.088906 
L 335.16 325.988906 
L 291.06 325.988906 
z
" clip-path="url(#pb8bb4f6369)" style="fill: #e44217; stroke: #ffffff; stroke-width: 0.7; stroke-linejoin: miter"/>
   </g>
   <g id="patch_57">
    <path d="M 335.16 370.088906 
L 379.26 370.088906 
L 379.26 325.988906 
L 335.16 325.988906 
z
" clip-path="url(#pb8bb4f6369)" style="fill: #e44217; stroke: #ffffff; stroke-width: 0.7; stroke-linejoin: miter"/>
   </g>
   <g id="patch_58">
    <path d="M 379.26 370.088906 
L 423.36 370.088906 
L 423.36 325.988906 
L 379.26 325.988906 
z
" clip-path="url(#pb8bb4f6369)" style="fill: #e44217; stroke: #ffffff; stroke-width: 0.7; stroke-linejoin: miter"/>
   </g>
   <g id="patch_59">
    <path d="M 70.56 414.188906 
L 114.66 414.188906 
L 114.66 370.088906 
L 70.56 370.088906 
z
" clip-path="url(#pb8bb4f6369)" style="fill: #dc2626; stroke: #ffffff; stroke-width: 0.7; stroke-linejoin: miter"/>
   </g>
   <g id="patch_60">
    <path d="M 114.66 414.188906 
L 158.76 414.188906 
L 158.76 370.088906 
L 114.66 370.088906 
z
" clip-path="url(#pb8bb4f6369)" style="fill: #dc2626; stroke: #ffffff; stroke-width: 0.7; stroke-linejoin: miter"/>
   </g>
   <g id="patch_61">
    <path d="M 158.76 414.188906 
L 202.86 414.188906 
L 202.86 370.088906 
L 158.76 370.088906 
z
" clip-path="url(#pb8bb4f6369)" style="fill: #dc2626; stroke: #ffffff; stroke-width: 0.7; stroke-linejoin: miter"/>
   </g>
   <g id="patch_62">
    <path d="M 202.86 414.188906 
L 246.96 414.188906 
L 246.96 370.088906 
L 202.86 370.088906 
z
" clip-path="url(#pb8bb4f6369)" style="fill: #dc2626; stroke: #ffffff; stroke-width: 0.7; stroke-linejoin: miter"/>
   </g>
   <g id="patch_63">
    <path d="M 246.96 414.188906 
L 291.06 414.188906 
L 291.06 370.088906 
L 246.96 370.088906 
z
" clip-path="url(#pb8bb4f6369)" style="fill: #dc2626; stroke: #ffffff; stroke-width: 0.7; stroke-linejoin: miter"/>
   </g>
   <g id="patch_64">
    <path d="M 291.06 414.188906 
L 335.16 414.188906 
L 335.16 370.088906 
L 291.06 370.088906 
z
" clip-path="url(#pb8bb4f6369)" style="fill: #dc2626; stroke: #ffffff; stroke-width: 0.7; stroke-linejoin: miter"/>
   </g>
   <g id="patch_65">
    <path d="M 335.16 414.188906 
L 379.26 414.188906 
L 379.26 370.088906 
L 335.16 370.088906 
z
" clip-path="url(#pb8bb4f6369)" style="fill: #dc2626; stroke: #ffffff; stroke-width: 0.7; stroke-linejoin: miter"/>
   </g>
   <g id="patch_66">
    <path d="M 379.26 414.188906 
L 423.36 414.188906 
L 423.36 370.088906 
L 379.26 370.088906 
z
" clip-path="url(#pb8bb4f6369)" style="fill: #dc2626; stroke: #ffffff; stroke-width: 0.7; stroke-linejoin: miter"/>
   </g>
   <g id="patch_67">
    <path d="M 552.96 162.188906 
L 884.16 162.188906 
L 884.16 100.988906 
L 552.96 100.988906 
z
" clip-path="url(#pb8bb4f6369)" style="fill: #f1f5f9; stroke: #475569; stroke-width: 1.6; stroke-linejoin: miter"/>
   </g>
   <g id="patch_68">
    <path d="M 552.96 324.188906 
L 884.16 324.188906 
L 884.16 241.388906 
L 552.96 241.388906 
z
" clip-path="url(#pb8bb4f6369)" style="fill: #ccfbf1; stroke: #14b8a6; stroke-width: 1.6; stroke-linejoin: miter"/>
   </g>
   <g id="patch_69">
    <path d="M 74.88 57.068906 
L 110.34 57.068906 
L 110.34 38.348906 
L 74.88 38.348906 
z
" clip-path="url(#pb8bb4f6369)" style="fill: #f59e0b; stroke: #92400e; stroke-width: 0.9; stroke-linejoin: miter"/>
   </g>
   <g id="patch_70">
    <path d="M 118.98 57.068906 
L 154.44 57.068906 
L 154.44 38.348906 
L 118.98 38.348906 
z
" clip-path="url(#pb8bb4f6369)" style="fill: #f59e0b; stroke: #92400e; stroke-width: 0.9; stroke-linejoin: miter"/>
   </g>
   <g id="patch_71">
    <path d="M 163.08 57.068906 
L 198.54 57.068906 
L 198.54 38.348906 
L 163.08 38.348906 
z
" clip-path="url(#pb8bb4f6369)" style="fill: #f59e0b; stroke: #92400e; stroke-width: 0.9; stroke-linejoin: miter"/>
   </g>
   <g id="patch_72">
    <path d="M 207.18 57.068906 
L 242.64 57.068906 
L 242.64 38.348906 
L 207.18 38.348906 
z
" clip-path="url(#pb8bb4f6369)" style="fill: #f59e0b; stroke: #92400e; stroke-width: 0.9; stroke-linejoin: miter"/>
   </g>
   <g id="patch_73">
    <path d="M 251.28 57.068906 
L 286.74 57.068906 
L 286.74 38.348906 
L 251.28 38.348906 
z
" clip-path="url(#pb8bb4f6369)" style="fill: #f59e0b; stroke: #92400e; stroke-width: 0.9; stroke-linejoin: miter"/>
   </g>
   <g id="patch_74">
    <path d="M 295.38 57.068906 
L 330.84 57.068906 
L 330.84 38.348906 
L 295.38 38.348906 
z
" clip-path="url(#pb8bb4f6369)" style="fill: #f59e0b; stroke: #92400e; stroke-width: 0.9; stroke-linejoin: miter"/>
   </g>
   <g id="patch_75">
    <path d="M 339.48 57.068906 
L 374.94 57.068906 
L 374.94 38.348906 
L 339.48 38.348906 
z
" clip-path="url(#pb8bb4f6369)" style="fill: #f59e0b; stroke: #92400e; stroke-width: 0.9; stroke-linejoin: miter"/>
   </g>
   <g id="patch_76">
    <path d="M 383.58 57.068906 
L 419.04 57.068906 
L 419.04 38.348906 
L 383.58 38.348906 
z
" clip-path="url(#pb8bb4f6369)" style="fill: #f59e0b; stroke: #92400e; stroke-width: 0.9; stroke-linejoin: miter"/>
   </g>
   <g id="text_1">
    <text style="font-weight: 700; font-size: 15px; font-family: 'Microsoft YaHei', 'Microsoft YaHei UI', 'SimHei', 'Segoe UI', 'DejaVu Sans', sans-serif; text-anchor: middle; fill: #92400e" x="246.96" y="18.188906" transform="rotate(-0 246.96 18.188906)">电源 pad（供电边）</text>
   </g>
   <g id="text_2">
    <text style="font-weight: 700; font-size: 13px; font-family: 'Microsoft YaHei', 'Microsoft YaHei UI', 'SimHei', 'Segoe UI', 'DejaVu Sans', sans-serif; text-anchor: middle; fill: #1e293b" x="246.96" y="444.428906" transform="rotate(-0 246.96 444.428906)">ΔV = I · R   离电源越远，压降越大</text>
   </g>
   <g id="patch_77">
    <path d="M 448.56 75.788906 
L 471.6 75.788906 
L 471.6 36.188906 
L 448.56 36.188906 
z
" clip-path="url(#pb8bb4f6369)" style="fill: #16a34a"/>
   </g>
   <g id="patch_78">
    <path d="M 448.56 115.388906 
L 471.6 115.388906 
L 471.6 75.788906 
L 448.56 75.788906 
z
" clip-path="url(#pb8bb4f6369)" style="fill: #65a30d"/>
   </g>
   <g id="patch_79">
    <path d="M 448.56 154.988906 
L 471.6 154.988906 
L 471.6 115.388906 
L 448.56 115.388906 
z
" clip-path="url(#pb8bb4f6369)" style="fill: #ca8a04"/>
   </g>
   <g id="patch_80">
    <path d="M 448.56 194.588906 
L 471.6 194.588906 
L 471.6 154.988906 
L 448.56 154.988906 
z
" clip-path="url(#pb8bb4f6369)" style="fill: #ea580c"/>
   </g>
   <g id="patch_81">
    <path d="M 448.56 234.188906 
L 471.6 234.188906 
L 471.6 194.588906 
L 448.56 194.588906 
z
" clip-path="url(#pb8bb4f6369)" style="fill: #dc2626"/>
   </g>
   <g id="text_3">
    <text style="font-size: 11.5px; font-family: 'Microsoft YaHei', 'Microsoft YaHei UI', 'SimHei', 'Segoe UI', 'DejaVu Sans', sans-serif; text-anchor: start; fill: #475569" x="480.96" y="64.555898" transform="rotate(-0 480.96 64.555898)">电压高</text>
   </g>
   <g id="text_4">
    <text style="font-size: 11.5px; font-family: 'Microsoft YaHei', 'Microsoft YaHei UI', 'SimHei', 'Segoe UI', 'DejaVu Sans', sans-serif; text-anchor: start; fill: #475569" x="480.96" y="420.955898" transform="rotate(-0 480.96 420.955898)">电压低</text>
   </g>
   <g id="text_5">
    <text style="font-weight: 700; font-size: 15px; font-family: 'Microsoft YaHei', 'Microsoft YaHei UI', 'SimHei', 'Segoe UI', 'DejaVu Sans', sans-serif; text-anchor: start; fill: #9d174d" x="552.96" y="18.188906" transform="rotate(-0 552.96 18.188906)">电迁移 EM</text>
   </g>
   <g id="patch_82">
    <path d="M 591.961465 131.948906 
Q 606.96025 131.948906 619.275753 131.948906 
" clip-path="url(#pb8bb4f6369)" style="fill: none; stroke: #db2777; stroke-width: 2.4; stroke-linecap: round"/>
    <path d="M 614.075753 129.348906 
L 619.275753 131.948906 
L 614.075753 134.548906 
z
" clip-path="url(#pb8bb4f6369)" style="fill: #db2777; stroke: #db2777; stroke-width: 2.4; stroke-linecap: round"/>
   </g>
   <g id="patch_83">
    <path d="M 663.961465 131.948906 
Q 678.96025 131.948906 691.275753 131.948906 
" clip-path="url(#pb8bb4f6369)" style="fill: none; stroke: #db2777; stroke-width: 2.4; stroke-linecap: round"/>
    <path d="M 686.075753 129.348906 
L 691.275753 131.948906 
L 686.075753 134.548906 
z
" clip-path="url(#pb8bb4f6369)" style="fill: #db2777; stroke: #db2777; stroke-width: 2.4; stroke-linecap: round"/>
   </g>
   <g id="patch_84">
    <path d="M 735.961465 131.948906 
Q 750.96025 131.948906 763.275753 131.948906 
" clip-path="url(#pb8bb4f6369)" style="fill: none; stroke: #db2777; stroke-width: 2.4; stroke-linecap: round"/>
    <path d="M 758.075753 129.348906 
L 763.275753 131.948906 
L 758.075753 134.548906 
z
" clip-path="url(#pb8bb4f6369)" style="fill: #db2777; stroke: #db2777; stroke-width: 2.4; stroke-linecap: round"/>
   </g>
   <g id="patch_85">
    <path d="M 807.961465 131.948906 
Q 822.96025 131.948906 835.275753 131.948906 
" clip-path="url(#pb8bb4f6369)" style="fill: none; stroke: #db2777; stroke-width: 2.4; stroke-linecap: round"/>
    <path d="M 830.075753 129.348906 
L 835.275753 131.948906 
L 830.075753 134.548906 
z
" clip-path="url(#pb8bb4f6369)" style="fill: #db2777; stroke: #db2777; stroke-width: 2.4; stroke-linecap: round"/>
   </g>
   <g id="patch_86">
    <path d="M 879.961465 131.948906 
Q 894.96025 131.948906 907.275753 131.948906 
" clip-path="url(#pb8bb4f6369)" style="fill: none; stroke: #db2777; stroke-width: 2.4; stroke-linecap: round"/>
    <path d="M 902.075753 129.348906 
L 907.275753 131.948906 
L 902.075753 134.548906 
z
" clip-path="url(#pb8bb4f6369)" style="fill: #db2777; stroke: #db2777; stroke-width: 2.4; stroke-linecap: round"/>
   </g>
   <g id="text_6">
    <text style="font-size: 13px; font-family: 'Microsoft YaHei', 'Microsoft YaHei UI', 'SimHei', 'Segoe UI', 'DejaVu Sans', sans-serif; text-anchor: start; fill: #475569" x="552.96" y="190.988906" transform="rotate(-0 552.96 190.988906)">电流密度 J 过大 → 金属原子迁移 → 断路/短路</text>
   </g>
   <g id="text_7">
    <text style="font-weight: 700; font-size: 13px; font-family: 'Microsoft YaHei', 'Microsoft YaHei UI', 'SimHei', 'Segoe UI', 'DejaVu Sans', sans-serif; text-anchor: middle; fill: #0f766e" x="718.56" y="283.148906" transform="rotate(-0 718.56 283.148906)">加宽金属 / 多 via → 降低 J</text>
   </g>
   <g id="text_8">
    <text style="font-size: 11.5px; font-family: 'Microsoft YaHei', 'Microsoft YaHei UI', 'SimHei', 'Segoe UI', 'DejaVu Sans', sans-serif; text-anchor: start; fill: #64748b" x="552.96" y="377.018359" transform="rotate(-0 552.96 377.018359)">缓解：更密 mesh、更宽干线、更多 via、合理 pad</text>
   </g>
  </g>
 </g>
 <defs>
  <clipPath id="pb8bb4f6369">
   <rect x="5.76" y="10.988906" width="972" height="489.6"/>
  </clipPath>
 </defs>
</svg>
