<?xml version="1.0" encoding="utf-8" standalone="no"?>
<!DOCTYPE svg PUBLIC "-//W3C//DTD SVG 1.1//EN"
  "http://www.w3.org/Graphics/SVG/1.1/DTD/svg11.dtd">
<svg xmlns:xlink="http://www.w3.org/1999/xlink" width="688.32pt" height="486.72pt" viewBox="0 0 688.32 486.72" xmlns="http://www.w3.org/2000/svg" version="1.1">
 <metadata>
  <rdf:RDF xmlns:dc="http://purl.org/dc/elements/1.1/" xmlns:cc="http://creativecommons.org/ns#" xmlns:rdf="http://www.w3.org/1999/02/22-rdf-syntax-ns#">
   <cc:Work>
    <dc:type rdf:resource="http://purl.org/dc/dcmitype/StillImage"/>
    <dc:date>2026-06-23T15:05:45.220444</dc:date>
    <dc:format>image/svg+xml</dc:format>
    <dc:creator>
     <cc:Agent>
      <dc:title>Matplotlib v3.10.8, https://matplotlib.org/</dc:title>
     </cc:Agent>
    </dc:creator>
   </cc:Work>
  </rdf:RDF>
 </metadata>
 <defs>
  <style type="text/css">*{stroke-linejoin: round; stroke-linecap: butt}</style>
 </defs>
 <g id="figure_1">
  <g id="patch_1">
   <path d="M 0 486.72 
L 688.32 486.72 
L 688.32 0 
L 0 0 
z
" style="fill: #ffffff"/>
  </g>
  <g id="axes_1">
   <g id="patch_2">
    <path d="M 5.76 480.96 
L 682.56 480.96 
L 682.56 5.76 
L 5.76 5.76 
z
" clip-path="url(#p296530267e)" style="fill: #ffffff"/>
   </g>
   <g id="patch_3">
    <path d="M 48.96 113.76 
L 84.96 113.76 
L 84.96 77.76 
L 48.96 77.76 
z
" clip-path="url(#p296530267e)" style="fill: #16a34a; stroke: #ffffff; stroke-width: 0.6; stroke-linejoin: miter"/>
   </g>
   <g id="patch_4">
    <path d="M 84.96 113.76 
L 120.96 113.76 
L 120.96 77.76 
L 84.96 77.76 
z
" clip-path="url(#p296530267e)" style="fill: #16a34a; stroke: #ffffff; stroke-width: 0.6; stroke-linejoin: miter"/>
   </g>
   <g id="patch_5">
    <path d="M 120.96 113.76 
L 156.96 113.76 
L 156.96 77.76 
L 120.96 77.76 
z
" clip-path="url(#p296530267e)" style="fill: #16a34a; stroke: #ffffff; stroke-width: 0.6; stroke-linejoin: miter"/>
   </g>
   <g id="patch_6">
    <path d="M 156.96 113.76 
L 192.96 113.76 
L 192.96 77.76 
L 156.96 77.76 
z
" clip-path="url(#p296530267e)" style="fill: #16a34a; stroke: #ffffff; stroke-width: 0.6; stroke-linejoin: miter"/>
   </g>
   <g id="patch_7">
    <path d="M 192.96 113.76 
L 228.96 113.76 
L 228.96 77.76 
L 192.96 77.76 
z
" clip-path="url(#p296530267e)" style="fill: #16a34a; stroke: #ffffff; stroke-width: 0.6; stroke-linejoin: miter"/>
   </g>
   <g id="patch_8">
    <path d="M 228.96 113.76 
L 264.96 113.76 
L 264.96 77.76 
L 228.96 77.76 
z
" clip-path="url(#p296530267e)" style="fill: #16a34a; stroke: #ffffff; stroke-width: 0.6; stroke-linejoin: miter"/>
   </g>
   <g id="patch_9">
    <path d="M 264.96 113.76 
L 300.96 113.76 
L 300.96 77.76 
L 264.96 77.76 
z
" clip-path="url(#p296530267e)" style="fill: #16a34a; stroke: #ffffff; stroke-width: 0.6; stroke-linejoin: miter"/>
   </g>
   <g id="patch_10">
    <path d="M 300.96 113.76 
L 336.96 113.76 
L 336.96 77.76 
L 300.96 77.76 
z
" clip-path="url(#p296530267e)" style="fill: #16a34a; stroke: #ffffff; stroke-width: 0.6; stroke-linejoin: miter"/>
   </g>
   <g id="patch_11">
    <path d="M 48.96 149.76 
L 84.96 149.76 
L 84.96 113.76 
L 48.96 113.76 
z
" clip-path="url(#p296530267e)" style="fill: #43a327; stroke: #ffffff; stroke-width: 0.6; stroke-linejoin: miter"/>
   </g>
   <g id="patch_12">
    <path d="M 84.96 149.76 
L 120.96 149.76 
L 120.96 113.76 
L 84.96 113.76 
z
" clip-path="url(#p296530267e)" style="fill: #43a327; stroke: #ffffff; stroke-width: 0.6; stroke-linejoin: miter"/>
   </g>
   <g id="patch_13">
    <path d="M 120.96 149.76 
L 156.96 149.76 
L 156.96 113.76 
L 120.96 113.76 
z
" clip-path="url(#p296530267e)" style="fill: #43a327; stroke: #ffffff; stroke-width: 0.6; stroke-linejoin: miter"/>
   </g>
   <g id="patch_14">
    <path d="M 156.96 149.76 
L 192.96 149.76 
L 192.96 113.76 
L 156.96 113.76 
z
" clip-path="url(#p296530267e)" style="fill: #43a327; stroke: #ffffff; stroke-width: 0.6; stroke-linejoin: miter"/>
   </g>
   <g id="patch_15">
    <path d="M 192.96 149.76 
L 228.96 149.76 
L 228.96 113.76 
L 192.96 113.76 
z
" clip-path="url(#p296530267e)" style="fill: #43a327; stroke: #ffffff; stroke-width: 0.6; stroke-linejoin: miter"/>
   </g>
   <g id="patch_16">
    <path d="M 228.96 149.76 
L 264.96 149.76 
L 264.96 113.76 
L 228.96 113.76 
z
" clip-path="url(#p296530267e)" style="fill: #43a327; stroke: #ffffff; stroke-width: 0.6; stroke-linejoin: miter"/>
   </g>
   <g id="patch_17">
    <path d="M 264.96 149.76 
L 300.96 149.76 
L 300.96 113.76 
L 264.96 113.76 
z
" clip-path="url(#p296530267e)" style="fill: #43a327; stroke: #ffffff; stroke-width: 0.6; stroke-linejoin: miter"/>
   </g>
   <g id="patch_18">
    <path d="M 300.96 149.76 
L 336.96 149.76 
L 336.96 113.76 
L 300.96 113.76 
z
" clip-path="url(#p296530267e)" style="fill: #43a327; stroke: #ffffff; stroke-width: 0.6; stroke-linejoin: miter"/>
   </g>
   <g id="patch_19">
    <path d="M 48.96 185.76 
L 84.96 185.76 
L 84.96 149.76 
L 48.96 149.76 
z
" clip-path="url(#p296530267e)" style="fill: #739f0b; stroke: #ffffff; stroke-width: 0.6; stroke-linejoin: miter"/>
   </g>
   <g id="patch_20">
    <path d="M 84.96 185.76 
L 120.96 185.76 
L 120.96 149.76 
L 84.96 149.76 
z
" clip-path="url(#p296530267e)" style="fill: #739f0b; stroke: #ffffff; stroke-width: 0.6; stroke-linejoin: miter"/>
   </g>
   <g id="patch_21">
    <path d="M 120.96 185.76 
L 156.96 185.76 
L 156.96 149.76 
L 120.96 149.76 
z
" clip-path="url(#p296530267e)" style="fill: #739f0b; stroke: #ffffff; stroke-width: 0.6; stroke-linejoin: miter"/>
   </g>
   <g id="patch_22">
    <path d="M 156.96 185.76 
L 192.96 185.76 
L 192.96 149.76 
L 156.96 149.76 
z
" clip-path="url(#p296530267e)" style="fill: #739f0b; stroke: #ffffff; stroke-width: 0.6; stroke-linejoin: miter"/>
   </g>
   <g id="patch_23">
    <path d="M 192.96 185.76 
L 228.96 185.76 
L 228.96 149.76 
L 192.96 149.76 
z
" clip-path="url(#p296530267e)" style="fill: #739f0b; stroke: #ffffff; stroke-width: 0.6; stroke-linejoin: miter"/>
   </g>
   <g id="patch_24">
    <path d="M 228.96 185.76 
L 264.96 185.76 
L 264.96 149.76 
L 228.96 149.76 
z
" clip-path="url(#p296530267e)" style="fill: #739f0b; stroke: #ffffff; stroke-width: 0.6; stroke-linejoin: miter"/>
   </g>
   <g id="patch_25">
    <path d="M 264.96 185.76 
L 300.96 185.76 
L 300.96 149.76 
L 264.96 149.76 
z
" clip-path="url(#p296530267e)" style="fill: #739f0b; stroke: #ffffff; stroke-width: 0.6; stroke-linejoin: miter"/>
   </g>
   <g id="patch_26">
    <path d="M 300.96 185.76 
L 336.96 185.76 
L 336.96 149.76 
L 300.96 149.76 
z
" clip-path="url(#p296530267e)" style="fill: #739f0b; stroke: #ffffff; stroke-width: 0.6; stroke-linejoin: miter"/>
   </g>
   <g id="patch_27">
    <path d="M 48.96 221.76 
L 84.96 221.76 
L 84.96 185.76 
L 48.96 185.76 
z
" clip-path="url(#p296530267e)" style="fill: #ad9106; stroke: #ffffff; stroke-width: 0.6; stroke-linejoin: miter"/>
   </g>
   <g id="patch_28">
    <path d="M 84.96 221.76 
L 120.96 221.76 
L 120.96 185.76 
L 84.96 185.76 
z
" clip-path="url(#p296530267e)" style="fill: #ad9106; stroke: #ffffff; stroke-width: 0.6; stroke-linejoin: miter"/>
   </g>
   <g id="patch_29">
    <path d="M 120.96 221.76 
L 156.96 221.76 
L 156.96 185.76 
L 120.96 185.76 
z
" clip-path="url(#p296530267e)" style="fill: #ad9106; stroke: #ffffff; stroke-width: 0.6; stroke-linejoin: miter"/>
   </g>
   <g id="patch_30">
    <path d="M 156.96 221.76 
L 192.96 221.76 
L 192.96 185.76 
L 156.96 185.76 
z
" clip-path="url(#p296530267e)" style="fill: #ad9106; stroke: #ffffff; stroke-width: 0.6; stroke-linejoin: miter"/>
   </g>
   <g id="patch_31">
    <path d="M 192.96 221.76 
L 228.96 221.76 
L 228.96 185.76 
L 192.96 185.76 
z
" clip-path="url(#p296530267e)" style="fill: #ad9106; stroke: #ffffff; stroke-width: 0.6; stroke-linejoin: miter"/>
   </g>
   <g id="patch_32">
    <path d="M 228.96 221.76 
L 264.96 221.76 
L 264.96 185.76 
L 228.96 185.76 
z
" clip-path="url(#p296530267e)" style="fill: #ad9106; stroke: #ffffff; stroke-width: 0.6; stroke-linejoin: miter"/>
   </g>
   <g id="patch_33">
    <path d="M 264.96 221.76 
L 300.96 221.76 
L 300.96 185.76 
L 264.96 185.76 
z
" clip-path="url(#p296530267e)" style="fill: #ad9106; stroke: #ffffff; stroke-width: 0.6; stroke-linejoin: miter"/>
   </g>
   <g id="patch_34">
    <path d="M 300.96 221.76 
L 336.96 221.76 
L 336.96 185.76 
L 300.96 185.76 
z
" clip-path="url(#p296530267e)" style="fill: #ad9106; stroke: #ffffff; stroke-width: 0.6; stroke-linejoin: miter"/>
   </g>
   <g id="patch_35">
    <path d="M 48.96 257.76 
L 84.96 257.76 
L 84.96 221.76 
L 48.96 221.76 
z
" clip-path="url(#p296530267e)" style="fill: #d37b06; stroke: #ffffff; stroke-width: 0.6; stroke-linejoin: miter"/>
   </g>
   <g id="patch_36">
    <path d="M 84.96 257.76 
L 120.96 257.76 
L 120.96 221.76 
L 84.96 221.76 
z
" clip-path="url(#p296530267e)" style="fill: #d37b06; stroke: #ffffff; stroke-width: 0.6; stroke-linejoin: miter"/>
   </g>
   <g id="patch_37">
    <path d="M 120.96 257.76 
L 156.96 257.76 
L 156.96 221.76 
L 120.96 221.76 
z
" clip-path="url(#p296530267e)" style="fill: #d37b06; stroke: #ffffff; stroke-width: 0.6; stroke-linejoin: miter"/>
   </g>
   <g id="patch_38">
    <path d="M 156.96 257.76 
L 192.96 257.76 
L 192.96 221.76 
L 156.96 221.76 
z
" clip-path="url(#p296530267e)" style="fill: #d37b06; stroke: #ffffff; stroke-width: 0.6; stroke-linejoin: miter"/>
   </g>
   <g id="patch_39">
    <path d="M 192.96 257.76 
L 228.96 257.76 
L 228.96 221.76 
L 192.96 221.76 
z
" clip-path="url(#p296530267e)" style="fill: #d37b06; stroke: #ffffff; stroke-width: 0.6; stroke-linejoin: miter"/>
   </g>
   <g id="patch_40">
    <path d="M 228.96 257.76 
L 264.96 257.76 
L 264.96 221.76 
L 228.96 221.76 
z
" clip-path="url(#p296530267e)" style="fill: #d37b06; stroke: #ffffff; stroke-width: 0.6; stroke-linejoin: miter"/>
   </g>
   <g id="patch_41">
    <path d="M 264.96 257.76 
L 300.96 257.76 
L 300.96 221.76 
L 264.96 221.76 
z
" clip-path="url(#p296530267e)" style="fill: #d37b06; stroke: #ffffff; stroke-width: 0.6; stroke-linejoin: miter"/>
   </g>
   <g id="patch_42">
    <path d="M 300.96 257.76 
L 336.96 257.76 
L 336.96 221.76 
L 300.96 221.76 
z
" clip-path="url(#p296530267e)" style="fill: #d37b06; stroke: #ffffff; stroke-width: 0.6; stroke-linejoin: miter"/>
   </g>
   <g id="patch_43">
    <path d="M 48.96 293.76 
L 84.96 293.76 
L 84.96 257.76 
L 48.96 257.76 
z
" clip-path="url(#p296530267e)" style="fill: #e55f0a; stroke: #ffffff; stroke-width: 0.6; stroke-linejoin: miter"/>
   </g>
   <g id="patch_44">
    <path d="M 84.96 293.76 
L 120.96 293.76 
L 120.96 257.76 
L 84.96 257.76 
z
" clip-path="url(#p296530267e)" style="fill: #e55f0a; stroke: #ffffff; stroke-width: 0.6; stroke-linejoin: miter"/>
   </g>
   <g id="patch_45">
    <path d="M 120.96 293.76 
L 156.96 293.76 
L 156.96 257.76 
L 120.96 257.76 
z
" clip-path="url(#p296530267e)" style="fill: #e55f0a; stroke: #ffffff; stroke-width: 0.6; stroke-linejoin: miter"/>
   </g>
   <g id="patch_46">
    <path d="M 156.96 293.76 
L 192.96 293.76 
L 192.96 257.76 
L 156.96 257.76 
z
" clip-path="url(#p296530267e)" style="fill: #e55f0a; stroke: #ffffff; stroke-width: 0.6; stroke-linejoin: miter"/>
   </g>
   <g id="patch_47">
    <path d="M 192.96 293.76 
L 228.96 293.76 
L 228.96 257.76 
L 192.96 257.76 
z
" clip-path="url(#p296530267e)" style="fill: #e55f0a; stroke: #ffffff; stroke-width: 0.6; stroke-linejoin: miter"/>
   </g>
   <g id="patch_48">
    <path d="M 228.96 293.76 
L 264.96 293.76 
L 264.96 257.76 
L 228.96 257.76 
z
" clip-path="url(#p296530267e)" style="fill: #e55f0a; stroke: #ffffff; stroke-width: 0.6; stroke-linejoin: miter"/>
   </g>
   <g id="patch_49">
    <path d="M 264.96 293.76 
L 300.96 293.76 
L 300.96 257.76 
L 264.96 257.76 
z
" clip-path="url(#p296530267e)" style="fill: #e55f0a; stroke: #ffffff; stroke-width: 0.6; stroke-linejoin: miter"/>
   </g>
   <g id="patch_50">
    <path d="M 300.96 293.76 
L 336.96 293.76 
L 336.96 257.76 
L 300.96 257.76 
z
" clip-path="url(#p296530267e)" style="fill: #e55f0a; stroke: #ffffff; stroke-width: 0.6; stroke-linejoin: miter"/>
   </g>
   <g id="patch_51">
    <path d="M 48.96 329.76 
L 84.96 329.76 
L 84.96 293.76 
L 48.96 293.76 
z
" clip-path="url(#p296530267e)" style="fill: #e44217; stroke: #ffffff; stroke-width: 0.6; stroke-linejoin: miter"/>
   </g>
   <g id="patch_52">
    <path d="M 84.96 329.76 
L 120.96 329.76 
L 120.96 293.76 
L 84.96 293.76 
z
" clip-path="url(#p296530267e)" style="fill: #e44217; stroke: #ffffff; stroke-width: 0.6; stroke-linejoin: miter"/>
   </g>
   <g id="patch_53">
    <path d="M 120.96 329.76 
L 156.96 329.76 
L 156.96 293.76 
L 120.96 293.76 
z
" clip-path="url(#p296530267e)" style="fill: #e44217; stroke: #ffffff; stroke-width: 0.6; stroke-linejoin: miter"/>
   </g>
   <g id="patch_54">
    <path d="M 156.96 329.76 
L 192.96 329.76 
L 192.96 293.76 
L 156.96 293.76 
z
" clip-path="url(#p296530267e)" style="fill: #e44217; stroke: #ffffff; stroke-width: 0.6; stroke-linejoin: miter"/>
   </g>
   <g id="patch_55">
    <path d="M 192.96 329.76 
L 228.96 329.76 
L 228.96 293.76 
L 192.96 293.76 
z
" clip-path="url(#p296530267e)" style="fill: #e44217; stroke: #ffffff; stroke-width: 0.6; stroke-linejoin: miter"/>
   </g>
   <g id="patch_56">
    <path d="M 228.96 329.76 
L 264.96 329.76 
L 264.96 293.76 
L 228.96 293.76 
z
" clip-path="url(#p296530267e)" style="fill: #e44217; stroke: #ffffff; stroke-width: 0.6; stroke-linejoin: miter"/>
   </g>
   <g id="patch_57">
    <path d="M 264.96 329.76 
L 300.96 329.76 
L 300.96 293.76 
L 264.96 293.76 
z
" clip-path="url(#p296530267e)" style="fill: #e44217; stroke: #ffffff; stroke-width: 0.6; stroke-linejoin: miter"/>
   </g>
   <g id="patch_58">
    <path d="M 300.96 329.76 
L 336.96 329.76 
L 336.96 293.76 
L 300.96 293.76 
z
" clip-path="url(#p296530267e)" style="fill: #e44217; stroke: #ffffff; stroke-width: 0.6; stroke-linejoin: miter"/>
   </g>
   <g id="patch_59">
    <path d="M 48.96 365.76 
L 84.96 365.76 
L 84.96 329.76 
L 48.96 329.76 
z
" clip-path="url(#p296530267e)" style="fill: #dc2626; stroke: #ffffff; stroke-width: 0.6; stroke-linejoin: miter"/>
   </g>
   <g id="patch_60">
    <path d="M 84.96 365.76 
L 120.96 365.76 
L 120.96 329.76 
L 84.96 329.76 
z
" clip-path="url(#p296530267e)" style="fill: #dc2626; stroke: #ffffff; stroke-width: 0.6; stroke-linejoin: miter"/>
   </g>
   <g id="patch_61">
    <path d="M 120.96 365.76 
L 156.96 365.76 
L 156.96 329.76 
L 120.96 329.76 
z
" clip-path="url(#p296530267e)" style="fill: #dc2626; stroke: #ffffff; stroke-width: 0.6; stroke-linejoin: miter"/>
   </g>
   <g id="patch_62">
    <path d="M 156.96 365.76 
L 192.96 365.76 
L 192.96 329.76 
L 156.96 329.76 
z
" clip-path="url(#p296530267e)" style="fill: #dc2626; stroke: #ffffff; stroke-width: 0.6; stroke-linejoin: miter"/>
   </g>
   <g id="patch_63">
    <path d="M 192.96 365.76 
L 228.96 365.76 
L 228.96 329.76 
L 192.96 329.76 
z
" clip-path="url(#p296530267e)" style="fill: #dc2626; stroke: #ffffff; stroke-width: 0.6; stroke-linejoin: miter"/>
   </g>
   <g id="patch_64">
    <path d="M 228.96 365.76 
L 264.96 365.76 
L 264.96 329.76 
L 228.96 329.76 
z
" clip-path="url(#p296530267e)" style="fill: #dc2626; stroke: #ffffff; stroke-width: 0.6; stroke-linejoin: miter"/>
   </g>
   <g id="patch_65">
    <path d="M 264.96 365.76 
L 300.96 365.76 
L 300.96 329.76 
L 264.96 329.76 
z
" clip-path="url(#p296530267e)" style="fill: #dc2626; stroke: #ffffff; stroke-width: 0.6; stroke-linejoin: miter"/>
   </g>
   <g id="patch_66">
    <path d="M 300.96 365.76 
L 336.96 365.76 
L 336.96 329.76 
L 300.96 329.76 
z
" clip-path="url(#p296530267e)" style="fill: #dc2626; stroke: #ffffff; stroke-width: 0.6; stroke-linejoin: miter"/>
   </g>
   <g id="patch_67">
    <path d="M 401.76 156.96 
L 660.96 156.96 
L 660.96 102.96 
L 401.76 102.96 
z
" clip-path="url(#p296530267e)" style="fill: #f1f5f9; stroke: #475569; stroke-width: 1.4; stroke-linejoin: miter"/>
   </g>
   <g id="patch_68">
    <path d="M 408.96 315.36 
L 653.76 315.36 
Q 660.96 315.36 660.96 308.16 
L 660.96 221.76 
Q 660.96 214.56 653.76 214.56 
L 408.96 214.56 
Q 401.76 214.56 401.76 221.76 
L 401.76 308.16 
Q 401.76 315.36 408.96 315.36 
z
" clip-path="url(#p296530267e)" style="fill: #ecfdf5; stroke: #e5e7eb; stroke-width: 1.4; stroke-linejoin: miter"/>
   </g>
   <g id="patch_69">
    <path d="M 52.56 74.16 
L 81.36 74.16 
L 81.36 58.32 
L 52.56 58.32 
z
" clip-path="url(#p296530267e)" style="fill: #f59e0b; stroke: #92400e; stroke-width: 0.8; stroke-linejoin: miter"/>
   </g>
   <g id="patch_70">
    <path d="M 88.56 74.16 
L 117.36 74.16 
L 117.36 58.32 
L 88.56 58.32 
z
" clip-path="url(#p296530267e)" style="fill: #f59e0b; stroke: #92400e; stroke-width: 0.8; stroke-linejoin: miter"/>
   </g>
   <g id="patch_71">
    <path d="M 124.56 74.16 
L 153.36 74.16 
L 153.36 58.32 
L 124.56 58.32 
z
" clip-path="url(#p296530267e)" style="fill: #f59e0b; stroke: #92400e; stroke-width: 0.8; stroke-linejoin: miter"/>
   </g>
   <g id="patch_72">
    <path d="M 160.56 74.16 
L 189.36 74.16 
L 189.36 58.32 
L 160.56 58.32 
z
" clip-path="url(#p296530267e)" style="fill: #f59e0b; stroke: #92400e; stroke-width: 0.8; stroke-linejoin: miter"/>
   </g>
   <g id="patch_73">
    <path d="M 196.56 74.16 
L 225.36 74.16 
L 225.36 58.32 
L 196.56 58.32 
z
" clip-path="url(#p296530267e)" style="fill: #f59e0b; stroke: #92400e; stroke-width: 0.8; stroke-linejoin: miter"/>
   </g>
   <g id="patch_74">
    <path d="M 232.56 74.16 
L 261.36 74.16 
L 261.36 58.32 
L 232.56 58.32 
z
" clip-path="url(#p296530267e)" style="fill: #f59e0b; stroke: #92400e; stroke-width: 0.8; stroke-linejoin: miter"/>
   </g>
   <g id="patch_75">
    <path d="M 268.56 74.16 
L 297.36 74.16 
L 297.36 58.32 
L 268.56 58.32 
z
" clip-path="url(#p296530267e)" style="fill: #f59e0b; stroke: #92400e; stroke-width: 0.8; stroke-linejoin: miter"/>
   </g>
   <g id="patch_76">
    <path d="M 304.56 74.16 
L 333.36 74.16 
L 333.36 58.32 
L 304.56 58.32 
z
" clip-path="url(#p296530267e)" style="fill: #f59e0b; stroke: #92400e; stroke-width: 0.8; stroke-linejoin: miter"/>
   </g>
   <g id="text_1">
    <text style="font-weight: 700; font-size: 13px; font-family: 'Microsoft YaHei', 'Microsoft YaHei UI', 'SimHei', 'Segoe UI', 'DejaVu Sans', sans-serif; text-anchor: middle; fill: #92400e" x="192.96" y="38.16" transform="rotate(-0 192.96 38.16)">电源 pad（供电边）</text>
   </g>
   <g id="text_2">
    <text style="font-weight: 700; font-size: 11.5px; font-family: 'Microsoft YaHei', 'Microsoft YaHei UI', 'SimHei', 'Segoe UI', 'DejaVu Sans', sans-serif; text-anchor: middle; fill: #1e293b" x="192.96" y="393.12" transform="rotate(-0 192.96 393.12)">ΔV = I·R  离电源越远压降越大</text>
   </g>
   <g id="patch_77">
    <path d="M 354.96 88.56 
L 373.68 88.56 
L 373.68 56.16 
L 354.96 56.16 
z
" clip-path="url(#p296530267e)" style="fill: #16a34a"/>
   </g>
   <g id="patch_78">
    <path d="M 354.96 120.96 
L 373.68 120.96 
L 373.68 88.56 
L 354.96 88.56 
z
" clip-path="url(#p296530267e)" style="fill: #65a30d"/>
   </g>
   <g id="patch_79">
    <path d="M 354.96 153.36 
L 373.68 153.36 
L 373.68 120.96 
L 354.96 120.96 
z
" clip-path="url(#p296530267e)" style="fill: #ca8a04"/>
   </g>
   <g id="patch_80">
    <path d="M 354.96 185.76 
L 373.68 185.76 
L 373.68 153.36 
L 354.96 153.36 
z
" clip-path="url(#p296530267e)" style="fill: #ea580c"/>
   </g>
   <g id="patch_81">
    <path d="M 354.96 218.16 
L 373.68 218.16 
L 373.68 185.76 
L 354.96 185.76 
z
" clip-path="url(#p296530267e)" style="fill: #dc2626"/>
   </g>
   <g id="text_3">
    <text style="font-size: 10.5px; font-family: 'Microsoft YaHei', 'Microsoft YaHei UI', 'SimHei', 'Segoe UI', 'DejaVu Sans', sans-serif; text-anchor: start; fill: #475569" x="380.88" y="80.651602" transform="rotate(-0 380.88 80.651602)">高</text>
   </g>
   <g id="text_4">
    <text style="font-size: 10.5px; font-family: 'Microsoft YaHei', 'Microsoft YaHei UI', 'SimHei', 'Segoe UI', 'DejaVu Sans', sans-serif; text-anchor: start; fill: #475569" x="380.88" y="372.251602" transform="rotate(-0 380.88 372.251602)">低</text>
   </g>
   <g id="text_5">
    <text style="font-weight: 700; font-size: 15px; font-family: 'Microsoft YaHei', 'Microsoft YaHei UI', 'SimHei', 'Segoe UI', 'DejaVu Sans', sans-serif; text-anchor: start; fill: #9d174d" x="401.76" y="38.16" transform="rotate(-0 401.76 38.16)">电迁移 EM</text>
   </g>
   <g id="patch_82">
    <path d="M 437.161904 130.32 
Q 450.362697 130.32 461.103815 130.32 
" clip-path="url(#p296530267e)" style="fill: none; stroke: #db2777; stroke-width: 2.2; stroke-linecap: round"/>
    <path d="M 456.303815 127.92 
L 461.103815 130.32 
L 456.303815 132.72 
z
" clip-path="url(#p296530267e)" style="fill: #db2777; stroke: #db2777; stroke-width: 2.2; stroke-linecap: round"/>
   </g>
   <g id="patch_83">
    <path d="M 498.361904 130.32 
Q 511.562697 130.32 522.303815 130.32 
" clip-path="url(#p296530267e)" style="fill: none; stroke: #db2777; stroke-width: 2.2; stroke-linecap: round"/>
    <path d="M 517.503815 127.92 
L 522.303815 130.32 
L 517.503815 132.72 
z
" clip-path="url(#p296530267e)" style="fill: #db2777; stroke: #db2777; stroke-width: 2.2; stroke-linecap: round"/>
   </g>
   <g id="patch_84">
    <path d="M 559.561904 130.32 
Q 572.762697 130.32 583.503815 130.32 
" clip-path="url(#p296530267e)" style="fill: none; stroke: #db2777; stroke-width: 2.2; stroke-linecap: round"/>
    <path d="M 578.703815 127.92 
L 583.503815 130.32 
L 578.703815 132.72 
z
" clip-path="url(#p296530267e)" style="fill: #db2777; stroke: #db2777; stroke-width: 2.2; stroke-linecap: round"/>
   </g>
   <g id="patch_85">
    <path d="M 620.761904 130.32 
Q 633.962697 130.32 644.703815 130.32 
" clip-path="url(#p296530267e)" style="fill: none; stroke: #db2777; stroke-width: 2.2; stroke-linecap: round"/>
    <path d="M 639.903815 127.92 
L 644.703815 130.32 
L 639.903815 132.72 
z
" clip-path="url(#p296530267e)" style="fill: #db2777; stroke: #db2777; stroke-width: 2.2; stroke-linecap: round"/>
   </g>
   <g id="text_6">
    <text style="font-size: 11.5px; font-family: 'Microsoft YaHei', 'Microsoft YaHei UI', 'SimHei', 'Segoe UI', 'DejaVu Sans', sans-serif; text-anchor: start; fill: #475569" x="401.76" y="182.16" transform="rotate(-0 401.76 182.16)">J 过大 → 金属原子迁移 → 断/短路</text>
   </g>
   <g id="text_7">
    <text style="font-weight: 700; font-size: 13px; font-family: 'Microsoft YaHei', 'Microsoft YaHei UI', 'SimHei', 'Segoe UI', 'DejaVu Sans', sans-serif; text-anchor: start; fill: #1e293b" x="423.36" y="247.991875" transform="rotate(-0 423.36 247.991875)">缓解</text>
   </g>
   <g id="text_8">
    <text style="font-size: 11.5px; font-family: 'Microsoft YaHei', 'Microsoft YaHei UI', 'SimHei', 'Segoe UI', 'DejaVu Sans', sans-serif; text-anchor: start; fill: #0f766e" x="423.36" y="292.341172" transform="rotate(-0 423.36 292.341172)">加宽金属 / 多 via / 更密 mesh → 降低 J</text>
   </g>
  </g>
 </g>
 <defs>
  <clipPath id="p296530267e">
   <rect x="5.76" y="5.76" width="676.8" height="475.2"/>
  </clipPath>
 </defs>
</svg>
