<?xml version="1.0" encoding="utf-8" standalone="no"?>
<!DOCTYPE svg PUBLIC "-//W3C//DTD SVG 1.1//EN"
  "http://www.w3.org/Graphics/SVG/1.1/DTD/svg11.dtd">
<svg xmlns:xlink="http://www.w3.org/1999/xlink" width="911.52pt" height="504.691719pt" viewBox="0 0 911.52 504.691719" xmlns="http://www.w3.org/2000/svg" version="1.1">
 <metadata>
  <rdf:RDF xmlns:dc="http://purl.org/dc/elements/1.1/" xmlns:cc="http://creativecommons.org/ns#" xmlns:rdf="http://www.w3.org/1999/02/22-rdf-syntax-ns#">
   <cc:Work>
    <dc:type rdf:resource="http://purl.org/dc/dcmitype/StillImage"/>
    <dc:date>2026-06-22T14:59:37.047554</dc:date>
    <dc:format>image/svg+xml</dc:format>
    <dc:creator>
     <cc:Agent>
      <dc:title>Matplotlib v3.10.8, https://matplotlib.org/</dc:title>
     </cc:Agent>
    </dc:creator>
   </cc:Work>
  </rdf:RDF>
 </metadata>
 <defs>
  <style type="text/css">*{stroke-linejoin: round; stroke-linecap: butt}</style>
 </defs>
 <g id="figure_1">
  <g id="patch_1">
   <path d="M 0 504.691719 
L 911.52 504.691719 
L 911.52 0 
L 0 0 
z
" style="fill: #ffffff"/>
  </g>
  <g id="axes_1">
   <g id="patch_2">
    <path d="M 5.76 498.931719 
L 905.76 498.931719 
L 905.76 9.331719 
L 5.76 9.331719 
z
" clip-path="url(#p63cd536a4c)" style="fill: #ffffff"/>
   </g>
   <g id="patch_3">
    <path d="M 25.92 487.411719 
L 885.6 487.411719 
Q 894.24 487.411719 894.24 478.771719 
L 894.24 29.491719 
Q 894.24 20.851719 885.6 20.851719 
L 25.92 20.851719 
Q 17.28 20.851719 17.28 29.491719 
L 17.28 478.771719 
Q 17.28 487.411719 25.92 487.411719 
L 25.92 487.411719 
z
" clip-path="url(#p63cd536a4c)" style="fill: none; stroke: #cbd5e1; stroke-width: 1.4; stroke-linejoin: miter"/>
   </g>
   <g id="patch_4">
    <path d="M 70.56 103.831719 
L 114.66 103.831719 
L 114.66 59.731719 
L 70.56 59.731719 
z
" clip-path="url(#p63cd536a4c)" style="fill: #16a34a; stroke: #ffffff; stroke-width: 0.7; stroke-linejoin: miter"/>
   </g>
   <g id="patch_5">
    <path d="M 114.66 103.831719 
L 158.76 103.831719 
L 158.76 59.731719 
L 114.66 59.731719 
z
" clip-path="url(#p63cd536a4c)" style="fill: #16a34a; stroke: #ffffff; stroke-width: 0.7; stroke-linejoin: miter"/>
   </g>
   <g id="patch_6">
    <path d="M 158.76 103.831719 
L 202.86 103.831719 
L 202.86 59.731719 
L 158.76 59.731719 
z
" clip-path="url(#p63cd536a4c)" style="fill: #16a34a; stroke: #ffffff; stroke-width: 0.7; stroke-linejoin: miter"/>
   </g>
   <g id="patch_7">
    <path d="M 202.86 103.831719 
L 246.96 103.831719 
L 246.96 59.731719 
L 202.86 59.731719 
z
" clip-path="url(#p63cd536a4c)" style="fill: #16a34a; stroke: #ffffff; stroke-width: 0.7; stroke-linejoin: miter"/>
   </g>
   <g id="patch_8">
    <path d="M 246.96 103.831719 
L 291.06 103.831719 
L 291.06 59.731719 
L 246.96 59.731719 
z
" clip-path="url(#p63cd536a4c)" style="fill: #16a34a; stroke: #ffffff; stroke-width: 0.7; stroke-linejoin: miter"/>
   </g>
   <g id="patch_9">
    <path d="M 291.06 103.831719 
L 335.16 103.831719 
L 335.16 59.731719 
L 291.06 59.731719 
z
" clip-path="url(#p63cd536a4c)" style="fill: #16a34a; stroke: #ffffff; stroke-width: 0.7; stroke-linejoin: miter"/>
   </g>
   <g id="patch_10">
    <path d="M 335.16 103.831719 
L 379.26 103.831719 
L 379.26 59.731719 
L 335.16 59.731719 
z
" clip-path="url(#p63cd536a4c)" style="fill: #16a34a; stroke: #ffffff; stroke-width: 0.7; stroke-linejoin: miter"/>
   </g>
   <g id="patch_11">
    <path d="M 379.26 103.831719 
L 423.36 103.831719 
L 423.36 59.731719 
L 379.26 59.731719 
z
" clip-path="url(#p63cd536a4c)" style="fill: #16a34a; stroke: #ffffff; stroke-width: 0.7; stroke-linejoin: miter"/>
   </g>
   <g id="patch_12">
    <path d="M 70.56 147.931719 
L 114.66 147.931719 
L 114.66 103.831719 
L 70.56 103.831719 
z
" clip-path="url(#p63cd536a4c)" style="fill: #43a327; stroke: #ffffff; stroke-width: 0.7; stroke-linejoin: miter"/>
   </g>
   <g id="patch_13">
    <path d="M 114.66 147.931719 
L 158.76 147.931719 
L 158.76 103.831719 
L 114.66 103.831719 
z
" clip-path="url(#p63cd536a4c)" style="fill: #43a327; stroke: #ffffff; stroke-width: 0.7; stroke-linejoin: miter"/>
   </g>
   <g id="patch_14">
    <path d="M 158.76 147.931719 
L 202.86 147.931719 
L 202.86 103.831719 
L 158.76 103.831719 
z
" clip-path="url(#p63cd536a4c)" style="fill: #43a327; stroke: #ffffff; stroke-width: 0.7; stroke-linejoin: miter"/>
   </g>
   <g id="patch_15">
    <path d="M 202.86 147.931719 
L 246.96 147.931719 
L 246.96 103.831719 
L 202.86 103.831719 
z
" clip-path="url(#p63cd536a4c)" style="fill: #43a327; stroke: #ffffff; stroke-width: 0.7; stroke-linejoin: miter"/>
   </g>
   <g id="patch_16">
    <path d="M 246.96 147.931719 
L 291.06 147.931719 
L 291.06 103.831719 
L 246.96 103.831719 
z
" clip-path="url(#p63cd536a4c)" style="fill: #43a327; stroke: #ffffff; stroke-width: 0.7; stroke-linejoin: miter"/>
   </g>
   <g id="patch_17">
    <path d="M 291.06 147.931719 
L 335.16 147.931719 
L 335.16 103.831719 
L 291.06 103.831719 
z
" clip-path="url(#p63cd536a4c)" style="fill: #43a327; stroke: #ffffff; stroke-width: 0.7; stroke-linejoin: miter"/>
   </g>
   <g id="patch_18">
    <path d="M 335.16 147.931719 
L 379.26 147.931719 
L 379.26 103.831719 
L 335.16 103.831719 
z
" clip-path="url(#p63cd536a4c)" style="fill: #43a327; stroke: #ffffff; stroke-width: 0.7; stroke-linejoin: miter"/>
   </g>
   <g id="patch_19">
    <path d="M 379.26 147.931719 
L 423.36 147.931719 
L 423.36 103.831719 
L 379.26 103.831719 
z
" clip-path="url(#p63cd536a4c)" style="fill: #43a327; stroke: #ffffff; stroke-width: 0.7; stroke-linejoin: miter"/>
   </g>
   <g id="patch_20">
    <path d="M 70.56 192.031719 
L 114.66 192.031719 
L 114.66 147.931719 
L 70.56 147.931719 
z
" clip-path="url(#p63cd536a4c)" style="fill: #739f0b; stroke: #ffffff; stroke-width: 0.7; stroke-linejoin: miter"/>
   </g>
   <g id="patch_21">
    <path d="M 114.66 192.031719 
L 158.76 192.031719 
L 158.76 147.931719 
L 114.66 147.931719 
z
" clip-path="url(#p63cd536a4c)" style="fill: #739f0b; stroke: #ffffff; stroke-width: 0.7; stroke-linejoin: miter"/>
   </g>
   <g id="patch_22">
    <path d="M 158.76 192.031719 
L 202.86 192.031719 
L 202.86 147.931719 
L 158.76 147.931719 
z
" clip-path="url(#p63cd536a4c)" style="fill: #739f0b; stroke: #ffffff; stroke-width: 0.7; stroke-linejoin: miter"/>
   </g>
   <g id="patch_23">
    <path d="M 202.86 192.031719 
L 246.96 192.031719 
L 246.96 147.931719 
L 202.86 147.931719 
z
" clip-path="url(#p63cd536a4c)" style="fill: #739f0b; stroke: #ffffff; stroke-width: 0.7; stroke-linejoin: miter"/>
   </g>
   <g id="patch_24">
    <path d="M 246.96 192.031719 
L 291.06 192.031719 
L 291.06 147.931719 
L 246.96 147.931719 
z
" clip-path="url(#p63cd536a4c)" style="fill: #739f0b; stroke: #ffffff; stroke-width: 0.7; stroke-linejoin: miter"/>
   </g>
   <g id="patch_25">
    <path d="M 291.06 192.031719 
L 335.16 192.031719 
L 335.16 147.931719 
L 291.06 147.931719 
z
" clip-path="url(#p63cd536a4c)" style="fill: #739f0b; stroke: #ffffff; stroke-width: 0.7; stroke-linejoin: miter"/>
   </g>
   <g id="patch_26">
    <path d="M 335.16 192.031719 
L 379.26 192.031719 
L 379.26 147.931719 
L 335.16 147.931719 
z
" clip-path="url(#p63cd536a4c)" style="fill: #739f0b; stroke: #ffffff; stroke-width: 0.7; stroke-linejoin: miter"/>
   </g>
   <g id="patch_27">
    <path d="M 379.26 192.031719 
L 423.36 192.031719 
L 423.36 147.931719 
L 379.26 147.931719 
z
" clip-path="url(#p63cd536a4c)" style="fill: #739f0b; stroke: #ffffff; stroke-width: 0.7; stroke-linejoin: miter"/>
   </g>
   <g id="patch_28">
    <path d="M 70.56 236.131719 
L 114.66 236.131719 
L 114.66 192.031719 
L 70.56 192.031719 
z
" clip-path="url(#p63cd536a4c)" style="fill: #ad9106; stroke: #ffffff; stroke-width: 0.7; stroke-linejoin: miter"/>
   </g>
   <g id="patch_29">
    <path d="M 114.66 236.131719 
L 158.76 236.131719 
L 158.76 192.031719 
L 114.66 192.031719 
z
" clip-path="url(#p63cd536a4c)" style="fill: #ad9106; stroke: #ffffff; stroke-width: 0.7; stroke-linejoin: miter"/>
   </g>
   <g id="patch_30">
    <path d="M 158.76 236.131719 
L 202.86 236.131719 
L 202.86 192.031719 
L 158.76 192.031719 
z
" clip-path="url(#p63cd536a4c)" style="fill: #ad9106; stroke: #ffffff; stroke-width: 0.7; stroke-linejoin: miter"/>
   </g>
   <g id="patch_31">
    <path d="M 202.86 236.131719 
L 246.96 236.131719 
L 246.96 192.031719 
L 202.86 192.031719 
z
" clip-path="url(#p63cd536a4c)" style="fill: #ad9106; stroke: #ffffff; stroke-width: 0.7; stroke-linejoin: miter"/>
   </g>
   <g id="patch_32">
    <path d="M 246.96 236.131719 
L 291.06 236.131719 
L 291.06 192.031719 
L 246.96 192.031719 
z
" clip-path="url(#p63cd536a4c)" style="fill: #ad9106; stroke: #ffffff; stroke-width: 0.7; stroke-linejoin: miter"/>
   </g>
   <g id="patch_33">
    <path d="M 291.06 236.131719 
L 335.16 236.131719 
L 335.16 192.031719 
L 291.06 192.031719 
z
" clip-path="url(#p63cd536a4c)" style="fill: #ad9106; stroke: #ffffff; stroke-width: 0.7; stroke-linejoin: miter"/>
   </g>
   <g id="patch_34">
    <path d="M 335.16 236.131719 
L 379.26 236.131719 
L 379.26 192.031719 
L 335.16 192.031719 
z
" clip-path="url(#p63cd536a4c)" style="fill: #ad9106; stroke: #ffffff; stroke-width: 0.7; stroke-linejoin: miter"/>
   </g>
   <g id="patch_35">
    <path d="M 379.26 236.131719 
L 423.36 236.131719 
L 423.36 192.031719 
L 379.26 192.031719 
z
" clip-path="url(#p63cd536a4c)" style="fill: #ad9106; stroke: #ffffff; stroke-width: 0.7; stroke-linejoin: miter"/>
   </g>
   <g id="patch_36">
    <path d="M 70.56 280.231719 
L 114.66 280.231719 
L 114.66 236.131719 
L 70.56 236.131719 
z
" clip-path="url(#p63cd536a4c)" style="fill: #d37b06; stroke: #ffffff; stroke-width: 0.7; stroke-linejoin: miter"/>
   </g>
   <g id="patch_37">
    <path d="M 114.66 280.231719 
L 158.76 280.231719 
L 158.76 236.131719 
L 114.66 236.131719 
z
" clip-path="url(#p63cd536a4c)" style="fill: #d37b06; stroke: #ffffff; stroke-width: 0.7; stroke-linejoin: miter"/>
   </g>
   <g id="patch_38">
    <path d="M 158.76 280.231719 
L 202.86 280.231719 
L 202.86 236.131719 
L 158.76 236.131719 
z
" clip-path="url(#p63cd536a4c)" style="fill: #d37b06; stroke: #ffffff; stroke-width: 0.7; stroke-linejoin: miter"/>
   </g>
   <g id="patch_39">
    <path d="M 202.86 280.231719 
L 246.96 280.231719 
L 246.96 236.131719 
L 202.86 236.131719 
z
" clip-path="url(#p63cd536a4c)" style="fill: #d37b06; stroke: #ffffff; stroke-width: 0.7; stroke-linejoin: miter"/>
   </g>
   <g id="patch_40">
    <path d="M 246.96 280.231719 
L 291.06 280.231719 
L 291.06 236.131719 
L 246.96 236.131719 
z
" clip-path="url(#p63cd536a4c)" style="fill: #d37b06; stroke: #ffffff; stroke-width: 0.7; stroke-linejoin: miter"/>
   </g>
   <g id="patch_41">
    <path d="M 291.06 280.231719 
L 335.16 280.231719 
L 335.16 236.131719 
L 291.06 236.131719 
z
" clip-path="url(#p63cd536a4c)" style="fill: #d37b06; stroke: #ffffff; stroke-width: 0.7; stroke-linejoin: miter"/>
   </g>
   <g id="patch_42">
    <path d="M 335.16 280.231719 
L 379.26 280.231719 
L 379.26 236.131719 
L 335.16 236.131719 
z
" clip-path="url(#p63cd536a4c)" style="fill: #d37b06; stroke: #ffffff; stroke-width: 0.7; stroke-linejoin: miter"/>
   </g>
   <g id="patch_43">
    <path d="M 379.26 280.231719 
L 423.36 280.231719 
L 423.36 236.131719 
L 379.26 236.131719 
z
" clip-path="url(#p63cd536a4c)" style="fill: #d37b06; stroke: #ffffff; stroke-width: 0.7; stroke-linejoin: miter"/>
   </g>
   <g id="patch_44">
    <path d="M 70.56 324.331719 
L 114.66 324.331719 
L 114.66 280.231719 
L 70.56 280.231719 
z
" clip-path="url(#p63cd536a4c)" style="fill: #e55f0a; stroke: #ffffff; stroke-width: 0.7; stroke-linejoin: miter"/>
   </g>
   <g id="patch_45">
    <path d="M 114.66 324.331719 
L 158.76 324.331719 
L 158.76 280.231719 
L 114.66 280.231719 
z
" clip-path="url(#p63cd536a4c)" style="fill: #e55f0a; stroke: #ffffff; stroke-width: 0.7; stroke-linejoin: miter"/>
   </g>
   <g id="patch_46">
    <path d="M 158.76 324.331719 
L 202.86 324.331719 
L 202.86 280.231719 
L 158.76 280.231719 
z
" clip-path="url(#p63cd536a4c)" style="fill: #e55f0a; stroke: #ffffff; stroke-width: 0.7; stroke-linejoin: miter"/>
   </g>
   <g id="patch_47">
    <path d="M 202.86 324.331719 
L 246.96 324.331719 
L 246.96 280.231719 
L 202.86 280.231719 
z
" clip-path="url(#p63cd536a4c)" style="fill: #e55f0a; stroke: #ffffff; stroke-width: 0.7; stroke-linejoin: miter"/>
   </g>
   <g id="patch_48">
    <path d="M 246.96 324.331719 
L 291.06 324.331719 
L 291.06 280.231719 
L 246.96 280.231719 
z
" clip-path="url(#p63cd536a4c)" style="fill: #e55f0a; stroke: #ffffff; stroke-width: 0.7; stroke-linejoin: miter"/>
   </g>
   <g id="patch_49">
    <path d="M 291.06 324.331719 
L 335.16 324.331719 
L 335.16 280.231719 
L 291.06 280.231719 
z
" clip-path="url(#p63cd536a4c)" style="fill: #e55f0a; stroke: #ffffff; stroke-width: 0.7; stroke-linejoin: miter"/>
   </g>
   <g id="patch_50">
    <path d="M 335.16 324.331719 
L 379.26 324.331719 
L 379.26 280.231719 
L 335.16 280.231719 
z
" clip-path="url(#p63cd536a4c)" style="fill: #e55f0a; stroke: #ffffff; stroke-width: 0.7; stroke-linejoin: miter"/>
   </g>
   <g id="patch_51">
    <path d="M 379.26 324.331719 
L 423.36 324.331719 
L 423.36 280.231719 
L 379.26 280.231719 
z
" clip-path="url(#p63cd536a4c)" style="fill: #e55f0a; stroke: #ffffff; stroke-width: 0.7; stroke-linejoin: miter"/>
   </g>
   <g id="patch_52">
    <path d="M 70.56 368.431719 
L 114.66 368.431719 
L 114.66 324.331719 
L 70.56 324.331719 
z
" clip-path="url(#p63cd536a4c)" style="fill: #e44217; stroke: #ffffff; stroke-width: 0.7; stroke-linejoin: miter"/>
   </g>
   <g id="patch_53">
    <path d="M 114.66 368.431719 
L 158.76 368.431719 
L 158.76 324.331719 
L 114.66 324.331719 
z
" clip-path="url(#p63cd536a4c)" style="fill: #e44217; stroke: #ffffff; stroke-width: 0.7; stroke-linejoin: miter"/>
   </g>
   <g id="patch_54">
    <path d="M 158.76 368.431719 
L 202.86 368.431719 
L 202.86 324.331719 
L 158.76 324.331719 
z
" clip-path="url(#p63cd536a4c)" style="fill: #e44217; stroke: #ffffff; stroke-width: 0.7; stroke-linejoin: miter"/>
   </g>
   <g id="patch_55">
    <path d="M 202.86 368.431719 
L 246.96 368.431719 
L 246.96 324.331719 
L 202.86 324.331719 
z
" clip-path="url(#p63cd536a4c)" style="fill: #e44217; stroke: #ffffff; stroke-width: 0.7; stroke-linejoin: miter"/>
   </g>
   <g id="patch_56">
    <path d="M 246.96 368.431719 
L 291.06 368.431719 
L 291.06 324.331719 
L 246.96 324.331719 
z
" clip-path="url(#p63cd536a4c)" style="fill: #e44217; stroke: #ffffff; stroke-width: 0.7; stroke-linejoin: miter"/>
   </g>
   <g id="patch_57">
    <path d="M 291.06 368.431719 
L 335.16 368.431719 
L 335.16 324.331719 
L 291.06 324.331719 
z
" clip-path="url(#p63cd536a4c)" style="fill: #e44217; stroke: #ffffff; stroke-width: 0.7; stroke-linejoin: miter"/>
   </g>
   <g id="patch_58">
    <path d="M 335.16 368.431719 
L 379.26 368.431719 
L 379.26 324.331719 
L 335.16 324.331719 
z
" clip-path="url(#p63cd536a4c)" style="fill: #e44217; stroke: #ffffff; stroke-width: 0.7; stroke-linejoin: miter"/>
   </g>
   <g id="patch_59">
    <path d="M 379.26 368.431719 
L 423.36 368.431719 
L 423.36 324.331719 
L 379.26 324.331719 
z
" clip-path="url(#p63cd536a4c)" style="fill: #e44217; stroke: #ffffff; stroke-width: 0.7; stroke-linejoin: miter"/>
   </g>
   <g id="patch_60">
    <path d="M 70.56 412.531719 
L 114.66 412.531719 
L 114.66 368.431719 
L 70.56 368.431719 
z
" clip-path="url(#p63cd536a4c)" style="fill: #dc2626; stroke: #ffffff; stroke-width: 0.7; stroke-linejoin: miter"/>
   </g>
   <g id="patch_61">
    <path d="M 114.66 412.531719 
L 158.76 412.531719 
L 158.76 368.431719 
L 114.66 368.431719 
z
" clip-path="url(#p63cd536a4c)" style="fill: #dc2626; stroke: #ffffff; stroke-width: 0.7; stroke-linejoin: miter"/>
   </g>
   <g id="patch_62">
    <path d="M 158.76 412.531719 
L 202.86 412.531719 
L 202.86 368.431719 
L 158.76 368.431719 
z
" clip-path="url(#p63cd536a4c)" style="fill: #dc2626; stroke: #ffffff; stroke-width: 0.7; stroke-linejoin: miter"/>
   </g>
   <g id="patch_63">
    <path d="M 202.86 412.531719 
L 246.96 412.531719 
L 246.96 368.431719 
L 202.86 368.431719 
z
" clip-path="url(#p63cd536a4c)" style="fill: #dc2626; stroke: #ffffff; stroke-width: 0.7; stroke-linejoin: miter"/>
   </g>
   <g id="patch_64">
    <path d="M 246.96 412.531719 
L 291.06 412.531719 
L 291.06 368.431719 
L 246.96 368.431719 
z
" clip-path="url(#p63cd536a4c)" style="fill: #dc2626; stroke: #ffffff; stroke-width: 0.7; stroke-linejoin: miter"/>
   </g>
   <g id="patch_65">
    <path d="M 291.06 412.531719 
L 335.16 412.531719 
L 335.16 368.431719 
L 291.06 368.431719 
z
" clip-path="url(#p63cd536a4c)" style="fill: #dc2626; stroke: #ffffff; stroke-width: 0.7; stroke-linejoin: miter"/>
   </g>
   <g id="patch_66">
    <path d="M 335.16 412.531719 
L 379.26 412.531719 
L 379.26 368.431719 
L 335.16 368.431719 
z
" clip-path="url(#p63cd536a4c)" style="fill: #dc2626; stroke: #ffffff; stroke-width: 0.7; stroke-linejoin: miter"/>
   </g>
   <g id="patch_67">
    <path d="M 379.26 412.531719 
L 423.36 412.531719 
L 423.36 368.431719 
L 379.26 368.431719 
z
" clip-path="url(#p63cd536a4c)" style="fill: #dc2626; stroke: #ffffff; stroke-width: 0.7; stroke-linejoin: miter"/>
   </g>
   <g id="patch_68">
    <path d="M 538.56 160.531719 
L 855.36 160.531719 
L 855.36 99.331719 
L 538.56 99.331719 
z
" clip-path="url(#p63cd536a4c)" style="fill: #f1f5f9; stroke: #475569; stroke-width: 1.6; stroke-linejoin: miter"/>
   </g>
   <g id="patch_69">
    <path d="M 538.56 318.931719 
L 855.36 318.931719 
L 855.36 232.531719 
L 538.56 232.531719 
z
" clip-path="url(#p63cd536a4c)" style="fill: #ccfbf1; stroke: #14b8a6; stroke-width: 1.6; stroke-linejoin: miter"/>
   </g>
   <g id="patch_70">
    <path d="M 74.88 55.411719 
L 110.34 55.411719 
L 110.34 36.691719 
L 74.88 36.691719 
z
" clip-path="url(#p63cd536a4c)" style="fill: #f59e0b; stroke: #92400e; stroke-width: 0.9; stroke-linejoin: miter"/>
   </g>
   <g id="patch_71">
    <path d="M 118.98 55.411719 
L 154.44 55.411719 
L 154.44 36.691719 
L 118.98 36.691719 
z
" clip-path="url(#p63cd536a4c)" style="fill: #f59e0b; stroke: #92400e; stroke-width: 0.9; stroke-linejoin: miter"/>
   </g>
   <g id="patch_72">
    <path d="M 163.08 55.411719 
L 198.54 55.411719 
L 198.54 36.691719 
L 163.08 36.691719 
z
" clip-path="url(#p63cd536a4c)" style="fill: #f59e0b; stroke: #92400e; stroke-width: 0.9; stroke-linejoin: miter"/>
   </g>
   <g id="patch_73">
    <path d="M 207.18 55.411719 
L 242.64 55.411719 
L 242.64 36.691719 
L 207.18 36.691719 
z
" clip-path="url(#p63cd536a4c)" style="fill: #f59e0b; stroke: #92400e; stroke-width: 0.9; stroke-linejoin: miter"/>
   </g>
   <g id="patch_74">
    <path d="M 251.28 55.411719 
L 286.74 55.411719 
L 286.74 36.691719 
L 251.28 36.691719 
z
" clip-path="url(#p63cd536a4c)" style="fill: #f59e0b; stroke: #92400e; stroke-width: 0.9; stroke-linejoin: miter"/>
   </g>
   <g id="patch_75">
    <path d="M 295.38 55.411719 
L 330.84 55.411719 
L 330.84 36.691719 
L 295.38 36.691719 
z
" clip-path="url(#p63cd536a4c)" style="fill: #f59e0b; stroke: #92400e; stroke-width: 0.9; stroke-linejoin: miter"/>
   </g>
   <g id="patch_76">
    <path d="M 339.48 55.411719 
L 374.94 55.411719 
L 374.94 36.691719 
L 339.48 36.691719 
z
" clip-path="url(#p63cd536a4c)" style="fill: #f59e0b; stroke: #92400e; stroke-width: 0.9; stroke-linejoin: miter"/>
   </g>
   <g id="patch_77">
    <path d="M 383.58 55.411719 
L 419.04 55.411719 
L 419.04 36.691719 
L 383.58 36.691719 
z
" clip-path="url(#p63cd536a4c)" style="fill: #f59e0b; stroke: #92400e; stroke-width: 0.9; stroke-linejoin: miter"/>
   </g>
   <g id="text_1">
    <text style="font-weight: 700; font-size: 13px; font-family: 'Microsoft YaHei', 'Microsoft YaHei UI', 'SimHei', 'Segoe UI', 'DejaVu Sans', sans-serif; text-anchor: middle; fill: #92400e" x="246.96" y="16.531719" transform="rotate(-0 246.96 16.531719)">电源 pad（供电边）</text>
   </g>
   <g id="text_2">
    <text style="font-weight: 700; font-size: 13.5px; font-family: 'Microsoft YaHei', 'Microsoft YaHei UI', 'SimHei', 'Segoe UI', 'DejaVu Sans', sans-serif; text-anchor: middle; fill: #1e293b" x="246.96" y="441.331719" transform="rotate(-0 246.96 441.331719)">ΔV = I · R   离电源越远，压降越大</text>
   </g>
   <g id="patch_78">
    <path d="M 448.56 74.131719 
L 471.6 74.131719 
L 471.6 34.531719 
L 448.56 34.531719 
z
" clip-path="url(#p63cd536a4c)" style="fill: #16a34a"/>
   </g>
   <g id="patch_79">
    <path d="M 448.56 113.731719 
L 471.6 113.731719 
L 471.6 74.131719 
L 448.56 74.131719 
z
" clip-path="url(#p63cd536a4c)" style="fill: #65a30d"/>
   </g>
   <g id="patch_80">
    <path d="M 448.56 153.331719 
L 471.6 153.331719 
L 471.6 113.731719 
L 448.56 113.731719 
z
" clip-path="url(#p63cd536a4c)" style="fill: #ca8a04"/>
   </g>
   <g id="patch_81">
    <path d="M 448.56 192.931719 
L 471.6 192.931719 
L 471.6 153.331719 
L 448.56 153.331719 
z
" clip-path="url(#p63cd536a4c)" style="fill: #ea580c"/>
   </g>
   <g id="patch_82">
    <path d="M 448.56 232.531719 
L 471.6 232.531719 
L 471.6 192.931719 
L 448.56 192.931719 
z
" clip-path="url(#p63cd536a4c)" style="fill: #dc2626"/>
   </g>
   <g id="text_3">
    <text style="font-size: 12px; font-family: 'Microsoft YaHei', 'Microsoft YaHei UI', 'SimHei', 'Segoe UI', 'DejaVu Sans', sans-serif; text-anchor: start; fill: #475569" x="480.96" y="63.036406" transform="rotate(-0 480.96 63.036406)">电压高</text>
   </g>
   <g id="text_4">
    <text style="font-size: 12px; font-family: 'Microsoft YaHei', 'Microsoft YaHei UI', 'SimHei', 'Segoe UI', 'DejaVu Sans', sans-serif; text-anchor: start; fill: #475569" x="480.96" y="419.436406" transform="rotate(-0 480.96 419.436406)">电压低</text>
   </g>
   <g id="text_5">
    <text style="font-weight: 700; font-size: 15px; font-family: 'Microsoft YaHei', 'Microsoft YaHei UI', 'SimHei', 'Segoe UI', 'DejaVu Sans', sans-serif; text-anchor: start; fill: #9d174d" x="538.56" y="20.131719" transform="rotate(-0 538.56 20.131719)">电迁移 EM (Electromigration)</text>
   </g>
   <g id="patch_83">
    <path d="M 570.361904 130.291719 
Q 583.562697 130.291719 594.080208 130.291719 
" clip-path="url(#p63cd536a4c)" style="fill: none; stroke: #db2777; stroke-width: 2.4; stroke-linecap: round"/>
    <path d="M 588.880208 127.691719 
L 594.080208 130.291719 
L 588.880208 132.891719 
z
" clip-path="url(#p63cd536a4c)" style="fill: #db2777; stroke: #db2777; stroke-width: 2.4; stroke-linecap: round"/>
   </g>
   <g id="patch_84">
    <path d="M 638.761904 130.291719 
Q 651.962697 130.291719 662.480208 130.291719 
" clip-path="url(#p63cd536a4c)" style="fill: none; stroke: #db2777; stroke-width: 2.4; stroke-linecap: round"/>
    <path d="M 657.280208 127.691719 
L 662.480208 130.291719 
L 657.280208 132.891719 
z
" clip-path="url(#p63cd536a4c)" style="fill: #db2777; stroke: #db2777; stroke-width: 2.4; stroke-linecap: round"/>
   </g>
   <g id="patch_85">
    <path d="M 707.161904 130.291719 
Q 720.362697 130.291719 730.880208 130.291719 
" clip-path="url(#p63cd536a4c)" style="fill: none; stroke: #db2777; stroke-width: 2.4; stroke-linecap: round"/>
    <path d="M 725.680208 127.691719 
L 730.880208 130.291719 
L 725.680208 132.891719 
z
" clip-path="url(#p63cd536a4c)" style="fill: #db2777; stroke: #db2777; stroke-width: 2.4; stroke-linecap: round"/>
   </g>
   <g id="patch_86">
    <path d="M 775.561904 130.291719 
Q 788.762697 130.291719 799.280208 130.291719 
" clip-path="url(#p63cd536a4c)" style="fill: none; stroke: #db2777; stroke-width: 2.4; stroke-linecap: round"/>
    <path d="M 794.080208 127.691719 
L 799.280208 130.291719 
L 794.080208 132.891719 
z
" clip-path="url(#p63cd536a4c)" style="fill: #db2777; stroke: #db2777; stroke-width: 2.4; stroke-linecap: round"/>
   </g>
   <g id="patch_87">
    <path d="M 843.961904 130.291719 
Q 857.162697 130.291719 867.680208 130.291719 
" clip-path="url(#p63cd536a4c)" style="fill: none; stroke: #db2777; stroke-width: 2.4; stroke-linecap: round"/>
    <path d="M 862.480208 127.691719 
L 867.680208 130.291719 
L 862.480208 132.891719 
z
" clip-path="url(#p63cd536a4c)" style="fill: #db2777; stroke: #db2777; stroke-width: 2.4; stroke-linecap: round"/>
   </g>
   <g id="text_6">
    <text style="font-size: 12.5px; font-family: 'Microsoft YaHei', 'Microsoft YaHei UI', 'SimHei', 'Segoe UI', 'DejaVu Sans', sans-serif; text-anchor: start; fill: #475569" x="538.56" y="185.731719" transform="rotate(-0 538.56 185.731719)">电流密度 J 过大 → 金属原子被“吹”走 → 断路/短路</text>
   </g>
   <g id="text_7">
    <text style="font-weight: 700; font-size: 13.5px; font-family: 'Microsoft YaHei', 'Microsoft YaHei UI', 'SimHei', 'Segoe UI', 'DejaVu Sans', sans-serif; text-anchor: middle; fill: #0f766e" x="696.96" y="275.731719" transform="rotate(-0 696.96 275.731719)">加宽金属 / 多 via → 降低 J</text>
   </g>
   <g id="text_8">
    <text style="font-size: 12px; font-family: 'Microsoft YaHei', 'Microsoft YaHei UI', 'SimHei', 'Segoe UI', 'DejaVu Sans', sans-serif; text-anchor: start; fill: #64748b" x="538.56" y="372.179844" transform="rotate(-0 538.56 372.179844)">缓解：更密 mesh、更宽干线、更多 via、合理 pad 分布</text>
   </g>
  </g>
 </g>
 <defs>
  <clipPath id="p63cd536a4c">
   <rect x="5.76" y="9.331719" width="900" height="489.6"/>
  </clipPath>
 </defs>
</svg>
