<?xml version="1.0" encoding="utf-8" standalone="no"?>
<!DOCTYPE svg PUBLIC "-//W3C//DTD SVG 1.1//EN"
  "http://www.w3.org/Graphics/SVG/1.1/DTD/svg11.dtd">
<svg xmlns:xlink="http://www.w3.org/1999/xlink" width="688.32pt" height="486.72pt" viewBox="0 0 688.32 486.72" xmlns="http://www.w3.org/2000/svg" version="1.1">
 <metadata>
  <rdf:RDF xmlns:dc="http://purl.org/dc/elements/1.1/" xmlns:cc="http://creativecommons.org/ns#" xmlns:rdf="http://www.w3.org/1999/02/22-rdf-syntax-ns#">
   <cc:Work>
    <dc:type rdf:resource="http://purl.org/dc/dcmitype/StillImage"/>
    <dc:date>2026-06-23T15:31:36.847133</dc:date>
    <dc:format>image/svg+xml</dc:format>
    <dc:creator>
     <cc:Agent>
      <dc:title>Matplotlib v3.10.8, https://matplotlib.org/</dc:title>
     </cc:Agent>
    </dc:creator>
   </cc:Work>
  </rdf:RDF>
 </metadata>
 <defs>
  <style type="text/css">*{stroke-linejoin: round; stroke-linecap: butt}</style>
 </defs>
 <g id="figure_1">
  <g id="patch_1">
   <path d="M 0 486.72 
L 688.32 486.72 
L 688.32 0 
L 0 0 
z
" style="fill: #ffffff"/>
  </g>
  <g id="axes_1">
   <g id="patch_2">
    <path d="M 5.76 480.96 
L 682.56 480.96 
L 682.56 5.76 
L 5.76 5.76 
z
" clip-path="url(#pe1bb7f6e51)" style="fill: #ffffff"/>
   </g>
   <g id="patch_3">
    <path d="M 43.2 394.56 
L 292.32 394.56 
Q 300.96 394.56 300.96 385.92 
L 300.96 115.2 
Q 300.96 106.56 292.32 106.56 
L 43.2 106.56 
Q 34.56 106.56 34.56 115.2 
L 34.56 385.92 
Q 34.56 394.56 43.2 394.56 
z
" clip-path="url(#pe1bb7f6e51)" style="fill: #d4eeff; opacity: 0.5; stroke: #00a2ff; stroke-width: 1.6; stroke-linejoin: miter"/>
   </g>
   <g id="patch_4">
    <path d="M 396 394.56 
L 645.12 394.56 
Q 653.76 394.56 653.76 385.92 
L 653.76 115.2 
Q 653.76 106.56 645.12 106.56 
L 396 106.56 
Q 387.36 106.56 387.36 115.2 
L 387.36 385.92 
Q 387.36 394.56 396 394.56 
z
" clip-path="url(#pe1bb7f6e51)" style="fill: #ecdbff; opacity: 0.5; stroke: #a259ff; stroke-width: 1.6; stroke-linejoin: miter"/>
   </g>
   <g id="text_1">
    <text style="font-weight: 700; font-size: 13px; font-family: 'Microsoft YaHei', 'Microsoft YaHei UI', 'SimHei', 'Segoe UI', 'DejaVu Sans', sans-serif; text-anchor: middle; fill: #005fa3" x="167.76" y="128.16" transform="rotate(-0 167.76 128.16)">Domain A · always-on</text>
   </g>
   <g id="text_2">
    <text style="font-weight: 700; font-size: 13px; font-family: 'Microsoft YaHei', 'Microsoft YaHei UI', 'SimHei', 'Segoe UI', 'DejaVu Sans', sans-serif; text-anchor: middle; fill: #6a2eb8" x="520.56" y="128.16" transform="rotate(-0 520.56 128.16)">Domain B · switchable</text>
   </g>
   <g id="patch_5">
    <path d="M 203.162563 236.210043 
Q 254.160082 237.060001 302.698268 237.868971 
" clip-path="url(#pe1bb7f6e51)" style="fill: none; stroke: #101828; stroke-width: 2.2; stroke-linecap: round"/>
    <path d="M 296.749094 234.769402 
L 302.698268 237.868971 
L 296.649108 240.768568 
z
" clip-path="url(#pe1bb7f6e51)" style="fill: #101828; stroke: #101828; stroke-width: 2.2; stroke-linecap: round"/>
   </g>
   <g id="patch_6">
    <path d="M 383.160938 237.96 
Q 384.540469 237.96 383.460325 237.96 
" clip-path="url(#pe1bb7f6e51)" style="fill: none; stroke: #101828; stroke-width: 2.2; stroke-linecap: round"/>
    <path d="M 377.460325 234.96 
L 383.460325 237.96 
L 377.460325 240.96 
z
" clip-path="url(#pe1bb7f6e51)" style="fill: #101828; stroke: #101828; stroke-width: 2.2; stroke-linecap: round"/>
   </g>
   <g id="patch_7">
    <path d="M 460.91373 237.781802 
Q 473.03852 237.060088 482.707981 236.484525 
" clip-path="url(#pe1bb7f6e51)" style="fill: none; stroke: #101828; stroke-width: 2.2; stroke-linecap: round"/>
    <path d="M 476.540326 233.846337 
L 482.707981 236.484525 
L 476.896838 239.835736 
z
" clip-path="url(#pe1bb7f6e51)" style="fill: #101828; stroke: #101828; stroke-width: 2.2; stroke-linecap: round"/>
   </g>
   <g id="patch_8">
    <path d="M 476.727847 99.816592 
Q 497.160468 102.960072 515.162017 105.729541 
" clip-path="url(#pe1bb7f6e51)" style="fill: none; stroke: #ff9500; stroke-width: 2.2; stroke-linecap: round"/>
    <path d="M 509.687958 101.852083 
L 515.162017 105.729541 
L 508.775615 107.782313 
z
" clip-path="url(#pe1bb7f6e51)" style="fill: #ff9500; stroke: #ff9500; stroke-width: 2.2; stroke-linecap: round"/>
   </g>
   <g id="text_3">
    <text style="font-size: 11px; font-family: 'Microsoft YaHei', 'Microsoft YaHei UI', 'SimHei', 'Segoe UI', 'DejaVu Sans', sans-serif; text-anchor: middle; fill: #667085" x="344.16" y="441.36" transform="rotate(-0 344.16 441.36)">UPF：power_domain · isolation · level_shifter · retention</text>
   </g>
   <g id="patch_9">
    <path d="M 73.4 288.16 
L 192.92 288.16 
Q 201.56 288.16 201.56 279.52 
L 201.56 196 
Q 201.56 187.36 192.92 187.36 
L 73.4 187.36 
Q 64.76 187.36 64.76 196 
L 64.76 279.52 
Q 64.76 288.16 73.4 288.16 
z
" clip-path="url(#pe1bb7f6e51)" style="fill: #101828; opacity: 0.16"/>
    <path d="M 72 286.56 
L 191.52 286.56 
Q 200.16 286.56 200.16 277.92 
L 200.16 194.4 
Q 200.16 185.76 191.52 185.76 
L 72 185.76 
Q 63.36 185.76 63.36 194.4 
L 63.36 277.92 
Q 63.36 286.56 72 286.56 
z
" clip-path="url(#pe1bb7f6e51)" style="fill: #d4eeff; stroke: #00a2ff; stroke-width: 1.8; stroke-linejoin: miter"/>
   </g>
   <g id="patch_10">
    <path d="M 73.4 381.76 
L 192.92 381.76 
Q 201.56 381.76 201.56 373.12 
L 201.56 318.4 
Q 201.56 309.76 192.92 309.76 
L 73.4 309.76 
Q 64.76 309.76 64.76 318.4 
L 64.76 373.12 
Q 64.76 381.76 73.4 381.76 
z
" clip-path="url(#pe1bb7f6e51)" style="fill: #101828; opacity: 0.16"/>
    <path d="M 72 380.16 
L 191.52 380.16 
Q 200.16 380.16 200.16 371.52 
L 200.16 316.8 
Q 200.16 308.16 191.52 308.16 
L 72 308.16 
Q 63.36 308.16 63.36 316.8 
L 63.36 371.52 
Q 63.36 380.16 72 380.16 
z
" clip-path="url(#pe1bb7f6e51)" style="fill: #eef1f4; stroke: #94a3b8; stroke-width: 1.8; stroke-linejoin: miter"/>
   </g>
   <g id="patch_11">
    <path d="M 498.2 288.16 
L 617.72 288.16 
Q 626.36 288.16 626.36 279.52 
L 626.36 196 
Q 626.36 187.36 617.72 187.36 
L 498.2 187.36 
Q 489.56 187.36 489.56 196 
L 489.56 279.52 
Q 489.56 288.16 498.2 288.16 
z
" clip-path="url(#pe1bb7f6e51)" style="fill: #101828; opacity: 0.16"/>
    <path d="M 496.8 286.56 
L 616.32 286.56 
Q 624.96 286.56 624.96 277.92 
L 624.96 194.4 
Q 624.96 185.76 616.32 185.76 
L 496.8 185.76 
Q 488.16 185.76 488.16 194.4 
L 488.16 277.92 
Q 488.16 286.56 496.8 286.56 
z
" clip-path="url(#pe1bb7f6e51)" style="fill: #ecdbff; stroke: #a259ff; stroke-width: 1.8; stroke-linejoin: miter"/>
   </g>
   <g id="patch_12">
    <path d="M 498.2 381.76 
L 617.72 381.76 
Q 626.36 381.76 626.36 373.12 
L 626.36 318.4 
Q 626.36 309.76 617.72 309.76 
L 498.2 309.76 
Q 489.56 309.76 489.56 318.4 
L 489.56 373.12 
Q 489.56 381.76 498.2 381.76 
z
" clip-path="url(#pe1bb7f6e51)" style="fill: #101828; opacity: 0.16"/>
    <path d="M 496.8 380.16 
L 616.32 380.16 
Q 624.96 380.16 624.96 371.52 
L 624.96 316.8 
Q 624.96 308.16 616.32 308.16 
L 496.8 308.16 
Q 488.16 308.16 488.16 316.8 
L 488.16 371.52 
Q 488.16 380.16 496.8 380.16 
z
" clip-path="url(#pe1bb7f6e51)" style="fill: #eef1f4; stroke: #94a3b8; stroke-width: 1.8; stroke-linejoin: miter"/>
   </g>
   <g id="patch_13">
    <path d="M 318.2 277.36 
L 372.92 277.36 
Q 381.56 277.36 381.56 268.72 
L 381.56 210.4 
Q 381.56 201.76 372.92 201.76 
L 318.2 201.76 
Q 309.56 201.76 309.56 210.4 
L 309.56 268.72 
Q 309.56 277.36 318.2 277.36 
z
" clip-path="url(#pe1bb7f6e51)" style="fill: #101828; opacity: 0.16"/>
    <path d="M 316.8 275.76 
L 371.52 275.76 
Q 380.16 275.76 380.16 267.12 
L 380.16 208.8 
Q 380.16 200.16 371.52 200.16 
L 316.8 200.16 
Q 308.16 200.16 308.16 208.8 
L 308.16 267.12 
Q 308.16 275.76 316.8 275.76 
z
" clip-path="url(#pe1bb7f6e51)" style="fill: #ffd8d5; stroke: #ff3b30; stroke-width: 1.8; stroke-linejoin: miter"/>
   </g>
   <g id="patch_14">
    <path d="M 395.96 277.36 
L 450.68 277.36 
Q 459.32 277.36 459.32 268.72 
L 459.32 210.4 
Q 459.32 201.76 450.68 201.76 
L 395.96 201.76 
Q 387.32 201.76 387.32 210.4 
L 387.32 268.72 
Q 387.32 277.36 395.96 277.36 
z
" clip-path="url(#pe1bb7f6e51)" style="fill: #101828; opacity: 0.16"/>
    <path d="M 394.56 275.76 
L 449.28 275.76 
Q 457.92 275.76 457.92 267.12 
L 457.92 208.8 
Q 457.92 200.16 449.28 200.16 
L 394.56 200.16 
Q 385.92 200.16 385.92 208.8 
L 385.92 267.12 
Q 385.92 275.76 394.56 275.76 
z
" clip-path="url(#pe1bb7f6e51)" style="fill: #d2f5ec; stroke: #15c39a; stroke-width: 1.8; stroke-linejoin: miter"/>
   </g>
   <g id="patch_15">
    <path d="M 397.4 100.96 
L 552.92 100.96 
Q 561.56 100.96 561.56 92.32 
L 561.56 48.4 
Q 561.56 39.76 552.92 39.76 
L 397.4 39.76 
Q 388.76 39.76 388.76 48.4 
L 388.76 92.32 
Q 388.76 100.96 397.4 100.96 
z
" clip-path="url(#pe1bb7f6e51)" style="fill: #101828; opacity: 0.16"/>
    <path d="M 396 99.36 
L 551.52 99.36 
Q 560.16 99.36 560.16 90.72 
L 560.16 46.8 
Q 560.16 38.16 551.52 38.16 
L 396 38.16 
Q 387.36 38.16 387.36 46.8 
L 387.36 90.72 
Q 387.36 99.36 396 99.36 
z
" clip-path="url(#pe1bb7f6e51)" style="fill: #ffe9cc; stroke: #ff9500; stroke-width: 1.8; stroke-linejoin: miter"/>
   </g>
   <g id="text_4">
    <text style="font-weight: 700; font-size: 13px; font-family: 'Microsoft YaHei', 'Microsoft YaHei UI', 'SimHei', 'Segoe UI', 'DejaVu Sans', sans-serif; text-anchor: middle; fill: #005fa3" x="131.76" y="239.68625" transform="rotate(-0 131.76 239.68625)">Logic A</text>
   </g>
   <g id="text_5">
    <text style="font-weight: 700; font-size: 10.5px; font-family: 'Microsoft YaHei', 'Microsoft YaHei UI', 'SimHei', 'Segoe UI', 'DejaVu Sans', sans-serif; text-anchor: middle; fill: #101828" x="131.76" y="347.092617" transform="rotate(-0 131.76 347.092617)">Always-on Buf</text>
   </g>
   <g id="text_6">
    <text style="font-weight: 700; font-size: 13px; font-family: 'Microsoft YaHei', 'Microsoft YaHei UI', 'SimHei', 'Segoe UI', 'DejaVu Sans', sans-serif; text-anchor: middle; fill: #6a2eb8" x="556.56" y="239.68625" transform="rotate(-0 556.56 239.68625)">Logic B</text>
   </g>
   <g id="text_7">
    <text style="font-weight: 700; font-size: 10.5px; font-family: 'Microsoft YaHei', 'Microsoft YaHei UI', 'SimHei', 'Segoe UI', 'DejaVu Sans', sans-serif; text-anchor: middle; fill: #101828" x="556.56" y="347.051602" transform="rotate(-0 556.56 347.051602)">Retention FF</text>
   </g>
   <g id="text_8">
    <text style="font-weight: 700; font-size: 13px; font-family: 'Microsoft YaHei', 'Microsoft YaHei UI', 'SimHei', 'Segoe UI', 'DejaVu Sans', sans-serif; text-anchor: middle; fill: #b3211a" x="344.16" y="241.540078" transform="rotate(-0 344.16 241.540078)">LS</text>
   </g>
   <g id="text_9">
    <text style="font-weight: 700; font-size: 13px; font-family: 'Microsoft YaHei', 'Microsoft YaHei UI', 'SimHei', 'Segoe UI', 'DejaVu Sans', sans-serif; text-anchor: middle; fill: #0a7c61" x="421.92" y="241.540078" transform="rotate(-0 421.92 241.540078)">ISO</text>
   </g>
   <g id="text_10">
    <text style="font-weight: 700; font-size: 11.5px; font-family: 'Microsoft YaHei', 'Microsoft YaHei UI', 'SimHei', 'Segoe UI', 'DejaVu Sans', sans-serif; text-anchor: middle; fill: #a85e00" x="473.76" y="71.926992" transform="rotate(-0 473.76 71.926992)">Power Switch</text>
   </g>
  </g>
 </g>
 <defs>
  <clipPath id="pe1bb7f6e51">
   <rect x="5.76" y="5.76" width="676.8" height="475.2"/>
  </clipPath>
 </defs>
</svg>
