<?xml version="1.0" encoding="utf-8" standalone="no"?>
<!DOCTYPE svg PUBLIC "-//W3C//DTD SVG 1.1//EN"
  "http://www.w3.org/Graphics/SVG/1.1/DTD/svg11.dtd">
<svg xmlns:xlink="http://www.w3.org/1999/xlink" width="875.52pt" height="541.352188pt" viewBox="0 0 875.52 541.352188" xmlns="http://www.w3.org/2000/svg" version="1.1">
 <metadata>
  <rdf:RDF xmlns:dc="http://purl.org/dc/elements/1.1/" xmlns:cc="http://creativecommons.org/ns#" xmlns:rdf="http://www.w3.org/1999/02/22-rdf-syntax-ns#">
   <cc:Work>
    <dc:type rdf:resource="http://purl.org/dc/dcmitype/StillImage"/>
    <dc:date>2026-06-22T14:59:37.165104</dc:date>
    <dc:format>image/svg+xml</dc:format>
    <dc:creator>
     <cc:Agent>
      <dc:title>Matplotlib v3.10.8, https://matplotlib.org/</dc:title>
     </cc:Agent>
    </dc:creator>
   </cc:Work>
  </rdf:RDF>
 </metadata>
 <defs>
  <style type="text/css">*{stroke-linejoin: round; stroke-linecap: butt}</style>
 </defs>
 <g id="figure_1">
  <g id="patch_1">
   <path d="M 0 541.352188 
L 875.52 541.352188 
L 875.52 0 
L 0 0 
z
" style="fill: #ffffff"/>
  </g>
  <g id="axes_1">
   <g id="patch_2">
    <path d="M 5.76 535.592188 
L 869.76 535.592188 
L 869.76 31.592188 
L 5.76 31.592188 
z
" clip-path="url(#p66d70bfb92)" style="fill: #ffffff"/>
   </g>
   <g id="patch_3">
    <path d="M 25.92 524.072188 
L 849.6 524.072188 
Q 858.24 524.072188 858.24 515.432188 
L 858.24 51.752188 
Q 858.24 43.112188 849.6 43.112188 
L 25.92 43.112188 
Q 17.28 43.112188 17.28 51.752188 
L 17.28 515.432188 
Q 17.28 524.072188 25.92 524.072188 
L 25.92 524.072188 
z
" clip-path="url(#p66d70bfb92)" style="fill: none; stroke: #cbd5e1; stroke-width: 1.4; stroke-linejoin: miter"/>
   </g>
   <g id="patch_4">
    <path d="M 57.6 449.192188 
L 393.12 449.192188 
Q 401.76 449.192188 401.76 440.552188 
L 401.76 126.632188 
Q 401.76 117.992188 393.12 117.992188 
L 57.6 117.992188 
Q 48.96 117.992188 48.96 126.632188 
L 48.96 440.552188 
Q 48.96 449.192188 57.6 449.192188 
z
" clip-path="url(#p66d70bfb92)" style="fill: #dbeafe; opacity: 0.5; stroke: #2563eb; stroke-width: 1.8; stroke-linejoin: miter"/>
   </g>
   <g id="patch_5">
    <path d="M 496.8 449.192188 
L 817.92 449.192188 
Q 826.56 449.192188 826.56 440.552188 
L 826.56 126.632188 
Q 826.56 117.992188 817.92 117.992188 
L 496.8 117.992188 
Q 488.16 117.992188 488.16 126.632188 
L 488.16 440.552188 
Q 488.16 449.192188 496.8 449.192188 
z
" clip-path="url(#p66d70bfb92)" style="fill: #ede9fe; opacity: 0.5; stroke: #7c3aed; stroke-width: 1.8; stroke-linejoin: miter"/>
   </g>
   <g id="text_1">
    <text style="font-weight: 700; font-size: 13.5px; font-family: 'Microsoft YaHei', 'Microsoft YaHei UI', 'SimHei', 'Segoe UI', 'DejaVu Sans', sans-serif; text-anchor: middle; fill: #1e3a8a" x="225.36" y="143.192187" transform="rotate(-0 225.36 143.192187)">Domain A · VDD1 (always-on)</text>
   </g>
   <g id="text_2">
    <text style="font-weight: 700; font-size: 13.5px; font-family: 'Microsoft YaHei', 'Microsoft YaHei UI', 'SimHei', 'Segoe UI', 'DejaVu Sans', sans-serif; text-anchor: middle; fill: #5b21b6" x="657.36" y="143.192187" transform="rotate(-0 657.36 143.192187)">Domain B · VDD2 (switchable)</text>
   </g>
   <g id="patch_6">
    <path d="M 253.559817 272.792188 
Q 327.961271 272.792188 399.679443 272.792188 
" clip-path="url(#p66d70bfb92)" style="fill: none; stroke: #1e293b; stroke-width: 2.4; stroke-linecap: round"/>
    <path d="M 393.679443 269.792188 
L 399.679443 272.792188 
L 393.679443 275.792188 
z
" clip-path="url(#p66d70bfb92)" style="fill: #1e293b; stroke: #1e293b; stroke-width: 2.4; stroke-linecap: round"/>
   </g>
   <g id="patch_7">
    <path d="M 501.958828 272.792188 
Q 506.160505 272.792188 507.678901 272.792188 
" clip-path="url(#p66d70bfb92)" style="fill: none; stroke: #1e293b; stroke-width: 2.4; stroke-linecap: round"/>
    <path d="M 501.678901 269.792188 
L 507.678901 272.792188 
L 501.678901 275.792188 
z
" clip-path="url(#p66d70bfb92)" style="fill: #1e293b; stroke: #1e293b; stroke-width: 2.4; stroke-linecap: round"/>
   </g>
   <g id="patch_8">
    <path d="M 599.158828 272.792188 
Q 624.958082 272.792188 648.074054 272.792188 
" clip-path="url(#p66d70bfb92)" style="fill: none; stroke: #1e293b; stroke-width: 2.4; stroke-linecap: round"/>
    <path d="M 642.074054 269.792188 
L 648.074054 272.792188 
L 642.074054 275.792188 
z
" clip-path="url(#p66d70bfb92)" style="fill: #1e293b; stroke: #1e293b; stroke-width: 2.4; stroke-linecap: round"/>
   </g>
   <g id="text_3">
    <text style="font-weight: 700; font-size: 12.5px; font-family: 'Microsoft YaHei', 'Microsoft YaHei UI', 'SimHei', 'Segoe UI', 'DejaVu Sans', sans-serif; text-anchor: middle; fill: #1e293b" x="581.76" y="15.752187" transform="rotate(-0 581.76 15.752187)">VDD</text>
   </g>
   <g id="patch_9">
    <path d="M 581.76 27.391016 
Q 581.76 31.592693 581.76 33.781908 
" clip-path="url(#p66d70bfb92)" style="fill: none; stroke: #64748b; stroke-width: 1.8; stroke-linecap: round"/>
    <path d="M 584.76 27.781908 
L 581.76 33.781908 
L 578.76 27.781908 
z
" clip-path="url(#p66d70bfb92)" style="fill: #64748b; stroke: #64748b; stroke-width: 1.8; stroke-linecap: round"/>
   </g>
   <g id="patch_10">
    <path d="M 584.445059 104.934717 
Q 617.759298 121.591837 648.673538 137.048957 
" clip-path="url(#p66d70bfb92)" style="fill: none; stroke: #f59e0b; stroke-width: 2.4; stroke-linecap: round"/>
    <path d="M 644.648616 131.682394 
L 648.673538 137.048957 
L 641.965334 137.048957 
z
" clip-path="url(#p66d70bfb92)" style="fill: #f59e0b; stroke: #f59e0b; stroke-width: 2.4; stroke-linecap: round"/>
   </g>
   <g id="text_4">
    <text style="font-size: 12px; font-family: 'Microsoft YaHei', 'Microsoft YaHei UI', 'SimHei', 'Segoe UI', 'DejaVu Sans', sans-serif; text-anchor: middle; fill: #64748b" x="437.76" y="485.192188" transform="rotate(-0 437.76 485.192188)">UPF：create_power_domain · set_isolation · set_level_shifter · 关断时 retention FF 保状态</text>
   </g>
   <g id="patch_11">
    <path d="M 87.8 328.392188 
L 243.32 328.392188 
Q 251.96 328.392188 251.96 319.752188 
L 251.96 229.032188 
Q 251.96 220.392188 243.32 220.392188 
L 87.8 220.392188 
Q 79.16 220.392188 79.16 229.032188 
L 79.16 319.752188 
Q 79.16 328.392188 87.8 328.392188 
z
" clip-path="url(#p66d70bfb92)" style="fill: #0f172a; opacity: 0.16"/>
    <path d="M 86.4 326.792188 
L 241.92 326.792188 
Q 250.56 326.792188 250.56 318.152188 
L 250.56 227.432187 
Q 250.56 218.792188 241.92 218.792188 
L 86.4 218.792188 
Q 77.76 218.792188 77.76 227.432187 
L 77.76 318.152188 
Q 77.76 326.792188 86.4 326.792188 
z
" clip-path="url(#p66d70bfb92)" style="fill: #dbeafe; stroke: #2563eb; stroke-width: 1.8; stroke-linejoin: miter"/>
   </g>
   <g id="patch_12">
    <path d="M 87.8 436.392188 
L 243.32 436.392188 
Q 251.96 436.392188 251.96 427.752188 
L 251.96 365.832188 
Q 251.96 357.192188 243.32 357.192188 
L 87.8 357.192188 
Q 79.16 357.192188 79.16 365.832188 
L 79.16 427.752188 
Q 79.16 436.392188 87.8 436.392188 
z
" clip-path="url(#p66d70bfb92)" style="fill: #0f172a; opacity: 0.16"/>
    <path d="M 86.4 434.792188 
L 241.92 434.792188 
Q 250.56 434.792188 250.56 426.152188 
L 250.56 364.232188 
Q 250.56 355.592188 241.92 355.592188 
L 86.4 355.592188 
Q 77.76 355.592188 77.76 364.232188 
L 77.76 426.152188 
Q 77.76 434.792188 86.4 434.792188 
z
" clip-path="url(#p66d70bfb92)" style="fill: #f1f5f9; stroke: #94a3b8; stroke-width: 1.8; stroke-linejoin: miter"/>
   </g>
   <g id="patch_13">
    <path d="M 663.8 328.392188 
L 797.72 328.392188 
Q 806.36 328.392188 806.36 319.752188 
L 806.36 229.032188 
Q 806.36 220.392188 797.72 220.392188 
L 663.8 220.392188 
Q 655.16 220.392188 655.16 229.032188 
L 655.16 319.752188 
Q 655.16 328.392188 663.8 328.392188 
z
" clip-path="url(#p66d70bfb92)" style="fill: #0f172a; opacity: 0.16"/>
    <path d="M 662.4 326.792188 
L 796.32 326.792188 
Q 804.96 326.792188 804.96 318.152188 
L 804.96 227.432187 
Q 804.96 218.792188 796.32 218.792188 
L 662.4 218.792188 
Q 653.76 218.792188 653.76 227.432187 
L 653.76 318.152188 
Q 653.76 326.792188 662.4 326.792188 
z
" clip-path="url(#p66d70bfb92)" style="fill: #ede9fe; stroke: #7c3aed; stroke-width: 1.8; stroke-linejoin: miter"/>
   </g>
   <g id="patch_14">
    <path d="M 663.8 436.392188 
L 797.72 436.392188 
Q 806.36 436.392188 806.36 427.752188 
L 806.36 365.832188 
Q 806.36 357.192188 797.72 357.192188 
L 663.8 357.192188 
Q 655.16 357.192188 655.16 365.832188 
L 655.16 427.752188 
Q 655.16 436.392188 663.8 436.392188 
z
" clip-path="url(#p66d70bfb92)" style="fill: #0f172a; opacity: 0.16"/>
    <path d="M 662.4 434.792188 
L 796.32 434.792188 
Q 804.96 434.792188 804.96 426.152188 
L 804.96 364.232188 
Q 804.96 355.592188 796.32 355.592188 
L 662.4 355.592188 
Q 653.76 355.592188 653.76 364.232188 
L 653.76 426.152188 
Q 653.76 434.792188 662.4 434.792188 
z
" clip-path="url(#p66d70bfb92)" style="fill: #f1f5f9; stroke: #94a3b8; stroke-width: 1.8; stroke-linejoin: miter"/>
   </g>
   <g id="patch_15">
    <path d="M 415.4 313.992188 
L 491.72 313.992188 
Q 500.36 313.992188 500.36 305.352188 
L 500.36 243.432188 
Q 500.36 234.792188 491.72 234.792188 
L 415.4 234.792188 
Q 406.76 234.792188 406.76 243.432188 
L 406.76 305.352188 
Q 406.76 313.992188 415.4 313.992188 
z
" clip-path="url(#p66d70bfb92)" style="fill: #0f172a; opacity: 0.16"/>
    <path d="M 414 312.392187 
L 490.32 312.392187 
Q 498.96 312.392187 498.96 303.752187 
L 498.96 241.832188 
Q 498.96 233.192187 490.32 233.192187 
L 414 233.192187 
Q 405.36 233.192187 405.36 241.832188 
L 405.36 303.752187 
Q 405.36 312.392187 414 312.392187 
z
" clip-path="url(#p66d70bfb92)" style="fill: #fce7f3; stroke: #db2777; stroke-width: 1.8; stroke-linejoin: miter"/>
   </g>
   <g id="patch_16">
    <path d="M 523.4 313.992188 
L 588.92 313.992188 
Q 597.56 313.992188 597.56 305.352188 
L 597.56 243.432188 
Q 597.56 234.792188 588.92 234.792188 
L 523.4 234.792188 
Q 514.76 234.792188 514.76 243.432188 
L 514.76 305.352188 
Q 514.76 313.992188 523.4 313.992188 
z
" clip-path="url(#p66d70bfb92)" style="fill: #0f172a; opacity: 0.16"/>
    <path d="M 522 312.392187 
L 587.52 312.392187 
Q 596.16 312.392187 596.16 303.752187 
L 596.16 241.832188 
Q 596.16 233.192187 587.52 233.192187 
L 522 233.192187 
Q 513.36 233.192187 513.36 241.832188 
L 513.36 303.752187 
Q 513.36 312.392187 522 312.392187 
z
" clip-path="url(#p66d70bfb92)" style="fill: #ccfbf1; stroke: #14b8a6; stroke-width: 1.8; stroke-linejoin: miter"/>
   </g>
   <g id="patch_17">
    <path d="M 498.2 105.192188 
L 668.12 105.192188 
Q 676.76 105.192188 676.76 96.552188 
L 676.76 49.032188 
Q 676.76 40.392188 668.12 40.392188 
L 498.2 40.392188 
Q 489.56 40.392188 489.56 49.032188 
L 489.56 96.552188 
Q 489.56 105.192188 498.2 105.192188 
z
" clip-path="url(#p66d70bfb92)" style="fill: #0f172a; opacity: 0.16"/>
    <path d="M 496.8 103.592188 
L 666.72 103.592188 
Q 675.36 103.592188 675.36 94.952188 
L 675.36 47.432187 
Q 675.36 38.792188 666.72 38.792188 
L 496.8 38.792188 
Q 488.16 38.792188 488.16 47.432187 
L 488.16 94.952188 
Q 488.16 103.592188 496.8 103.592188 
z
" clip-path="url(#p66d70bfb92)" style="fill: #fef3c7; stroke: #f59e0b; stroke-width: 1.8; stroke-linejoin: miter"/>
   </g>
   <g id="text_5">
    <text style="font-weight: 700; font-size: 15px; font-family: 'Microsoft YaHei', 'Microsoft YaHei UI', 'SimHei', 'Segoe UI', 'DejaVu Sans', sans-serif; text-anchor: middle; fill: #1e3a8a" x="164.16" y="276.860938" transform="rotate(-0 164.16 276.860938)">Logic A</text>
   </g>
   <g id="text_6">
    <text style="font-weight: 700; font-size: 11.5px; font-family: 'Microsoft YaHei', 'Microsoft YaHei UI', 'SimHei', 'Segoe UI', 'DejaVu Sans', sans-serif; text-anchor: middle; fill: #1e293b" x="164.16" y="398.404102" transform="rotate(-0 164.16 398.404102)">Always-on Buf</text>
   </g>
   <g id="text_7">
    <text style="font-weight: 700; font-size: 15px; font-family: 'Microsoft YaHei', 'Microsoft YaHei UI', 'SimHei', 'Segoe UI', 'DejaVu Sans', sans-serif; text-anchor: middle; fill: #5b21b6" x="729.36" y="276.860938" transform="rotate(-0 729.36 276.860938)">Logic B</text>
   </g>
   <g id="text_8">
    <text style="font-weight: 700; font-size: 11.5px; font-family: 'Microsoft YaHei', 'Microsoft YaHei UI', 'SimHei', 'Segoe UI', 'DejaVu Sans', sans-serif; text-anchor: middle; fill: #1e293b" x="729.36" y="398.35918" transform="rotate(-0 729.36 398.35918)">Retention FF</text>
   </g>
   <g id="text_9">
    <text style="font-weight: 700; font-size: 14px; font-family: 'Microsoft YaHei', 'Microsoft YaHei UI', 'SimHei', 'Segoe UI', 'DejaVu Sans', sans-serif; text-anchor: middle; fill: #9d174d" x="452.16" y="264.767656" transform="rotate(-0 452.16 264.767656)">LS</text>
   </g>
   <g id="text_10">
    <text style="font-size: 9px; font-family: 'Microsoft YaHei', 'Microsoft YaHei UI', 'SimHei', 'Segoe UI', 'DejaVu Sans', sans-serif; text-anchor: middle; fill: #9d174d; opacity: 0.92" x="452.16" y="292.694703" transform="rotate(-0 452.16 292.694703)">电平转换</text>
   </g>
   <g id="text_11">
    <text style="font-weight: 700; font-size: 13px; font-family: 'Microsoft YaHei', 'Microsoft YaHei UI', 'SimHei', 'Segoe UI', 'DejaVu Sans', sans-serif; text-anchor: middle; fill: #0f766e" x="554.76" y="264.492266" transform="rotate(-0 554.76 264.492266)">ISO</text>
   </g>
   <g id="text_12">
    <text style="font-size: 9px; font-family: 'Microsoft YaHei', 'Microsoft YaHei UI', 'SimHei', 'Segoe UI', 'DejaVu Sans', sans-serif; text-anchor: middle; fill: #0f766e; opacity: 0.92" x="554.76" y="292.694703" transform="rotate(-0 554.76 292.694703)">隔离</text>
   </g>
   <g id="text_13">
    <text style="font-weight: 700; font-size: 12.5px; font-family: 'Microsoft YaHei', 'Microsoft YaHei UI', 'SimHei', 'Segoe UI', 'DejaVu Sans', sans-serif; text-anchor: middle; fill: #92400e" x="581.76" y="64.91457" transform="rotate(-0 581.76 64.91457)">Power Switch</text>
   </g>
   <g id="text_14">
    <text style="font-size: 9px; font-family: 'Microsoft YaHei', 'Microsoft YaHei UI', 'SimHei', 'Segoe UI', 'DejaVu Sans', sans-serif; text-anchor: middle; fill: #92400e; opacity: 0.92" x="581.76" y="87.926703" transform="rotate(-0 581.76 87.926703)">header / MTCMOS</text>
   </g>
  </g>
 </g>
 <defs>
  <clipPath id="p66d70bfb92">
   <rect x="5.76" y="31.592188" width="864" height="504"/>
  </clipPath>
 </defs>
</svg>
