<?xml version="1.0" encoding="utf-8" standalone="no"?>
<!DOCTYPE svg PUBLIC "-//W3C//DTD SVG 1.1//EN"
  "http://www.w3.org/Graphics/SVG/1.1/DTD/svg11.dtd">
<svg xmlns:xlink="http://www.w3.org/1999/xlink" width="659.52pt" height="472.32pt" viewBox="0 0 659.52 472.32" xmlns="http://www.w3.org/2000/svg" version="1.1">
 <metadata>
  <rdf:RDF xmlns:dc="http://purl.org/dc/elements/1.1/" xmlns:cc="http://creativecommons.org/ns#" xmlns:rdf="http://www.w3.org/1999/02/22-rdf-syntax-ns#">
   <cc:Work>
    <dc:type rdf:resource="http://purl.org/dc/dcmitype/StillImage"/>
    <dc:date>2026-06-23T18:31:49.567509</dc:date>
    <dc:format>image/svg+xml</dc:format>
    <dc:creator>
     <cc:Agent>
      <dc:title>Matplotlib v3.10.8, https://matplotlib.org/</dc:title>
     </cc:Agent>
    </dc:creator>
   </cc:Work>
  </rdf:RDF>
 </metadata>
 <defs>
  <style type="text/css">*{stroke-linejoin: round; stroke-linecap: butt}</style>
 </defs>
 <g id="figure_1">
  <g id="patch_1">
   <path d="M 0 472.32 
L 659.52 472.32 
L 659.52 0 
L 0 0 
z
" style="fill: #ffffff"/>
  </g>
  <g id="axes_1">
   <g id="patch_2">
    <path d="M 5.76 466.56 
L 653.76 466.56 
L 653.76 5.76 
L 5.76 5.76 
z
" clip-path="url(#p990c6b6a69)" style="fill: #ffffff"/>
   </g>
   <g id="patch_3">
    <path d="M 27.36 236.16 
L 632.16 236.16 
L 632.16 20.16 
L 27.36 20.16 
L 27.36 236.16 
z
" clip-path="url(#p990c6b6a69)" style="fill: none; stroke-dasharray: 5.6,4.2; stroke-dashoffset: 0; stroke: #8FA1B8; stroke-width: 1.4; stroke-linejoin: miter"/>
   </g>
   <g id="patch_4">
    <path d="M 51.8 208.96 
L 228.92 208.96 
Q 237.56 208.96 237.56 200.32 
L 237.56 73.6 
Q 237.56 64.96 228.92 64.96 
L 51.8 64.96 
Q 43.16 64.96 43.16 73.6 
L 43.16 200.32 
Q 43.16 208.96 51.8 208.96 
z
" clip-path="url(#p990c6b6a69)" style="fill: #111827; opacity: 0.16"/>
    <path d="M 50.4 207.36 
L 227.52 207.36 
Q 236.16 207.36 236.16 198.72 
L 236.16 72 
Q 236.16 63.36 227.52 63.36 
L 50.4 63.36 
Q 41.76 63.36 41.76 72 
L 41.76 198.72 
Q 41.76 207.36 50.4 207.36 
z
" clip-path="url(#p990c6b6a69)" style="fill: #ffffff; stroke: #087C89; stroke-width: 1.8; stroke-linejoin: miter"/>
   </g>
   <g id="patch_5">
    <path d="M 433.4 208.96 
L 610.52 208.96 
Q 619.16 208.96 619.16 200.32 
L 619.16 73.6 
Q 619.16 64.96 610.52 64.96 
L 433.4 64.96 
Q 424.76 64.96 424.76 73.6 
L 424.76 200.32 
Q 424.76 208.96 433.4 208.96 
z
" clip-path="url(#p990c6b6a69)" style="fill: #111827; opacity: 0.16"/>
    <path d="M 432 207.36 
L 609.12 207.36 
Q 617.76 207.36 617.76 198.72 
L 617.76 72 
Q 617.76 63.36 609.12 63.36 
L 432 63.36 
Q 423.36 63.36 423.36 72 
L 423.36 198.72 
Q 423.36 207.36 432 207.36 
z
" clip-path="url(#p990c6b6a69)" style="fill: #ffffff; stroke: #087C89; stroke-width: 1.8; stroke-linejoin: miter"/>
   </g>
   <g id="text_1">
    <text style="font-size: 15px; font-family: 'Microsoft YaHei', 'Microsoft YaHei UI', 'SimHei', 'Segoe UI', 'DejaVu Sans', sans-serif; text-anchor: middle; fill: #243447" x="329.76" y="38.16" transform="rotate(-0 329.76 38.16)">顶层</text>
   </g>
   <g id="patch_6">
    <path d="M 239.162124 135.36 
Q 329.761587 135.36 417.454162 135.36 
" clip-path="url(#p990c6b6a69)" style="fill: none; stroke: #163A70; stroke-width: 2.6; stroke-linecap: round"/>
    <path d="M 411.454162 132.36 
L 417.454162 135.36 
L 411.454162 138.36 
z
" clip-path="url(#p990c6b6a69)" style="fill: #163A70; stroke: #163A70; stroke-width: 2.6; stroke-linecap: round"/>
   </g>
   <g id="text_2">
    <text style="font-weight: 700; font-size: 15px; font-family: 'Microsoft YaHei', 'Microsoft YaHei UI', 'SimHei', 'Segoe UI', 'DejaVu Sans', sans-serif; text-anchor: middle; fill: #0F2A57" x="329.76" y="117.36" transform="rotate(-0 329.76 117.36)">跨块路径</text>
   </g>
   <g id="text_3">
    <text style="font-size: 15px; font-family: 'Microsoft YaHei', 'Microsoft YaHei UI', 'SimHei', 'Segoe UI', 'DejaVu Sans', sans-serif; fill: #243447" transform="translate(284.76 171.833438)">各块并行实现</text>
    <text style="font-size: 15px; font-family: 'Microsoft YaHei', 'Microsoft YaHei UI', 'SimHei', 'Segoe UI', 'DejaVu Sans', sans-serif; fill: #243447" transform="translate(284.76 193.548281)">各自满足预算</text>
   </g>
   <g id="patch_7">
    <path d="M 41.76 358.56 
L 237.6 358.56 
L 237.6 297.36 
L 41.76 297.36 
z
" clip-path="url(#p990c6b6a69)" style="fill: #087C89; stroke: #ffffff; stroke-width: 1.5; stroke-linejoin: miter"/>
   </g>
   <g id="patch_8">
    <path d="M 237.6 358.56 
L 306.72 358.56 
L 306.72 297.36 
L 237.6 297.36 
z
" clip-path="url(#p990c6b6a69)" style="fill: #C46A18; stroke: #ffffff; stroke-width: 1.5; stroke-linejoin: miter"/>
   </g>
   <g id="patch_9">
    <path d="M 306.72 358.56 
L 410.4 358.56 
L 410.4 297.36 
L 306.72 297.36 
z
" clip-path="url(#p990c6b6a69)" style="fill: #163A70; stroke: #ffffff; stroke-width: 1.5; stroke-linejoin: miter"/>
   </g>
   <g id="patch_10">
    <path d="M 410.4 358.56 
L 479.52 358.56 
L 479.52 297.36 
L 410.4 297.36 
z
" clip-path="url(#p990c6b6a69)" style="fill: #C46A18; stroke: #ffffff; stroke-width: 1.5; stroke-linejoin: miter"/>
   </g>
   <g id="patch_11">
    <path d="M 479.52 358.56 
L 617.76 358.56 
L 617.76 297.36 
L 479.52 297.36 
z
" clip-path="url(#p990c6b6a69)" style="fill: #087C89; stroke: #ffffff; stroke-width: 1.5; stroke-linejoin: miter"/>
   </g>
   <g id="text_4">
    <text style="font-size: 15px; font-family: 'Microsoft YaHei', 'Microsoft YaHei UI', 'SimHei', 'Segoe UI', 'DejaVu Sans', sans-serif; text-anchor: start; fill: #243447" x="41.76" y="275.76" transform="rotate(-0 41.76 275.76)">整条路径预算 2.0 ns 按层级切分（含接口 / 穿通余量）</text>
   </g>
   <g id="text_5">
    <text style="font-size: 15px; font-family: 'Microsoft YaHei', 'Microsoft YaHei UI', 'SimHei', 'Segoe UI', 'DejaVu Sans', sans-serif; text-anchor: start; fill: #526174" x="41.76" y="398.16" transform="rotate(-0 41.76 398.16)">→ 顶层与各块并行收敛、可复用</text>
   </g>
   <g id="text_6">
    <text style="font-weight: 700; font-size: 14px; font-family: 'Microsoft YaHei', 'Microsoft YaHei UI', 'SimHei', 'Segoe UI', 'DejaVu Sans', sans-serif; fill: #ffffff" transform="translate(113.084375 323.360563)">模块 A</text>
    <text style="font-weight: 700; font-size: 14px; font-family: 'Microsoft YaHei', 'Microsoft YaHei UI', 'SimHei', 'Segoe UI', 'DejaVu Sans', sans-serif; fill: #ffffff" transform="translate(129.046562 340.270375)">0.8</text>
   </g>
   <g id="text_7">
    <text style="font-weight: 700; font-size: 14px; font-family: 'Microsoft YaHei', 'Microsoft YaHei UI', 'SimHei', 'Segoe UI', 'DejaVu Sans', sans-serif; text-anchor: middle; fill: #ffffff" x="272.16" y="331.815469" transform="rotate(-0 272.16 331.815469)">接口 0.2</text>
   </g>
   <g id="text_8">
    <text style="font-weight: 700; font-size: 14px; font-family: 'Microsoft YaHei', 'Microsoft YaHei UI', 'SimHei', 'Segoe UI', 'DejaVu Sans', sans-serif; text-anchor: middle; fill: #ffffff" x="358.56" y="331.815469" transform="rotate(-0 358.56 331.815469)">顶层 0.4</text>
   </g>
   <g id="text_9">
    <text style="font-weight: 700; font-size: 14px; font-family: 'Microsoft YaHei', 'Microsoft YaHei UI', 'SimHei', 'Segoe UI', 'DejaVu Sans', sans-serif; text-anchor: middle; fill: #ffffff" x="444.96" y="331.815469" transform="rotate(-0 444.96 331.815469)">接口 0.2</text>
   </g>
   <g id="text_10">
    <text style="font-weight: 700; font-size: 14px; font-family: 'Microsoft YaHei', 'Microsoft YaHei UI', 'SimHei', 'Segoe UI', 'DejaVu Sans', sans-serif; fill: #ffffff" transform="translate(522.523437 323.360563)">模块 B</text>
    <text style="font-weight: 700; font-size: 14px; font-family: 'Microsoft YaHei', 'Microsoft YaHei UI', 'SimHei', 'Segoe UI', 'DejaVu Sans', sans-serif; fill: #ffffff" transform="translate(538.006562 340.270375)">0.8</text>
   </g>
   <g id="text_11">
    <text style="font-weight: 700; font-size: 19px; font-family: 'Microsoft YaHei', 'Microsoft YaHei UI', 'SimHei', 'Segoe UI', 'DejaVu Sans', sans-serif; text-anchor: middle; fill: #0B5F6A" x="138.96" y="118.992422" transform="rotate(-0 138.96 118.992422)">模块 A</text>
   </g>
   <g id="text_12">
    <text style="font-size: 14px; font-family: 'Microsoft YaHei', 'Microsoft YaHei UI', 'SimHei', 'Segoe UI', 'DejaVu Sans', sans-serif; text-anchor: middle; fill: #0B5F6A" x="138.96" y="170.895469" transform="rotate(-0 138.96 170.895469)">分区</text>
   </g>
   <g id="text_13">
    <text style="font-weight: 700; font-size: 19px; font-family: 'Microsoft YaHei', 'Microsoft YaHei UI', 'SimHei', 'Segoe UI', 'DejaVu Sans', sans-serif; text-anchor: middle; fill: #0B5F6A" x="520.56" y="118.992422" transform="rotate(-0 520.56 118.992422)">模块 B</text>
   </g>
   <g id="text_14">
    <text style="font-size: 14px; font-family: 'Microsoft YaHei', 'Microsoft YaHei UI', 'SimHei', 'Segoe UI', 'DejaVu Sans', sans-serif; text-anchor: middle; fill: #0B5F6A" x="520.56" y="170.895469" transform="rotate(-0 520.56 170.895469)">分区</text>
   </g>
  </g>
 </g>
 <defs>
  <clipPath id="p990c6b6a69">
   <rect x="5.76" y="5.76" width="648" height="460.8"/>
  </clipPath>
 </defs>
</svg>
