<?xml version="1.0" encoding="utf-8" standalone="no"?>
<!DOCTYPE svg PUBLIC "-//W3C//DTD SVG 1.1//EN"
  "http://www.w3.org/Graphics/SVG/1.1/DTD/svg11.dtd">
<svg xmlns:xlink="http://www.w3.org/1999/xlink" width="558.72pt" height="515.52pt" viewBox="0 0 558.72 515.52" xmlns="http://www.w3.org/2000/svg" version="1.1">
 <metadata>
  <rdf:RDF xmlns:dc="http://purl.org/dc/elements/1.1/" xmlns:cc="http://creativecommons.org/ns#" xmlns:rdf="http://www.w3.org/1999/02/22-rdf-syntax-ns#">
   <cc:Work>
    <dc:type rdf:resource="http://purl.org/dc/dcmitype/StillImage"/>
    <dc:date>2026-06-23T23:44:31.207395</dc:date>
    <dc:format>image/svg+xml</dc:format>
    <dc:creator>
     <cc:Agent>
      <dc:title>Matplotlib v3.10.8, https://matplotlib.org/</dc:title>
     </cc:Agent>
    </dc:creator>
   </cc:Work>
  </rdf:RDF>
 </metadata>
 <defs>
  <style type="text/css">*{stroke-linejoin: round; stroke-linecap: butt}</style>
 </defs>
 <g id="figure_1">
  <g id="patch_1">
   <path d="M 0 515.52 
L 558.72 515.52 
L 558.72 0 
L 0 0 
z
" style="fill: #ffffff"/>
  </g>
  <g id="axes_1">
   <g id="patch_2">
    <path d="M 5.76 509.76 
L 552.96 509.76 
L 552.96 5.76 
L 5.76 5.76 
z
" clip-path="url(#p044b0edf70)" style="fill: #ffffff"/>
   </g>
   <g id="patch_3">
    <path d="M 41.76 336.96 
L 524.16 336.96 
Q 531.36 336.96 531.36 329.76 
L 531.36 288 
Q 531.36 280.8 524.16 280.8 
L 41.76 280.8 
Q 34.56 280.8 34.56 288 
L 34.56 329.76 
Q 34.56 336.96 41.76 336.96 
z
" clip-path="url(#p044b0edf70)" style="fill: #ccfbf1; stroke: #cbd2dc; stroke-width: 1.4; stroke-linejoin: miter"/>
   </g>
   <g id="patch_4">
    <path d="M 41.76 403.2 
L 524.16 403.2 
Q 531.36 403.2 531.36 396 
L 531.36 354.24 
Q 531.36 347.04 524.16 347.04 
L 41.76 347.04 
Q 34.56 347.04 34.56 354.24 
L 34.56 396 
Q 34.56 403.2 41.76 403.2 
z
" clip-path="url(#p044b0edf70)" style="fill: #ccfbf1; stroke: #cbd2dc; stroke-width: 1.4; stroke-linejoin: miter"/>
   </g>
   <g id="patch_5">
    <path d="M 41.76 469.44 
L 524.16 469.44 
Q 531.36 469.44 531.36 462.24 
L 531.36 420.48 
Q 531.36 413.28 524.16 413.28 
L 41.76 413.28 
Q 34.56 413.28 34.56 420.48 
L 34.56 462.24 
Q 34.56 469.44 41.76 469.44 
z
" clip-path="url(#p044b0edf70)" style="fill: #fee2e2; stroke: #cbd2dc; stroke-width: 1.4; stroke-linejoin: miter"/>
   </g>
   <g id="patch_6">
    <path d="M 43.2 133.92 
L 159.12 133.92 
Q 167.76 133.92 167.76 125.28 
L 167.76 86.4 
Q 167.76 77.76 159.12 77.76 
L 43.2 77.76 
Q 34.56 77.76 34.56 86.4 
L 34.56 125.28 
Q 34.56 133.92 43.2 133.92 
z
" clip-path="url(#p044b0edf70)" style="fill: #edf0f4; stroke: #94a3b8; stroke-width: 1.8; stroke-linejoin: miter"/>
   </g>
   <g id="patch_7">
    <path d="M 187.2 133.92 
L 303.12 133.92 
Q 311.76 133.92 311.76 125.28 
L 311.76 86.4 
Q 311.76 77.76 303.12 77.76 
L 187.2 77.76 
Q 178.56 77.76 178.56 86.4 
L 178.56 125.28 
Q 178.56 133.92 187.2 133.92 
z
" clip-path="url(#p044b0edf70)" style="fill: #edf0f4; stroke: #94a3b8; stroke-width: 1.8; stroke-linejoin: miter"/>
   </g>
   <g id="patch_8">
    <path d="M 43.2 202.32 
L 159.12 202.32 
Q 167.76 202.32 167.76 193.68 
L 167.76 154.8 
Q 167.76 146.16 159.12 146.16 
L 43.2 146.16 
Q 34.56 146.16 34.56 154.8 
L 34.56 193.68 
Q 34.56 202.32 43.2 202.32 
z
" clip-path="url(#p044b0edf70)" style="fill: #edf0f4; stroke: #94a3b8; stroke-width: 1.8; stroke-linejoin: miter"/>
   </g>
   <g id="patch_9">
    <path d="M 187.2 202.32 
L 303.12 202.32 
Q 311.76 202.32 311.76 193.68 
L 311.76 154.8 
Q 311.76 146.16 303.12 146.16 
L 187.2 146.16 
Q 178.56 146.16 178.56 154.8 
L 178.56 193.68 
Q 178.56 202.32 187.2 202.32 
z
" clip-path="url(#p044b0edf70)" style="fill: #edf0f4; stroke: #94a3b8; stroke-width: 1.8; stroke-linejoin: miter"/>
   </g>
   <g id="patch_10">
    <path d="M 43.2 270.72 
L 159.12 270.72 
Q 167.76 270.72 167.76 262.08 
L 167.76 223.2 
Q 167.76 214.56 159.12 214.56 
L 43.2 214.56 
Q 34.56 214.56 34.56 223.2 
L 34.56 262.08 
Q 34.56 270.72 43.2 270.72 
z
" clip-path="url(#p044b0edf70)" style="fill: #edf0f4; stroke: #94a3b8; stroke-width: 1.8; stroke-linejoin: miter"/>
   </g>
   <g id="patch_11">
    <path d="M 187.2 270.72 
L 303.12 270.72 
Q 311.76 270.72 311.76 262.08 
L 311.76 223.2 
Q 311.76 214.56 303.12 214.56 
L 187.2 214.56 
Q 178.56 214.56 178.56 223.2 
L 178.56 262.08 
Q 178.56 270.72 187.2 270.72 
z
" clip-path="url(#p044b0edf70)" style="fill: #edf0f4; stroke: #94a3b8; stroke-width: 1.8; stroke-linejoin: miter"/>
   </g>
   <g id="text_1">
    <text style="font-weight: 700; font-size: 15px; font-family: 'Microsoft YaHei', 'Microsoft YaHei UI', 'SimHei', 'Segoe UI', 'DejaVu Sans', sans-serif; text-anchor: start; fill: #1a1f2b" x="56.16" y="311.526094" transform="rotate(-0 56.16 311.526094)">DEF：宏 + PG + blockage</text>
   </g>
   <g id="text_2">
    <text style="font-weight: 700; font-size: 15px; font-family: 'Microsoft YaHei', 'Microsoft YaHei UI', 'SimHei', 'Segoe UI', 'DejaVu Sans', sans-serif; text-anchor: start; fill: #1a1f2b" x="56.16" y="377.210625" transform="rotate(-0 56.16 377.210625)">Floorplan DB (NDM/OA)</text>
   </g>
   <g id="text_3">
    <text style="font-weight: 700; font-size: 15px; font-family: 'Microsoft YaHei', 'Microsoft YaHei UI', 'SimHei', 'Segoe UI', 'DejaVu Sans', sans-serif; text-anchor: start; fill: #1a1f2b" x="56.16" y="443.450625" transform="rotate(-0 56.16 443.450625)">可布线性 / 时序初评</text>
   </g>
   <g id="patch_12">
    <path d="M 245.965518 220.271133 
Q 293.760711 192.959594 340.002744 166.535575 
" clip-path="url(#p044b0edf70)" style="fill: none; stroke: #c7cdd6; stroke-width: 1.6; stroke-linecap: round"/>
    <path d="M 334.644443 166.833258 
L 340.002744 166.535575 
L 337.02591 171.000825 
z
" clip-path="url(#p044b0edf70)" style="fill: #c7cdd6; stroke: #c7cdd6; stroke-width: 1.6; stroke-linecap: round"/>
   </g>
   <g id="patch_13">
    <path d="M 435.370614 223.570442 
Q 367.666831 274.519953 288.017229 296.006002 
" clip-path="url(#p044b0edf70)" style="fill: none; stroke: #3a4252; stroke-width: 2; stroke-linecap: round"/>
    <path d="M 294.5915 297.339782 
L 288.017229 296.006002 
L 293.028816 291.546854 
z
" clip-path="url(#p044b0edf70)" style="fill: #3a4252; stroke: #3a4252; stroke-width: 2; stroke-linecap: round"/>
   </g>
   <g id="patch_14">
    <path d="M 354.2 223.36 
L 524.12 223.36 
Q 532.76 223.36 532.76 214.72 
L 532.76 116.8 
Q 532.76 108.16 524.12 108.16 
L 354.2 108.16 
Q 345.56 108.16 345.56 116.8 
L 345.56 214.72 
Q 345.56 223.36 354.2 223.36 
z
" clip-path="url(#p044b0edf70)" style="fill: #1a1f2b; opacity: 0.16"/>
    <path d="M 352.8 221.76 
L 522.72 221.76 
Q 531.36 221.76 531.36 213.12 
L 531.36 115.2 
Q 531.36 106.56 522.72 106.56 
L 352.8 106.56 
Q 344.16 106.56 344.16 115.2 
L 344.16 213.12 
Q 344.16 221.76 352.8 221.76 
z
" clip-path="url(#p044b0edf70)" style="fill: #1d4ed8; stroke: #1d4ed8; stroke-width: 1.8; stroke-linejoin: miter"/>
   </g>
   <g id="text_4">
    <text style="font-weight: 700; font-size: 14.5px; font-family: 'Microsoft YaHei', 'Microsoft YaHei UI', 'SimHei', 'Segoe UI', 'DejaVu Sans', sans-serif; text-anchor: middle; fill: #1a1f2b" x="101.16" y="109.833164" transform="rotate(-0 101.16 109.833164)">Netlist (.v)</text>
   </g>
   <g id="text_5">
    <text style="font-weight: 700; font-size: 14.5px; font-family: 'Microsoft YaHei', 'Microsoft YaHei UI', 'SimHei', 'Segoe UI', 'DejaVu Sans', sans-serif; text-anchor: middle; fill: #1a1f2b" x="245.16" y="109.833164" transform="rotate(-0 245.16 109.833164)">LEF</text>
   </g>
   <g id="text_6">
    <text style="font-weight: 700; font-size: 14.5px; font-family: 'Microsoft YaHei', 'Microsoft YaHei UI', 'SimHei', 'Segoe UI', 'DejaVu Sans', sans-serif; text-anchor: middle; fill: #1a1f2b" x="101.16" y="178.198047" transform="rotate(-0 101.16 178.198047)">Liberty (.lib)</text>
   </g>
   <g id="text_7">
    <text style="font-weight: 700; font-size: 14.5px; font-family: 'Microsoft YaHei', 'Microsoft YaHei UI', 'SimHei', 'Segoe UI', 'DejaVu Sans', sans-serif; text-anchor: middle; fill: #1a1f2b" x="245.16" y="178.233164" transform="rotate(-0 245.16 178.233164)">SDC</text>
   </g>
   <g id="text_8">
    <text style="font-weight: 700; font-size: 14.5px; font-family: 'Microsoft YaHei', 'Microsoft YaHei UI', 'SimHei', 'Segoe UI', 'DejaVu Sans', sans-serif; text-anchor: middle; fill: #1a1f2b" x="101.16" y="246.633164" transform="rotate(-0 101.16 246.633164)">UPF</text>
   </g>
   <g id="text_9">
    <text style="font-weight: 700; font-size: 14.5px; font-family: 'Microsoft YaHei', 'Microsoft YaHei UI', 'SimHei', 'Segoe UI', 'DejaVu Sans', sans-serif; text-anchor: middle; fill: #1a1f2b" x="245.16" y="246.633164" transform="rotate(-0 245.16 246.633164)">Partition / 预算</text>
   </g>
   <g id="text_10">
    <text style="font-weight: 700; font-size: 19px; font-family: 'Microsoft YaHei', 'Microsoft YaHei UI', 'SimHei', 'Segoe UI', 'DejaVu Sans', sans-serif; text-anchor: middle; fill: #ffffff" x="437.76" y="152.112422" transform="rotate(-0 437.76 152.112422)">Floorplan</text>
   </g>
   <g id="text_11">
    <text style="font-size: 15px; font-family: 'Microsoft YaHei', 'Microsoft YaHei UI', 'SimHei', 'Segoe UI', 'DejaVu Sans', sans-serif; text-anchor: middle; fill: #ffffff" x="437.76" y="193.634859" transform="rotate(-0 437.76 193.634859)">ICC2 / Innovus</text>
   </g>
  </g>
 </g>
 <defs>
  <clipPath id="p044b0edf70">
   <rect x="5.76" y="5.76" width="547.2" height="504"/>
  </clipPath>
 </defs>
</svg>
