<?xml version="1.0" encoding="utf-8" standalone="no"?>
<!DOCTYPE svg PUBLIC "-//W3C//DTD SVG 1.1//EN"
  "http://www.w3.org/Graphics/SVG/1.1/DTD/svg11.dtd">
<svg xmlns:xlink="http://www.w3.org/1999/xlink" width="659.52pt" height="472.32pt" viewBox="0 0 659.52 472.32" xmlns="http://www.w3.org/2000/svg" version="1.1">
 <metadata>
  <rdf:RDF xmlns:dc="http://purl.org/dc/elements/1.1/" xmlns:cc="http://creativecommons.org/ns#" xmlns:rdf="http://www.w3.org/1999/02/22-rdf-syntax-ns#">
   <cc:Work>
    <dc:type rdf:resource="http://purl.org/dc/dcmitype/StillImage"/>
    <dc:date>2026-06-24T01:07:20.199790</dc:date>
    <dc:format>image/svg+xml</dc:format>
    <dc:creator>
     <cc:Agent>
      <dc:title>Matplotlib v3.10.8, https://matplotlib.org/</dc:title>
     </cc:Agent>
    </dc:creator>
   </cc:Work>
  </rdf:RDF>
 </metadata>
 <defs>
  <style type="text/css">*{stroke-linejoin: round; stroke-linecap: butt}</style>
 </defs>
 <g id="figure_1">
  <g id="patch_1">
   <path d="M 0 472.32 
L 659.52 472.32 
L 659.52 0 
L 0 0 
z
" style="fill: #ffffff"/>
  </g>
  <g id="axes_1">
   <g id="patch_2">
    <path d="M 5.76 466.56 
L 653.76 466.56 
L 653.76 5.76 
L 5.76 5.76 
z
" clip-path="url(#pe5b545680d)" style="fill: #ffffff"/>
   </g>
   <g id="patch_3">
    <path d="M 41.76 416.16 
L 416.16 416.16 
L 416.16 41.76 
L 41.76 41.76 
z
" clip-path="url(#pe5b545680d)" style="fill: #ffffff; stroke: #3a4252; stroke-width: 2; stroke-linejoin: miter"/>
   </g>
   <g id="patch_4">
    <path d="M 228.96 268.56 
C 239.462043 268.56 249.535363 264.387494 256.961429 256.961429 
C 264.387494 249.535363 268.56 239.462043 268.56 228.96 
C 268.56 218.457957 264.387494 208.384637 256.961429 200.958571 
C 249.535363 193.532506 239.462043 189.36 228.96 189.36 
C 218.457957 189.36 208.384637 193.532506 200.958571 200.958571 
C 193.532506 208.384637 189.36 218.457957 189.36 228.96 
C 189.36 239.462043 193.532506 249.535363 200.958571 256.961429 
C 208.384637 264.387494 218.457957 268.56 228.96 268.56 
z
" clip-path="url(#pe5b545680d)" style="fill: #fee2e2; stroke-dasharray: 4.2,2.8; stroke-dashoffset: 0; stroke: #dc2626; stroke-width: 1.4; stroke-linejoin: miter"/>
   </g>
   <g id="patch_5">
    <path d="M 452.16 99.36 
L 624.96 99.36 
Q 632.16 99.36 632.16 92.16 
L 632.16 34.56 
Q 632.16 27.36 624.96 27.36 
L 452.16 27.36 
Q 444.96 27.36 444.96 34.56 
L 444.96 92.16 
Q 444.96 99.36 452.16 99.36 
z
" clip-path="url(#pe5b545680d)" style="fill: #fee2e2; stroke: #cbd2dc; stroke-width: 1.4; stroke-linejoin: miter"/>
   </g>
   <g id="patch_6">
    <path d="M 452.16 184.32 
L 624.96 184.32 
Q 632.16 184.32 632.16 177.12 
L 632.16 119.52 
Q 632.16 112.32 624.96 112.32 
L 452.16 112.32 
Q 444.96 112.32 444.96 119.52 
L 444.96 177.12 
Q 444.96 184.32 452.16 184.32 
z
" clip-path="url(#pe5b545680d)" style="fill: #ffedd5; stroke: #cbd2dc; stroke-width: 1.4; stroke-linejoin: miter"/>
   </g>
   <g id="patch_7">
    <path d="M 452.16 269.28 
L 624.96 269.28 
Q 632.16 269.28 632.16 262.08 
L 632.16 204.48 
Q 632.16 197.28 624.96 197.28 
L 452.16 197.28 
Q 444.96 197.28 444.96 204.48 
L 444.96 262.08 
Q 444.96 269.28 452.16 269.28 
z
" clip-path="url(#pe5b545680d)" style="fill: #eef1f5; stroke: #cbd2dc; stroke-width: 1.4; stroke-linejoin: miter"/>
   </g>
   <g id="patch_8">
    <path d="M 452.16 354.24 
L 624.96 354.24 
Q 632.16 354.24 632.16 347.04 
L 632.16 289.44 
Q 632.16 282.24 624.96 282.24 
L 452.16 282.24 
Q 444.96 282.24 444.96 289.44 
L 444.96 347.04 
Q 444.96 354.24 452.16 354.24 
z
" clip-path="url(#pe5b545680d)" style="fill: #dbeafe; stroke: #cbd2dc; stroke-width: 1.4; stroke-linejoin: miter"/>
   </g>
   <g id="patch_9">
    <path d="M 50.4 416.16 
L 82.4 416.16 
L 82.4 394.56 
L 50.4 394.56 
z
" clip-path="url(#pe5b545680d)" style="fill: #ffedd5; stroke: #ea580c; stroke-width: 0.9; stroke-linejoin: miter"/>
   </g>
   <g id="patch_10">
    <path d="M 50.4 63.36 
L 82.4 63.36 
L 82.4 41.76 
L 50.4 41.76 
z
" clip-path="url(#pe5b545680d)" style="fill: #ffedd5; stroke: #ea580c; stroke-width: 0.9; stroke-linejoin: miter"/>
   </g>
   <g id="patch_11">
    <path d="M 91.04 416.16 
L 123.04 416.16 
L 123.04 394.56 
L 91.04 394.56 
z
" clip-path="url(#pe5b545680d)" style="fill: #ffedd5; stroke: #ea580c; stroke-width: 0.9; stroke-linejoin: miter"/>
   </g>
   <g id="patch_12">
    <path d="M 91.04 63.36 
L 123.04 63.36 
L 123.04 41.76 
L 91.04 41.76 
z
" clip-path="url(#pe5b545680d)" style="fill: #ffedd5; stroke: #ea580c; stroke-width: 0.9; stroke-linejoin: miter"/>
   </g>
   <g id="patch_13">
    <path d="M 131.68 416.16 
L 163.68 416.16 
L 163.68 394.56 
L 131.68 394.56 
z
" clip-path="url(#pe5b545680d)" style="fill: #ffedd5; stroke: #ea580c; stroke-width: 0.9; stroke-linejoin: miter"/>
   </g>
   <g id="patch_14">
    <path d="M 131.68 63.36 
L 163.68 63.36 
L 163.68 41.76 
L 131.68 41.76 
z
" clip-path="url(#pe5b545680d)" style="fill: #ffedd5; stroke: #ea580c; stroke-width: 0.9; stroke-linejoin: miter"/>
   </g>
   <g id="patch_15">
    <path d="M 172.32 416.16 
L 204.32 416.16 
L 204.32 394.56 
L 172.32 394.56 
z
" clip-path="url(#pe5b545680d)" style="fill: #ffedd5; stroke: #ea580c; stroke-width: 0.9; stroke-linejoin: miter"/>
   </g>
   <g id="patch_16">
    <path d="M 172.32 63.36 
L 204.32 63.36 
L 204.32 41.76 
L 172.32 41.76 
z
" clip-path="url(#pe5b545680d)" style="fill: #ffedd5; stroke: #ea580c; stroke-width: 0.9; stroke-linejoin: miter"/>
   </g>
   <g id="patch_17">
    <path d="M 212.96 416.16 
L 244.96 416.16 
L 244.96 394.56 
L 212.96 394.56 
z
" clip-path="url(#pe5b545680d)" style="fill: #ffedd5; stroke: #ea580c; stroke-width: 0.9; stroke-linejoin: miter"/>
   </g>
   <g id="patch_18">
    <path d="M 212.96 63.36 
L 244.96 63.36 
L 244.96 41.76 
L 212.96 41.76 
z
" clip-path="url(#pe5b545680d)" style="fill: #ffedd5; stroke: #ea580c; stroke-width: 0.9; stroke-linejoin: miter"/>
   </g>
   <g id="patch_19">
    <path d="M 253.6 416.16 
L 285.6 416.16 
L 285.6 394.56 
L 253.6 394.56 
z
" clip-path="url(#pe5b545680d)" style="fill: #ffedd5; stroke: #ea580c; stroke-width: 0.9; stroke-linejoin: miter"/>
   </g>
   <g id="patch_20">
    <path d="M 253.6 63.36 
L 285.6 63.36 
L 285.6 41.76 
L 253.6 41.76 
z
" clip-path="url(#pe5b545680d)" style="fill: #ffedd5; stroke: #ea580c; stroke-width: 0.9; stroke-linejoin: miter"/>
   </g>
   <g id="patch_21">
    <path d="M 294.24 416.16 
L 326.24 416.16 
L 326.24 394.56 
L 294.24 394.56 
z
" clip-path="url(#pe5b545680d)" style="fill: #ffedd5; stroke: #ea580c; stroke-width: 0.9; stroke-linejoin: miter"/>
   </g>
   <g id="patch_22">
    <path d="M 294.24 63.36 
L 326.24 63.36 
L 326.24 41.76 
L 294.24 41.76 
z
" clip-path="url(#pe5b545680d)" style="fill: #ffedd5; stroke: #ea580c; stroke-width: 0.9; stroke-linejoin: miter"/>
   </g>
   <g id="patch_23">
    <path d="M 334.88 416.16 
L 366.88 416.16 
L 366.88 394.56 
L 334.88 394.56 
z
" clip-path="url(#pe5b545680d)" style="fill: #ffedd5; stroke: #ea580c; stroke-width: 0.9; stroke-linejoin: miter"/>
   </g>
   <g id="patch_24">
    <path d="M 334.88 63.36 
L 366.88 63.36 
L 366.88 41.76 
L 334.88 41.76 
z
" clip-path="url(#pe5b545680d)" style="fill: #ffedd5; stroke: #ea580c; stroke-width: 0.9; stroke-linejoin: miter"/>
   </g>
   <g id="patch_25">
    <path d="M 375.52 416.16 
L 407.52 416.16 
L 407.52 394.56 
L 375.52 394.56 
z
" clip-path="url(#pe5b545680d)" style="fill: #ffedd5; stroke: #ea580c; stroke-width: 0.9; stroke-linejoin: miter"/>
   </g>
   <g id="patch_26">
    <path d="M 375.52 63.36 
L 407.52 63.36 
L 407.52 41.76 
L 375.52 41.76 
z
" clip-path="url(#pe5b545680d)" style="fill: #ffedd5; stroke: #ea580c; stroke-width: 0.9; stroke-linejoin: miter"/>
   </g>
   <g id="text_1">
    <text style="font-weight: 700; font-size: 15px; font-family: 'Microsoft YaHei', 'Microsoft YaHei UI', 'SimHei', 'Segoe UI', 'DejaVu Sans', sans-serif; text-anchor: middle; fill: #9a3412" x="228.96" y="29.391094" transform="rotate(-0 228.96 29.391094)">电源 pad 环（VDD/VSS）</text>
   </g>
   <g id="text_2">
    <text style="font-size: 15px; font-family: 'Microsoft YaHei', 'Microsoft YaHei UI', 'SimHei', 'Segoe UI', 'DejaVu Sans', sans-serif; text-anchor: middle; fill: #6b7280" x="228.96" y="233.090859" transform="rotate(-0 228.96 233.090859)">Std-Cell</text>
   </g>
   <g id="text_3">
    <text style="font-weight: 700; font-size: 17px; font-family: 'Microsoft YaHei', 'Microsoft YaHei UI', 'SimHei', 'Segoe UI', 'DejaVu Sans', sans-serif; text-anchor: start; fill: #1a1f2b" x="466.56" y="66.374844" transform="rotate(-0 466.56 66.374844)">靠近边界电源 pad</text>
   </g>
   <g id="text_4">
    <text style="font-weight: 700; font-size: 17px; font-family: 'Microsoft YaHei', 'Microsoft YaHei UI', 'SimHei', 'Segoe UI', 'DejaVu Sans', sans-serif; text-anchor: start; fill: #1a1f2b" x="466.56" y="150.689375" transform="rotate(-0 466.56 150.689375)">高功耗宏彼此拉开</text>
   </g>
   <g id="text_5">
    <text style="font-weight: 700; font-size: 17px; font-family: 'Microsoft YaHei', 'Microsoft YaHei UI', 'SimHei', 'Segoe UI', 'DejaVu Sans', sans-serif; text-anchor: start; fill: #1a1f2b" x="466.56" y="224.429375" transform="rotate(-0 466.56 224.429375)">宏通道留给 PG/</text>
   </g>
   <g id="text_6">
    <text style="font-weight: 700; font-size: 17px; font-family: 'Microsoft YaHei', 'Microsoft YaHei UI', 'SimHei', 'Segoe UI', 'DejaVu Sans', sans-serif; text-anchor: start; fill: #1a1f2b" x="466.56" y="246.869375" transform="rotate(-0 466.56 246.869375)">via/时钟</text>
   </g>
   <g id="text_7">
    <text style="font-weight: 700; font-size: 17px; font-family: 'Microsoft YaHei', 'Microsoft YaHei UI', 'SimHei', 'Segoe UI', 'DejaVu Sans', sans-serif; text-anchor: start; fill: #1a1f2b" x="466.56" y="310.034844" transform="rotate(-0 466.56 310.034844)">pad·宏·网格一</text>
   </g>
   <g id="text_8">
    <text style="font-weight: 700; font-size: 17px; font-family: 'Microsoft YaHei', 'Microsoft YaHei UI', 'SimHei', 'Segoe UI', 'DejaVu Sans', sans-serif; text-anchor: start; fill: #1a1f2b" x="466.56" y="331.829375" transform="rotate(-0 466.56 331.829375)">起迭代</text>
   </g>
   <g id="patch_27">
    <path d="M 91.4 374.56 
L 182.12 374.56 
Q 190.76 374.56 190.76 365.92 
L 190.76 275.2 
Q 190.76 266.56 182.12 266.56 
L 91.4 266.56 
Q 82.76 266.56 82.76 275.2 
L 82.76 365.92 
Q 82.76 374.56 91.4 374.56 
z
" clip-path="url(#pe5b545680d)" style="fill: #1a1f2b; opacity: 0.16"/>
    <path d="M 90 372.96 
L 180.72 372.96 
Q 189.36 372.96 189.36 364.32 
L 189.36 273.6 
Q 189.36 264.96 180.72 264.96 
L 90 264.96 
Q 81.36 264.96 81.36 273.6 
L 81.36 364.32 
Q 81.36 372.96 90 372.96 
z
" clip-path="url(#pe5b545680d)" style="fill: #ccfbf1; stroke: #0d9488; stroke-width: 1.8; stroke-linejoin: miter"/>
   </g>
   <g id="patch_28">
    <path d="M 278.6 194.56 
L 369.32 194.56 
Q 377.96 194.56 377.96 185.92 
L 377.96 95.2 
Q 377.96 86.56 369.32 86.56 
L 278.6 86.56 
Q 269.96 86.56 269.96 95.2 
L 269.96 185.92 
Q 269.96 194.56 278.6 194.56 
z
" clip-path="url(#pe5b545680d)" style="fill: #1a1f2b; opacity: 0.16"/>
    <path d="M 277.2 192.96 
L 367.92 192.96 
Q 376.56 192.96 376.56 184.32 
L 376.56 93.6 
Q 376.56 84.96 367.92 84.96 
L 277.2 84.96 
Q 268.56 84.96 268.56 93.6 
L 268.56 184.32 
Q 268.56 192.96 277.2 192.96 
z
" clip-path="url(#pe5b545680d)" style="fill: #ccfbf1; stroke: #0d9488; stroke-width: 1.8; stroke-linejoin: miter"/>
   </g>
   <g id="text_9">
    <text style="font-weight: 700; font-size: 15px; font-family: 'Microsoft YaHei', 'Microsoft YaHei UI', 'SimHei', 'Segoe UI', 'DejaVu Sans', sans-serif; fill: #115e59" transform="translate(112.86 314.032031)">高功耗</text>
    <text style="font-weight: 700; font-size: 15px; font-family: 'Microsoft YaHei', 'Microsoft YaHei UI', 'SimHei', 'Segoe UI', 'DejaVu Sans', sans-serif; fill: #115e59" transform="translate(111.370547 332.149688)">Macro</text>
   </g>
   <g id="text_10">
    <text style="font-weight: 700; font-size: 15px; font-family: 'Microsoft YaHei', 'Microsoft YaHei UI', 'SimHei', 'Segoe UI', 'DejaVu Sans', sans-serif; fill: #115e59" transform="translate(300.06 134.032031)">高功耗</text>
    <text style="font-weight: 700; font-size: 15px; font-family: 'Microsoft YaHei', 'Microsoft YaHei UI', 'SimHei', 'Segoe UI', 'DejaVu Sans', sans-serif; fill: #115e59" transform="translate(298.570547 152.149687)">Macro</text>
   </g>
  </g>
 </g>
 <defs>
  <clipPath id="pe5b545680d">
   <rect x="5.76" y="5.76" width="648" height="460.8"/>
  </clipPath>
 </defs>
</svg>
