<?xml version="1.0" encoding="utf-8" standalone="no"?>
<!DOCTYPE svg PUBLIC "-//W3C//DTD SVG 1.1//EN"
  "http://www.w3.org/Graphics/SVG/1.1/DTD/svg11.dtd">
<svg xmlns:xlink="http://www.w3.org/1999/xlink" width="774.72pt" height="486.72pt" viewBox="0 0 774.72 486.72" xmlns="http://www.w3.org/2000/svg" version="1.1">
 <metadata>
  <rdf:RDF xmlns:dc="http://purl.org/dc/elements/1.1/" xmlns:cc="http://creativecommons.org/ns#" xmlns:rdf="http://www.w3.org/1999/02/22-rdf-syntax-ns#">
   <cc:Work>
    <dc:type rdf:resource="http://purl.org/dc/dcmitype/StillImage"/>
    <dc:date>2026-06-25T07:16:05.248562</dc:date>
    <dc:format>image/svg+xml</dc:format>
    <dc:creator>
     <cc:Agent>
      <dc:title>Matplotlib v3.10.8, https://matplotlib.org/</dc:title>
     </cc:Agent>
    </dc:creator>
   </cc:Work>
  </rdf:RDF>
 </metadata>
 <defs>
  <style type="text/css">*{stroke-linejoin: round; stroke-linecap: butt}</style>
 </defs>
 <g id="figure_1">
  <g id="patch_1">
   <path d="M 0 486.72 
L 774.72 486.72 
L 774.72 0 
L 0 0 
z
" style="fill: #ffffff"/>
  </g>
  <g id="axes_1">
   <g id="patch_2">
    <path d="M 5.76 480.96 
L 768.96 480.96 
L 768.96 5.76 
L 5.76 5.76 
z
" clip-path="url(#p69d43f6bc8)" style="fill: #ffffff"/>
   </g>
   <g id="line2d_1">
    <path d="M 45.36 232.56 
L 732.96 232.56 
" clip-path="url(#p69d43f6bc8)" style="fill: none; stroke: #3a4252; stroke-width: 2.6; stroke-linecap: round"/>
   </g>
   <g id="patch_3">
    <path d="M 703.563135 232.56 
Q 717.481507 232.56 728.492992 232.56 
" clip-path="url(#p69d43f6bc8)" style="fill: none; stroke: #3a4252; stroke-width: 2.6; stroke-linecap: round"/>
    <path d="M 722.092992 229.36 
L 728.492992 232.56 
L 722.092992 235.76 
z
" clip-path="url(#p69d43f6bc8)" style="fill: #3a4252; stroke: #3a4252; stroke-width: 2.6; stroke-linecap: round"/>
   </g>
   <g id="patch_4">
    <path d="M 55.8 192.24 
L 172.44 192.24 
Q 179.64 192.24 179.64 185.04 
L 179.64 100.08 
Q 179.64 92.88 172.44 92.88 
L 55.8 92.88 
Q 48.6 92.88 48.6 100.08 
L 48.6 185.04 
Q 48.6 192.24 55.8 192.24 
z
" clip-path="url(#p69d43f6bc8)" style="fill: #9fe2d4; stroke: #0b7d72; stroke-width: 2.6; stroke-linejoin: miter"/>
   </g>
   <g id="patch_5">
    <path d="M 193.32 372.24 
L 309.96 372.24 
Q 317.16 372.24 317.16 365.04 
L 317.16 280.08 
Q 317.16 272.88 309.96 272.88 
L 193.32 272.88 
Q 186.12 272.88 186.12 280.08 
L 186.12 365.04 
Q 186.12 372.24 193.32 372.24 
z
" clip-path="url(#p69d43f6bc8)" style="fill: #d4c2e5; stroke: #46196b; stroke-width: 2.6; stroke-linejoin: miter"/>
   </g>
   <g id="patch_6">
    <path d="M 330.84 192.24 
L 447.48 192.24 
Q 454.68 192.24 454.68 185.04 
L 454.68 100.08 
Q 454.68 92.88 447.48 92.88 
L 330.84 92.88 
Q 323.64 92.88 323.64 100.08 
L 323.64 185.04 
Q 323.64 192.24 330.84 192.24 
z
" clip-path="url(#p69d43f6bc8)" style="fill: #f6cd9e; stroke: #d14e0a; stroke-width: 2.6; stroke-linejoin: miter"/>
   </g>
   <g id="patch_7">
    <path d="M 468.36 372.24 
L 585 372.24 
Q 592.2 372.24 592.2 365.04 
L 592.2 280.08 
Q 592.2 272.88 585 272.88 
L 468.36 272.88 
Q 461.16 272.88 461.16 280.08 
L 461.16 365.04 
Q 461.16 372.24 468.36 372.24 
z
" clip-path="url(#p69d43f6bc8)" style="fill: #e6adad; stroke: #be1e1e; stroke-width: 2.6; stroke-linejoin: miter"/>
   </g>
   <g id="patch_8">
    <path d="M 605.88 192.24 
L 722.52 192.24 
Q 729.72 192.24 729.72 185.04 
L 729.72 100.08 
Q 729.72 92.88 722.52 92.88 
L 605.88 92.88 
Q 598.68 92.88 598.68 100.08 
L 598.68 185.04 
Q 598.68 192.24 605.88 192.24 
z
" clip-path="url(#p69d43f6bc8)" style="fill: #b6ccf2; stroke: #1e50c8; stroke-width: 2.6; stroke-linejoin: miter"/>
   </g>
   <g id="text_1">
    <text style="font-weight: 700; font-size: 19px; font-family: 'Microsoft YaHei', 'Microsoft YaHei UI', 'SimHei', 'Segoe UI', 'DejaVu Sans', sans-serif; text-anchor: start; fill: #1a1f2b" x="34.56" y="32.592422" transform="rotate(-0 34.56 32.592422)">布图规划算法 · 发展脉络</text>
   </g>
   <g id="line2d_2">
    <path d="M 114.12 222.48 
L 114.12 92.88 
" clip-path="url(#p69d43f6bc8)" style="fill: none; stroke: #0b7d72; stroke-width: 1.4; stroke-linecap: round"/>
   </g>
   <g id="text_2">
    <text style="font-weight: 700; font-size: 16px; font-family: 'Microsoft YaHei', 'Microsoft YaHei UI', 'SimHei', 'Segoe UI', 'DejaVu Sans', sans-serif; text-anchor: start; fill: #1a1f2b" x="70.2" y="113.29" transform="rotate(-0 70.2 113.29)">早期构造法</text>
   </g>
   <g id="text_3">
    <text style="font-size: 13px; font-family: 'Microsoft YaHei', 'Microsoft YaHei UI', 'SimHei', 'Segoe UI', 'DejaVu Sans', sans-serif; text-anchor: start; fill: #084a43" x="70.2" y="143.531875" transform="rotate(-0 70.2 143.531875)">矩形对偶 ·</text>
   </g>
   <g id="text_4">
    <text style="font-size: 13px; font-family: 'Microsoft YaHei', 'Microsoft YaHei UI', 'SimHei', 'Segoe UI', 'DejaVu Sans', sans-serif; text-anchor: start; fill: #084a43" x="70.2" y="160.691875" transform="rotate(-0 70.2 160.691875)">mincut ·</text>
   </g>
   <g id="text_5">
    <text style="font-size: 13px; font-family: 'Microsoft YaHei', 'Microsoft YaHei UI', 'SimHei', 'Segoe UI', 'DejaVu Sans', sans-serif; text-anchor: start; fill: #084a43" x="70.2" y="177.851875" transform="rotate(-0 70.2 177.851875)">切片嵌入</text>
   </g>
   <g id="line2d_3">
    <path d="M 251.64 242.64 
L 251.64 372.24 
" clip-path="url(#p69d43f6bc8)" style="fill: none; stroke: #46196b; stroke-width: 1.4; stroke-linecap: round"/>
   </g>
   <g id="text_6">
    <text style="font-weight: 700; font-size: 13.354618px; font-family: 'Microsoft YaHei', 'Microsoft YaHei UI', 'SimHei', 'Segoe UI', 'DejaVu Sans', sans-serif; text-anchor: start; fill: #1a1f2b" x="207.72" y="289.315348" transform="rotate(-0 207.72 289.315348)">切片 + 模</text>
   </g>
   <g id="text_7">
    <text style="font-weight: 700; font-size: 13.354618px; font-family: 'Microsoft YaHei', 'Microsoft YaHei UI', 'SimHei', 'Segoe UI', 'DejaVu Sans', sans-serif; text-anchor: start; fill: #1a1f2b" x="207.72" y="306.943444" transform="rotate(-0 207.72 306.943444)">拟退火</text>
   </g>
   <g id="text_8">
    <text style="font-size: 10.850627px; font-family: 'Microsoft YaHei', 'Microsoft YaHei UI', 'SimHei', 'Segoe UI', 'DejaVu Sans', sans-serif; text-anchor: start; fill: #2c0e48" x="207.72" y="332.185237" transform="rotate(-0 207.72 332.185237)">切片树 ·</text>
   </g>
   <g id="text_9">
    <text style="font-size: 10.850627px; font-family: 'Microsoft YaHei', 'Microsoft YaHei UI', 'SimHei', 'Segoe UI', 'DejaVu Sans', sans-serif; text-anchor: start; fill: #2c0e48" x="207.72" y="346.508064" transform="rotate(-0 207.72 346.508064)">Polish ·</text>
   </g>
   <g id="text_10">
    <text style="font-size: 10.850627px; font-family: 'Microsoft YaHei', 'Microsoft YaHei UI', 'SimHei', 'Segoe UI', 'DejaVu Sans', sans-serif; text-anchor: start; fill: #2c0e48" x="207.72" y="360.830892" transform="rotate(-0 207.72 360.830892)">Stockmeyer</text>
   </g>
   <g id="line2d_4">
    <path d="M 389.16 222.48 
L 389.16 92.88 
" clip-path="url(#p69d43f6bc8)" style="fill: none; stroke: #d14e0a; stroke-width: 1.4; stroke-linecap: round"/>
   </g>
   <g id="text_11">
    <text style="font-weight: 700; font-size: 16px; font-family: 'Microsoft YaHei', 'Microsoft YaHei UI', 'SimHei', 'Segoe UI', 'DejaVu Sans', sans-serif; text-anchor: start; fill: #1a1f2b" x="345.24" y="113.29" transform="rotate(-0 345.24 113.29)">非切片表示</text>
   </g>
   <g id="text_12">
    <text style="font-size: 13px; font-family: 'Microsoft YaHei', 'Microsoft YaHei UI', 'SimHei', 'Segoe UI', 'DejaVu Sans', sans-serif; text-anchor: start; fill: #7e2e07" x="345.24" y="143.531875" transform="rotate(-0 345.24 143.531875)">SP · B*-</text>
   </g>
   <g id="text_13">
    <text style="font-size: 13px; font-family: 'Microsoft YaHei', 'Microsoft YaHei UI', 'SimHei', 'Segoe UI', 'DejaVu Sans', sans-serif; text-anchor: start; fill: #7e2e07" x="345.24" y="160.691875" transform="rotate(-0 345.24 160.691875)">tree · TCG</text>
   </g>
   <g id="text_14">
    <text style="font-size: 13px; font-family: 'Microsoft YaHei', 'Microsoft YaHei UI', 'SimHei', 'Segoe UI', 'DejaVu Sans', sans-serif; text-anchor: start; fill: #7e2e07" x="345.24" y="177.851875" transform="rotate(-0 345.24 177.851875)">· O-tree</text>
   </g>
   <g id="line2d_5">
    <path d="M 526.68 242.64 
L 526.68 372.24 
" clip-path="url(#p69d43f6bc8)" style="fill: none; stroke: #be1e1e; stroke-width: 1.4; stroke-linecap: round"/>
   </g>
   <g id="text_15">
    <text style="font-weight: 700; font-size: 13.876777px; font-family: 'Microsoft YaHei', 'Microsoft YaHei UI', 'SimHei', 'Segoe UI', 'DejaVu Sans', sans-serif; text-anchor: start; fill: #1a1f2b" x="482.76" y="289.732749" transform="rotate(-0 482.76 289.732749)">现代布图</text>
   </g>
   <g id="text_16">
    <text style="font-size: 11.274882px; font-family: 'Microsoft YaHei', 'Microsoft YaHei UI', 'SimHei', 'Segoe UI', 'DejaVu Sans', sans-serif; text-anchor: start; fill: #7e1414" x="482.76" y="315.961484" transform="rotate(-0 482.76 315.961484)">固定轮廓 ·</text>
   </g>
   <g id="text_17">
    <text style="font-size: 11.274882px; font-family: 'Microsoft YaHei', 'Microsoft YaHei UI', 'SimHei', 'Segoe UI', 'DejaVu Sans', sans-serif; text-anchor: start; fill: #7e1414" x="482.76" y="330.844328" transform="rotate(-0 482.76 330.844328)">slack · 解</text>
   </g>
   <g id="text_18">
    <text style="font-size: 11.274882px; font-family: 'Microsoft YaHei', 'Microsoft YaHei UI', 'SimHei', 'Segoe UI', 'DejaVu Sans', sans-serif; text-anchor: start; fill: #7e1414" x="482.76" y="345.727171" transform="rotate(-0 482.76 345.727171)">析法 ·</text>
   </g>
   <g id="text_19">
    <text style="font-size: 11.274882px; font-family: 'Microsoft YaHei', 'Microsoft YaHei UI', 'SimHei', 'Segoe UI', 'DejaVu Sans', sans-serif; text-anchor: start; fill: #7e1414" x="482.76" y="360.610015" transform="rotate(-0 482.76 360.610015)">aware</text>
   </g>
   <g id="line2d_6">
    <path d="M 664.2 222.48 
L 664.2 92.88 
" clip-path="url(#p69d43f6bc8)" style="fill: none; stroke: #1e50c8; stroke-width: 1.4; stroke-linecap: round"/>
   </g>
   <g id="text_20">
    <text style="font-weight: 700; font-size: 13.354618px; font-family: 'Microsoft YaHei', 'Microsoft YaHei UI', 'SimHei', 'Segoe UI', 'DejaVu Sans', sans-serif; text-anchor: start; fill: #1a1f2b" x="620.28" y="109.315348" transform="rotate(-0 620.28 109.315348)">工业布图 /</text>
   </g>
   <g id="text_21">
    <text style="font-weight: 700; font-size: 13.354618px; font-family: 'Microsoft YaHei', 'Microsoft YaHei UI', 'SimHei', 'Segoe UI', 'DejaVu Sans', sans-serif; text-anchor: start; fill: #1a1f2b" x="620.28" y="126.943444" transform="rotate(-0 620.28 126.943444)">原型</text>
   </g>
   <g id="text_22">
    <text style="font-size: 10.850627px; font-family: 'Microsoft YaHei', 'Microsoft YaHei UI', 'SimHei', 'Segoe UI', 'DejaVu Sans', sans-serif; text-anchor: start; fill: #15307a" x="620.28" y="152.122506" transform="rotate(-0 620.28 152.122506)">prototyping</text>
   </g>
   <g id="text_23">
    <text style="font-size: 10.850627px; font-family: 'Microsoft YaHei', 'Microsoft YaHei UI', 'SimHei', 'Segoe UI', 'DejaVu Sans', sans-serif; text-anchor: start; fill: #15307a" x="620.28" y="166.508064" transform="rotate(-0 620.28 166.508064)">· 层次预算</text>
   </g>
   <g id="text_24">
    <text style="font-size: 10.850627px; font-family: 'Microsoft YaHei', 'Microsoft YaHei UI', 'SimHei', 'Segoe UI', 'DejaVu Sans', sans-serif; text-anchor: start; fill: #15307a" x="620.28" y="180.830892" transform="rotate(-0 620.28 180.830892)">· 可行性</text>
   </g>
   <g id="text_25">
    <text style="font-size: 14px; font-family: 'Microsoft YaHei', 'Microsoft YaHei UI', 'SimHei', 'Segoe UI', 'DejaVu Sans', sans-serif; text-anchor: start; fill: #6b7280" x="34.56" y="465.12" transform="rotate(-0 34.56 465.12)">目标演化：最小面积 + 线长  →  固定轮廓内可行 + 拥塞 / 时序 / 功耗协同</text>
   </g>
   <g id="patch_9">
    <path d="M 114.12 241.2 
C 116.411355 241.2 118.60917 240.289635 120.229403 238.669403 
C 121.849635 237.04917 122.76 234.851355 122.76 232.56 
C 122.76 230.268645 121.849635 228.07083 120.229403 226.450597 
C 118.60917 224.830365 116.411355 223.92 114.12 223.92 
C 111.828645 223.92 109.63083 224.830365 108.010597 226.450597 
C 106.390365 228.07083 105.48 230.268645 105.48 232.56 
C 105.48 234.851355 106.390365 237.04917 108.010597 238.669403 
C 109.63083 240.289635 111.828645 241.2 114.12 241.2 
z
" clip-path="url(#p69d43f6bc8)" style="fill: #0b7d72; stroke: #ffffff; stroke-width: 1.6; stroke-linejoin: miter"/>
   </g>
   <g id="text_26">
    <text style="font-weight: 700; font-size: 14px; font-family: 'Microsoft YaHei', 'Microsoft YaHei UI', 'SimHei', 'Segoe UI', 'DejaVu Sans', sans-serif; text-anchor: middle; fill: #0b7d72" x="114.12" y="266.79125" transform="rotate(-0 114.12 266.79125)">1980s</text>
   </g>
   <g id="patch_10">
    <path d="M 251.64 241.2 
C 253.931355 241.2 256.12917 240.289635 257.749403 238.669403 
C 259.369635 237.04917 260.28 234.851355 260.28 232.56 
C 260.28 230.268645 259.369635 228.07083 257.749403 226.450597 
C 256.12917 224.830365 253.931355 223.92 251.64 223.92 
C 249.348645 223.92 247.15083 224.830365 245.530597 226.450597 
C 243.910365 228.07083 243 230.268645 243 232.56 
C 243 234.851355 243.910365 237.04917 245.530597 238.669403 
C 247.15083 240.289635 249.348645 241.2 251.64 241.2 
z
" clip-path="url(#p69d43f6bc8)" style="fill: #46196b; stroke: #ffffff; stroke-width: 1.6; stroke-linejoin: miter"/>
   </g>
   <g id="text_27">
    <text style="font-weight: 700; font-size: 14px; font-family: 'Microsoft YaHei', 'Microsoft YaHei UI', 'SimHei', 'Segoe UI', 'DejaVu Sans', sans-serif; text-anchor: middle; fill: #46196b" x="251.64" y="207.479687" transform="rotate(-0 251.64 207.479687)">1986</text>
   </g>
   <g id="patch_11">
    <path d="M 389.16 241.2 
C 391.451355 241.2 393.64917 240.289635 395.269403 238.669403 
C 396.889635 237.04917 397.8 234.851355 397.8 232.56 
C 397.8 230.268645 396.889635 228.07083 395.269403 226.450597 
C 393.64917 224.830365 391.451355 223.92 389.16 223.92 
C 386.868645 223.92 384.67083 224.830365 383.050597 226.450597 
C 381.430365 228.07083 380.52 230.268645 380.52 232.56 
C 380.52 234.851355 381.430365 237.04917 383.050597 238.669403 
C 384.67083 240.289635 386.868645 241.2 389.16 241.2 
z
" clip-path="url(#p69d43f6bc8)" style="fill: #d14e0a; stroke: #ffffff; stroke-width: 1.6; stroke-linejoin: miter"/>
   </g>
   <g id="text_28">
    <text style="font-weight: 700; font-size: 14px; font-family: 'Microsoft YaHei', 'Microsoft YaHei UI', 'SimHei', 'Segoe UI', 'DejaVu Sans', sans-serif; text-anchor: middle; fill: #d14e0a" x="389.16" y="266.79125" transform="rotate(-0 389.16 266.79125)">1995–2005</text>
   </g>
   <g id="patch_12">
    <path d="M 526.68 241.2 
C 528.971355 241.2 531.16917 240.289635 532.789403 238.669403 
C 534.409635 237.04917 535.32 234.851355 535.32 232.56 
C 535.32 230.268645 534.409635 228.07083 532.789403 226.450597 
C 531.16917 224.830365 528.971355 223.92 526.68 223.92 
C 524.388645 223.92 522.19083 224.830365 520.570597 226.450597 
C 518.950365 228.07083 518.04 230.268645 518.04 232.56 
C 518.04 234.851355 518.950365 237.04917 520.570597 238.669403 
C 522.19083 240.289635 524.388645 241.2 526.68 241.2 
z
" clip-path="url(#p69d43f6bc8)" style="fill: #be1e1e; stroke: #ffffff; stroke-width: 1.6; stroke-linejoin: miter"/>
   </g>
   <g id="text_29">
    <text style="font-weight: 700; font-size: 14px; font-family: 'Microsoft YaHei', 'Microsoft YaHei UI', 'SimHei', 'Segoe UI', 'DejaVu Sans', sans-serif; text-anchor: middle; fill: #be1e1e" x="526.68" y="207.479687" transform="rotate(-0 526.68 207.479687)">2000s</text>
   </g>
   <g id="patch_13">
    <path d="M 664.2 241.2 
C 666.491355 241.2 668.68917 240.289635 670.309403 238.669403 
C 671.929635 237.04917 672.84 234.851355 672.84 232.56 
C 672.84 230.268645 671.929635 228.07083 670.309403 226.450597 
C 668.68917 224.830365 666.491355 223.92 664.2 223.92 
C 661.908645 223.92 659.71083 224.830365 658.090597 226.450597 
C 656.470365 228.07083 655.56 230.268645 655.56 232.56 
C 655.56 234.851355 656.470365 237.04917 658.090597 238.669403 
C 659.71083 240.289635 661.908645 241.2 664.2 241.2 
z
" clip-path="url(#p69d43f6bc8)" style="fill: #1e50c8; stroke: #ffffff; stroke-width: 1.6; stroke-linejoin: miter"/>
   </g>
   <g id="text_30">
    <text style="font-weight: 700; font-size: 14px; font-family: 'Microsoft YaHei', 'Microsoft YaHei UI', 'SimHei', 'Segoe UI', 'DejaVu Sans', sans-serif; text-anchor: middle; fill: #1e50c8" x="664.2" y="266.79125" transform="rotate(-0 664.2 266.79125)">工业</text>
   </g>
  </g>
 </g>
 <defs>
  <clipPath id="p69d43f6bc8">
   <rect x="5.76" y="5.76" width="763.2" height="475.2"/>
  </clipPath>
 </defs>
</svg>
