<?xml version="1.0" encoding="utf-8" standalone="no"?>
<!DOCTYPE svg PUBLIC "-//W3C//DTD SVG 1.1//EN"
  "http://www.w3.org/Graphics/SVG/1.1/DTD/svg11.dtd">
<svg xmlns:xlink="http://www.w3.org/1999/xlink" width="688.32pt" height="544.32pt" viewBox="0 0 688.32 544.32" xmlns="http://www.w3.org/2000/svg" version="1.1">
 <metadata>
  <rdf:RDF xmlns:dc="http://purl.org/dc/elements/1.1/" xmlns:cc="http://creativecommons.org/ns#" xmlns:rdf="http://www.w3.org/1999/02/22-rdf-syntax-ns#">
   <cc:Work>
    <dc:type rdf:resource="http://purl.org/dc/dcmitype/StillImage"/>
    <dc:date>2026-06-25T07:16:05.359290</dc:date>
    <dc:format>image/svg+xml</dc:format>
    <dc:creator>
     <cc:Agent>
      <dc:title>Matplotlib v3.10.8, https://matplotlib.org/</dc:title>
     </cc:Agent>
    </dc:creator>
   </cc:Work>
  </rdf:RDF>
 </metadata>
 <defs>
  <style type="text/css">*{stroke-linejoin: round; stroke-linecap: butt}</style>
 </defs>
 <g id="figure_1">
  <g id="patch_1">
   <path d="M 0 544.32 
L 688.32 544.32 
L 688.32 0 
L 0 0 
z
" style="fill: #ffffff"/>
  </g>
  <g id="axes_1">
   <g id="patch_2">
    <path d="M 5.76 538.56 
L 682.56 538.56 
L 682.56 5.76 
L 5.76 5.76 
z
" clip-path="url(#peae09d52ad)" style="fill: #ffffff"/>
   </g>
   <g id="patch_3">
    <path d="M 41.76 416.16 
L 329.76 416.16 
L 329.76 84.96 
L 41.76 84.96 
z
" clip-path="url(#peae09d52ad)" style="fill: #ffffff; stroke: #3a4252; stroke-width: 2; stroke-linejoin: miter"/>
   </g>
   <g id="patch_4">
    <path d="M 47.52 516.96 
L 648 516.96 
Q 653.76 516.96 653.76 511.2 
L 653.76 472.32 
Q 653.76 466.56 648 466.56 
L 47.52 466.56 
Q 41.76 466.56 41.76 472.32 
L 41.76 511.2 
Q 41.76 516.96 47.52 516.96 
z
" clip-path="url(#peae09d52ad)" style="fill: #edf0f4; stroke: #c7cdd6; stroke-width: 1.2; stroke-linejoin: miter"/>
   </g>
   <g id="text_1">
    <text style="font-weight: 700; font-size: 19px; font-family: 'Microsoft YaHei', 'Microsoft YaHei UI', 'SimHei', 'Segoe UI', 'DejaVu Sans', sans-serif; text-anchor: start; fill: #1a1f2b" x="34.56" y="36.192422" transform="rotate(-0 34.56 36.192422)">切片布图 · 切片树 · Polish 表达式</text>
   </g>
   <g id="text_2">
    <text style="font-size: 15px; font-family: 'Microsoft YaHei', 'Microsoft YaHei UI', 'SimHei', 'Segoe UI', 'DejaVu Sans', sans-serif; text-anchor: start; fill: #3a4252" x="41.76" y="442.550625" transform="rotate(-0 41.76 442.550625)">切片布图（每刀贯穿子区域）</text>
   </g>
   <g id="line2d_1">
    <path d="M 524.16 120.24 
L 452.16 154.08 
" clip-path="url(#peae09d52ad)" style="fill: none; stroke: #3a4252; stroke-width: 1.6; stroke-linecap: round"/>
   </g>
   <g id="line2d_2">
    <path d="M 524.16 120.24 
L 603.36 154.08 
" clip-path="url(#peae09d52ad)" style="fill: none; stroke: #3a4252; stroke-width: 1.6; stroke-linecap: round"/>
   </g>
   <g id="line2d_3">
    <path d="M 452.16 203.04 
L 405.36 242.64 
" clip-path="url(#peae09d52ad)" style="fill: none; stroke: #3a4252; stroke-width: 1.6; stroke-linecap: round"/>
   </g>
   <g id="line2d_4">
    <path d="M 452.16 203.04 
L 502.56 240.48 
" clip-path="url(#peae09d52ad)" style="fill: none; stroke: #3a4252; stroke-width: 1.6; stroke-linecap: round"/>
   </g>
   <g id="line2d_5">
    <path d="M 502.56 289.44 
L 470.16 325.44 
" clip-path="url(#peae09d52ad)" style="fill: none; stroke: #3a4252; stroke-width: 1.6; stroke-linecap: round"/>
   </g>
   <g id="line2d_6">
    <path d="M 502.56 289.44 
L 534.96 325.44 
" clip-path="url(#peae09d52ad)" style="fill: none; stroke: #3a4252; stroke-width: 1.6; stroke-linecap: round"/>
   </g>
   <g id="line2d_7">
    <path d="M 603.36 203.04 
L 578.16 242.64 
" clip-path="url(#peae09d52ad)" style="fill: none; stroke: #3a4252; stroke-width: 1.6; stroke-linecap: round"/>
   </g>
   <g id="line2d_8">
    <path d="M 603.36 203.04 
L 635.76 242.64 
" clip-path="url(#peae09d52ad)" style="fill: none; stroke: #3a4252; stroke-width: 1.6; stroke-linecap: round"/>
   </g>
   <g id="text_3">
    <text style="font-size: 14px; font-family: 'Microsoft YaHei', 'Microsoft YaHei UI', 'SimHei', 'Segoe UI', 'DejaVu Sans', sans-serif; text-anchor: start; fill: #3a4252" x="387.36" y="398.16" transform="rotate(-0 387.36 398.16)">内部节点=割（V/H） · 叶=模块</text>
   </g>
   <g id="line2d_9">
    <path d="M 41.76 250.56 
L 329.76 250.56 
" clip-path="url(#peae09d52ad)" style="fill: none; stroke: #be1e1e; stroke-width: 2.4; stroke-linecap: round"/>
   </g>
   <g id="line2d_10">
    <path d="M 162.72 250.56 
L 162.72 84.96 
" clip-path="url(#peae09d52ad)" style="fill: none; stroke: #7e2e07; stroke-width: 2.2; stroke-linecap: round"/>
   </g>
   <g id="line2d_11">
    <path d="M 162.72 167.76 
L 329.76 167.76 
" clip-path="url(#peae09d52ad)" style="fill: none; stroke: #be1e1e; stroke-width: 2; stroke-linecap: round"/>
   </g>
   <g id="line2d_12">
    <path d="M 185.76 416.16 
L 185.76 250.56 
" clip-path="url(#peae09d52ad)" style="fill: none; stroke: #7e2e07; stroke-width: 2.2; stroke-linecap: round"/>
   </g>
   <g id="text_4">
    <text style="font-weight: 700; font-size: 17px; font-family: 'Microsoft YaHei', 'Microsoft YaHei UI', 'SimHei', 'Segoe UI', 'DejaVu Sans', sans-serif; text-anchor: start; fill: #1a1f2b" x="57.6" y="496.441641" transform="rotate(-0 57.6 496.441641)">Polish =</text>
   </g>
   <g id="text_5">
    <text style="font-weight: 700; font-size: 17px; font-family: 'Consolas', 'Cascadia Mono', 'Courier New', 'DejaVu Sans Mono', monospace; text-anchor: start; fill: #2c0e48" x="174.96" y="495.976797" transform="rotate(-0 174.96 495.976797)">1 2 5 H V 3 4 V H</text>
   </g>
   <g id="text_6">
    <text style="font-size: 13px; font-family: 'Microsoft YaHei', 'Microsoft YaHei UI', 'SimHei', 'Segoe UI', 'DejaVu Sans', sans-serif; text-anchor: start; fill: #084a43" x="480.96" y="495.340078" transform="rotate(-0 480.96 495.340078)">(规范化：长 2n-1，无连续同号)</text>
   </g>
   <g id="text_7">
    <text style="font-weight: 700; font-size: 19px; font-family: 'Microsoft YaHei', 'Microsoft YaHei UI', 'SimHei', 'Segoe UI', 'DejaVu Sans', sans-serif; text-anchor: middle; fill: #46196b" x="102.24" y="172.992422" transform="rotate(-0 102.24 172.992422)">1</text>
   </g>
   <g id="text_8">
    <text style="font-weight: 700; font-size: 19px; font-family: 'Microsoft YaHei', 'Microsoft YaHei UI', 'SimHei', 'Segoe UI', 'DejaVu Sans', sans-serif; text-anchor: middle; fill: #0b7d72" x="246.24" y="131.592422" transform="rotate(-0 246.24 131.592422)">2</text>
   </g>
   <g id="text_9">
    <text style="font-weight: 700; font-size: 19px; font-family: 'Microsoft YaHei', 'Microsoft YaHei UI', 'SimHei', 'Segoe UI', 'DejaVu Sans', sans-serif; text-anchor: middle; fill: #0b7d72" x="246.24" y="214.392422" transform="rotate(-0 246.24 214.392422)">5</text>
   </g>
   <g id="text_10">
    <text style="font-weight: 700; font-size: 19px; font-family: 'Microsoft YaHei', 'Microsoft YaHei UI', 'SimHei', 'Segoe UI', 'DejaVu Sans', sans-serif; text-anchor: middle; fill: #d14e0a" x="113.76" y="338.592422" transform="rotate(-0 113.76 338.592422)">3</text>
   </g>
   <g id="text_11">
    <text style="font-weight: 700; font-size: 19px; font-family: 'Microsoft YaHei', 'Microsoft YaHei UI', 'SimHei', 'Segoe UI', 'DejaVu Sans', sans-serif; text-anchor: middle; fill: #d14e0a" x="257.76" y="338.592422" transform="rotate(-0 257.76 338.592422)">4</text>
   </g>
   <g id="line2d_13">
    <path d="M 45.36 457.92 
L 66.96 457.92 
" clip-path="url(#peae09d52ad)" style="fill: none; stroke: #be1e1e; stroke-width: 3; stroke-linecap: round"/>
   </g>
   <g id="text_12">
    <text style="font-size: 14px; font-family: 'Microsoft YaHei', 'Microsoft YaHei UI', 'SimHei', 'Segoe UI', 'DejaVu Sans', sans-serif; text-anchor: start; fill: #7e1414" x="74.16" y="461.775469" transform="rotate(-0 74.16 461.775469)">H 横割（上下）</text>
   </g>
   <g id="line2d_14">
    <path d="M 203.76 457.92 
L 225.36 457.92 
" clip-path="url(#peae09d52ad)" style="fill: none; stroke: #7e2e07; stroke-width: 3; stroke-linecap: round"/>
   </g>
   <g id="text_13">
    <text style="font-size: 14px; font-family: 'Microsoft YaHei', 'Microsoft YaHei UI', 'SimHei', 'Segoe UI', 'DejaVu Sans', sans-serif; text-anchor: start; fill: #7e2e07" x="232.56" y="461.775469" transform="rotate(-0 232.56 461.775469)">V 竖割（左右）</text>
   </g>
   <g id="patch_5">
    <path d="M 524.16 120.24 
C 530.652172 120.24 536.879315 117.660633 541.469974 113.069974 
C 546.060633 108.479315 548.64 102.252172 548.64 95.76 
C 548.64 89.267828 546.060633 83.040685 541.469974 78.450026 
C 536.879315 73.859367 530.652172 71.28 524.16 71.28 
C 517.667828 71.28 511.440685 73.859367 506.850026 78.450026 
C 502.259367 83.040685 499.68 89.267828 499.68 95.76 
C 499.68 102.252172 502.259367 108.479315 506.850026 113.069974 
C 511.440685 117.660633 517.667828 120.24 524.16 120.24 
z
" clip-path="url(#peae09d52ad)" style="fill: #be1e1e; stroke: #ffffff; stroke-width: 1.5; stroke-linejoin: miter"/>
   </g>
   <g id="patch_6">
    <path d="M 452.16 203.04 
C 458.652172 203.04 464.879315 200.460633 469.469974 195.869974 
C 474.060633 191.279315 476.64 185.052172 476.64 178.56 
C 476.64 172.067828 474.060633 165.840685 469.469974 161.250026 
C 464.879315 156.659367 458.652172 154.08 452.16 154.08 
C 445.667828 154.08 439.440685 156.659367 434.850026 161.250026 
C 430.259367 165.840685 427.68 172.067828 427.68 178.56 
C 427.68 185.052172 430.259367 191.279315 434.850026 195.869974 
C 439.440685 200.460633 445.667828 203.04 452.16 203.04 
z
" clip-path="url(#peae09d52ad)" style="fill: #d14e0a; stroke: #ffffff; stroke-width: 1.5; stroke-linejoin: miter"/>
   </g>
   <g id="patch_7">
    <path d="M 603.36 203.04 
C 609.852172 203.04 616.079315 200.460633 620.669974 195.869974 
C 625.260633 191.279315 627.84 185.052172 627.84 178.56 
C 627.84 172.067828 625.260633 165.840685 620.669974 161.250026 
C 616.079315 156.659367 609.852172 154.08 603.36 154.08 
C 596.867828 154.08 590.640685 156.659367 586.050026 161.250026 
C 581.459367 165.840685 578.88 172.067828 578.88 178.56 
C 578.88 185.052172 581.459367 191.279315 586.050026 195.869974 
C 590.640685 200.460633 596.867828 203.04 603.36 203.04 
z
" clip-path="url(#peae09d52ad)" style="fill: #d14e0a; stroke: #ffffff; stroke-width: 1.5; stroke-linejoin: miter"/>
   </g>
   <g id="patch_8">
    <path d="M 388.08 287.28 
L 422.64 287.28 
Q 427.68 287.28 427.68 282.24 
L 427.68 247.68 
Q 427.68 242.64 422.64 242.64 
L 388.08 242.64 
Q 383.04 242.64 383.04 247.68 
L 383.04 282.24 
Q 383.04 287.28 388.08 287.28 
z
" clip-path="url(#peae09d52ad)" style="fill: #d4c2e5; stroke: #46196b; stroke-width: 1.6; stroke-linejoin: miter"/>
   </g>
   <g id="patch_9">
    <path d="M 502.56 289.44 
C 509.052172 289.44 515.279315 286.860633 519.869974 282.269974 
C 524.460633 277.679315 527.04 271.452172 527.04 264.96 
C 527.04 258.467828 524.460633 252.240685 519.869974 247.650026 
C 515.279315 243.059367 509.052172 240.48 502.56 240.48 
C 496.067828 240.48 489.840685 243.059367 485.250026 247.650026 
C 480.659367 252.240685 478.08 258.467828 478.08 264.96 
C 478.08 271.452172 480.659367 277.679315 485.250026 282.269974 
C 489.840685 286.860633 496.067828 289.44 502.56 289.44 
z
" clip-path="url(#peae09d52ad)" style="fill: #be1e1e; stroke: #ffffff; stroke-width: 1.5; stroke-linejoin: miter"/>
   </g>
   <g id="patch_10">
    <path d="M 452.88 370.08 
L 487.44 370.08 
Q 492.48 370.08 492.48 365.04 
L 492.48 330.48 
Q 492.48 325.44 487.44 325.44 
L 452.88 325.44 
Q 447.84 325.44 447.84 330.48 
L 447.84 365.04 
Q 447.84 370.08 452.88 370.08 
z
" clip-path="url(#peae09d52ad)" style="fill: #9fe2d4; stroke: #0b7d72; stroke-width: 1.6; stroke-linejoin: miter"/>
   </g>
   <g id="patch_11">
    <path d="M 517.68 370.08 
L 552.24 370.08 
Q 557.28 370.08 557.28 365.04 
L 557.28 330.48 
Q 557.28 325.44 552.24 325.44 
L 517.68 325.44 
Q 512.64 325.44 512.64 330.48 
L 512.64 365.04 
Q 512.64 370.08 517.68 370.08 
z
" clip-path="url(#peae09d52ad)" style="fill: #9fe2d4; stroke: #0b7d72; stroke-width: 1.6; stroke-linejoin: miter"/>
   </g>
   <g id="patch_12">
    <path d="M 560.88 287.28 
L 595.44 287.28 
Q 600.48 287.28 600.48 282.24 
L 600.48 247.68 
Q 600.48 242.64 595.44 242.64 
L 560.88 242.64 
Q 555.84 242.64 555.84 247.68 
L 555.84 282.24 
Q 555.84 287.28 560.88 287.28 
z
" clip-path="url(#peae09d52ad)" style="fill: #f6cd9e; stroke: #d14e0a; stroke-width: 1.6; stroke-linejoin: miter"/>
   </g>
   <g id="patch_13">
    <path d="M 618.48 287.28 
L 653.04 287.28 
Q 658.08 287.28 658.08 282.24 
L 658.08 247.68 
Q 658.08 242.64 653.04 242.64 
L 618.48 242.64 
Q 613.44 242.64 613.44 247.68 
L 613.44 282.24 
Q 613.44 287.28 618.48 287.28 
z
" clip-path="url(#peae09d52ad)" style="fill: #f6cd9e; stroke: #d14e0a; stroke-width: 1.6; stroke-linejoin: miter"/>
   </g>
   <g id="text_14">
    <text style="font-weight: 700; font-size: 17px; font-family: 'Microsoft YaHei', 'Microsoft YaHei UI', 'SimHei', 'Segoe UI', 'DejaVu Sans', sans-serif; text-anchor: middle; fill: #ffffff" x="524.16" y="100.441641" transform="rotate(-0 524.16 100.441641)">H</text>
   </g>
   <g id="text_15">
    <text style="font-weight: 700; font-size: 17px; font-family: 'Microsoft YaHei', 'Microsoft YaHei UI', 'SimHei', 'Segoe UI', 'DejaVu Sans', sans-serif; text-anchor: middle; fill: #ffffff" x="452.16" y="183.241641" transform="rotate(-0 452.16 183.241641)">V</text>
   </g>
   <g id="text_16">
    <text style="font-weight: 700; font-size: 17px; font-family: 'Microsoft YaHei', 'Microsoft YaHei UI', 'SimHei', 'Segoe UI', 'DejaVu Sans', sans-serif; text-anchor: middle; fill: #ffffff" x="603.36" y="183.241641" transform="rotate(-0 603.36 183.241641)">V</text>
   </g>
   <g id="text_17">
    <text style="font-weight: 700; font-size: 17px; font-family: 'Microsoft YaHei', 'Microsoft YaHei UI', 'SimHei', 'Segoe UI', 'DejaVu Sans', sans-serif; text-anchor: middle; fill: #46196b" x="405.36" y="269.641641" transform="rotate(-0 405.36 269.641641)">1</text>
   </g>
   <g id="text_18">
    <text style="font-weight: 700; font-size: 17px; font-family: 'Microsoft YaHei', 'Microsoft YaHei UI', 'SimHei', 'Segoe UI', 'DejaVu Sans', sans-serif; text-anchor: middle; fill: #ffffff" x="502.56" y="269.641641" transform="rotate(-0 502.56 269.641641)">H</text>
   </g>
   <g id="text_19">
    <text style="font-weight: 700; font-size: 17px; font-family: 'Microsoft YaHei', 'Microsoft YaHei UI', 'SimHei', 'Segoe UI', 'DejaVu Sans', sans-serif; text-anchor: middle; fill: #0b7d72" x="470.16" y="352.441641" transform="rotate(-0 470.16 352.441641)">2</text>
   </g>
   <g id="text_20">
    <text style="font-weight: 700; font-size: 17px; font-family: 'Microsoft YaHei', 'Microsoft YaHei UI', 'SimHei', 'Segoe UI', 'DejaVu Sans', sans-serif; text-anchor: middle; fill: #0b7d72" x="534.96" y="352.441641" transform="rotate(-0 534.96 352.441641)">5</text>
   </g>
   <g id="text_21">
    <text style="font-weight: 700; font-size: 17px; font-family: 'Microsoft YaHei', 'Microsoft YaHei UI', 'SimHei', 'Segoe UI', 'DejaVu Sans', sans-serif; text-anchor: middle; fill: #d14e0a" x="578.16" y="269.641641" transform="rotate(-0 578.16 269.641641)">3</text>
   </g>
   <g id="text_22">
    <text style="font-weight: 700; font-size: 17px; font-family: 'Microsoft YaHei', 'Microsoft YaHei UI', 'SimHei', 'Segoe UI', 'DejaVu Sans', sans-serif; text-anchor: middle; fill: #d14e0a" x="635.76" y="269.641641" transform="rotate(-0 635.76 269.641641)">4</text>
   </g>
  </g>
 </g>
 <defs>
  <clipPath id="peae09d52ad">
   <rect x="5.76" y="5.76" width="676.8" height="532.8"/>
  </clipPath>
 </defs>
</svg>
