<?xml version="1.0" encoding="utf-8" standalone="no"?>
<!DOCTYPE svg PUBLIC "-//W3C//DTD SVG 1.1//EN"
  "http://www.w3.org/Graphics/SVG/1.1/DTD/svg11.dtd">
<svg xmlns:xlink="http://www.w3.org/1999/xlink" width="745.92pt" height="436.32pt" viewBox="0 0 745.92 436.32" xmlns="http://www.w3.org/2000/svg" version="1.1">
 <metadata>
  <rdf:RDF xmlns:dc="http://purl.org/dc/elements/1.1/" xmlns:cc="http://creativecommons.org/ns#" xmlns:rdf="http://www.w3.org/1999/02/22-rdf-syntax-ns#">
   <cc:Work>
    <dc:type rdf:resource="http://purl.org/dc/dcmitype/StillImage"/>
    <dc:date>2026-06-25T07:16:05.451425</dc:date>
    <dc:format>image/svg+xml</dc:format>
    <dc:creator>
     <cc:Agent>
      <dc:title>Matplotlib v3.10.8, https://matplotlib.org/</dc:title>
     </cc:Agent>
    </dc:creator>
   </cc:Work>
  </rdf:RDF>
 </metadata>
 <defs>
  <style type="text/css">*{stroke-linejoin: round; stroke-linecap: butt}</style>
 </defs>
 <g id="figure_1">
  <g id="patch_1">
   <path d="M 0 436.32 
L 745.92 436.32 
L 745.92 0 
L 0 0 
z
" style="fill: #ffffff"/>
  </g>
  <g id="axes_1">
   <g id="patch_2">
    <path d="M 5.76 430.56 
L 740.16 430.56 
L 740.16 5.76 
L 5.76 5.76 
z
" clip-path="url(#p6e9ae3e410)" style="fill: #ffffff"/>
   </g>
   <g id="text_1">
    <text style="font-weight: 700; font-size: 19px; font-family: 'Microsoft YaHei', 'Microsoft YaHei UI', 'SimHei', 'Segoe UI', 'DejaVu Sans', sans-serif; text-anchor: start; fill: #1a1f2b" x="34.56" y="32.9175" transform="rotate(-0 34.56 32.9175)">Stockmeyer 形状曲线合并（软块 / 可旋转块面积最优）</text>
   </g>
   <g id="line2d_1">
    <path d="M 48.96 374.4 
L 243.36 374.4 
" clip-path="url(#p6e9ae3e410)" style="fill: none; stroke: #3a4252; stroke-width: 1.5; stroke-linecap: round"/>
   </g>
   <g id="line2d_2">
    <path d="M 48.96 374.4 
L 48.96 180 
" clip-path="url(#p6e9ae3e410)" style="fill: none; stroke: #3a4252; stroke-width: 1.5; stroke-linecap: round"/>
   </g>
   <g id="text_2">
    <text style="font-size: 14px; font-family: 'Microsoft YaHei', 'Microsoft YaHei UI', 'SimHei', 'Segoe UI', 'DejaVu Sans', sans-serif; text-anchor: start; fill: #3a4252" x="246.96" y="378.255469" transform="rotate(-0 246.96 378.255469)">w</text>
   </g>
   <g id="text_3">
    <text style="font-size: 14px; font-family: 'Microsoft YaHei', 'Microsoft YaHei UI', 'SimHei', 'Segoe UI', 'DejaVu Sans', sans-serif; text-anchor: end; fill: #3a4252" x="44.64" y="183.855469" transform="rotate(-0 44.64 183.855469)">h</text>
   </g>
   <g id="text_4">
    <text style="font-weight: 700; font-size: 15px; font-family: 'Microsoft YaHei', 'Microsoft YaHei UI', 'SimHei', 'Segoe UI', 'DejaVu Sans', sans-serif; text-anchor: start; fill: #1a1f2b" x="48.96" y="90.530859" transform="rotate(-0 48.96 90.530859)">两子块曲线 C(u1) · C(u2)</text>
   </g>
   <g id="line2d_3">
    <path d="M 282.96 374.4 
L 477.36 374.4 
" clip-path="url(#p6e9ae3e410)" style="fill: none; stroke: #3a4252; stroke-width: 1.5; stroke-linecap: round"/>
   </g>
   <g id="line2d_4">
    <path d="M 282.96 374.4 
L 282.96 180 
" clip-path="url(#p6e9ae3e410)" style="fill: none; stroke: #3a4252; stroke-width: 1.5; stroke-linecap: round"/>
   </g>
   <g id="text_5">
    <text style="font-size: 14px; font-family: 'Microsoft YaHei', 'Microsoft YaHei UI', 'SimHei', 'Segoe UI', 'DejaVu Sans', sans-serif; text-anchor: start; fill: #3a4252" x="480.96" y="378.255469" transform="rotate(-0 480.96 378.255469)">w</text>
   </g>
   <g id="text_6">
    <text style="font-size: 14px; font-family: 'Microsoft YaHei', 'Microsoft YaHei UI', 'SimHei', 'Segoe UI', 'DejaVu Sans', sans-serif; text-anchor: end; fill: #3a4252" x="278.64" y="183.855469" transform="rotate(-0 278.64 183.855469)">h</text>
   </g>
   <g id="text_7">
    <text style="font-weight: 700; font-size: 15px; font-family: 'Microsoft YaHei', 'Microsoft YaHei UI', 'SimHei', 'Segoe UI', 'DejaVu Sans', sans-serif; text-anchor: start; fill: #7e2e07" x="282.96" y="90.530859" transform="rotate(-0 282.96 90.530859)">V 割：左右并排 → 宽相加</text>
   </g>
   <g id="line2d_5">
    <path d="M 315.36 277.2 
L 347.76 277.2 
" clip-path="url(#p6e9ae3e410)" style="fill: none; stroke: #c7cdd6; stroke-width: 1.4; stroke-linecap: round"/>
   </g>
   <g id="line2d_6">
    <path d="M 347.76 277.2 
L 347.76 309.6 
" clip-path="url(#p6e9ae3e410)" style="fill: none; stroke: #c7cdd6; stroke-width: 1.4; stroke-linecap: round"/>
   </g>
   <g id="line2d_7">
    <path d="M 347.76 309.6 
L 380.16 309.6 
" clip-path="url(#p6e9ae3e410)" style="fill: none; stroke: #c7cdd6; stroke-width: 1.4; stroke-linecap: round"/>
   </g>
   <g id="line2d_8">
    <path d="M 380.16 309.6 
L 380.16 342 
" clip-path="url(#p6e9ae3e410)" style="fill: none; stroke: #c7cdd6; stroke-width: 1.4; stroke-linecap: round"/>
   </g>
   <g id="line2d_9">
    <path d="M 315.36 309.6 
L 347.76 309.6 
" clip-path="url(#p6e9ae3e410)" style="fill: none; stroke: #c7cdd6; stroke-width: 1.4; stroke-linecap: round"/>
   </g>
   <g id="line2d_10">
    <path d="M 347.76 309.6 
L 347.76 342 
" clip-path="url(#p6e9ae3e410)" style="fill: none; stroke: #c7cdd6; stroke-width: 1.4; stroke-linecap: round"/>
   </g>
   <g id="line2d_11">
    <path d="M 516.96 374.4 
L 711.36 374.4 
" clip-path="url(#p6e9ae3e410)" style="fill: none; stroke: #3a4252; stroke-width: 1.5; stroke-linecap: round"/>
   </g>
   <g id="line2d_12">
    <path d="M 516.96 374.4 
L 516.96 180 
" clip-path="url(#p6e9ae3e410)" style="fill: none; stroke: #3a4252; stroke-width: 1.5; stroke-linecap: round"/>
   </g>
   <g id="text_8">
    <text style="font-size: 14px; font-family: 'Microsoft YaHei', 'Microsoft YaHei UI', 'SimHei', 'Segoe UI', 'DejaVu Sans', sans-serif; text-anchor: start; fill: #3a4252" x="714.96" y="378.255469" transform="rotate(-0 714.96 378.255469)">w</text>
   </g>
   <g id="text_9">
    <text style="font-size: 14px; font-family: 'Microsoft YaHei', 'Microsoft YaHei UI', 'SimHei', 'Segoe UI', 'DejaVu Sans', sans-serif; text-anchor: end; fill: #3a4252" x="512.64" y="183.855469" transform="rotate(-0 512.64 183.855469)">h</text>
   </g>
   <g id="text_10">
    <text style="font-weight: 700; font-size: 15px; font-family: 'Microsoft YaHei', 'Microsoft YaHei UI', 'SimHei', 'Segoe UI', 'DejaVu Sans', sans-serif; text-anchor: start; fill: #7e1414" x="516.96" y="90.530859" transform="rotate(-0 516.96 90.530859)">H 割：上下叠放 → 高相加</text>
   </g>
   <g id="line2d_13">
    <path d="M 549.36 277.2 
L 581.76 277.2 
" clip-path="url(#p6e9ae3e410)" style="fill: none; stroke: #c7cdd6; stroke-width: 1.4; stroke-linecap: round"/>
   </g>
   <g id="line2d_14">
    <path d="M 581.76 277.2 
L 581.76 309.6 
" clip-path="url(#p6e9ae3e410)" style="fill: none; stroke: #c7cdd6; stroke-width: 1.4; stroke-linecap: round"/>
   </g>
   <g id="line2d_15">
    <path d="M 581.76 309.6 
L 614.16 309.6 
" clip-path="url(#p6e9ae3e410)" style="fill: none; stroke: #c7cdd6; stroke-width: 1.4; stroke-linecap: round"/>
   </g>
   <g id="line2d_16">
    <path d="M 614.16 309.6 
L 614.16 342 
" clip-path="url(#p6e9ae3e410)" style="fill: none; stroke: #c7cdd6; stroke-width: 1.4; stroke-linecap: round"/>
   </g>
   <g id="line2d_17">
    <path d="M 549.36 309.6 
L 581.76 309.6 
" clip-path="url(#p6e9ae3e410)" style="fill: none; stroke: #c7cdd6; stroke-width: 1.4; stroke-linecap: round"/>
   </g>
   <g id="line2d_18">
    <path d="M 581.76 309.6 
L 581.76 342 
" clip-path="url(#p6e9ae3e410)" style="fill: none; stroke: #c7cdd6; stroke-width: 1.4; stroke-linecap: round"/>
   </g>
   <g id="text_11">
    <text style="font-size: 14px; font-family: 'Microsoft YaHei', 'Microsoft YaHei UI', 'SimHei', 'Segoe UI', 'DejaVu Sans', sans-serif; text-anchor: start; fill: #6b7280" x="34.56" y="414.72" transform="rotate(-0 34.56 414.72)">形状曲线非增（宽增则高减）；沿切片树自底向上合并，取根曲线上面积最小点回溯定形（Shi：O(m log m)）</text>
   </g>
   <g id="line2d_19">
    <path d="M 81.36 277.2 
L 113.76 277.2 
" clip-path="url(#p6e9ae3e410)" style="fill: none; stroke: #46196b; stroke-width: 2.6; stroke-linecap: round"/>
   </g>
   <g id="line2d_20">
    <path d="M 113.76 277.2 
L 113.76 309.6 
" clip-path="url(#p6e9ae3e410)" style="fill: none; stroke: #46196b; stroke-width: 2.6; stroke-linecap: round"/>
   </g>
   <g id="line2d_21">
    <path d="M 113.76 309.6 
L 146.16 309.6 
" clip-path="url(#p6e9ae3e410)" style="fill: none; stroke: #46196b; stroke-width: 2.6; stroke-linecap: round"/>
   </g>
   <g id="line2d_22">
    <path d="M 146.16 309.6 
L 146.16 342 
" clip-path="url(#p6e9ae3e410)" style="fill: none; stroke: #46196b; stroke-width: 2.6; stroke-linecap: round"/>
   </g>
   <g id="line2d_23">
    <path d="M 81.36 309.6 
L 113.76 309.6 
" clip-path="url(#p6e9ae3e410)" style="fill: none; stroke: #0b7d72; stroke-width: 2.6; stroke-linecap: round"/>
   </g>
   <g id="line2d_24">
    <path d="M 113.76 309.6 
L 113.76 342 
" clip-path="url(#p6e9ae3e410)" style="fill: none; stroke: #0b7d72; stroke-width: 2.6; stroke-linecap: round"/>
   </g>
   <g id="line2d_25">
    <path d="M 347.76 277.2 
L 380.16 277.2 
" clip-path="url(#p6e9ae3e410)" style="fill: none; stroke: #d14e0a; stroke-width: 3; stroke-linecap: round"/>
   </g>
   <g id="line2d_26">
    <path d="M 380.16 277.2 
L 380.16 309.6 
" clip-path="url(#p6e9ae3e410)" style="fill: none; stroke: #d14e0a; stroke-width: 3; stroke-linecap: round"/>
   </g>
   <g id="line2d_27">
    <path d="M 380.16 309.6 
L 444.96 309.6 
" clip-path="url(#p6e9ae3e410)" style="fill: none; stroke: #d14e0a; stroke-width: 3; stroke-linecap: round"/>
   </g>
   <g id="line2d_28">
    <path d="M 444.96 309.6 
L 444.96 342 
" clip-path="url(#p6e9ae3e410)" style="fill: none; stroke: #d14e0a; stroke-width: 3; stroke-linecap: round"/>
   </g>
   <g id="line2d_29">
    <path d="M 549.36 212.4 
L 581.76 212.4 
" clip-path="url(#p6e9ae3e410)" style="fill: none; stroke: #be1e1e; stroke-width: 3; stroke-linecap: round"/>
   </g>
   <g id="line2d_30">
    <path d="M 581.76 212.4 
L 581.76 277.2 
" clip-path="url(#p6e9ae3e410)" style="fill: none; stroke: #be1e1e; stroke-width: 3; stroke-linecap: round"/>
   </g>
   <g id="line2d_31">
    <path d="M 581.76 277.2 
L 614.16 277.2 
" clip-path="url(#p6e9ae3e410)" style="fill: none; stroke: #be1e1e; stroke-width: 3; stroke-linecap: round"/>
   </g>
   <g id="line2d_32">
    <path d="M 614.16 277.2 
L 614.16 309.6 
" clip-path="url(#p6e9ae3e410)" style="fill: none; stroke: #be1e1e; stroke-width: 3; stroke-linecap: round"/>
   </g>
   <g id="patch_3">
    <path d="M 402.48 141.12 
L 432.72 141.12 
L 432.72 105.12 
L 402.48 105.12 
z
" clip-path="url(#p6e9ae3e410)" style="fill: #d4c2e5; stroke: #46196b; stroke-width: 1.3; stroke-linejoin: miter"/>
   </g>
   <g id="patch_4">
    <path d="M 432.72 141.12 
L 465.84 141.12 
L 465.84 108 
L 432.72 108 
z
" clip-path="url(#p6e9ae3e410)" style="fill: #9fe2d4; stroke: #0b7d72; stroke-width: 1.3; stroke-linejoin: miter"/>
   </g>
   <g id="patch_5">
    <path d="M 650.16 120.96 
L 686.16 120.96 
L 686.16 96.48 
L 650.16 96.48 
z
" clip-path="url(#p6e9ae3e410)" style="fill: #9fe2d4; stroke: #0b7d72; stroke-width: 1.3; stroke-linejoin: miter"/>
   </g>
   <g id="patch_6">
    <path d="M 650.16 145.44 
L 686.16 145.44 
L 686.16 120.96 
L 650.16 120.96 
z
" clip-path="url(#p6e9ae3e410)" style="fill: #d4c2e5; stroke: #46196b; stroke-width: 1.3; stroke-linejoin: miter"/>
   </g>
   <g id="patch_7">
    <path d="M 81.36 282.24 
C 82.696624 282.24 83.978683 281.708954 84.923818 280.763818 
C 85.868954 279.818683 86.4 278.536624 86.4 277.2 
C 86.4 275.863376 85.868954 274.581317 84.923818 273.636182 
C 83.978683 272.691046 82.696624 272.16 81.36 272.16 
C 80.023376 272.16 78.741317 272.691046 77.796182 273.636182 
C 76.851046 274.581317 76.32 275.863376 76.32 277.2 
C 76.32 278.536624 76.851046 279.818683 77.796182 280.763818 
C 78.741317 281.708954 80.023376 282.24 81.36 282.24 
z
" clip-path="url(#p6e9ae3e410)" style="fill: #46196b; stroke: #ffffff; stroke-width: 0.8; stroke-linejoin: miter"/>
   </g>
   <g id="patch_8">
    <path d="M 113.76 314.64 
C 115.096624 314.64 116.378683 314.108954 117.323818 313.163818 
C 118.268954 312.218683 118.8 310.936624 118.8 309.6 
C 118.8 308.263376 118.268954 306.981317 117.323818 306.036182 
C 116.378683 305.091046 115.096624 304.56 113.76 304.56 
C 112.423376 304.56 111.141317 305.091046 110.196182 306.036182 
C 109.251046 306.981317 108.72 308.263376 108.72 309.6 
C 108.72 310.936624 109.251046 312.218683 110.196182 313.163818 
C 111.141317 314.108954 112.423376 314.64 113.76 314.64 
z
" clip-path="url(#p6e9ae3e410)" style="fill: #46196b; stroke: #ffffff; stroke-width: 0.8; stroke-linejoin: miter"/>
   </g>
   <g id="patch_9">
    <path d="M 146.16 347.04 
C 147.496624 347.04 148.778683 346.508954 149.723818 345.563818 
C 150.668954 344.618683 151.2 343.336624 151.2 342 
C 151.2 340.663376 150.668954 339.381317 149.723818 338.436182 
C 148.778683 337.491046 147.496624 336.96 146.16 336.96 
C 144.823376 336.96 143.541317 337.491046 142.596182 338.436182 
C 141.651046 339.381317 141.12 340.663376 141.12 342 
C 141.12 343.336624 141.651046 344.618683 142.596182 345.563818 
C 143.541317 346.508954 144.823376 347.04 146.16 347.04 
z
" clip-path="url(#p6e9ae3e410)" style="fill: #46196b; stroke: #ffffff; stroke-width: 0.8; stroke-linejoin: miter"/>
   </g>
   <g id="patch_10">
    <path d="M 81.36 314.64 
C 82.696624 314.64 83.978683 314.108954 84.923818 313.163818 
C 85.868954 312.218683 86.4 310.936624 86.4 309.6 
C 86.4 308.263376 85.868954 306.981317 84.923818 306.036182 
C 83.978683 305.091046 82.696624 304.56 81.36 304.56 
C 80.023376 304.56 78.741317 305.091046 77.796182 306.036182 
C 76.851046 306.981317 76.32 308.263376 76.32 309.6 
C 76.32 310.936624 76.851046 312.218683 77.796182 313.163818 
C 78.741317 314.108954 80.023376 314.64 81.36 314.64 
z
" clip-path="url(#p6e9ae3e410)" style="fill: #0b7d72; stroke: #ffffff; stroke-width: 0.8; stroke-linejoin: miter"/>
   </g>
   <g id="patch_11">
    <path d="M 113.76 347.04 
C 115.096624 347.04 116.378683 346.508954 117.323818 345.563818 
C 118.268954 344.618683 118.8 343.336624 118.8 342 
C 118.8 340.663376 118.268954 339.381317 117.323818 338.436182 
C 116.378683 337.491046 115.096624 336.96 113.76 336.96 
C 112.423376 336.96 111.141317 337.491046 110.196182 338.436182 
C 109.251046 339.381317 108.72 340.663376 108.72 342 
C 108.72 343.336624 109.251046 344.618683 110.196182 345.563818 
C 111.141317 346.508954 112.423376 347.04 113.76 347.04 
z
" clip-path="url(#p6e9ae3e410)" style="fill: #0b7d72; stroke: #ffffff; stroke-width: 0.8; stroke-linejoin: miter"/>
   </g>
   <g id="patch_12">
    <path d="M 347.76 282.24 
C 349.096624 282.24 350.378683 281.708954 351.323818 280.763818 
C 352.268954 279.818683 352.8 278.536624 352.8 277.2 
C 352.8 275.863376 352.268954 274.581317 351.323818 273.636182 
C 350.378683 272.691046 349.096624 272.16 347.76 272.16 
C 346.423376 272.16 345.141317 272.691046 344.196182 273.636182 
C 343.251046 274.581317 342.72 275.863376 342.72 277.2 
C 342.72 278.536624 343.251046 279.818683 344.196182 280.763818 
C 345.141317 281.708954 346.423376 282.24 347.76 282.24 
z
" clip-path="url(#p6e9ae3e410)" style="fill: #d14e0a; stroke: #ffffff; stroke-width: 0.8; stroke-linejoin: miter"/>
   </g>
   <g id="patch_13">
    <path d="M 380.16 314.64 
C 381.496624 314.64 382.778683 314.108954 383.723818 313.163818 
C 384.668954 312.218683 385.2 310.936624 385.2 309.6 
C 385.2 308.263376 384.668954 306.981317 383.723818 306.036182 
C 382.778683 305.091046 381.496624 304.56 380.16 304.56 
C 378.823376 304.56 377.541317 305.091046 376.596182 306.036182 
C 375.651046 306.981317 375.12 308.263376 375.12 309.6 
C 375.12 310.936624 375.651046 312.218683 376.596182 313.163818 
C 377.541317 314.108954 378.823376 314.64 380.16 314.64 
z
" clip-path="url(#p6e9ae3e410)" style="fill: #d14e0a; stroke: #ffffff; stroke-width: 0.8; stroke-linejoin: miter"/>
   </g>
   <g id="patch_14">
    <path d="M 444.96 347.04 
C 446.296624 347.04 447.578683 346.508954 448.523818 345.563818 
C 449.468954 344.618683 450 343.336624 450 342 
C 450 340.663376 449.468954 339.381317 448.523818 338.436182 
C 447.578683 337.491046 446.296624 336.96 444.96 336.96 
C 443.623376 336.96 442.341317 337.491046 441.396182 338.436182 
C 440.451046 339.381317 439.92 340.663376 439.92 342 
C 439.92 343.336624 440.451046 344.618683 441.396182 345.563818 
C 442.341317 346.508954 443.623376 347.04 444.96 347.04 
z
" clip-path="url(#p6e9ae3e410)" style="fill: #d14e0a; stroke: #ffffff; stroke-width: 0.8; stroke-linejoin: miter"/>
   </g>
   <g id="patch_15">
    <path d="M 549.36 217.44 
C 550.696624 217.44 551.978683 216.908954 552.923818 215.963818 
C 553.868954 215.018683 554.4 213.736624 554.4 212.4 
C 554.4 211.063376 553.868954 209.781317 552.923818 208.836182 
C 551.978683 207.891046 550.696624 207.36 549.36 207.36 
C 548.023376 207.36 546.741317 207.891046 545.796182 208.836182 
C 544.851046 209.781317 544.32 211.063376 544.32 212.4 
C 544.32 213.736624 544.851046 215.018683 545.796182 215.963818 
C 546.741317 216.908954 548.023376 217.44 549.36 217.44 
z
" clip-path="url(#p6e9ae3e410)" style="fill: #be1e1e; stroke: #ffffff; stroke-width: 0.8; stroke-linejoin: miter"/>
   </g>
   <g id="patch_16">
    <path d="M 581.76 282.24 
C 583.096624 282.24 584.378683 281.708954 585.323818 280.763818 
C 586.268954 279.818683 586.8 278.536624 586.8 277.2 
C 586.8 275.863376 586.268954 274.581317 585.323818 273.636182 
C 584.378683 272.691046 583.096624 272.16 581.76 272.16 
C 580.423376 272.16 579.141317 272.691046 578.196182 273.636182 
C 577.251046 274.581317 576.72 275.863376 576.72 277.2 
C 576.72 278.536624 577.251046 279.818683 578.196182 280.763818 
C 579.141317 281.708954 580.423376 282.24 581.76 282.24 
z
" clip-path="url(#p6e9ae3e410)" style="fill: #be1e1e; stroke: #ffffff; stroke-width: 0.8; stroke-linejoin: miter"/>
   </g>
   <g id="patch_17">
    <path d="M 614.16 314.64 
C 615.496624 314.64 616.778683 314.108954 617.723818 313.163818 
C 618.668954 312.218683 619.2 310.936624 619.2 309.6 
C 619.2 308.263376 618.668954 306.981317 617.723818 306.036182 
C 616.778683 305.091046 615.496624 304.56 614.16 304.56 
C 612.823376 304.56 611.541317 305.091046 610.596182 306.036182 
C 609.651046 306.981317 609.12 308.263376 609.12 309.6 
C 609.12 310.936624 609.651046 312.218683 610.596182 313.163818 
C 611.541317 314.108954 612.823376 314.64 614.16 314.64 
z
" clip-path="url(#p6e9ae3e410)" style="fill: #be1e1e; stroke: #ffffff; stroke-width: 0.8; stroke-linejoin: miter"/>
   </g>
   <g id="text_12">
    <text style="font-weight: 700; font-size: 14px; font-family: 'Microsoft YaHei', 'Microsoft YaHei UI', 'SimHei', 'Segoe UI', 'DejaVu Sans', sans-serif; text-anchor: start; fill: #2c0e48" x="79.92" y="261.36" transform="rotate(-0 79.92 261.36)">u1</text>
   </g>
   <g id="text_13">
    <text style="font-weight: 700; font-size: 14px; font-family: 'Microsoft YaHei', 'Microsoft YaHei UI', 'SimHei', 'Segoe UI', 'DejaVu Sans', sans-serif; text-anchor: start; fill: #084a43" x="122.4" y="342" transform="rotate(-0 122.4 342)">u2</text>
   </g>
  </g>
 </g>
 <defs>
  <clipPath id="p6e9ae3e410">
   <rect x="5.76" y="5.76" width="734.4" height="424.8"/>
  </clipPath>
 </defs>
</svg>
